<?xml version="1.0" standalone="no"?>
<!DOCTYPE svg PUBLIC "-//W3C//DTD SVG 20010904//EN"
 "http://www.w3.org/TR/2001/REC-SVG-20010904/DTD/svg10.dtd">
<svg version="1.0" xmlns="http://www.w3.org/2000/svg"
 width="2052.000000pt" height="2052.000000pt" viewBox="0 0 2052.000000 2052.000000"
 preserveAspectRatio="xMidYMid meet">
<metadata>
Created by potrace 1.11, written by Peter Selinger 2001-2013
</metadata>
<g transform="translate(0.000000,2052.000000) scale(0.100000,-0.100000)"
fill="#000000" stroke="none">
<path d="M12265 20448 c-244 -200 -534 -350 -795 -413 -184 -43 -332 -59 -715
-75 -600 -26 -959 -81 -1437 -221 -340 -100 -700 -262 -963 -434 -347 -227
-631 -523 -770 -802 -44 -90 -45 -90 -107 -117 -177 -76 -478 -262 -635 -393
-378 -314 -624 -710 -737 -1188 -47 -197 -61 -339 -61 -625 1 -347 24 -547
101 -855 57 -228 114 -410 176 -570 33 -82 70 -179 83 -214 13 -35 26 -65 28
-67 2 -2 7 73 10 168 15 394 106 767 267 1087 300 600 789 950 1422 1020 144
16 310 13 523 -9 560 -59 982 -48 1420 36 214 42 448 116 587 185 32 16 59 29
62 29 8 0 26 -129 26 -194 0 -77 -23 -197 -51 -269 -11 -27 -18 -51 -17 -52 2
-2 55 21 118 51 441 211 956 364 1354 403 158 16 424 13 568 -5 785 -99 1412
-587 1837 -1430 136 -270 239 -548 317 -854 l41 -165 13 45 c25 90 79 374 99
513 39 279 54 535 48 823 -7 357 -31 541 -113 852 -99 376 -288 732 -509 957
l-82 82 42 94 c152 337 220 705 195 1045 -14 187 -31 277 -82 433 l-20 63 -29
-53 c-109 -198 -334 -360 -640 -459 -210 -68 -469 -118 -639 -123 l-85 -2 -3
36 c-8 91 63 334 188 650 33 84 59 154 57 155 -12 13 -390 -33 -557 -67 -161
-33 -601 -155 -683 -189 -12 -5 -102 -39 -199 -75 -97 -36 -211 -81 -254 -101
-42 -19 -79 -32 -82 -29 -3 3 35 47 85 98 235 237 420 538 557 902 45 120 110
349 104 364 -2 5 -30 -14 -63 -41z"/>
<path d="M8415 15093 c-500 -61 -924 -263 -1263 -602 -326 -326 -525 -724
-597 -1191 -22 -142 -22 -429 0 -575 45 -301 142 -570 295 -816 320 -515 849
-867 1453 -966 147 -25 503 -24 652 0 445 73 828 270 1149 590 229 229 376
459 490 767 24 63 51 147 61 185 9 39 19 77 22 85 2 8 15 -25 28 -75 97 -368
283 -693 552 -962 324 -324 708 -516 1188 -595 49 -8 163 -13 295 -12 177 0
238 4 341 22 903 160 1580 853 1725 1767 24 151 24 440 0 590 -75 468 -275
865 -599 1188 -509 506 -1230 713 -1937 557 -372 -82 -730 -280 -1009 -558
-273 -273 -462 -602 -556 -967 l-23 -90 -11 45 c-6 25 -29 101 -52 170 -113
341 -268 592 -523 845 -186 185 -361 307 -595 415 -290 133 -561 191 -884 189
-95 -1 -185 -4 -202 -6z m442 -388 c387 -55 737 -234 1004 -511 179 -187 305
-395 388 -639 51 -152 68 -236 83 -407 20 -228 -7 -455 -78 -668 -118 -350
-339 -650 -634 -861 -107 -77 -336 -191 -468 -233 -411 -132 -858 -104 -1247
79 -423 198 -747 564 -899 1015 -144 430 -107 899 104 1310 257 499 752 847
1308 919 108 14 329 12 439 -4z m4198 -15 c607 -121 1090 -540 1294 -1123 225
-645 40 -1359 -475 -1828 -205 -186 -485 -331 -761 -394 -360 -83 -739 -45
-1078 107 -440 198 -768 561 -924 1024 -50 150 -67 235 -81 402 -18 219 7 438
72 642 206 646 746 1095 1428 1190 114 16 401 5 525 -20z"/>
<path d="M8623 13003 c9 -2 25 -2 35 0 9 3 1 5 -18 5 -19 0 -27 -2 -17 -5z"/>
<path d="M8703 13003 c9 -2 25 -2 35 0 9 3 1 5 -18 5 -19 0 -27 -2 -17 -5z"/>
<path d="M9684 12978 l-19 -23 23 19 c21 18 27 26 19 26 -2 0 -12 -10 -23 -22z"/>
<path d="M8833 12813 c15 -2 37 -2 50 0 12 2 0 4 -28 4 -27 0 -38 -2 -22 -4z"/>
<path d="M8191 12594 c0 -11 3 -14 6 -6 3 7 2 16 -1 19 -3 4 -6 -2 -5 -13z"/>
<path d="M9162 12590 c0 -14 2 -19 5 -12 2 6 2 18 0 25 -3 6 -5 1 -5 -13z"/>
<path d="M8182 12515 c0 -16 2 -22 5 -12 2 9 2 23 0 30 -3 6 -5 -1 -5 -18z"/>
<path d="M9162 12440 c0 -14 2 -19 5 -12 2 6 2 18 0 25 -3 6 -5 1 -5 -13z"/>
<path d="M8191 12424 c0 -11 3 -14 6 -6 3 7 2 16 -1 19 -3 4 -6 -2 -5 -13z"/>
<path d="M8648 12023 c17 -2 47 -2 65 0 17 2 3 4 -33 4 -36 0 -50 -2 -32 -4z"/>
<path d="M13670 13006 c0 -2 8 -10 18 -17 15 -13 16 -12 3 4 -13 16 -21 21
-21 13z"/>
<path d="M12713 12993 c9 -2 23 -2 30 0 6 3 -1 5 -18 5 -16 0 -22 -2 -12 -5z"/>
<path d="M12828 12993 c6 -2 18 -2 25 0 6 3 1 5 -13 5 -14 0 -19 -2 -12 -5z"/>
<path d="M13173 12590 c0 -30 2 -43 4 -27 2 15 2 39 0 55 -2 15 -4 2 -4 -28z"/>
<path d="M12718 12033 c7 -3 16 -2 19 1 4 3 -2 6 -13 5 -11 0 -14 -3 -6 -6z"/>
<path d="M12828 12033 c7 -3 16 -2 19 1 4 3 -2 6 -13 5 -11 0 -14 -3 -6 -6z"/>
<path d="M12887 6093 c-4 -3 -7 -19 -7 -35 0 -53 -42 -121 -125 -202 l-80 -78
-100 6 c-266 18 -609 24 -850 16 -522 -19 -619 -34 -1470 -235 -743 -176 -992
-214 -1085 -167 l-35 17 0 116 c0 108 -2 118 -27 156 -27 41 -77 78 -112 85
-17 3 -22 -7 -34 -67 -28 -143 -73 -326 -132 -535 l-61 -215 4 -115 c5 -129
32 -230 94 -354 38 -75 102 -176 112 -176 3 0 80 145 171 323 l165 322 45 7
c159 27 3150 403 3349 421 21 2 28 -11 87 -163 94 -243 79 -225 121 -149 61
109 118 280 143 425 19 110 8 300 -23 396 -40 126 -120 232 -150 201z"/>
<path d="M10815 4730 c-278 -21 -564 -61 -593 -82 -32 -22 -152 -133 -152
-139 0 -3 46 -36 102 -74 l101 -67 166 6 c338 14 597 43 884 101 254 52 407
94 407 114 0 15 -83 61 -157 88 -35 13 -106 30 -156 38 -110 19 -447 27 -602
15z"/>
</g>
</svg>
