<svg xmlns="http://www.w3.org/2000/svg" viewBox="0 0 505.19 432.01">
    <defs>
        <style>
            .cls-1 {
                fill: none;
            }

            .cls-2 {
                fill: #fff;
            }
        </style>
    </defs>
    <title>stars</title>
    <g id="stars" data-name="Layer 2">
        <g id="Isolation_Mode" data-name="Isolation Mode">
            <rect class="cls-1" x="427.25" y="196.02" width="1.74" height="1.74" />
            <circle class="cls-2" cx="428.12" cy="196.89" r="0.87" />
            <rect class="cls-1" x="404.01" y="216.85" width="1.4" height="1.4" />
            <circle class="cls-2" cx="404.72" cy="217.55" r="0.7" />
            <rect class="cls-1" x="382.5" y="248.44" width="1.58" height="1.58" />
            <circle class="cls-2" cx="383.29" cy="249.23" r="0.79" />
            <rect class="cls-1" x="372.82" y="201.84" width="1.16" height="1.16" />
            <circle class="cls-2" cx="373.4" cy="202.42" r="0.58" />
            <rect class="cls-1" x="352.11" y="225.73" width="0.35" height="0.35" />
            <circle class="cls-2" cx="352.28" cy="225.9" r="0.17" />
            <rect class="cls-1" x="342.49" y="210.21" width="2.22" height="2.22" />
            <circle class="cls-2" cx="343.6" cy="211.32" r="1.11" />
            <rect class="cls-1" x="318.35" y="185.82" width="0.62" height="0.62" />
            <circle class="cls-2" cx="318.66" cy="186.13" r="0.31" />
            <rect class="cls-1" x="298.49" y="221.94" width="2.54" height="2.54" />
            <circle class="cls-2" cx="299.76" cy="223.21" r="1.27" />
            <rect class="cls-1" x="297.56" y="238.56" width="0.86" height="0.86" />
            <circle class="cls-2" cx="297.99" cy="239" r="0.43" />
            <rect class="cls-1" x="300.95" y="185.39" width="2.28" height="2.28" />
            <circle class="cls-2" cx="302.09" cy="186.53" r="1.14" />
            <rect class="cls-1" x="270.96" y="198.55" width="2.48" height="2.48" />
            <circle class="cls-2" cx="272.2" cy="199.79" r="1.24" />
            <rect class="cls-1" x="252.91" y="196.9" width="1.1" height="1.1" />
            <circle class="cls-2" cx="253.46" cy="197.45" r="0.55" />
            <rect class="cls-1" x="220.23" y="208.05" width="0.43" height="0.43" />
            <circle class="cls-2" cx="220.45" cy="208.27" r="0.22" />
            <rect class="cls-1" x="218.39" y="210.09" width="1.83" height="1.83" />
            <circle class="cls-2" cx="219.31" cy="211" r="0.91" />
            <rect class="cls-1" x="186.32" y="226.34" width="0.65" height="0.65" />
            <circle class="cls-2" cx="186.64" cy="226.66" r="0.32" />
            <rect class="cls-1" x="153.59" y="228.5" width="1.64" height="1.64" />
            <circle class="cls-2" cx="154.41" cy="229.32" r="0.82" />
            <rect class="cls-1" x="148.03" y="218.28" width="1.32" height="1.32" />
            <circle class="cls-2" cx="148.69" cy="218.94" r="0.66" />
            <rect class="cls-1" x="126.72" y="175.21" width="1.4" height="1.4" />
            <circle class="cls-2" cx="127.42" cy="175.9" r="0.7" />
            <rect class="cls-1" x="122.35" y="174.52" width="2.34" height="2.34" />
            <circle class="cls-2" cx="123.52" cy="175.69" r="1.17" />
            <rect class="cls-1" x="109.3" y="194.62" width="2.21" height="2.21" />
            <circle class="cls-2" cx="110.4" cy="195.73" r="1.1" />
            <rect class="cls-1" x="91.96" y="213.13" width="1.46" height="1.46" />
            <circle class="cls-2" cx="92.69" cy="213.87" r="0.73" />
            <rect class="cls-1" x="63.06" y="223.65" width="2.54" height="2.54" />
            <circle class="cls-2" cx="64.33" cy="224.92" r="1.27" />
            <rect class="cls-1" x="55.67" y="203.63" width="2.6" height="2.6" />
            <circle class="cls-2" cx="56.97" cy="204.93" r="1.3" />
            <rect class="cls-1" x="56.18" y="195.87" width="0.51" height="0.51" />
            <circle class="cls-2" cx="56.44" cy="196.12" r="0.26" />
            <rect class="cls-1" x="22.44" y="209.23" width="1.13" height="1.13" />
            <circle class="cls-2" cx="23" cy="209.79" r="0.56" />
            <rect class="cls-1" x="11.69" y="176" width="0.56" height="0.56" />
            <circle class="cls-2" cx="11.97" cy="176.27" r="0.28" />
            <rect class="cls-1" x="15.69" y="182.6" width="1.16" height="1.16" />
            <circle class="cls-2" cx="16.27" cy="183.18" r="0.58" />
            <rect class="cls-1" x="5.26" y="174.08" width="1.37" height="1.37" />
            <circle class="cls-2" cx="5.94" cy="174.76" r="0.68" />
            <rect class="cls-1" x="25.87" y="184.71" width="2.19" height="2.19" />
            <circle class="cls-2" cx="26.97" cy="185.81" r="1.1" />
            <rect class="cls-1" y="138.16" width="1.42" height="1.42" />
            <circle class="cls-2" cx="0.71" cy="138.87" r="0.71" />
            <rect class="cls-1" x="17.97" y="133.15" width="2.17" height="2.17" />
            <circle class="cls-2" cx="19.06" cy="134.23" r="1.08" />
            <rect class="cls-1" x="43.54" y="155.61" width="0.45" height="0.45" />
            <circle class="cls-2" cx="43.76" cy="155.83" r="0.22" />
            <rect class="cls-1" x="37.8" y="135.09" width="2.5" height="2.5" />
            <circle class="cls-2" cx="39.05" cy="136.34" r="1.25" />
            <rect class="cls-1" x="56.52" y="171.89" width="2.34" height="2.34" />
            <circle class="cls-2" cx="57.69" cy="173.05" r="1.17" />
            <rect class="cls-1" x="73.56" y="111.43" width="2.24" height="2.24" />
            <circle class="cls-2" cx="74.68" cy="112.55" r="1.12" />
            <rect class="cls-1" x="90.82" y="109.03" width="1.88" height="1.88" />
            <circle class="cls-2" cx="91.75" cy="109.97" r="0.94" />
            <rect class="cls-1" x="103.3" y="166.06" width="0.61" height="0.61" />
            <circle class="cls-2" cx="103.6" cy="166.37" r="0.3" />
            <rect class="cls-1" x="118.95" y="162.46" width="1.45" height="1.45" />
            <circle class="cls-2" cx="119.68" cy="163.19" r="0.73" />
            <rect class="cls-1" x="127.73" y="151.25" width="2.51" height="2.51" />
            <circle class="cls-2" cx="128.99" cy="152.5" r="1.25" />
            <rect class="cls-1" x="136.02" y="123.82" width="1.31" height="1.31" />
            <circle class="cls-2" cx="136.68" cy="124.48" r="0.65" />
            <rect class="cls-1" x="137.09" y="111.7" width="0.75" height="0.75" />
            <circle class="cls-2" cx="137.47" cy="112.07" r="0.38" />
            <rect class="cls-1" x="152.37" y="126.4" width="1.15" height="1.15" />
            <circle class="cls-2" cx="152.94" cy="126.97" r="0.57" />
            <rect class="cls-1" x="183.54" y="134.19" width="1.74" height="1.74" />
            <circle class="cls-2" cx="184.41" cy="135.06" r="0.87" />
            <rect class="cls-1" x="184.66" y="163.35" width="2.08" height="2.08" />
            <circle class="cls-2" cx="185.7" cy="164.39" r="1.04" />
            <rect class="cls-1" x="192.59" y="118.21" width="2.25" height="2.25" />
            <circle class="cls-2" cx="193.71" cy="119.34" r="1.13" />
            <rect class="cls-1" x="211.95" y="112.51" width="1.09" height="1.09" />
            <circle class="cls-2" cx="212.49" cy="113.06" r="0.54" />
            <rect class="cls-1" x="212.85" y="129.79" width="1.32" height="1.32" />
            <circle class="cls-2" cx="213.52" cy="130.45" r="0.66" />
            <rect class="cls-1" x="223.02" y="110.8" width="2.59" height="2.59" />
            <circle class="cls-2" cx="224.32" cy="112.1" r="1.29" />
            <rect class="cls-1" x="230.38" y="117.97" width="2.6" height="2.6" />
            <circle class="cls-2" cx="231.68" cy="119.27" r="1.3" />
            <rect class="cls-1" x="240.89" y="156.9" width="0.74" height="0.74" />
            <circle class="cls-2" cx="241.26" cy="157.27" r="0.37" />
            <rect class="cls-1" x="257.84" y="140.07" width="1.72" height="1.72" />
            <circle class="cls-2" cx="258.7" cy="140.93" r="0.86" />
            <rect class="cls-1" x="284.03" y="160.3" width="1.26" height="1.26" />
            <circle class="cls-2" cx="284.66" cy="160.93" r="0.63" />
            <rect class="cls-1" x="320.45" y="124.64" width="2.18" height="2.18" />
            <circle class="cls-2" cx="321.54" cy="125.73" r="1.09" />
            <rect class="cls-1" x="329.59" y="165.49" width="0.55" height="0.55" />
            <circle class="cls-2" cx="329.86" cy="165.77" r="0.27" />
            <rect class="cls-1" x="348.68" y="136.98" width="2.02" height="2.02" />
            <circle class="cls-2" cx="349.69" cy="137.99" r="1.01" />
            <rect class="cls-1" x="360.28" y="165.15" width="0.73" height="0.73" />
            <circle class="cls-2" cx="360.64" cy="165.52" r="0.36" />
            <rect class="cls-1" x="379.94" y="167.9" width="1.62" height="1.62" />
            <circle class="cls-2" cx="380.75" cy="168.71" r="0.81" />
            <rect class="cls-1" x="403.56" y="139.41" width="1.65" height="1.65" />
            <circle class="cls-2" cx="404.38" cy="140.23" r="0.82" />
            <rect class="cls-1" x="423.88" y="169.63" width="1.33" height="1.33" />
            <circle class="cls-2" cx="424.54" cy="170.29" r="0.66" />
            <rect class="cls-1" x="449.92" y="176.73" width="0.45" height="0.45" />
            <circle class="cls-2" cx="450.15" cy="176.95" r="0.23" />
            <rect class="cls-1" x="462.38" y="168.56" width="1.91" height="1.91" />
            <circle class="cls-2" cx="463.33" cy="169.51" r="0.95" />
            <rect class="cls-1" x="479.94" y="127.44" width="1.92" height="1.92" />
            <circle class="cls-2" cx="480.9" cy="128.4" r="0.96" />
            <rect class="cls-1" x="498.49" y="159.34" width="2.34" height="2.34" />
            <circle class="cls-2" cx="499.66" cy="160.51" r="1.17" />
            <rect class="cls-1" x="502.74" y="141.55" width="0.52" height="0.52" />
            <circle class="cls-2" cx="503" cy="141.81" r="0.26" />
            <rect class="cls-1" x="503.61" y="137.99" width="1.58" height="1.58" />
            <circle class="cls-2" cx="504.4" cy="138.78" r="0.79" />
            <rect class="cls-1" x="494.04" y="136.12" width="1.76" height="1.76" />
            <circle class="cls-2" cx="494.92" cy="137" r="0.88" />
            <rect class="cls-1" x="486.31" y="134.98" width="0.76" height="0.76" />
            <circle class="cls-2" cx="486.69" cy="135.36" r="0.38" />
            <rect class="cls-1" x="471.63" y="117.12" width="2.4" height="2.4" />
            <circle class="cls-2" cx="472.84" cy="118.32" r="1.2" />
            <rect class="cls-1" x="445.76" y="93.79" width="0.67" height="0.67" />
            <circle class="cls-2" cx="446.09" cy="94.12" r="0.34" />
            <rect class="cls-1" x="421.97" y="118.97" width="2.54" height="2.54" />
            <circle class="cls-2" cx="423.24" cy="120.24" r="1.27" />
            <rect class="cls-1" x="414.08" y="124.99" width="0.36" height="0.36" />
            <circle class="cls-2" cx="414.26" cy="125.17" r="0.18" />
            <rect class="cls-1" x="396.1" y="125.86" width="1.98" height="1.98" />
            <circle class="cls-2" cx="397.09" cy="126.85" r="0.99" />
            <rect class="cls-1" x="365.79" y="104.57" width="1.78" height="1.78" />
            <circle class="cls-2" cx="366.68" cy="105.46" r="0.89" />
            <rect class="cls-1" x="335.13" y="97.41" width="0.6" height="0.6" />
            <circle class="cls-2" cx="335.43" cy="97.71" r="0.3" />
            <rect class="cls-1" x="306.41" y="111.95" width="0.73" height="0.73" />
            <circle class="cls-2" cx="306.78" cy="112.32" r="0.36" />
            <rect class="cls-1" x="289.46" y="127.94" width="0.8" height="0.8" />
            <circle class="cls-2" cx="289.85" cy="128.34" r="0.4" />
            <rect class="cls-1" x="274.76" y="132.79" width="0.34" height="0.34" />
            <circle class="cls-2" cx="274.93" cy="132.96" r="0.17" />
            <rect class="cls-1" x="249.69" y="128.43" width="1.11" height="1.11" />
            <circle class="cls-2" cx="250.25" cy="128.98" r="0.56" />
            <rect class="cls-1" x="228.56" y="104.27" width="1.2" height="1.2" />
            <circle class="cls-2" cx="229.17" cy="104.87" r="0.6" />
            <rect class="cls-1" x="213.34" y="102.23" width="1.87" height="1.87" />
            <circle class="cls-2" cx="214.28" cy="103.16" r="0.94" />
            <rect class="cls-1" x="187.6" y="128.35" width="1.25" height="1.25" />
            <circle class="cls-2" cx="188.23" cy="128.98" r="0.63" />
            <rect class="cls-1" x="181.06" y="90.31" width="2.04" height="2.04" />
            <circle class="cls-2" cx="182.08" cy="91.33" r="1.02" />
            <rect class="cls-1" x="171.94" y="123.95" width="0.74" height="0.74" />
            <circle class="cls-2" cx="172.31" cy="124.32" r="0.37" />
            <rect class="cls-1" x="151.25" y="113.06" width="1.98" height="1.98" />
            <circle class="cls-2" cx="152.24" cy="114.05" r="0.99" />
            <rect class="cls-1" x="136.87" y="113.74" width="0.98" height="0.98" />
            <circle class="cls-2" cx="137.36" cy="114.23" r="0.49" />
            <rect class="cls-1" x="121.41" y="98.2" width="1.74" height="1.74" />
            <circle class="cls-2" cx="122.28" cy="99.07" r="0.87" />
            <rect class="cls-1" x="115.07" y="108.18" width="1.26" height="1.26" />
            <circle class="cls-2" cx="115.71" cy="108.82" r="0.63" />
            <rect class="cls-1" x="102.91" y="139.62" width="1.92" height="1.92" />
            <circle class="cls-2" cx="103.87" cy="140.58" r="0.96" />
            <rect class="cls-1" x="83.12" y="96.71" width="1.91" height="1.91" />
            <circle class="cls-2" cx="84.08" cy="97.67" r="0.96" />
            <rect class="cls-1" x="81.98" y="101.19" width="2.07" height="2.07" />
            <circle class="cls-2" cx="83.01" cy="102.23" r="1.04" />
            <rect class="cls-1" x="66.85" y="117.21" width="1.18" height="1.18" />
            <circle class="cls-2" cx="67.44" cy="117.81" r="0.59" />
            <rect class="cls-1" x="44.88" y="122.51" width="0.56" height="0.56" />
            <circle class="cls-2" cx="45.16" cy="122.79" r="0.28" />
            <rect class="cls-1" x="46.21" y="98.86" width="2.47" height="2.47" />
            <circle class="cls-2" cx="47.44" cy="100.1" r="1.23" />
            <rect class="cls-1" x="34.65" y="107.69" width="2.6" height="2.6" />
            <circle class="cls-2" cx="35.94" cy="108.99" r="1.3" />
            <rect class="cls-1" x="19.44" y="78.66" width="1.44" height="1.44" />
            <circle class="cls-2" cx="20.16" cy="79.38" r="0.72" />
            <rect class="cls-1" x="6.08" y="76.31" width="2.56" height="2.56" />
            <circle class="cls-2" cx="7.36" cy="77.59" r="1.28" />
            <rect class="cls-1" x="10.76" y="73.06" width="1.77" height="1.77" />
            <circle class="cls-2" cx="11.65" cy="73.95" r="0.89" />
            <rect class="cls-1" x="8.08" y="26.83" width="0.63" height="0.63" />
            <circle class="cls-2" cx="8.39" cy="27.14" r="0.31" />
            <rect class="cls-1" x="38.02" y="13.51" width="0.83" height="0.83" />
            <circle class="cls-2" cx="38.43" cy="13.93" r="0.41" />
            <rect class="cls-1" x="45.63" y="47.04" width="1.73" height="1.73" />
            <circle class="cls-2" cx="46.49" cy="47.9" r="0.87" />
            <rect class="cls-1" x="53.23" y="8.39" width="1.24" height="1.24" />
            <circle class="cls-2" cx="53.85" cy="9.01" r="0.62" />
            <rect class="cls-1" x="72.36" y="25.98" width="2.23" height="2.23" />
            <circle class="cls-2" cx="73.47" cy="27.1" r="1.12" />
            <rect class="cls-1" x="85.89" y="26.16" width="1.19" height="1.19" />
            <circle class="cls-2" cx="86.49" cy="26.76" r="0.6" />
            <rect class="cls-1" x="91.62" y="4.36" width="1.94" height="1.94" />
            <circle class="cls-2" cx="92.58" cy="5.33" r="0.97" />
            <rect class="cls-1" x="103" y="33.83" width="2.2" height="2.2" />
            <circle class="cls-2" cx="104.1" cy="34.93" r="1.1" />
            <rect class="cls-1" x="127.21" y="19.44" width="0.74" height="0.74" />
            <circle class="cls-2" cx="127.58" cy="19.81" r="0.37" />
            <rect class="cls-1" x="144.92" y="60.89" width="2.19" height="2.19" />
            <circle class="cls-2" cx="146.01" cy="61.99" r="1.09" />
            <rect class="cls-1" x="160.22" y="8.42" width="0.81" height="0.81" />
            <circle class="cls-2" cx="160.63" cy="8.83" r="0.41" />
            <rect class="cls-1" x="187.74" y="7.39" width="1.36" height="1.36" />
            <circle class="cls-2" cx="188.42" cy="8.07" r="0.68" />
            <rect class="cls-1" x="196.31" y="2.85" width="1.36" height="1.36" />
            <circle class="cls-2" cx="196.99" cy="3.53" r="0.68" />
            <rect class="cls-1" x="210.97" y="13.14" width="2.61" height="2.61" />
            <circle class="cls-2" cx="212.28" cy="14.45" r="1.31" />
            <rect class="cls-1" x="218.5" y="42.15" width="0.74" height="0.74" />
            <circle class="cls-2" cx="218.87" cy="42.52" r="0.37" />
            <rect class="cls-1" x="237.29" y="44.11" width="2.23" height="2.23" />
            <circle class="cls-2" cx="238.4" cy="45.22" r="1.11" />
            <rect class="cls-1" x="269.88" y="29.22" width="2.37" height="2.37" />
            <circle class="cls-2" cx="271.07" cy="30.41" r="1.18" />
            <rect class="cls-1" x="268.78" y="59.67" width="2.55" height="2.55" />
            <circle class="cls-2" cx="270.05" cy="60.94" r="1.27" />
            <rect class="cls-1" x="289.72" y="23.58" width="0.91" height="0.91" />
            <circle class="cls-2" cx="290.18" cy="24.03" r="0.45" />
            <rect class="cls-1" x="306.18" y="14.56" width="1.4" height="1.4" />
            <circle class="cls-2" cx="306.89" cy="15.27" r="0.7" />
            <rect class="cls-1" x="306.16" y="36.83" width="2.11" height="2.11" />
            <circle class="cls-2" cx="307.22" cy="37.89" r="1.06" />
            <rect class="cls-1" x="330.91" y="23.79" width="2.56" height="2.56" />
            <circle class="cls-2" cx="332.19" cy="25.07" r="1.28" />
            <rect class="cls-1" x="357.39" y="69.95" width="0.6" height="0.6" />
            <circle class="cls-2" cx="357.69" cy="70.25" r="0.3" />
            <rect class="cls-1" x="381.81" y="30.61" width="1.33" height="1.33" />
            <circle class="cls-2" cx="382.47" cy="31.28" r="0.66" />
            <rect class="cls-1" x="396.68" y="71.03" width="2.41" height="2.41" />
            <circle class="cls-2" cx="397.88" cy="72.23" r="1.2" />
            <rect class="cls-1" x="429.87" y="51.49" width="2.06" height="2.06" />
            <circle class="cls-2" cx="430.9" cy="52.52" r="1.03" />
            <rect class="cls-1" x="438.53" y="45.6" width="2.53" height="2.53" />
            <circle class="cls-2" cx="439.8" cy="46.86" r="1.27" />
            <rect class="cls-1" x="439.82" y="18.13" width="1" height="1" />
            <circle class="cls-2" cx="440.33" cy="18.64" r="0.5" />
            <rect class="cls-1" x="460.67" y="70.68" width="1.11" height="1.11" />
            <circle class="cls-2" cx="461.23" cy="71.24" r="0.56" />
            <rect class="cls-1" x="491.33" y="37.47" width="2.39" height="2.39" />
            <circle class="cls-2" cx="492.53" cy="38.67" r="1.2" />
            <rect class="cls-1" x="451.5" y="20.14" width="1.96" height="1.96" />
            <circle class="cls-2" cx="452.47" cy="21.11" r="0.98" />
            <rect class="cls-1" x="495.62" y="13.31" width="0.38" height="0.38" />
            <circle class="cls-2" cx="495.81" cy="13.5" r="0.19" />
            <rect class="cls-1" x="454.16" y="25.37" width="1.39" height="1.39" />
            <circle class="cls-2" cx="454.85" cy="26.07" r="0.69" />
            <rect class="cls-1" x="447.62" y="11.65" width="1.14" height="1.14" />
            <circle class="cls-2" cx="448.19" cy="12.22" r="0.57" />
            <rect class="cls-1" x="417.34" y="4.89" width="0.4" height="0.4" />
            <circle class="cls-2" cx="417.54" cy="5.09" r="0.2" />
            <rect class="cls-1" x="389.64" y="0.88" width="1.56" height="1.56" />
            <circle class="cls-2" cx="390.42" cy="1.65" r="0.78" />
            <rect class="cls-1" x="355.13" y="12.32" width="0.5" height="0.5" />
            <circle class="cls-2" cx="355.38" cy="12.57" r="0.25" />
            <rect class="cls-1" x="283.26" y="11.06" width="0.56" height="0.56" />
            <circle class="cls-2" cx="283.54" cy="11.34" r="0.28" />
            <rect class="cls-1" x="229.92" y="1.73" width="1.61" height="1.61" />
            <circle class="cls-2" cx="230.73" cy="2.53" r="0.8" />
            <rect class="cls-1" x="53.12" width="0.41" height="0.41" />
            <circle class="cls-2" cx="53.32" cy="0.21" r="0.21" />
        </g>
        <g id="Isolation_Mode_copy" data-name="Isolation Mode copy">
            <rect class="cls-1" x="427.25" y="378.02" width="1.74" height="1.74" />
            <circle class="cls-2" cx="428.12" cy="378.89" r="0.87" />
            <rect class="cls-1" x="404.01" y="398.85" width="1.4" height="1.4" />
            <circle class="cls-2" cx="404.72" cy="399.55" r="0.7" />
            <rect class="cls-1" x="382.5" y="430.44" width="1.58" height="1.58" />
            <circle class="cls-2" cx="383.29" cy="431.23" r="0.79" />
            <rect class="cls-1" x="372.82" y="383.84" width="1.16" height="1.16" />
            <circle class="cls-2" cx="373.4" cy="384.42" r="0.58" />
            <rect class="cls-1" x="352.11" y="407.73" width="0.35" height="0.35" />
            <circle class="cls-2" cx="352.28" cy="407.9" r="0.17" />
            <rect class="cls-1" x="342.49" y="392.21" width="2.22" height="2.22" />
            <circle class="cls-2" cx="343.6" cy="393.32" r="1.11" />
            <rect class="cls-1" x="318.35" y="367.82" width="0.62" height="0.62" />
            <circle class="cls-2" cx="318.66" cy="368.13" r="0.31" />
            <rect class="cls-1" x="298.49" y="403.94" width="2.54" height="2.54" />
            <circle class="cls-2" cx="299.76" cy="405.21" r="1.27" />
            <rect class="cls-1" x="297.56" y="420.56" width="0.86" height="0.86" />
            <circle class="cls-2" cx="297.99" cy="421" r="0.43" />
            <rect class="cls-1" x="300.95" y="367.39" width="2.28" height="2.28" />
            <circle class="cls-2" cx="302.09" cy="368.53" r="1.14" />
            <rect class="cls-1" x="270.96" y="380.55" width="2.48" height="2.48" />
            <circle class="cls-2" cx="272.2" cy="381.79" r="1.24" />
            <rect class="cls-1" x="252.91" y="378.9" width="1.1" height="1.1" />
            <circle class="cls-2" cx="253.46" cy="379.45" r="0.55" />
            <rect class="cls-1" x="220.23" y="390.05" width="0.43" height="0.43" />
            <circle class="cls-2" cx="220.45" cy="390.27" r="0.22" />
            <rect class="cls-1" x="218.39" y="392.09" width="1.83" height="1.83" />
            <circle class="cls-2" cx="219.31" cy="393" r="0.91" />
            <rect class="cls-1" x="186.32" y="408.34" width="0.65" height="0.65" />
            <circle class="cls-2" cx="186.64" cy="408.66" r="0.32" />
            <rect class="cls-1" x="153.59" y="410.5" width="1.64" height="1.64" />
            <circle class="cls-2" cx="154.41" cy="411.32" r="0.82" />
            <rect class="cls-1" x="148.03" y="400.28" width="1.32" height="1.32" />
            <circle class="cls-2" cx="148.69" cy="400.94" r="0.66" />
            <rect class="cls-1" x="126.72" y="357.21" width="1.4" height="1.4" />
            <circle class="cls-2" cx="127.42" cy="357.9" r="0.7" />
            <rect class="cls-1" x="122.35" y="356.52" width="2.34" height="2.34" />
            <circle class="cls-2" cx="123.52" cy="357.69" r="1.17" />
            <rect class="cls-1" x="109.3" y="376.62" width="2.21" height="2.21" />
            <circle class="cls-2" cx="110.4" cy="377.73" r="1.1" />
            <rect class="cls-1" x="91.96" y="395.13" width="1.46" height="1.46" />
            <circle class="cls-2" cx="92.69" cy="395.87" r="0.73" />
            <rect class="cls-1" x="63.06" y="405.65" width="2.54" height="2.54" />
            <circle class="cls-2" cx="64.33" cy="406.92" r="1.27" />
            <rect class="cls-1" x="55.67" y="385.63" width="2.6" height="2.6" />
            <circle class="cls-2" cx="56.97" cy="386.93" r="1.3" />
            <rect class="cls-1" x="56.18" y="377.87" width="0.51" height="0.51" />
            <circle class="cls-2" cx="56.44" cy="378.12" r="0.26" />
            <rect class="cls-1" x="22.44" y="391.23" width="1.13" height="1.13" />
            <circle class="cls-2" cx="23" cy="391.79" r="0.56" />
            <rect class="cls-1" x="11.69" y="358" width="0.56" height="0.56" />
            <circle class="cls-2" cx="11.97" cy="358.27" r="0.28" />
            <rect class="cls-1" x="15.69" y="364.6" width="1.16" height="1.16" />
            <circle class="cls-2" cx="16.27" cy="365.18" r="0.58" />
            <rect class="cls-1" x="5.26" y="356.08" width="1.37" height="1.37" />
            <circle class="cls-2" cx="5.94" cy="356.76" r="0.68" />
            <rect class="cls-1" x="25.87" y="366.71" width="2.19" height="2.19" />
            <circle class="cls-2" cx="26.97" cy="367.81" r="1.1" />
            <rect class="cls-1" y="320.16" width="1.42" height="1.42" />
            <circle class="cls-2" cx="0.71" cy="320.87" r="0.71" />
            <rect class="cls-1" x="17.97" y="315.15" width="2.17" height="2.17" />
            <circle class="cls-2" cx="19.06" cy="316.23" r="1.08" />
            <rect class="cls-1" x="43.54" y="337.61" width="0.45" height="0.45" />
            <circle class="cls-2" cx="43.76" cy="337.83" r="0.22" />
            <rect class="cls-1" x="37.8" y="317.09" width="2.5" height="2.5" />
            <circle class="cls-2" cx="39.05" cy="318.34" r="1.25" />
            <rect class="cls-1" x="56.52" y="353.89" width="2.34" height="2.34" />
            <circle class="cls-2" cx="57.69" cy="355.05" r="1.17" />
            <rect class="cls-1" x="73.56" y="293.43" width="2.24" height="2.24" />
            <circle class="cls-2" cx="74.68" cy="294.55" r="1.12" />
            <rect class="cls-1" x="90.82" y="291.03" width="1.88" height="1.88" />
            <circle class="cls-2" cx="91.75" cy="291.97" r="0.94" />
            <rect class="cls-1" x="103.3" y="348.06" width="0.61" height="0.61" />
            <circle class="cls-2" cx="103.6" cy="348.37" r="0.3" />
            <rect class="cls-1" x="118.95" y="344.46" width="1.45" height="1.45" />
            <circle class="cls-2" cx="119.68" cy="345.19" r="0.73" />
            <rect class="cls-1" x="127.73" y="333.25" width="2.51" height="2.51" />
            <circle class="cls-2" cx="128.99" cy="334.5" r="1.25" />
            <rect class="cls-1" x="136.02" y="305.82" width="1.31" height="1.31" />
            <circle class="cls-2" cx="136.68" cy="306.48" r="0.65" />
            <rect class="cls-1" x="137.09" y="293.7" width="0.75" height="0.75" />
            <circle class="cls-2" cx="137.47" cy="294.07" r="0.38" />
            <rect class="cls-1" x="152.37" y="308.4" width="1.15" height="1.15" />
            <circle class="cls-2" cx="152.94" cy="308.97" r="0.57" />
            <rect class="cls-1" x="183.54" y="316.19" width="1.74" height="1.74" />
            <circle class="cls-2" cx="184.41" cy="317.06" r="0.87" />
            <rect class="cls-1" x="184.66" y="345.35" width="2.08" height="2.08" />
            <circle class="cls-2" cx="185.7" cy="346.39" r="1.04" />
            <rect class="cls-1" x="192.59" y="300.21" width="2.25" height="2.25" />
            <circle class="cls-2" cx="193.71" cy="301.34" r="1.13" />
            <rect class="cls-1" x="211.95" y="294.51" width="1.09" height="1.09" />
            <circle class="cls-2" cx="212.49" cy="295.06" r="0.54" />
            <rect class="cls-1" x="212.85" y="311.79" width="1.32" height="1.32" />
            <circle class="cls-2" cx="213.52" cy="312.45" r="0.66" />
            <rect class="cls-1" x="223.02" y="292.8" width="2.59" height="2.59" />
            <circle class="cls-2" cx="224.32" cy="294.1" r="1.29" />
            <rect class="cls-1" x="230.38" y="299.97" width="2.6" height="2.6" />
            <circle class="cls-2" cx="231.68" cy="301.27" r="1.3" />
            <rect class="cls-1" x="240.89" y="338.9" width="0.74" height="0.74" />
            <circle class="cls-2" cx="241.26" cy="339.27" r="0.37" />
            <rect class="cls-1" x="257.84" y="322.07" width="1.72" height="1.72" />
            <circle class="cls-2" cx="258.7" cy="322.93" r="0.86" />
            <rect class="cls-1" x="284.03" y="342.3" width="1.26" height="1.26" />
            <circle class="cls-2" cx="284.66" cy="342.93" r="0.63" />
            <rect class="cls-1" x="320.45" y="306.64" width="2.18" height="2.18" />
            <circle class="cls-2" cx="321.54" cy="307.73" r="1.09" />
            <rect class="cls-1" x="329.59" y="347.49" width="0.55" height="0.55" />
            <circle class="cls-2" cx="329.86" cy="347.77" r="0.27" />
            <rect class="cls-1" x="348.68" y="318.98" width="2.02" height="2.02" />
            <circle class="cls-2" cx="349.69" cy="319.99" r="1.01" />
            <rect class="cls-1" x="360.28" y="347.15" width="0.73" height="0.73" />
            <circle class="cls-2" cx="360.64" cy="347.52" r="0.36" />
            <rect class="cls-1" x="379.94" y="349.9" width="1.62" height="1.62" />
            <circle class="cls-2" cx="380.75" cy="350.71" r="0.81" />
            <rect class="cls-1" x="403.56" y="321.41" width="1.65" height="1.65" />
            <circle class="cls-2" cx="404.38" cy="322.23" r="0.82" />
            <rect class="cls-1" x="423.88" y="351.63" width="1.33" height="1.33" />
            <circle class="cls-2" cx="424.54" cy="352.29" r="0.66" />
            <rect class="cls-1" x="449.92" y="358.73" width="0.45" height="0.45" />
            <circle class="cls-2" cx="450.15" cy="358.95" r="0.23" />
            <rect class="cls-1" x="462.38" y="350.56" width="1.91" height="1.91" />
            <circle class="cls-2" cx="463.33" cy="351.51" r="0.95" />
            <rect class="cls-1" x="479.94" y="309.44" width="1.92" height="1.92" />
            <circle class="cls-2" cx="480.9" cy="310.4" r="0.96" />
            <rect class="cls-1" x="498.49" y="341.34" width="2.34" height="2.34" />
            <circle class="cls-2" cx="499.66" cy="342.51" r="1.17" />
            <rect class="cls-1" x="502.74" y="323.55" width="0.52" height="0.52" />
            <circle class="cls-2" cx="503" cy="323.81" r="0.26" />
            <rect class="cls-1" x="503.61" y="319.99" width="1.58" height="1.58" />
            <circle class="cls-2" cx="504.4" cy="320.78" r="0.79" />
            <rect class="cls-1" x="494.04" y="318.12" width="1.76" height="1.76" />
            <circle class="cls-2" cx="494.92" cy="319" r="0.88" />
            <rect class="cls-1" x="486.31" y="316.98" width="0.76" height="0.76" />
            <circle class="cls-2" cx="486.69" cy="317.36" r="0.38" />
            <rect class="cls-1" x="471.63" y="299.12" width="2.4" height="2.4" />
            <circle class="cls-2" cx="472.84" cy="300.32" r="1.2" />
            <rect class="cls-1" x="445.76" y="275.79" width="0.67" height="0.67" />
            <circle class="cls-2" cx="446.09" cy="276.12" r="0.34" />
            <rect class="cls-1" x="421.97" y="300.97" width="2.54" height="2.54" />
            <circle class="cls-2" cx="423.24" cy="302.24" r="1.27" />
            <rect class="cls-1" x="414.08" y="306.99" width="0.36" height="0.36" />
            <circle class="cls-2" cx="414.26" cy="307.17" r="0.18" />
            <rect class="cls-1" x="396.1" y="307.86" width="1.98" height="1.98" />
            <circle class="cls-2" cx="397.09" cy="308.85" r="0.99" />
            <rect class="cls-1" x="365.79" y="286.57" width="1.78" height="1.78" />
            <circle class="cls-2" cx="366.68" cy="287.46" r="0.89" />
            <rect class="cls-1" x="335.13" y="279.41" width="0.6" height="0.6" />
            <circle class="cls-2" cx="335.43" cy="279.71" r="0.3" />
            <rect class="cls-1" x="306.41" y="293.95" width="0.73" height="0.73" />
            <circle class="cls-2" cx="306.78" cy="294.32" r="0.36" />
            <rect class="cls-1" x="289.46" y="309.94" width="0.8" height="0.8" />
            <circle class="cls-2" cx="289.85" cy="310.34" r="0.4" />
            <rect class="cls-1" x="274.76" y="314.79" width="0.34" height="0.34" />
            <circle class="cls-2" cx="274.93" cy="314.96" r="0.17" />
            <rect class="cls-1" x="249.69" y="310.43" width="1.11" height="1.11" />
            <circle class="cls-2" cx="250.25" cy="310.98" r="0.56" />
            <rect class="cls-1" x="228.56" y="286.27" width="1.2" height="1.2" />
            <circle class="cls-2" cx="229.17" cy="286.87" r="0.6" />
            <rect class="cls-1" x="213.34" y="284.23" width="1.87" height="1.87" />
            <circle class="cls-2" cx="214.28" cy="285.16" r="0.94" />
            <rect class="cls-1" x="187.6" y="310.35" width="1.25" height="1.25" />
            <circle class="cls-2" cx="188.23" cy="310.98" r="0.63" />
            <rect class="cls-1" x="181.06" y="272.31" width="2.04" height="2.04" />
            <circle class="cls-2" cx="182.08" cy="273.33" r="1.02" />
            <rect class="cls-1" x="171.94" y="305.95" width="0.74" height="0.74" />
            <circle class="cls-2" cx="172.31" cy="306.32" r="0.37" />
            <rect class="cls-1" x="151.25" y="295.06" width="1.98" height="1.98" />
            <circle class="cls-2" cx="152.24" cy="296.05" r="0.99" />
            <rect class="cls-1" x="136.87" y="295.74" width="0.98" height="0.98" />
            <circle class="cls-2" cx="137.36" cy="296.23" r="0.49" />
            <rect class="cls-1" x="121.41" y="280.2" width="1.74" height="1.74" />
            <circle class="cls-2" cx="122.28" cy="281.07" r="0.87" />
            <rect class="cls-1" x="115.07" y="290.18" width="1.26" height="1.26" />
            <circle class="cls-2" cx="115.71" cy="290.82" r="0.63" />
            <rect class="cls-1" x="102.91" y="321.62" width="1.92" height="1.92" />
            <circle class="cls-2" cx="103.87" cy="322.58" r="0.96" />
            <rect class="cls-1" x="83.12" y="278.71" width="1.91" height="1.91" />
            <circle class="cls-2" cx="84.08" cy="279.67" r="0.96" />
            <rect class="cls-1" x="81.98" y="283.19" width="2.07" height="2.07" />
            <circle class="cls-2" cx="83.01" cy="284.23" r="1.04" />
            <rect class="cls-1" x="66.85" y="299.21" width="1.18" height="1.18" />
            <circle class="cls-2" cx="67.44" cy="299.81" r="0.59" />
            <rect class="cls-1" x="44.88" y="304.51" width="0.56" height="0.56" />
            <circle class="cls-2" cx="45.16" cy="304.79" r="0.28" />
            <rect class="cls-1" x="46.21" y="280.86" width="2.47" height="2.47" />
            <circle class="cls-2" cx="47.44" cy="282.1" r="1.23" />
            <rect class="cls-1" x="34.65" y="289.69" width="2.6" height="2.6" />
            <circle class="cls-2" cx="35.94" cy="290.99" r="1.3" />
            <rect class="cls-1" x="19.44" y="260.66" width="1.44" height="1.44" />
            <circle class="cls-2" cx="20.16" cy="261.38" r="0.72" />
            <rect class="cls-1" x="6.08" y="258.31" width="2.56" height="2.56" />
            <circle class="cls-2" cx="7.36" cy="259.59" r="1.28" />
            <rect class="cls-1" x="10.76" y="255.06" width="1.77" height="1.77" />
            <circle class="cls-2" cx="11.65" cy="255.95" r="0.89" />
            <rect class="cls-1" x="8.08" y="208.83" width="0.63" height="0.63" />
            <circle class="cls-2" cx="8.39" cy="209.14" r="0.31" />
            <rect class="cls-1" x="38.02" y="195.51" width="0.83" height="0.83" />
            <circle class="cls-2" cx="38.43" cy="195.93" r="0.41" />
            <rect class="cls-1" x="45.63" y="229.04" width="1.73" height="1.73" />
            <circle class="cls-2" cx="46.49" cy="229.9" r="0.87" />
            <rect class="cls-1" x="53.23" y="190.39" width="1.24" height="1.24" />
            <circle class="cls-2" cx="53.85" cy="191.01" r="0.62" />
            <rect class="cls-1" x="72.36" y="207.98" width="2.23" height="2.23" />
            <circle class="cls-2" cx="73.47" cy="209.1" r="1.12" />
            <rect class="cls-1" x="85.89" y="208.16" width="1.19" height="1.19" />
            <circle class="cls-2" cx="86.49" cy="208.76" r="0.6" />
            <rect class="cls-1" x="91.62" y="186.36" width="1.94" height="1.94" />
            <circle class="cls-2" cx="92.58" cy="187.33" r="0.97" />
            <rect class="cls-1" x="103" y="215.83" width="2.2" height="2.2" />
            <circle class="cls-2" cx="104.1" cy="216.93" r="1.1" />
            <rect class="cls-1" x="127.21" y="201.44" width="0.74" height="0.74" />
            <circle class="cls-2" cx="127.58" cy="201.81" r="0.37" />
            <rect class="cls-1" x="144.92" y="242.89" width="2.19" height="2.19" />
            <circle class="cls-2" cx="146.01" cy="243.99" r="1.09" />
            <rect class="cls-1" x="160.22" y="190.42" width="0.81" height="0.81" />
            <circle class="cls-2" cx="160.63" cy="190.83" r="0.41" />
            <rect class="cls-1" x="187.74" y="189.39" width="1.36" height="1.36" />
            <circle class="cls-2" cx="188.42" cy="190.07" r="0.68" />
            <rect class="cls-1" x="196.31" y="184.85" width="1.36" height="1.36" />
            <circle class="cls-2" cx="196.99" cy="185.53" r="0.68" />
            <rect class="cls-1" x="210.97" y="195.14" width="2.61" height="2.61" />
            <circle class="cls-2" cx="212.28" cy="196.45" r="1.31" />
            <rect class="cls-1" x="218.5" y="224.15" width="0.74" height="0.74" />
            <circle class="cls-2" cx="218.87" cy="224.52" r="0.37" />
            <rect class="cls-1" x="237.29" y="226.11" width="2.23" height="2.23" />
            <circle class="cls-2" cx="238.4" cy="227.22" r="1.11" />
            <rect class="cls-1" x="269.88" y="211.22" width="2.37" height="2.37" />
            <circle class="cls-2" cx="271.07" cy="212.41" r="1.18" />
            <rect class="cls-1" x="268.78" y="241.67" width="2.55" height="2.55" />
            <circle class="cls-2" cx="270.05" cy="242.94" r="1.27" />
            <rect class="cls-1" x="289.72" y="205.58" width="0.91" height="0.91" />
            <circle class="cls-2" cx="290.18" cy="206.03" r="0.45" />
            <rect class="cls-1" x="306.18" y="196.56" width="1.4" height="1.4" />
            <circle class="cls-2" cx="306.89" cy="197.27" r="0.7" />
            <rect class="cls-1" x="306.16" y="218.83" width="2.11" height="2.11" />
            <circle class="cls-2" cx="307.22" cy="219.89" r="1.06" />
            <rect class="cls-1" x="330.91" y="205.79" width="2.56" height="2.56" />
            <circle class="cls-2" cx="332.19" cy="207.07" r="1.28" />
            <rect class="cls-1" x="357.39" y="251.95" width="0.6" height="0.6" />
            <circle class="cls-2" cx="357.69" cy="252.25" r="0.3" />
            <rect class="cls-1" x="381.81" y="212.61" width="1.33" height="1.33" />
            <circle class="cls-2" cx="382.47" cy="213.28" r="0.66" />
            <rect class="cls-1" x="396.68" y="253.03" width="2.41" height="2.41" />
            <circle class="cls-2" cx="397.88" cy="254.23" r="1.2" />
            <rect class="cls-1" x="429.87" y="233.49" width="2.06" height="2.06" />
            <circle class="cls-2" cx="430.9" cy="234.52" r="1.03" />
            <rect class="cls-1" x="438.53" y="227.6" width="2.53" height="2.53" />
            <circle class="cls-2" cx="439.8" cy="228.86" r="1.27" />
            <rect class="cls-1" x="439.82" y="200.13" width="1" height="1" />
            <circle class="cls-2" cx="440.33" cy="200.64" r="0.5" />
            <rect class="cls-1" x="460.67" y="252.68" width="1.11" height="1.11" />
            <circle class="cls-2" cx="461.23" cy="253.24" r="0.56" />
            <rect class="cls-1" x="491.33" y="219.47" width="2.39" height="2.39" />
            <circle class="cls-2" cx="492.53" cy="220.67" r="1.2" />
            <rect class="cls-1" x="451.5" y="202.14" width="1.96" height="1.96" />
            <circle class="cls-2" cx="452.47" cy="203.11" r="0.98" />
            <rect class="cls-1" x="495.62" y="195.31" width="0.38" height="0.38" />
            <circle class="cls-2" cx="495.81" cy="195.5" r="0.19" />
            <rect class="cls-1" x="454.16" y="207.37" width="1.39" height="1.39" />
            <circle class="cls-2" cx="454.85" cy="208.07" r="0.69" />
            <rect class="cls-1" x="447.62" y="193.65" width="1.14" height="1.14" />
            <circle class="cls-2" cx="448.19" cy="194.22" r="0.57" />
            <rect class="cls-1" x="417.34" y="186.89" width="0.4" height="0.4" />
            <circle class="cls-2" cx="417.54" cy="187.09" r="0.2" />
            <rect class="cls-1" x="389.64" y="182.88" width="1.56" height="1.56" />
            <circle class="cls-2" cx="390.42" cy="183.65" r="0.78" />
            <rect class="cls-1" x="355.13" y="194.32" width="0.5" height="0.5" />
            <circle class="cls-2" cx="355.38" cy="194.57" r="0.25" />
            <rect class="cls-1" x="283.26" y="193.06" width="0.56" height="0.56" />
            <circle class="cls-2" cx="283.54" cy="193.34" r="0.28" />
            <rect class="cls-1" x="229.92" y="183.73" width="1.61" height="1.61" />
            <circle class="cls-2" cx="230.73" cy="184.53" r="0.8" />
            <rect class="cls-1" x="53.12" y="182" width="0.41" height="0.41" />
            <circle class="cls-2" cx="53.32" cy="182.21" r="0.21" />
        </g>
    </g>
</svg>