<svg id="Layer_1" data-name="Layer 1" xmlns="http://www.w3.org/2000/svg" xmlns:xlink="http://www.w3.org/1999/xlink" viewBox="0 0 88.59 88.59"><defs><style>.cls-1,.cls-4{fill:none;}.cls-2{clip-path:url(#clip-path);}.cls-3{fill:#fffbf5;}.cls-4{stroke:#fffbf5;stroke-miterlimit:10;stroke-width:2px;}</style><clipPath id="clip-path"><rect class="cls-1" width="88.59" height="88.59"/></clipPath></defs><title>Instagram</title><g class="cls-2"><path class="cls-3" d="M44.29,25.19c6.28,0,7,0,9.5.14a13,13,0,0,1,4.37.81,7.79,7.79,0,0,1,4.46,4.46A13,13,0,0,1,63.44,35c.11,2.48.14,3.22.14,9.5s0,7-.14,9.5a13,13,0,0,1-.81,4.37,7.79,7.79,0,0,1-4.46,4.46,13,13,0,0,1-4.37.81c-2.48.11-3.22.14-9.5.14s-7,0-9.5-.14a13,13,0,0,1-4.37-.81A7.79,7.79,0,0,1,26,58.34,13,13,0,0,1,25.15,54C25,51.49,25,50.75,25,44.47s0-7,.14-9.5A13,13,0,0,1,26,30.6a7.78,7.78,0,0,1,4.46-4.46,13,13,0,0,1,4.37-.81c2.48-.11,3.22-.14,9.5-.14m0-4.24c-6.39,0-7.19,0-9.7.14a17.24,17.24,0,0,0-5.71,1.09A12,12,0,0,0,22,29.06a17.27,17.27,0,0,0-1.09,5.71c-.11,2.51-.14,3.31-.14,9.7s0,7.19.14,9.7A17.27,17.27,0,0,0,22,59.87a12,12,0,0,0,6.88,6.88,17.26,17.26,0,0,0,5.71,1.09c2.51.11,3.31.14,9.7.14s7.19,0,9.7-.14a17.26,17.26,0,0,0,5.71-1.09,12,12,0,0,0,6.88-6.88,17.24,17.24,0,0,0,1.09-5.71c.12-2.51.14-3.31.14-9.7s0-7.19-.14-9.7a17.24,17.24,0,0,0-1.09-5.71,12,12,0,0,0-6.88-6.88A17.23,17.23,0,0,0,54,21.09c-2.51-.12-3.31-.14-9.7-.14"/><path class="cls-3" d="M44.29,32.39A12.08,12.08,0,1,0,56.37,44.47,12.08,12.08,0,0,0,44.29,32.39m0,19.92a7.84,7.84,0,1,1,7.84-7.84,7.84,7.84,0,0,1-7.84,7.84"/><path class="cls-3" d="M59.67,31.91a2.82,2.82,0,1,1-2.82-2.82,2.82,2.82,0,0,1,2.82,2.82"/><circle class="cls-4" cx="44.29" cy="44.29" r="43.29"/></g></svg>