<svg id="Layer_1" data-name="Layer 1" xmlns="http://www.w3.org/2000/svg" viewBox="0 0 88.59 88.59"><defs><style>.cls-1{fill:none;stroke:#fffbf5;stroke-miterlimit:10;stroke-width:2px;}.cls-2{fill:#fff;}</style></defs><title>LinkedIn</title><circle class="cls-1" cx="44.29" cy="44.29" r="43.29"/><rect class="cls-2" x="24.8" y="37.6" width="8.59" height="25.8"/><path class="cls-2" d="M61.58,40a9.25,9.25,0,0,0-7.16-3,10.34,10.34,0,0,0-3,.4,6.8,6.8,0,0,0-2.27,1.13A11.19,11.19,0,0,0,47.7,39.9a11,11,0,0,0-1,1.38V37.6H38.12l0,1.25q0,1.25,0,7.71T38.12,63.4h8.57V49A6.3,6.3,0,0,1,47,46.9a5.53,5.53,0,0,1,1.65-2.23,4.21,4.21,0,0,1,2.75-.9,3.7,3.7,0,0,1,3.29,1.55,7.54,7.54,0,0,1,1.05,4.28V63.4h8.56V48.62q0-5.7-2.71-8.65Zm0,0"/><path class="cls-2" d="M29.14,25.19a4.9,4.9,0,0,0-3.5,1.26,4.19,4.19,0,0,0-1.34,3.19,4.27,4.27,0,0,0,1.3,3.18A4.7,4.7,0,0,0,29,34.09h.05a4.9,4.9,0,0,0,3.53-1.27,4.12,4.12,0,0,0,1.32-3.18,4.34,4.34,0,0,0-1.33-3.19,4.76,4.76,0,0,0-3.46-1.26Zm0,0"/></svg>