<svg xmlns="http://www.w3.org/2000/svg" viewBox="0 0 421.95 465.89"><defs><style>.cls-1{fill:#ffd800;}</style></defs><title>bulb</title><g id="Layer_2" data-name="Layer 2"><g id="Objects"><path class="cls-1" d="M302.33,219.85c-1.37-17.63-3.79-30.29-12.66-45.9-3.68-6.48-9-12.77-13.84-18.44a39.15,39.15,0,0,0-3.06-3.29c-5.55-5.22-11.58-10.39-18.31-14a123.82,123.82,0,0,0-21.4-9.2c-7.32-2.22-16.09-3-23.68-3.58a36.61,36.61,0,0,0-4.38-.06c-14.95.6-31.88,4.25-44.68,12.52a135.74,135.74,0,0,0-18.09,13.82c-3.51,3.27-5.95,7-9,10.9-9.15,11.84-11.32,16-17.13,32.15-3.24,9-3.78,18.94-4.45,28.45-.68,9.77,1.87,22.09,3.39,30.55.7,3.88,1.64,7.68,2.63,11.49q6,23.25,12,46.49c4.9,18.93,19.29,37.09,36.07,46.91A58.42,58.42,0,0,0,195,368a59.46,59.46,0,0,0,31.3-1.4c19-6.15,37.32-17.92,46.91-36.07,7.72-14.61,11.47-30.29,10.25-46.37a82.11,82.11,0,0,0,5.34-7.91C296.91,257.49,304,241,302.33,219.85Z"/><path d="M229,384.39c11.47-2,16.89-13.49,20.6-23.32,6.05-16,11.86-32.17,17.79-48.25,6.13-16.62,12.66-33.16,18.11-50a178.45,178.45,0,0,0,8.57-48.28c.56-14,1.39-29.09-3.62-42.49-4.69-12.52-14.57-20.4-26.88-25-27-10-59.61-8.41-84.3,7-23.62,14.71-37,39.25-37.32,66.91-.2,16.31,1.61,32.29,7.62,47.53,5.81,14.72,12,29.93,21.45,42.71,4.87,6.56,10.15,12.71,13,20.5,2.71,7.47,3.46,15.49,5,23.25,1,5.09,2.26,11.23,6.75,14.49,5.07,3.67,12.62,2.21,18.42,2,12.49-.38,27.75.69,38.37-7.2,11.3-8.39,9.74-23.37,14.51-35.24,3.17-7.89,8-15.06,11.81-22.65q5.13-10.25,9.26-21a235.67,235.67,0,0,0,12.72-46.9c4.67-28.69,6.53-63.09-13.83-86.56-9.8-11.3-24-16.74-38.29-19.88-15.89-3.5-32.29-3.91-48.5-3.59-14.66.29-29.34,1-41.88,9.4-10.72,7.22-18.66,18.06-23.73,29.84-6,13.9-7.87,29.19-8.41,44.2-.56,15.52-1.68,32.65,2.66,47.73,7.47,25.92,29.32,44.73,37,70.54,2.25,7.56,2.17,15.74,5.2,23.07a37.16,37.16,0,0,0,10.87,14.17c10.47,8.68,24.3,13.94,37.79,15.08s27-2.38,37.51-10.83c11.37-9.12,15.09-21.76,17.78-35.54a114.1,114.1,0,0,1,7.07-24.23c3.17-7.25,7.58-13.79,11.25-20.78,7.37-14.06,15.14-27.92,19.73-43.19,4.46-14.83,7-31,5.68-46.54-1.22-14.45-8.1-27.2-16.81-38.54-16.07-20.91-39.58-36.55-65.59-41.7-13.29-2.63-28.47-3.23-41.24,1.91s-23.78,15-33.49,24.35c-20,19.27-35.62,43.71-39.08,71.71-2,15.92-2.35,33.36-.22,49.29,1.94,14.53,8.39,25,18.36,35.45,5.43,5.67,10.86,11.35,14,18.65,3.23,7.51,4.22,15.69,6.15,23.57,3,12.29,8.93,23.58,21.69,27.6,7.61,2.4,15.91,3.41,23.8,4.47a119.1,119.1,0,0,0,23.95,1.12c13.08-.89,26.11-5,36.17-13.68a41.34,41.34,0,0,0,11.12-14.92c2.89-6.74,3.91-14,6-21,4.23-14.4,12.13-27.34,19.71-40.17,7.15-12.1,14.32-24.44,18.26-38,4.2-14.5,4.42-30.48,3.9-45.47-.51-14.74-3.1-29.69-10.65-42.57-6.56-11.2-16.25-20.33-27.15-27.26-25.53-16.22-58.37-21.13-88.08-22.57-14.52-.7-29.5.37-43,6.16-12.45,5.34-22.66,14.68-30,26-16.1,24.65-18.49,57.28-14.3,85.75a132.41,132.41,0,0,0,12.35,40c6.66,13.29,15.91,24,26.52,34.24,11.72,11.34,20.48,23.54,24.58,39.55a105.41,105.41,0,0,1,2.91,23.85c.13,5.6.67,11.23,5.3,15,5.29,4.33,13.38,5.83,19.93,6.74,5.79.8,14.44,2.08,19.78-1.09,4.08-2.42,5.15-7.42,5.67-11.77,1-8.51.81-17.14.47-25.68-.72-18-.73-35.58,1.64-53.46q1.76-13.28,4.8-26.35c1-4.26,1.74-8.16,4.92-11.36a49.12,49.12,0,0,0,5.95-7c2.63-3.84,10.25-11.34,13.16-3.11,1.67,4.74-.33,12.53-4.88,14.59-3.3,1.5-7.59,1.37-11.14,1.53a73.5,73.5,0,0,1-11.93-.25c-17.63-2.07-31.17-17.47-26.78-35.62.67-2.76,6.16-16.61,10.44-8.46,1.69,3.23,1.31,9.16,1.25,12.73a58.14,58.14,0,0,1-6,24.94c-4.15,8.33-10.85,12.65-20.36,11.94-9.27-.7-17.68-6.71-20.4-15.74-1-3.38-1.76-8.76.54-11.79,4.61-6.07,10.8,3.15,13.19,7.11,4.18,6.93,6.65,14.7,9.19,22.33,5.49,16.45,10.48,32.93,13.19,50.09a321,321,0,0,1,3.45,53.18q-.06,6.25-.28,12.49c-.11,3.27-.6,7.2-4.14,8.35-2.3.75-5.39.57-7.76.69-4,.2-8.43.66-12.35.06-1.81-.28-8-1.38-6-4.19.84-1.16,5.17-1.46,6.64-1.7,8.51-1.41,17.47-.69,26.06-.6s17.16,0,25.71.38a69.62,69.62,0,0,1,13.66,1.73,13.2,13.2,0,0,1,3,.9c.83.46,3.19,2.85,2.17,4.23s-7.25,1.54-8.75,1.68c-8.69.79-17.52.95-26.24,1.14a261.44,261.44,0,0,1-26.47-.56c-6.32-.5-14.7-3.34-20.94-1a7.06,7.06,0,0,0-4.27,9.35c1.75,4.61,6.85,6.85,11.19,8.35a84.47,84.47,0,0,0,40.27,3.43c6.94-1.06,13.66-3,20.44-4.8,4.52-1.18,9.63-2.34,13.06-5.73a1.51,1.51,0,0,0,0-2.12c-5.89-4.6-15.78-3.06-22.72-2.52-10.53.83-19.52,4.41-29.4,7.78-8,2.74-16.92,1.2-24.7,4.63-4.48,2-13.28,7.83-9.55,13.7,1.68,2.64,4.65,3.36,7.56,3.69a176.9,176.9,0,0,0,18.76.65c11.53.09,23.06-.4,34.54-1.45a137.64,137.64,0,0,0,14.65-1.93c4-.81,9.35-1.63,12.54-4.42,7.42-6.47-6.92-7.64-10.67-7.95-10.5-.85-21.09,1-31.2,3.73-9.68,2.62-20.23,5.46-29.16,10.16-4.75,2.5-12.51,9.16-8.19,15.12,1.57,2.17,4.38,3.09,6.87,3.67a89.78,89.78,0,0,0,16,1.91c11.67.59,23.35-.34,35-1.53,7.79-.8,16.33-1.82,22.75-6.72,3.47-2.64,9-9.43,1.65-10.68-10.48-1.79-22.78-.15-33.22,1.23-11.8,1.55-24.42,3.82-35.47,8.41-6.12,2.54-9.67,9.31-2.43,13.14,4.68,2.48,10.74,3.21,15.89,4a118.18,118.18,0,0,0,53-3.44c1.85-.54,1.06-3.44-.8-2.89a117.33,117.33,0,0,1-46.42,4.13,112.51,112.51,0,0,1-12.16-2.08c-3.25-.74-14.34-2.18-8.42-8.91,2-2.23,7.75-3,10.53-3.85q6.31-1.85,12.75-3.22a175.3,175.3,0,0,1,23.77-3.4q5.62-.41,11.27-.47c2.55,0,14.74-.91,10.18,3.87-4.3,4.51-10.83,6.12-16.76,7.08a223.23,223.23,0,0,1-24.09,2.22,153.81,153.81,0,0,1-22.65-.33c-3.71-.36-7.83-.63-11.39-1.87-8.42-2.93-.58-10.32,3.23-12.48,6.11-3.46,13.47-5.38,20.13-7.52a135.21,135.21,0,0,1,24.88-5.92,75.12,75.12,0,0,1,10.88-.56c1.84,0,11.63,0,12.17,1.55,1.54,4.41-22.88,6.72-25.09,6.93a351.49,351.49,0,0,1-48,1.1c-1.76-.08-3.57-.07-5.31-.3q-5.08.2-4.12-6.21a29.91,29.91,0,0,1,2.25-2.19,20.81,20.81,0,0,1,9.85-4.69c3.66-.69,7.39-.42,11.07-.91a49.16,49.16,0,0,0,10-2.69c8.1-2.92,15.68-5.9,24.33-6.86,4-.44,7.93-.5,11.91-.56,3.81-.05,8.14-.57,11.36,1.95v-2.12c-4,4-10.91,4.66-16.14,6.09-8.16,2.23-16.32,4.13-24.81,4.55a82.8,82.8,0,0,1-23.38-2.5,60.74,60.74,0,0,1-7.8-2.28,19.49,19.49,0,0,1-5.11-2.7c-.67-.53-2-1.44-2.27-2.28l1.05-6.14,1.84-.68c3.14-1,7,.08,10.22.5,4.53.59,9.09,1,13.66,1.24,8.5.46,17,.4,25.52.13,8.14-.25,16.48-.26,24.57-1.28,3.36-.42,11.29-1,11-5.95-.3-5.6-9.33-6.73-13.29-7.36-7.6-1.21-15.31-1.15-23-1.23-8.48-.09-17-.22-25.46-.25-6.85,0-15.35-.29-21.69,2.85-3.22,1.59-2.44,5.47.13,7.63,4.49,3.78,13.53,2.36,18.83,2.13,4.27-.19,12,.5,14.69-3.8,1.3-2.07,1-5,1.13-7.33q.25-6.72.32-13.45c.33-33.64-4.19-65.89-14.69-97.86-4-12.3-7.77-29.56-18.59-38-3.54-2.75-8.2-3.06-11,.81s-2.53,9.75-1.36,14.18c3.14,11.83,14.68,19.23,26.68,18.71,13.75-.61,20.11-11.34,23.66-23.42A61.36,61.36,0,0,0,220,230.35c-.29-4-.21-11.06-4.71-12.88-4.22-1.71-8.22,2.56-10,5.88a31.3,31.3,0,0,0-3.48,17.85,31.84,31.84,0,0,0,21.06,26.6c6.53,2.32,13.6,2.63,20.46,2.35,5-.2,11.8.1,15.95-3.35,5.9-4.92,7.08-22.7-3.62-22.51-5.22.09-8.53,4.39-11.21,8.31-3.84,5.61-8.5,8.55-10.27,15.37a267,267,0,0,0-7.6,48.92c-1.14,17,.81,33.8.37,50.75a71.05,71.05,0,0,1-1,12.54c-1.15,5.49-3.9,7.85-9.64,8.22a59.69,59.69,0,0,1-25-3.71c-4.75-1.84-8.24-4.56-9.27-9.83-.77-3.94-.34-8.2-.59-12.19a97.28,97.28,0,0,0-3.23-19.79,79.29,79.29,0,0,0-20.65-35.08C146.74,297,136.32,287,128.94,273.48c-14.41-26.37-18.33-58.51-13.76-88,4.84-31.29,23-60.17,55.6-67.1,14.94-3.18,30.48-2.13,45.53-.34,16.28,1.94,32.64,4.64,48.11,10.21,13.89,5,27,12.52,37.38,23.16,10.77,11.07,17.05,25,19.33,40.17a165,165,0,0,1-.36,49.42c-2.34,14.42-8.87,27.52-16.09,40.07-7,12.18-14.69,24-20.16,37-5.61,13.32-5.88,29.46-15.55,40.75s-25,16.66-39.63,17.5a128.2,128.2,0,0,1-26.91-1.75c-7.82-1.21-16.94-2-24-5.79-14.1-7.65-14.63-26.17-18.35-39.82-3.84-14.08-13.44-22.42-22.67-33-10.94-12.6-12.93-28.11-13-44.24s-.17-32.8,4.59-48.49c8.49-28,29.13-51.24,52.2-68.43,6.49-4.84,13.44-9,21.4-10.88a74.08,74.08,0,0,1,22.31-1.29,99,99,0,0,1,39.82,12.13c24.51,13.43,49.48,39.34,51.23,68.57,2,33.44-12.12,64.46-28.61,92.64A126.87,126.87,0,0,0,271.8,337c-3.06,15.61-8.64,28.89-23.25,36.84-26.29,14.29-71.58,1.38-77-30.73a101.19,101.19,0,0,0-13.3-36.53c-6.72-11.21-14.61-21.71-20.59-33.36a74.18,74.18,0,0,1-7.06-19.32c-1.64-8.28-1.45-16.83-1.51-25.24-.12-16.81.2-33.9,4.91-50.16,3.9-13.45,11.19-26.27,22.12-35.23,13.51-11.08,30.19-11.63,46.91-11.86,30.77-.44,70.76,1.39,88,31.28,8.28,14.32,10.23,31.1,9.71,47.37a224.06,224.06,0,0,1-7.21,48.81,233.32,233.32,0,0,1-17.22,46c-3.58,7.14-8,13.91-11.22,21.21-2.7,6.06-3.68,12.44-5.09,18.87-1.69,7.76-4.71,14.8-12,18.7-6.23,3.32-13.54,4.05-20.47,4.4-7.88.39-16.09,1.08-24,.69-9.64-.47-10.84-10.27-12.22-17.94C190,343.29,189,335.64,186,328.55c-2.71-6.51-7.12-11.92-11.34-17.49-9.84-13-16.23-28.31-22.18-43.37-6.23-15.77-8-32.59-7.45-49.47.54-15.54,5.23-30.08,14.71-42.48,18.65-24.42,49.82-34.7,79.77-31.21,14.73,1.72,32.26,5.9,42.15,17.86,9.6,11.61,10,28,9.73,42.34-.34,17-1.79,33.61-6.53,50s-11.07,32.12-16.93,48l-17,46.18c-4.21,11.43-8.41,30.07-22.67,32.52-1.9.33-1.09,3.22.8,2.89Z"/><path d="M79.38,254.33c-7.16-.67-13.51-3.81-19.82-7.06s-12.73-6.59-19.1-9.89L2.27,217.61C.56,216.72-1,219.31.75,220.2l41.67,21.57c11.56,6,23.69,14.32,37,15.56,1.92.18,1.91-2.82,0-3Z"/><path d="M101.93,130.77A124.09,124.09,0,0,1,59.58,82c-.85-1.74-3.43-.22-2.59,1.51a127,127,0,0,0,43.43,49.82c1.61,1.08,3.11-1.52,1.51-2.59Z"/><path d="M164.76,92.5A660.45,660.45,0,0,0,146.38,1.06a1.5,1.5,0,0,0-2.89.8A654.9,654.9,0,0,1,161.76,92.5c.24,1.89,3.25,1.91,3,0Z"/><path d="M275.67,96.42a108.58,108.58,0,0,1,26.23-70c1.25-1.46-.86-3.59-2.12-2.12a111.82,111.82,0,0,0-27.11,72.1,1.5,1.5,0,0,0,3,0Z"/><path d="M339.61,161.19l36.76-23.94c11.69-7.61,23.46-17.18,36.75-21.79,1.81-.63,1-3.53-.8-2.89-13,4.5-24.37,13.56-35.8,21l-38.43,25c-1.61,1-.11,3.65,1.51,2.59Z"/><path d="M343.56,279.95q38.43,2.33,76.94,1.26c1.93-.05,1.93-3.05,0-3q-38.49,1.07-76.94-1.26c-1.93-.12-1.92,2.88,0,3Z"/><path d="M96.77,363.41,62.66,382.77a1.5,1.5,0,0,0,1.51,2.59L98.28,366a1.5,1.5,0,0,0-1.51-2.59Z"/><path d="M325.87,373.24l65.26,39.88c1.65,1,3.16-1.58,1.51-2.59l-65.26-39.88c-1.65-1-3.16,1.58-1.51,2.59Z"/></g></g></svg>