<svg xmlns="http://www.w3.org/2000/svg" xmlns:xlink="http://www.w3.org/1999/xlink" viewBox="0 0 241.61 513.34">
    <defs>
        <style>
            .cls-1,
            .cls-10 {
                fill: none;
            }

            .cls-2 {
                fill: #e6e6e6;
            }

            .cls-3 {
                fill: #fff;
            }

            .cls-4 {
                fill: #e75339;
            }

            .cls-5 {
                clip-path: url(#clip-path);
            }

            .cls-6 {
                fill: #e04d33;
            }

            .cls-7 {
                fill: #c23118;
            }

            .cls-8 {
                clip-path: url(#clip-path-2);
            }

            .cls-9 {
                fill: #d9482e;
            }

            .cls-10 {
                stroke: #a62610;
                stroke-miterlimit: 10;
                stroke-width: 9.41px;
            }

            .cls-11 {
                clip-path: url(#clip-path-3);
            }
        </style>
        <clipPath id="clip-path">
            <path class="cls-1" d="M24.41,131.41V374.29s7.28,23.16,21,40.69,49.75,62.5,91.44,65.68c0,0,57.45-7.46,103.95-89.46V131.41L219.08,86.34s-37.05-20-39.43-20.66-57.53,8.81-61.11,7.54S59.7,85.08,59.7,85.08L34.61,106.37Z" />
        </clipPath>
        <clipPath id="clip-path-2">
            <ellipse class="cls-2" cx="78.76" cy="188.79" rx="29.42" ry="32.76" />
        </clipPath>
        <clipPath id="clip-path-3">
            <ellipse class="cls-2" cx="183.71" cy="188.79" rx="29.42" ry="32.76" />
        </clipPath>
    </defs>
    <title>logo-face</title>
    <g id="logo-face" data-name="Layer 2">
        <g id="Layer_1-2" data-name="Layer 1">
            <ellipse class="cls-3" cx="81.05" cy="188.79" rx="29.09" ry="32.39" />
            <path class="cls-4" d="M24.41,131.41V374.29s8,23.16,21.68,40.69,49.4,62.5,91.09,65.68c0,0,57.1-7.46,103.6-89.46V131.41l-21-45.07s-36.7-20-39.08-20.66-57.36,8.81-60.93,7.54S61,85.08,61,85.08L35.27,106.37Z" />
            <g class="cls-5">
                <path class="cls-6" d="M35.76,103.24,227.5,453.79l-28.59,47.57S112,514.51,109,513.26,64.92,492,63.13,490.72s-28-24.41-31-29.42S0,235.42,0,235.42s14.29-62.08,13.1-65.21S35.76,103.24,35.76,103.24Z" />
            </g>
            <path class="cls-7" d="M25.17,151.44s-36-71.36,27.65-98.91c0,0,8.81-26.88,57.22-36.31C139,10.59,149.9,19.36,173,0c0,0-3.86,21.23-19.29,35,0,0,23.79-11.27,45-11.89,0,0-7.07,15.65-6.43,21.28,0,0,28.29-.63,34.72-16.28,0,0,8.36,18.15-3.21,41.31,0,0,28.29,21.28,13.5,82,0,0-16.07-94.52-106.08-50.08a18.88,18.88,0,0,0,1.29-13.15s-17.36,10.64-52.72,6.26S24.53,118.89,25.17,151.44Z" />
            <path class="cls-7" d="M88.75,405.59s-7.51-9.6-4.59-18.36a146.27,146.27,0,0,0,4.59-18.36s5.43.83,3.76,7.93,37.14-6.26,54.25-7.93a201.37,201.37,0,0,1,34.22,0s5.84-4.17,5.43-7.51,10.89,7.09,0,26.71l-3.78-9.6s-81.79,10-85.55,10.85a7.72,7.72,0,0,0-6.26,7.93A21.58,21.58,0,0,1,88.75,405.59Z" />
            <path class="cls-7" d="M116,400.58l4.17-3.76s30.46-5.43,37.56,1.88c0,0-14.61,5.22-36.72,5.22Z" />
            <ellipse class="cls-3" cx="183.71" cy="188.79" rx="29.33" ry="32.66" />
            <ellipse class="cls-3" cx="78.76" cy="188.79" rx="29.33" ry="32.66" />
            <ellipse class="cls-2" cx="78.76" cy="188.79" rx="29.42" ry="32.76" />
            <g class="cls-8">
                <path class="cls-9" d="M49.55,185.87s1.25,7,7.51,2.11S74,177.42,79.59,178s12.77,1.31,21.28,10.05c4.38,4.5,7.51-.35,7.2-2.23l4.38-5.48s-3-12.83-3.44-13.15-6.73-9.23-7.2-9.39-4.23-6.26-4.23-6.26l-10-6.1-25.2,3.29L53,156.13l-6.26,12.68Z" />
            </g>
            <circle class="cls-9" cx="81.26" cy="200.27" r="12.62" />
            <circle class="cls-3" cx="85.63" cy="198.32" r="5.34" />
            <circle class="cls-10" cx="80.01" cy="187.85" r="47.57" />
            <circle class="cls-10" cx="182.67" cy="187.85" r="47.57" />
            <ellipse class="cls-2" cx="183.71" cy="188.79" rx="29.42" ry="32.76" />
            <g class="cls-11">
                <path class="cls-9" d="M154.5,185.87s1.25,7,7.51,2.11,16.9-10.56,22.54-9.93,12.77,1.31,21.28,10.05c4.38,4.5,7.51-.35,7.2-2.23l4.38-5.48s-3-12.83-3.44-13.15-6.73-9.23-7.2-9.39-4.23-6.26-4.23-6.26l-10-6.1-25.2,3.29-9.39,7.36-6.26,12.68Z" />
            </g>
            <circle class="cls-9" cx="183.92" cy="200.27" r="12.42" />
            <circle class="cls-3" cx="188.22" cy="198.36" r="5.25" />
        </g>
    </g>
</svg>