<svg xmlns="http://www.w3.org/2000/svg" viewBox="0 0 348.77 247.61"><defs><style>.cls-1{fill:#0f0f0f;}.cls-2{fill:#fff;}</style></defs><title>logo-bg</title><g id="Layer_2" data-name="Layer 2"><g id="Layer_3" data-name="Layer 3"><path class="cls-1" d="M345.87,84.31c-2,1.5-3.63,1.52-5.78.07l-.25-.25a4.77,4.77,0,0,1-.46-5.29,4.71,4.71,0,0,1-4.86,0c.94,2.06.82,3.74-.49,5.27l-.16.17c-2,1.5-3.67,1.52-5.77.07l-.26-.26a4.64,4.64,0,0,1-.45-5.25,4.86,4.86,0,0,1-4.81.09c.86,2,.77,3.66-.55,5.18l-.16.17c-2,1.5-3.67,1.52-5.77.07l-.26-.26a4.64,4.64,0,0,1-.45-5.25,4.86,4.86,0,0,1-4.81.09c.86,2,.77,3.66-.55,5.18l-.16.17c-2,1.5-3.67,1.52-5.77.07l-.26-.26a4.64,4.64,0,0,1-.45-5.25,4.86,4.86,0,0,1-4.81.09c.86,2,.77,3.66-.55,5.18l-.16.17c-2,1.5-3.67,1.52-5.77.07l-.26-.26a4.64,4.64,0,0,1-.45-5.25,4.86,4.86,0,0,1-4.81.09c.86,2,.77,3.66-.55,5.18l-.16.17c-2,1.5-3.67,1.52-5.77.07l-.26-.26a4.64,4.64,0,0,1-.45-5.25,4.86,4.86,0,0,1-4.81.09c.86,2,.77,3.66-.55,5.18l-.16.17c-2,1.5-3.67,1.52-5.77.07l-.26-.26a4.64,4.64,0,0,1-.45-5.25,4.86,4.86,0,0,1-4.81.09c.86,2,.77,3.66-.55,5.18l-.16.17c-2,1.5-3.67,1.52-5.77.07l-.26-.26a4.64,4.64,0,0,1-.45-5.25,4.86,4.86,0,0,1-4.81.09c.86,2,.77,3.66-.55,5.18l-.16.17c-2,1.5-3.67,1.52-5.77.07l-.26-.26a4.64,4.64,0,0,1-.45-5.25,4.86,4.86,0,0,1-4.81.09c.86,2,.77,3.66-.55,5.18l-.16.17c-2,1.5-3.67,1.52-5.77.07l-.26-.26a4.64,4.64,0,0,1-.45-5.25,4.86,4.86,0,0,1-4.81.09c.86,2,.77,3.66-.55,5.18l-.16.17c-2,1.5-3.67,1.52-5.77.07l-.26-.26a4.64,4.64,0,0,1-.45-5.25,4.86,4.86,0,0,1-4.81.09c.86,2,.77,3.66-.55,5.18l-.16.17c-2,1.5-3.67,1.52-5.77.07l-.26-.26a4.66,4.66,0,0,1-.44-5.27,4.9,4.9,0,0,1-4.83.13,4.44,4.44,0,0,1-.54,5.17l-.16.17c-2,1.5-3.67,1.52-5.77.07l-.26-.26a4.66,4.66,0,0,1-.44-5.27,4.9,4.9,0,0,1-4.83.13,4.44,4.44,0,0,1-.54,5.17l-.16.17c-2,1.5-3.67,1.52-5.77.07l-.26-.26a4.66,4.66,0,0,1-.44-5.27,4.9,4.9,0,0,1-4.83.13,4.44,4.44,0,0,1-.54,5.17l-.16.17c-2,1.5-3.67,1.52-5.77.07l-.26-.26a4.66,4.66,0,0,1-.44-5.27,4.9,4.9,0,0,1-4.83.13,4.44,4.44,0,0,1-.54,5.17l-.16.17c-2,1.5-3.67,1.52-5.77.07l-.26-.26a4.66,4.66,0,0,1-.44-5.27,4.9,4.9,0,0,1-4.83.13,4.44,4.44,0,0,1-.54,5.17l-.16.17c-2,1.5-3.67,1.52-5.77.07l-.26-.26a4.66,4.66,0,0,1-.44-5.27,4.9,4.9,0,0,1-4.83.13,4.44,4.44,0,0,1-.54,5.17l-.16.17c-2,1.5-3.67,1.52-5.77.07l-.26-.26a4.66,4.66,0,0,1-.44-5.27,4.9,4.9,0,0,1-4.83.13,4.44,4.44,0,0,1-.54,5.17l-.16.17c-2,1.5-3.67,1.52-5.77.07l-.26-.26a4.66,4.66,0,0,1-.44-5.27,4.9,4.9,0,0,1-4.83.13,4.44,4.44,0,0,1-.54,5.17l-.16.17c-2,1.5-3.67,1.52-5.77.07l-.26-.26a4.66,4.66,0,0,1-.44-5.27,4.9,4.9,0,0,1-4.83.13,4.44,4.44,0,0,1-.54,5.17l-.16.17c-2,1.5-3.67,1.52-5.77.07l-.26-.26a4.66,4.66,0,0,1-.44-5.27,4.9,4.9,0,0,1-4.83.13A4.44,4.44,0,0,1,94,84.16l-.16.17c-2,1.5-3.67,1.52-5.77.07l-.26-.26a4.64,4.64,0,0,1-.45-5.25,4.86,4.86,0,0,1-4.81.09c.86,2,.77,3.66-.55,5.18l-.16.17c-2,1.5-3.67,1.52-5.77.07l-.26-.26a4.66,4.66,0,0,1-.44-5.27,4.9,4.9,0,0,1-4.83.13A4.44,4.44,0,0,1,70,84.16l-.16.17c-2,1.5-3.67,1.52-5.77.07l-.26-.26a4.66,4.66,0,0,1-.44-5.27,4.9,4.9,0,0,1-4.83.13A4.44,4.44,0,0,1,58,84.16l-.16.17c-2,1.5-3.67,1.52-5.77.07l-.26-.26a4.66,4.66,0,0,1-.44-5.27,4.9,4.9,0,0,1-4.83.13A4.44,4.44,0,0,1,46,84.16l-.16.17c-2,1.5-3.67,1.52-5.77.07l-.26-.26a4.66,4.66,0,0,1-.44-5.27,4.9,4.9,0,0,1-4.83.13A4.44,4.44,0,0,1,34,84.16l-.16.17c-2,1.5-3.67,1.52-5.77.07l-.26-.26a4.66,4.66,0,0,1-.44-5.27,4.88,4.88,0,0,1-4.8.14A4.48,4.48,0,0,1,22,84.16l-.16.17c-2,1.5-3.67,1.52-5.77.07l-.26-.26a4.64,4.64,0,0,1-.45-5.25,4.86,4.86,0,0,1-4.81.09c.86,2,.77,3.66-.55,5.18l-.16.17c-2,1.5-3.67,1.52-5.77.07l-.26-.26a4.42,4.42,0,0,1-.57-4.94c-.2-.2-.38,0-.55,0s-.67.36-.89.18-.1-.63,0-1c.3-2,.49-4,.8-6.06a4.82,4.82,0,0,1,2.18-3.29,27,27,0,0,1,7.57-3.38,18.13,18.13,0,0,0,1.8-.51c2.1-1,4.25-.19,6.48-.28-.55-1.13.09-1.4,1.08-1.57,2.2-.37,4.38-.85,6.57-1.25.83-.15,1.43.06,1.29,1.09-.06.43-.07.88-.16,1.3s0,.54.39.47l.12,0c.83-.28,1.88.27,2.43-.07s.08-1.5,0-2.28c-.06-1.8,1.4-1.3,2.17-1.42,4.27-.67,8.56-1.2,12.85-1.71,2.66-.32,5.34-.52,8-.73.63-.05,1.23-.25,1.87-.28,1.58-.07,3.11.42,4.69.36.38,0,.74.21.55-.44-.11-.37.2-.35.43-.37l6.26-.48c.28,0,.57,0,.84,0,1.61-.28,1.61-.29,1.29,1.35a7.16,7.16,0,0,1,3.22.09c-.07-.5-.11-.88-.17-1.26S74.48,57,75,57c2.37-.13,4.74-.35,7.11-.46,1.59-.07,1.62,0,1.41,1.58,0,.22-.24.43,0,.74a6,6,0,0,1,3,0c.22-.18.11-.33.08-.48-.37-2-.3-1.87,1.7-2.14s4.13.1,6.15-.4c.7-.17,1.16.06,1.17.89a5.68,5.68,0,0,1-.25,2.13,6.77,6.77,0,0,1,3.24,0c-.35-3.27-.3-3.33,3-3.32,3.11,0,6.21-.16,9.31-.3,2.63-.13,5.27.06,7.87-.21,3.43-.35,6.86,0,10.27-.22,7.86-.49,15.73-.12,23.59-.21,6-.07,12,.05,18,0,6.79-.1,13.57.25,20.35.33,2.74,0,5.5-.07,8.23.21,2.27.23,4.53.12,6.8.2.26,0,.57-.09.74.24a6.15,6.15,0,0,1-3.35,0,6.4,6.4,0,0,1,0,3.35,6.51,6.51,0,0,1,3.31-.12,5.92,5.92,0,0,1,0-3.29c2.5.09,5,0,7.51.21,1.16.09,1.48.46,1.39,1.48,0,.51-.09,1-.15,1.62a5.87,5.87,0,0,1,3,0c.07-.1.15-.17.14-.23-.44-3.31-.33-2.61,3.21-2.55,1.17,0,2.37.15,3.55.17,2.3,0,2.47.21,2,2.54a7.17,7.17,0,0,1,3.12.06c0-.15.1-.22.09-.29-.36-1.82-.36-1.84,1.41-1.82a65.76,65.76,0,0,1,7,.48c1.24.15.15,1.08.53,1.6a6,6,0,0,1,3,0c-.09-1.43-.08-1.49,1.32-1.36,2.09.19,4.16.43,6.26.5.47,0,1.22-.09,1.31.76,0,0,.21.12.28.08,1.08-.53,2.29.31,3.39-.36.38-.23.92.15,1.37.17,1.94.08,3.86.31,5.78.51,2.86.29,5.71.59,8.57.92,2.11.24,4.22.49,6.33.76s4.36.52,6.82.81a4.51,4.51,0,0,1-2.54,0,6.68,6.68,0,0,1,0,2.88c-.13.4.05.55.41.44a6.75,6.75,0,0,1,2.89.06,5.51,5.51,0,0,1-.26-2.43c0-.53.28-.81.85-.72,2.59.4,5.19.81,7.79,1.19.85.13.48.76.39,1.1-.19.72-.08,1,.68.75a6.94,6.94,0,0,1,2.39.07c.19-.45-.28-.85,0-1.31,6.07,1,12.1,2.2,18.27,3.61a3,3,0,0,1-2.69.47c-.72-.17-1-.08-.76.69a5,5,0,0,1-.28,2.81,5.32,5.32,0,0,1,3.78.18,7.57,7.57,0,0,1-.19-3.29c.16-.56.26-.87,1-.63,2,.61,4.08,1,6.13,1.56,1.57.39,1.59.43,1.31,2.23,1.15-.34,2.39,0,3.38-.16,2.09-.42,3.56.82,5.28,1.32a29,29,0,0,1,5.6,2.44c1,.52,2,1,2.91,1.54.57.35.71.6.16,1.42a1.63,1.63,0,0,1,2.18.07,23.2,23.2,0,0,1,3.31,2.86c1.33,1.45,1.33,1.71.07,3.41Zm-17-11.11a5,5,0,0,1-.16,4.45,5.05,5.05,0,0,1,4.76.08,4.71,4.71,0,0,1-.33-4.48A6.15,6.15,0,0,1,328.82,73.21ZM9.39,77.74A4.87,4.87,0,0,1,9,73.27a5.77,5.77,0,0,1-4.19,0,5.22,5.22,0,0,1-.17,4.39A4.9,4.9,0,0,1,9.39,77.74Zm307.42-4.48a5.26,5.26,0,0,1-.13,4.43,4.9,4.9,0,0,1,4.63,0,5,5,0,0,1-.28-4.42A5.53,5.53,0,0,1,316.82,73.26Zm-156,0a5.29,5.29,0,0,1-.18,4.42,5,5,0,0,1,4.68,0,5,5,0,0,1-.37-4.37A5.17,5.17,0,0,1,160.85,73.24Zm-12.19,4.42a5.24,5.24,0,0,1,4.67,0,5,5,0,0,1-.32-4.42,5.34,5.34,0,0,1-4.15.15A5,5,0,0,1,148.67,77.66Zm-12.07,0a5,5,0,0,1,4.69,0,5.3,5.3,0,0,1-.26-4.44,5.08,5.08,0,0,1-4.15.09A4.93,4.93,0,0,1,136.6,77.7Zm-12,.06a4.88,4.88,0,0,1,4.73-.09,5.3,5.3,0,0,1-.25-4.44,5,5,0,0,1-4.11.11A5.13,5.13,0,0,1,124.56,77.76ZM112.84,73.3a5.07,5.07,0,0,1-.18,4.37,5.24,5.24,0,0,1,4.67,0,5,5,0,0,1-.32-4.4A5.07,5.07,0,0,1,112.84,73.3Zm-7.48,4.4a5,5,0,0,1-.35-4.45,5.12,5.12,0,0,1-4.12.08,5.25,5.25,0,0,1-.21,4.34A5,5,0,0,1,105.36,77.7Zm-16.76,0a5,5,0,0,1,4.7,0A5.18,5.18,0,0,1,93,73.32a5.62,5.62,0,0,1-4.12,0A4.93,4.93,0,0,1,88.6,77.7ZM81,73.23a5,5,0,0,1-4.11.1,5.27,5.27,0,0,1-.35,4.43,5.05,5.05,0,0,1,4.7-.17A5.1,5.1,0,0,1,81,73.23ZM65,73.34a15,15,0,0,1,.31,2.16c0,.72-.41,1.34-.52,2.14a4.91,4.91,0,0,1,4.55,0A5.07,5.07,0,0,1,69,73.25,4.93,4.93,0,0,1,65,73.34ZM57.3,77.66a5.1,5.1,0,0,1-.3-4.35,5.55,5.55,0,0,1-4.12,0,5.29,5.29,0,0,1-.21,4.37A4.9,4.9,0,0,1,57.3,77.66Zm-11.94.07A5,5,0,0,1,45,73.26a5.55,5.55,0,0,1-4.14.1,5.18,5.18,0,0,1-.23,4.31A4.91,4.91,0,0,1,45.37,77.73ZM33,73.42a12.83,12.83,0,0,1-2,.32,13,13,0,0,1-2-.3,12.69,12.69,0,0,1,.3,2.06c0,.72-.41,1.34-.52,2.13a4.93,4.93,0,0,1,4.58.06A4.85,4.85,0,0,1,33,73.42Zm252-.15a5.6,5.6,0,0,1-4.14.11,5.18,5.18,0,0,1-.22,4.32,5,5,0,0,1,4.7,0A5,5,0,0,1,285,73.26Zm-264,0a5.12,5.12,0,0,1-4.11.08,5.24,5.24,0,0,1-.26,4.35,5.16,5.16,0,0,1,4.66,0A5.08,5.08,0,0,1,21,73.25Zm247.61,4.47a5,5,0,0,1,4.69-.1,5,5,0,0,1-.31-4.41,5.37,5.37,0,0,1-4.15.16A5.08,5.08,0,0,1,268.64,77.73Zm40.5-.23a5.22,5.22,0,0,1-.15-4.16,5.55,5.55,0,0,1-4,0,12.57,12.57,0,0,1,.33,2.1,14.64,14.64,0,0,1-.54,2.17A5.2,5.2,0,0,1,309.14,77.5ZM297,73.26a5.15,5.15,0,0,1-4.1.08,5.22,5.22,0,0,1-.31,4.36,5.21,5.21,0,0,1,4.67-.07A5.1,5.1,0,0,1,297,73.26Zm-40.44,4.5a5,5,0,0,1,4.69-.16,5,5,0,0,1-.28-4.26,5.58,5.58,0,0,1-4.08,0A5.3,5.3,0,0,1,256.59,77.76ZM249,73.32a5.61,5.61,0,0,1-4.11,0,5.19,5.19,0,0,1-.21,4.34,5,5,0,0,1,4.68,0A5,5,0,0,1,249,73.32ZM237.36,77.7a5,5,0,0,1-.37-4.38,5.59,5.59,0,0,1-4.1,0,5.25,5.25,0,0,1-.21,4.33A5,5,0,0,1,237.36,77.7Zm-12.07,0a5.28,5.28,0,0,1-.26-4.42,5.12,5.12,0,0,1-4.14.08,5.19,5.19,0,0,1-.21,4.34A5,5,0,0,1,225.28,77.66Zm-11.89.08a5,5,0,0,1-.38-4.48,5.41,5.41,0,0,1-4.16.07,5,5,0,0,1-.18,4.31A5,5,0,0,1,213.39,77.74Zm-16.8,0a5,5,0,0,1,4.69,0,5.19,5.19,0,0,1-.3-4.34,5.62,5.62,0,0,1-4.12,0A5,5,0,0,1,196.6,77.71Zm-12,0a5,5,0,0,1,4.72,0,5,5,0,0,1-.29-4.46,5.29,5.29,0,0,1-4.15.16A5.1,5.1,0,0,1,184.62,77.72Zm-7.56-4.46a5.42,5.42,0,0,1-4.08.11,11.72,11.72,0,0,1,.31,2.14c0,.71-.42,1.33-.51,2.15a4.77,4.77,0,0,1,4.48,0A5.1,5.1,0,0,1,177.06,73.26Zm-162.21-2a5.61,5.61,0,0,1-.24-3.13c.12-.38,0-.65-.46-.48a6.2,6.2,0,0,1-3-.08A6.51,6.51,0,0,1,11,71.42,4.94,4.94,0,0,1,14.85,71.28Zm48,0a6.16,6.16,0,0,1-.2-3.71,6.18,6.18,0,0,1-3.48,0,6.22,6.22,0,0,1-.22,3.8A5.12,5.12,0,0,1,62.89,71.3Zm11.9,0a9,9,0,0,0-.37-2.11c-.2-.47,1.18-1.51-.46-1.4a8,8,0,0,1-2,0l-.23-.07c-.4-.13-.54.06-.43.41a6.36,6.36,0,0,1-.21,3.25A5,5,0,0,1,74.79,71.28Zm8.26,0a5.4,5.4,0,0,1,3.9.05,5,5,0,0,1-.33-3.16c.1-.36.06-.64-.46-.49a4.28,4.28,0,0,1-2.35,0c-.43-.12-.64,0-.51.43A5.49,5.49,0,0,1,83,71.29Zm12.08-3.69A5.21,5.21,0,0,1,95,71.3a5.55,5.55,0,0,1,3.88,0,6,6,0,0,1-.21-3.78A6.27,6.27,0,0,1,95.12,67.59Zm15.74,3.74a8.81,8.81,0,0,0-.27-1.1c-.35-.85.41-2.12-.11-2.44s-1.73.21-2.62-.07c-.5-.16-.7,0-.55.48a6,6,0,0,1-.22,3.1A5.2,5.2,0,0,1,110.86,71.33Zm8.16,0a5.34,5.34,0,0,1,3.84,0,8,8,0,0,0-.26-1.06c-.35-.85.41-2.12-.12-2.44s-1.73.21-2.62-.07c-.51-.16-.68,0-.54.49A5.27,5.27,0,0,1,119,71.32Zm15.66-3.7a5.91,5.91,0,0,1-2.91.08c-.5-.16-.58.09-.47.47a5.94,5.94,0,0,1-.25,3.2,5.11,5.11,0,0,1,3.84-.06A6.15,6.15,0,0,1,134.68,67.62ZM143,71.3a5.44,5.44,0,0,1,3.87,0,5.18,5.18,0,0,1-.3-3c.14-.49.07-.76-.57-.57a5.84,5.84,0,0,1-2.89-.13A5.33,5.33,0,0,1,143,71.3Zm15.88,0a5.21,5.21,0,0,1-.29-3.13c.1-.36.07-.64-.45-.49a4.46,4.46,0,0,1-2.47,0c-.29-.08-.51,0-.41.33a6.76,6.76,0,0,1-.18,3.32A5.17,5.17,0,0,1,158.9,71.31Zm12,0a8.78,8.78,0,0,0-.27-1.1c-.35-.85.41-2.12-.12-2.44s-1.73.21-2.62-.07c-.5-.16-.7,0-.55.48a6.06,6.06,0,0,1-.22,3.09A5.2,5.2,0,0,1,170.86,71.33Zm12,0a6.16,6.16,0,0,1-.2-3.72,6.18,6.18,0,0,1-3.48,0A6.14,6.14,0,0,1,179,71.3,5.54,5.54,0,0,1,182.89,71.3Zm12,0a4.91,4.91,0,0,1-.32-3.14c.1-.37.06-.63-.46-.48a4.45,4.45,0,0,1-2.47,0c-.3-.09-.5,0-.4.34a6.78,6.78,0,0,1-.18,3.32A5.17,5.17,0,0,1,194.94,71.31Zm11.93,0a8.72,8.72,0,0,0-.26-1.1c-.34-.85.4-2.11-.11-2.45s-1.72.21-2.62-.08c-.47-.15-.72-.07-.56.46a6,6,0,0,1-.22,3.1A5.15,5.15,0,0,1,206.86,71.35Zm8.15,0a5.52,5.52,0,0,1,3.83-.09,7.74,7.74,0,0,0-.25-1c-.34-.85.4-2.12-.11-2.45s-1.73.21-2.62-.07c-.49-.16-.7,0-.55.47A5.31,5.31,0,0,1,215,71.34Zm15.92,0a4.86,4.86,0,0,1-.33-3c.14-.5.06-.76-.57-.56a5.93,5.93,0,0,1-2.9-.13A5.22,5.22,0,0,1,227,71.3,5.56,5.56,0,0,1,230.93,71.32Zm12,0a6.16,6.16,0,0,1-.2-3.71,6.18,6.18,0,0,1-3.48,0,6.22,6.22,0,0,1-.22,3.8A5.12,5.12,0,0,1,242.89,71.3Zm12,0a5.18,5.18,0,0,1-.3-3c.14-.49.07-.76-.57-.56a5.88,5.88,0,0,1-2.9-.13A5.22,5.22,0,0,1,251,71.3,5.53,5.53,0,0,1,254.9,71.31Zm8.17,0a5.5,5.5,0,0,1,3.83,0,6.14,6.14,0,0,1-.22-3.68,5.94,5.94,0,0,1-2.91.08c-.5-.16-.59.09-.47.47A5.77,5.77,0,0,1,263.07,71.29Zm11.93.08a5.32,5.32,0,0,1,3.84-.13,7.51,7.51,0,0,0-.25-1c-.35-.85.41-2.12-.12-2.44s-1.73.21-2.62-.07c-.51-.16-.68,0-.54.49A5.36,5.36,0,0,1,275,71.38Zm12.18-3.77a5.84,5.84,0,0,1-.19,3.81,5.13,5.13,0,0,1,3.92-.12,6,6,0,0,1-.2-3.79A5.88,5.88,0,0,1,287.18,67.61Zm15.69,3.7a5.6,5.6,0,0,1-.36-2.52c.19-.82.29-1.4-.91-1a3,3,0,0,1-1.77-.07c-.37-.11-.69-.12-.53.39a6.49,6.49,0,0,1-.2,3.21A5.22,5.22,0,0,1,302.87,71.31Zm-276,0a8.51,8.51,0,0,0-.28-1.1c-.35-.85.42-2.12-.12-2.44s-1.73.19-2.63-.07c-.35-.1-.7-.16-.55.37a6.15,6.15,0,0,1-.22,3.22A5.23,5.23,0,0,1,26.87,71.33Zm8.14,0a5.52,5.52,0,0,1,3.83-.09,7.76,7.76,0,0,0-.25-1c-.34-.85.4-2.12-.11-2.45s-1.73.21-2.62-.07c-.49-.16-.7,0-.55.47A5.31,5.31,0,0,1,35,71.34Zm12,0a5.53,5.53,0,0,1,3.88,0,6.22,6.22,0,0,1-.21-3.74,4.86,4.86,0,0,1-2.81.16c-.64-.18-.71.07-.57.57A5.17,5.17,0,0,1,47,71.31Zm210.34-9.62a6.07,6.07,0,0,1,0,2.72c-.18.59.11.62.53.51a4.26,4.26,0,0,1,2.12,0c.37.09.65,0,.48-.46a6.53,6.53,0,0,1,0-2.77c-.6.06-1.11.14-1.61.14S257.93,61.74,257.37,61.69Zm-12,0c.07.39.14.66.17.93a2.55,2.55,0,0,0,2.17,2.24l.47.08c.39.07.51-.08.39-.46a6.47,6.47,0,0,1,0-2.79c-.58.05-1.09.14-1.59.14S245.95,61.74,245.33,61.68Zm-8.74,0c-.64.06-1.14.15-1.65.15s-1-.09-1.57-.14a9.84,9.84,0,0,1,.15,1.29c0,.62-.36,1.44-.08,1.82s1.16-.17,1.78,0c.23.06.47.08.7.13.46.09.79.12.59-.55A5.24,5.24,0,0,1,236.59,61.68Zm-15.25,0a6.27,6.27,0,0,1,.17,1.06c0,.7-.38,1.62-.06,2s1.3-.2,2,0a4.66,4.66,0,0,0,.58.12c.36.06.67.08.49-.45a6.49,6.49,0,0,1,0-2.79c-.59.06-1.1.15-1.6.15S221.94,61.74,221.34,61.68Zm-12-.07c.26,1.11-.1,2.19.15,3,.3.91,1.64-.19,2.44.33a.67.67,0,0,0,.23,0c.37.07.53-.06.4-.44a6.59,6.59,0,0,1,0-2.86A6.31,6.31,0,0,1,209.31,61.61Zm-12,3.37a6.83,6.83,0,0,1,2.91,0c.31.09.45-.09.35-.4a7.8,7.8,0,0,1,0-3,6.11,6.11,0,0,1-3.23.07A5.86,5.86,0,0,1,197.29,65Zm-8.58,0a6.53,6.53,0,0,1-.18-3.4,6.37,6.37,0,0,1-3.21,0,6.23,6.23,0,0,1,0,3.34A7.61,7.61,0,0,1,188.71,65ZM173.4,61.63a6.65,6.65,0,0,0,.17,2c.18.43-1.09,1.38.4,1.28a5.52,5.52,0,0,1,1.88,0,2.72,2.72,0,0,0,.35.06c.33,0,.44-.11.34-.41a7.79,7.79,0,0,1,0-2.92A5.74,5.74,0,0,1,173.4,61.63Zm-8.86,0a6.25,6.25,0,0,1-3.16.06c.06.59.15,1.1.14,1.6s-.1,1.08-.16,1.7a12.41,12.41,0,0,1,1.54-.18,15.33,15.33,0,0,1,1.66.18,15.63,15.63,0,0,1-.17-1.59C164.39,62.83,164.48,62.29,164.54,61.6Zm-15.23,0c.26,1.11-.1,2.2.15,3s1.64-.19,2.44.33a.68.68,0,0,0,.23,0c.38.07.52-.07.4-.45a6.65,6.65,0,0,1,0-2.86A6.32,6.32,0,0,1,149.31,61.62Zm-12,0a5.35,5.35,0,0,1,.1,2.74c-.2.68.15.68.59.54a7,7,0,0,1,2.47,0c0-.81,0-1.62,0-2.43,0-.27.25-.51,0-.84A6.24,6.24,0,0,1,137.31,61.61Zm-12,0a5.29,5.29,0,0,1,.1,2.74c-.21.69.17.67.59.53a7.33,7.33,0,0,1,2.47,0c0-.81,0-1.62,0-2.43,0-.26.26-.51,0-.86A5.88,5.88,0,0,1,125.31,61.62Zm-12,0a5.33,5.33,0,0,1,.07,2.89c-.13.43.11.49.44.41a4.52,4.52,0,0,1,2.24,0c.37.09.65.06.48-.46a6.68,6.68,0,0,1,0-2.84A6.46,6.46,0,0,1,113.3,61.63Zm-12,0c.08.48.16.79.19,1.11.15,1.62.39,1.88,1.93,2.08.24,0,.47.09.7.13.39.07.51-.09.39-.46a6.63,6.63,0,0,1,0-2.85A6.31,6.31,0,0,1,101.33,61.62Zm-8.64,3.43a7,7,0,0,1-.15-3.48,6,6,0,0,1-3.22.08,6.42,6.42,0,0,1,0,3.4A5.8,5.8,0,0,1,92.69,65.06ZM77.32,61.62a5.45,5.45,0,0,1,.09,2.72c-.2.65.1.71.57.56a6.52,6.52,0,0,1,2.47,0c0-.81,0-1.62,0-2.43,0-.27.24-.51,0-.88A5.76,5.76,0,0,1,77.32,61.62Zm-12,0a6.56,6.56,0,0,1,.18,1.09c0,.7-.38,1.62-.06,2.05s1.3-.2,2,0a5.66,5.66,0,0,0,.7.14c.39.07.51-.09.39-.46a6.74,6.74,0,0,1,0-2.89A6,6,0,0,1,65.33,61.64Zm-12,0c.07.58.16,1,.16,1.44a4.31,4.31,0,0,1-.12,1.3c-.2.68.15.68.59.54a7,7,0,0,1,2.47,0c0-.81,0-1.62,0-2.43,0-.27.25-.51,0-.84A6.19,6.19,0,0,1,53.36,61.62Zm-12.1,0a6.83,6.83,0,0,1,.11,3.39A6.31,6.31,0,0,1,44.66,65a6.72,6.72,0,0,1-.13-3.31,14.44,14.44,0,0,1-1.5.16C42.52,61.83,42,61.74,41.26,61.67Zm228.05,0c.25,1.09-.1,2.18.15,2.93.3.91,1.64-.19,2.44.33a.67.67,0,0,0,.23,0c.37.07.53-.06.4-.45a6.72,6.72,0,0,1,0-2.9A6,6,0,0,1,269.31,61.63Zm-74.7-2.72a5.68,5.68,0,0,1-.11-2.77c.08-.33.11-.59-.35-.45a7.62,7.62,0,0,1-2.83,0,6.4,6.4,0,0,1,0,3.21A6.34,6.34,0,0,1,194.61,58.92Zm-15.3,0a6.78,6.78,0,0,1,3.28-.08,6.45,6.45,0,0,1,0-3.27,6.77,6.77,0,0,1-3.28.08A6.45,6.45,0,0,1,179.31,58.94Zm-12,0a6.43,6.43,0,0,1,3.33,0,6.46,6.46,0,0,1-.06-3.33,6.08,6.08,0,0,1-3.25.07A6.44,6.44,0,0,1,167.3,58.92Zm-12-3.27a6.74,6.74,0,0,1,.07,3.25,6.46,6.46,0,0,1,3.27,0,6.86,6.86,0,0,1-.07-3.34A6.09,6.09,0,0,1,155.3,55.65Zm-8.67,3.26a6.78,6.78,0,0,1-.08-3.28,6.45,6.45,0,0,1-3.27,0,6.77,6.77,0,0,1,.08,3.28A6.46,6.46,0,0,1,146.63,58.91Zm-15.28,0a6.74,6.74,0,0,1,3.25-.07,6.46,6.46,0,0,1,0-3.27,6.86,6.86,0,0,1-3.34.07A6.09,6.09,0,0,1,131.35,58.92ZM122.6,55.6a6.74,6.74,0,0,1-3.28.07,6.46,6.46,0,0,1,0,3.27,6.73,6.73,0,0,1,3.28-.07A6.46,6.46,0,0,1,122.6,55.6Zm-12,3.3a5.66,5.66,0,0,1-.11-2.75c.08-.33.11-.59-.35-.45a7.61,7.61,0,0,1-2.83,0,6.46,6.46,0,0,1,0,3.25A6,6,0,0,1,110.61,58.9Z"/><path class="cls-1" d="M303.83,84.13l.26.26c.16.32.31.63.47.95a4.09,4.09,0,1,1-7.18-.07c.17-.31.32-.63.48-.95l.16-.17A5,5,0,0,1,303.83,84.13Z"/><path class="cls-1" d="M285.86,84.32l.16-.17a5,5,0,0,1,5.8,0l.26.26c.16.32.31.63.47.95a4.09,4.09,0,1,1-7.18-.07C285.55,85,285.71,84.64,285.86,84.32Z"/><path class="cls-1" d="M279.83,84.13l.26.26c.16.32.31.63.47.95a4.09,4.09,0,1,1-7.18-.07c.17-.31.32-.63.48-.95l.16-.17A5,5,0,0,1,279.83,84.13Z"/><path class="cls-1" d="M267.83,84.13l.26.26c.16.32.31.63.47.95a4.09,4.09,0,1,1-7.18-.07c.17-.31.32-.63.48-.95l.16-.17A5,5,0,0,1,267.83,84.13Z"/><path class="cls-1" d="M255.83,84.13l.26.26c.16.32.31.63.47.95a4.09,4.09,0,1,1-7.18-.07c.17-.31.32-.63.48-.95l.16-.17A5,5,0,0,1,255.83,84.13Z"/><path class="cls-1" d="M237.86,84.32l.16-.17a5,5,0,0,1,5.8,0l.26.26c.16.32.31.63.47.95a4.09,4.09,0,1,1-7.18-.07C237.55,85,237.71,84.64,237.86,84.32Z"/><path class="cls-1" d="M231.83,84.13l.26.26c.16.32.31.63.47.95a4.09,4.09,0,1,1-7.18-.07c.17-.31.32-.63.48-.95l.16-.17A5,5,0,0,1,231.83,84.13Z"/><path class="cls-1" d="M219.83,84.13l.26.26c.16.32.31.63.47.95a4.09,4.09,0,1,1-7.18-.07c.17-.31.32-.63.48-.95l.16-.17A5,5,0,0,1,219.83,84.13Z"/><path class="cls-1" d="M207.83,84.13l.26.26c.16.32.31.63.47.95a4.09,4.09,0,1,1-7.18-.07c.17-.31.32-.63.48-.95l.16-.17A5,5,0,0,1,207.83,84.13Z"/><path class="cls-1" d="M189.86,84.32l.16-.17a5,5,0,0,1,5.8,0l.26.26c.16.32.31.63.47.95a4.09,4.09,0,1,1-7.18-.07C189.55,85,189.71,84.64,189.86,84.32Z"/><path class="cls-1" d="M177.86,84.32l.16-.17a5,5,0,0,1,5.8,0l.26.26c.16.32.31.63.47.95a4.09,4.09,0,1,1-7.18-.07C177.55,85,177.71,84.64,177.86,84.32Z"/><path class="cls-1" d="M171.83,84.13l.26.26c.16.32.31.63.47.95a4.09,4.09,0,1,1-7.18-.07c.17-.31.32-.63.48-.95l.16-.17A5,5,0,0,1,171.83,84.13Z"/><path class="cls-1" d="M159.83,84.13l.26.26c.16.32.31.63.47.95a4.09,4.09,0,1,1-7.18-.07c.17-.31.32-.63.48-.95l.16-.17A5,5,0,0,1,159.83,84.13Z"/><path class="cls-1" d="M141.86,84.32l.16-.17a5,5,0,0,1,5.8,0l.26.26c.16.32.31.63.47.95a4.09,4.09,0,1,1-7.18-.07C141.55,85,141.71,84.64,141.86,84.32Z"/><path class="cls-1" d="M129.86,84.32l.16-.17a5,5,0,0,1,5.8,0l.26.26c.16.32.31.63.47.95a4.09,4.09,0,1,1-7.18-.07C129.55,85,129.71,84.64,129.86,84.32Z"/><path class="cls-1" d="M117.86,84.32l.16-.17a5,5,0,0,1,5.8,0l.26.26c.16.32.31.63.47.95a4.09,4.09,0,1,1-7.18-.07C117.55,85,117.71,84.64,117.86,84.32Z"/><path class="cls-1" d="M111.83,84.13l.26.26c.16.32.31.63.47.95a4.09,4.09,0,1,1-7.18-.07c.17-.31.32-.63.48-.95l.16-.17A5,5,0,0,1,111.83,84.13Z"/><path class="cls-1" d="M99.83,84.13l.26.26c.16.32.31.63.47.95a4.09,4.09,0,1,1-7.18-.07c.17-.31.32-.63.48-.95l.16-.17A5,5,0,0,1,99.83,84.13Z"/><path class="cls-1" d="M27.83,84.13l.26.26c.16.32.31.63.47.95a4.09,4.09,0,1,1-7.18-.07c.17-.31.32-.63.48-.95l.16-.17A5,5,0,0,1,27.83,84.13Z"/><path class="cls-1" d="M87.83,84.13l.26.26c.16.32.31.63.47.95a4.09,4.09,0,1,1-7.18-.07c.17-.31.32-.63.48-.95l.16-.17A5,5,0,0,1,87.83,84.13Z"/><path class="cls-1" d="M15.83,84.13l.26.26c.16.32.31.63.47.95a4.09,4.09,0,1,1-7.18-.07c.17-.31.32-.63.48-.95l.16-.17A5,5,0,0,1,15.83,84.13Z"/><path class="cls-1" d="M69.86,84.32l.16-.17a5,5,0,0,1,5.8,0l.26.26c.16.32.31.63.47.95a4.09,4.09,0,1,1-7.18-.07C69.55,85,69.71,84.64,69.86,84.32Z"/><path class="cls-1" d="M63.83,84.13l.26.26c.16.32.31.63.47.95a4.09,4.09,0,1,1-7.18-.07c.17-.31.32-.63.48-.95l.16-.17A5,5,0,0,1,63.83,84.13Z"/><path class="cls-1" d="M51.83,84.13l.26.26c.16.32.31.63.47.95a4.09,4.09,0,1,1-7.18-.07c.17-.31.32-.63.48-.95l.16-.17A5,5,0,0,1,51.83,84.13Z"/><path class="cls-1" d="M39.83,84.13l.26.26c.16.32.31.63.47.95a4.09,4.09,0,1,1-7.18-.07c.17-.31.32-.63.48-.95l.16-.17A5,5,0,0,1,39.83,84.13Z"/><path class="cls-1" d="M309.86,84.32l.16-.17a5,5,0,0,1,5.8,0l.26.26c.16.32.31.63.47.95a4.09,4.09,0,1,1-7.18-.07C309.55,85,309.71,84.64,309.86,84.32Z"/><path class="cls-1" d="M333.86,84.32l.16-.17a5,5,0,0,1,5.81,0l.25.25.48.94a4.09,4.09,0,1,1-7.23,0Z"/><path class="cls-1" d="M321.86,84.32l.16-.17a5,5,0,0,1,5.8,0l.26.26c.16.32.31.63.47.95a4.09,4.09,0,1,1-7.18-.07C321.55,85,321.71,84.64,321.86,84.32Z"/><path class="cls-1" d="M322.94,93.25a4,4,0,1,1-4-4A4,4,0,0,1,322.94,93.25Z"/><path class="cls-1" d="M310.94,93.23a4,4,0,1,1-4-4A4,4,0,0,1,310.94,93.23Z"/><path class="cls-1" d="M295,89.28a4,4,0,1,1-4,3.93A4,4,0,0,1,295,89.28Z"/><path class="cls-1" d="M286.94,93.25a4,4,0,1,1-4-4A4,4,0,0,1,286.94,93.25Z"/><path class="cls-1" d="M274.94,93.32a4,4,0,1,1-3.89-4A4,4,0,0,1,274.94,93.32Z"/><path class="cls-1" d="M262.94,93.32a4,4,0,1,1-3.89-4A4,4,0,0,1,262.94,93.32Z"/><path class="cls-1" d="M250.94,93.25a4,4,0,1,1-4-4A4,4,0,0,1,250.94,93.25Z"/><path class="cls-1" d="M231,93.27a4,4,0,1,1,4,4A4,4,0,0,1,231,93.27Z"/><path class="cls-1" d="M226.94,93.25a4,4,0,1,1-4-4A4,4,0,0,1,226.94,93.25Z"/><path class="cls-1" d="M214.94,93.27a4,4,0,1,1-3.95-4A4,4,0,0,1,214.94,93.27Z"/><path class="cls-1" d="M202.94,93.24a4,4,0,1,1-4-4A4,4,0,0,1,202.94,93.24Z"/><path class="cls-1" d="M187,89.28a4,4,0,1,1-4,3.91A4,4,0,0,1,187,89.28Z"/><path class="cls-1" d="M174.95,89.28a4,4,0,1,1-4,4A4,4,0,0,1,174.95,89.28Z"/><path class="cls-1" d="M154.94,93.28a4,4,0,1,1-3.94-4A4,4,0,0,1,154.94,93.28Z"/><path class="cls-1" d="M166.94,93.28a4,4,0,1,1-3.94-4A4,4,0,0,1,166.94,93.28Z"/><path class="cls-1" d="M127,97.25a4,4,0,1,1,4-4A4,4,0,0,1,127,97.25Z"/><path class="cls-1" d="M106.94,93.25a4,4,0,1,1-4-4A4,4,0,0,1,106.94,93.25Z"/><path class="cls-1" d="M94.94,93.25a4,4,0,1,1-4-4A4,4,0,0,1,94.94,93.25Z"/><path class="cls-1" d="M82.94,93.22a4,4,0,1,1-4-3.94A4,4,0,0,1,82.94,93.22Z"/><path class="cls-1" d="M67,97.25a4,4,0,1,1,3.93-4A4,4,0,0,1,67,97.25Z"/><path class="cls-1" d="M58.94,93.3a4,4,0,1,1-3.92-4A4,4,0,0,1,58.94,93.3Z"/><path class="cls-1" d="M142.94,93.23a4,4,0,1,1-4-4A4,4,0,0,1,142.94,93.23Z"/><path class="cls-1" d="M34.94,93.27a4,4,0,1,1-3.95-4A4,4,0,0,1,34.94,93.27Z"/><path class="cls-1" d="M22.94,93.24a4,4,0,1,1-4-4A4,4,0,0,1,22.94,93.24Z"/><path class="cls-1" d="M6.94,89.28a4,4,0,1,1-4,4A4,4,0,0,1,6.94,89.28Z"/><path class="cls-1" d="M114.95,89.28a4,4,0,1,1-4,4A4,4,0,0,1,114.95,89.28Z"/><path class="cls-1" d="M343,97.25a4,4,0,1,1,3.94-4A4,4,0,0,1,343,97.25Z"/><path class="cls-1" d="M334.94,93.25a4,4,0,1,1-4-4A4,4,0,0,1,334.94,93.25Z"/><path class="cls-1" d="M46.94,93.31a4,4,0,1,1-3.91-4A4,4,0,0,1,46.94,93.31Z"/><path class="cls-1" d="M24.9,103.11a3.85,3.85,0,1,1,3.91-3.82A3.83,3.83,0,0,1,24.9,103.11Z"/><path class="cls-1" d="M36.93,95.41a3.85,3.85,0,1,1-3.82,3.91A3.83,3.83,0,0,1,36.93,95.41Z"/><path class="cls-1" d="M52.81,99.31A3.85,3.85,0,1,1,49,95.41,3.83,3.83,0,0,1,52.81,99.31Z"/><path class="cls-1" d="M64.81,99.24a3.85,3.85,0,1,1-3.9-3.83A3.83,3.83,0,0,1,64.81,99.24Z"/><path class="cls-1" d="M73,103.11a3.85,3.85,0,1,1,3.82-3.91A3.83,3.83,0,0,1,73,103.11Z"/><path class="cls-1" d="M85,95.41a3.85,3.85,0,1,1-3.85,3.88A3.83,3.83,0,0,1,85,95.41Z"/><path class="cls-1" d="M100.81,99.36a3.85,3.85,0,1,1-3.78-4A3.84,3.84,0,0,1,100.81,99.36Z"/><path class="cls-1" d="M112.81,99.3A3.85,3.85,0,1,1,109,95.41,3.83,3.83,0,0,1,112.81,99.3Z"/><path class="cls-1" d="M124.81,99.27a3.85,3.85,0,1,1-3.88-3.85A3.83,3.83,0,0,1,124.81,99.27Z"/><path class="cls-1" d="M132.92,95.41a3.85,3.85,0,1,1-3.81,3.92A3.83,3.83,0,0,1,132.92,95.41Z"/><path class="cls-1" d="M148.81,99.23a3.85,3.85,0,1,1-3.92-3.81A3.83,3.83,0,0,1,148.81,99.23Z"/><path class="cls-1" d="M160.81,99.28a3.85,3.85,0,1,1-3.87-3.86A3.83,3.83,0,0,1,160.81,99.28Z"/><path class="cls-1" d="M172.81,99.23a3.85,3.85,0,1,1-3.92-3.81A3.83,3.83,0,0,1,172.81,99.23Z"/><path class="cls-1" d="M181.06,95.41a3.85,3.85,0,1,1-4,3.78A3.84,3.84,0,0,1,181.06,95.41Z"/><path class="cls-1" d="M196.81,99.27a3.85,3.85,0,1,1-3.87-3.86A3.83,3.83,0,0,1,196.81,99.27Z"/><path class="cls-1" d="M204.9,103.11a3.85,3.85,0,1,1,3.91-3.82A3.83,3.83,0,0,1,204.9,103.11Z"/><path class="cls-1" d="M220.81,99.31a3.85,3.85,0,1,1-3.83-3.9A3.83,3.83,0,0,1,220.81,99.31Z"/><path class="cls-1" d="M229,95.41a3.85,3.85,0,1,1-3.86,3.87A3.83,3.83,0,0,1,229,95.41Z"/><path class="cls-1" d="M241,95.41a3.85,3.85,0,1,1-3.86,3.87A3.83,3.83,0,0,1,241,95.41Z"/><path class="cls-1" d="M256.81,99.3A3.85,3.85,0,1,1,253,95.41,3.83,3.83,0,0,1,256.81,99.3Z"/><path class="cls-1" d="M280.81,99.28a3.85,3.85,0,1,1-3.87-3.86A3.83,3.83,0,0,1,280.81,99.28Z"/><path class="cls-1" d="M289,103.11a3.85,3.85,0,1,1,3.83-3.9A3.83,3.83,0,0,1,289,103.11Z"/><path class="cls-1" d="M301,103.11a3.85,3.85,0,1,1,3.86-3.87A3.83,3.83,0,0,1,301,103.11Z"/><path class="cls-1" d="M316.81,99.28a3.85,3.85,0,1,1-3.87-3.86A3.83,3.83,0,0,1,316.81,99.28Z"/><path class="cls-1" d="M324.92,95.41a3.85,3.85,0,1,1-3.81,3.92A3.83,3.83,0,0,1,324.92,95.41Z"/><path class="cls-1" d="M340.81,99.23a3.85,3.85,0,1,1-3.92-3.81A3.83,3.83,0,0,1,340.81,99.23Z"/><path class="cls-1" d="M16.81,99.28a3.85,3.85,0,1,1-3.87-3.87A3.83,3.83,0,0,1,16.81,99.28Z"/><path class="cls-1" d="M264.9,103.11a3.85,3.85,0,1,1,3.91-3.82A3.83,3.83,0,0,1,264.9,103.11Z"/><path class="cls-1" d="M55,101.52a3.74,3.74,0,1,1-3.77,3.71A3.78,3.78,0,0,1,55,101.52Z"/><path class="cls-1" d="M70.7,105.24a3.74,3.74,0,1,1-3.77-3.71A3.78,3.78,0,0,1,70.7,105.24Z"/><path class="cls-1" d="M82.7,105.29A3.74,3.74,0,1,1,79,101.52,3.78,3.78,0,0,1,82.7,105.29Z"/><path class="cls-1" d="M91,101.52a3.74,3.74,0,1,1-3.78,3.71A3.77,3.77,0,0,1,91,101.52Z"/><path class="cls-1" d="M115,109a3.74,3.74,0,1,1,3.71-3.77A3.78,3.78,0,0,1,115,109Z"/><path class="cls-1" d="M130.7,105.29a3.74,3.74,0,1,1-3.72-3.77A3.78,3.78,0,0,1,130.7,105.29Z"/><path class="cls-1" d="M138.92,101.52a3.74,3.74,0,1,1-3.7,3.79A3.78,3.78,0,0,1,138.92,101.52Z"/><path class="cls-1" d="M154.7,105.24a3.74,3.74,0,1,1-3.77-3.71A3.78,3.78,0,0,1,154.7,105.24Z"/><path class="cls-1" d="M166.7,105.3a3.74,3.74,0,1,1-3.71-3.78A3.77,3.77,0,0,1,166.7,105.3Z"/><path class="cls-1" d="M174.93,101.52a3.74,3.74,0,1,1-3.71,3.77A3.78,3.78,0,0,1,174.93,101.52Z"/><path class="cls-1" d="M103,101.52a3.74,3.74,0,1,1-3.75,3.74A3.78,3.78,0,0,1,103,101.52Z"/><path class="cls-1" d="M190.7,105.29a3.74,3.74,0,1,1-3.72-3.77A3.78,3.78,0,0,1,190.7,105.29Z"/><path class="cls-1" d="M202.7,105.27a3.74,3.74,0,1,1-3.74-3.75A3.78,3.78,0,0,1,202.7,105.27Z"/><path class="cls-1" d="M211,101.52a3.74,3.74,0,1,1-3.77,3.72A3.78,3.78,0,0,1,211,101.52Z"/><path class="cls-1" d="M226.7,105.23a3.74,3.74,0,1,1-3.78-3.71A3.78,3.78,0,0,1,226.7,105.23Z"/><path class="cls-1" d="M235,109a3.74,3.74,0,1,1,3.7-3.78A3.77,3.77,0,0,1,235,109Z"/><path class="cls-1" d="M250.7,105.3a3.74,3.74,0,1,1-3.7-3.78A3.77,3.77,0,0,1,250.7,105.3Z"/><path class="cls-1" d="M258.94,101.52a3.74,3.74,0,1,1-3.72,3.77A3.78,3.78,0,0,1,258.94,101.52Z"/><path class="cls-1" d="M274.7,105.24a3.74,3.74,0,1,1-3.76-3.72A3.78,3.78,0,0,1,274.7,105.24Z"/><path class="cls-1" d="M286.7,105.31a3.74,3.74,0,1,1-3.7-3.78A3.78,3.78,0,0,1,286.7,105.31Z"/><path class="cls-1" d="M294.93,109a3.74,3.74,0,1,1,3.78-3.71A3.77,3.77,0,0,1,294.93,109Z"/><path class="cls-1" d="M310.7,105.29a3.74,3.74,0,1,1-3.72-3.77A3.78,3.78,0,0,1,310.7,105.29Z"/><path class="cls-1" d="M318.92,109a3.74,3.74,0,1,1,3.78-3.7A3.78,3.78,0,0,1,318.92,109Z"/><path class="cls-1" d="M334.7,105.26a3.74,3.74,0,1,1-3.75-3.74A3.78,3.78,0,0,1,334.7,105.26Z"/><path class="cls-1" d="M346.7,105.24a3.74,3.74,0,1,1-3.77-3.72A3.78,3.78,0,0,1,346.7,105.24Z"/><path class="cls-1" d="M46.7,105.43a3.74,3.74,0,1,1-3.57-3.9A3.77,3.77,0,0,1,46.7,105.43Z"/><path class="cls-1" d="M34.7,105.23a3.74,3.74,0,1,1-3.77-3.71A3.78,3.78,0,0,1,34.7,105.23Z"/><path class="cls-1" d="M22.7,105.22a3.74,3.74,0,1,1-3.78-3.7A3.78,3.78,0,0,1,22.7,105.22Z"/><path class="cls-1" d="M7,109a3.74,3.74,0,1,1,3.72-3.77A3.78,3.78,0,0,1,7,109Z"/><path class="cls-1" d="M268.56,111.31a3.6,3.6,0,1,1-3.5-3.65A3.6,3.6,0,0,1,268.56,111.31Z"/><path class="cls-1" d="M253,107.66a3.6,3.6,0,1,1-3.6,3.54A3.6,3.6,0,0,1,253,107.66Z"/><path class="cls-1" d="M244.56,111.26a3.6,3.6,0,1,1-3.55-3.6A3.6,3.6,0,0,1,244.56,111.26Z"/><path class="cls-1" d="M229,114.87a3.6,3.6,0,1,1,3.54-3.6A3.6,3.6,0,0,1,229,114.87Z"/><path class="cls-1" d="M220.56,111.29a3.6,3.6,0,1,1-3.52-3.63A3.6,3.6,0,0,1,220.56,111.29Z"/><path class="cls-1" d="M208.56,111.2a3.6,3.6,0,1,1-3.6-3.55A3.6,3.6,0,0,1,208.56,111.2Z"/><path class="cls-1" d="M192.92,114.87a3.6,3.6,0,1,1,3.64-3.51A3.6,3.6,0,0,1,192.92,114.87Z"/><path class="cls-1" d="M184.56,111.31a3.6,3.6,0,1,1-3.5-3.65A3.6,3.6,0,0,1,184.56,111.31Z"/><path class="cls-1" d="M169,114.87a3.6,3.6,0,1,1,3.58-3.57A3.6,3.6,0,0,1,169,114.87Z"/><path class="cls-1" d="M156.92,107.66a3.6,3.6,0,1,1-3.57,3.58A3.6,3.6,0,0,1,156.92,107.66Z"/><path class="cls-1" d="M141.36,111.3a3.6,3.6,0,1,1,3.58,3.56A3.6,3.6,0,0,1,141.36,111.3Z"/><path class="cls-1" d="M133,107.66a3.6,3.6,0,1,1-3.64,3.51A3.6,3.6,0,0,1,133,107.66Z"/><path class="cls-1" d="M120.9,107.66a3.6,3.6,0,1,1-3.55,3.6A3.6,3.6,0,0,1,120.9,107.66Z"/><path class="cls-1" d="M112.56,111.2a3.6,3.6,0,1,1-3.6-3.54A3.6,3.6,0,0,1,112.56,111.2Z"/><path class="cls-1" d="M97,107.66a3.6,3.6,0,1,1-3.6,3.54A3.6,3.6,0,0,1,97,107.66Z"/><path class="cls-1" d="M84.92,114.87a3.6,3.6,0,1,1,3.64-3.51A3.6,3.6,0,0,1,84.92,114.87Z"/><path class="cls-1" d="M76.56,111.29A3.6,3.6,0,1,1,73,107.66,3.6,3.6,0,0,1,76.56,111.29Z"/><path class="cls-1" d="M61.14,107.66A3.61,3.61,0,1,1,57.36,111,3.6,3.6,0,0,1,61.14,107.66Z"/><path class="cls-1" d="M49,114.87a3.6,3.6,0,1,1,3.59-3.56A3.6,3.6,0,0,1,49,114.87Z"/><path class="cls-1" d="M37,107.66a3.6,3.6,0,1,1-3.6,3.54A3.6,3.6,0,0,1,37,107.66Z"/><path class="cls-1" d="M24.9,107.66a3.6,3.6,0,1,1-3.55,3.6A3.6,3.6,0,0,1,24.9,107.66Z"/><path class="cls-1" d="M16.56,111.28A3.6,3.6,0,1,1,13,107.66,3.6,3.6,0,0,1,16.56,111.28Z"/><path class="cls-1" d="M328.56,111.21a3.6,3.6,0,1,1-3.6-3.55A3.6,3.6,0,0,1,328.56,111.21Z"/><path class="cls-1" d="M313.06,107.66a3.61,3.61,0,1,1-3.7,3.44A3.6,3.6,0,0,1,313.06,107.66Z"/><path class="cls-1" d="M300.86,114.87a3.61,3.61,0,1,1,3.7-3.44A3.6,3.6,0,0,1,300.86,114.87Z"/><path class="cls-1" d="M289,114.87a3.6,3.6,0,1,1,3.56-3.59A3.6,3.6,0,0,1,289,114.87Z"/><path class="cls-1" d="M277,114.87a3.6,3.6,0,1,1,3.54-3.6A3.6,3.6,0,0,1,277,114.87Z"/><path class="cls-1" d="M336.9,107.66a3.6,3.6,0,1,1-3.55,3.6A3.6,3.6,0,0,1,336.9,107.66Z"/><path class="cls-1" d="M223,113.79a3.48,3.48,0,1,1-3.5,3.48A3.47,3.47,0,0,1,223,113.79Z"/><path class="cls-1" d="M214.44,117.25a3.48,3.48,0,1,1-3.52-3.46A3.47,3.47,0,0,1,214.44,117.25Z"/><path class="cls-1" d="M199,120.74a3.48,3.48,0,1,1,3.48-3.5A3.47,3.47,0,0,1,199,120.74Z"/><path class="cls-1" d="M190.44,117.28a3.48,3.48,0,1,1-3.49-3.49A3.47,3.47,0,0,1,190.44,117.28Z"/><path class="cls-1" d="M174.91,120.74a3.48,3.48,0,1,1,3.52-3.46A3.47,3.47,0,0,1,174.91,120.74Z"/><path class="cls-1" d="M163,120.74a3.48,3.48,0,1,1,3.46-3.52A3.47,3.47,0,0,1,163,120.74Z"/><path class="cls-1" d="M154.44,117.31a3.48,3.48,0,1,1-3.46-3.52A3.47,3.47,0,0,1,154.44,117.31Z"/><path class="cls-1" d="M330.67,120.74a3.48,3.48,0,1,1,3.52-3.46A3.47,3.47,0,0,1,330.67,120.74Z"/><path class="cls-1" d="M139,113.79a3.48,3.48,0,1,1-3.53,3.45A3.47,3.47,0,0,1,139,113.79Z"/><path class="cls-1" d="M126.91,113.79a3.48,3.48,0,1,1-3.43,3.55A3.47,3.47,0,0,1,126.91,113.79Z"/><path class="cls-1" d="M118.44,117.21a3.48,3.48,0,1,1-3.56-3.42A3.47,3.47,0,0,1,118.44,117.21Z"/><path class="cls-1" d="M295,113.79a3.48,3.48,0,1,1-3.48,3.5A3.47,3.47,0,0,1,295,113.79Z"/><path class="cls-1" d="M94.44,117.29a3.48,3.48,0,1,1-3.48-3.5A3.47,3.47,0,0,1,94.44,117.29Z"/><path class="cls-1" d="M82.44,117.27a3.48,3.48,0,1,1-3.5-3.48A3.47,3.47,0,0,1,82.44,117.27Z"/><path class="cls-1" d="M70.44,117.36A3.48,3.48,0,1,1,67,113.79,3.47,3.47,0,0,1,70.44,117.36Z"/><path class="cls-1" d="M55,113.79a3.48,3.48,0,1,1-3.52,3.46A3.47,3.47,0,0,1,55,113.79Z"/><path class="cls-1" d="M46.44,117.22a3.48,3.48,0,1,1-3.55-3.44A3.47,3.47,0,0,1,46.44,117.22Z"/><path class="cls-1" d="M30.91,120.74a3.48,3.48,0,1,1,3.52-3.46A3.47,3.47,0,0,1,30.91,120.74Z"/><path class="cls-1" d="M106.44,117.24a3.48,3.48,0,1,1-3.53-3.45A3.47,3.47,0,0,1,106.44,117.24Z"/><path class="cls-1" d="M19,113.79a3.48,3.48,0,1,1-3.5,3.48A3.47,3.47,0,0,1,19,113.79Z"/><path class="cls-1" d="M7,113.79a3.48,3.48,0,1,1-3.49,3.49A3.47,3.47,0,0,1,7,113.79Z"/><path class="cls-1" d="M346.2,117.23a3.48,3.48,0,1,1-3.54-3.44A3.47,3.47,0,0,1,346.2,117.23Z"/><path class="cls-1" d="M322.44,117.28a3.48,3.48,0,1,1-3.49-3.49A3.47,3.47,0,0,1,322.44,117.28Z"/><path class="cls-1" d="M274.44,117.36a3.48,3.48,0,1,1-3.41-3.57A3.47,3.47,0,0,1,274.44,117.36Z"/><path class="cls-1" d="M283,120.74a3.48,3.48,0,1,1,3.44-3.55A3.47,3.47,0,0,1,283,120.74Z"/><path class="cls-1" d="M262.44,117.26a3.48,3.48,0,1,1-3.51-3.47A3.47,3.47,0,0,1,262.44,117.26Z"/><path class="cls-1" d="M247,120.74a3.48,3.48,0,1,1,3.44-3.55A3.47,3.47,0,0,1,247,120.74Z"/><path class="cls-1" d="M306.91,120.74a3.48,3.48,0,1,1,3.52-3.46A3.47,3.47,0,0,1,306.91,120.74Z"/><path class="cls-1" d="M231.48,117.21a3.48,3.48,0,1,1,3.45,3.53A3.47,3.47,0,0,1,231.48,117.21Z"/><path class="cls-1" d="M285.37,123.24a3.35,3.35,0,1,1,3.33,3.37A3.37,3.37,0,0,1,285.37,123.24Z"/><path class="cls-1" d="M300.68,119.91a3.35,3.35,0,1,1-3.32,3.39A3.37,3.37,0,0,1,300.68,119.91Z"/><path class="cls-1" d="M316.07,123.22a3.35,3.35,0,1,1-3.39-3.31A3.37,3.37,0,0,1,316.07,123.22Z"/><path class="cls-1" d="M324.66,119.91a3.35,3.35,0,1,1-3.3,3.41A3.37,3.37,0,0,1,324.66,119.91Z"/><path class="cls-1" d="M340.07,123.27a3.35,3.35,0,1,1-3.35-3.36A3.37,3.37,0,0,1,340.07,123.27Z"/><path class="cls-1" d="M16.31,123.25a3.35,3.35,0,1,1-3.37-3.34A3.37,3.37,0,0,1,16.31,123.25Z"/><path class="cls-1" d="M28.31,123.3A3.35,3.35,0,1,1,25,119.91,3.37,3.37,0,0,1,28.31,123.3Z"/><path class="cls-1" d="M40.31,123.3A3.35,3.35,0,1,1,37,119.91,3.37,3.37,0,0,1,40.31,123.3Z"/><path class="cls-1" d="M52.31,123.25a3.35,3.35,0,1,1-3.37-3.34A3.37,3.37,0,0,1,52.31,123.25Z"/><path class="cls-1" d="M61,119.91a3.35,3.35,0,1,1-3.39,3.32A3.37,3.37,0,0,1,61,119.91Z"/><path class="cls-1" d="M76.31,123.3A3.35,3.35,0,1,1,73,119.91,3.37,3.37,0,0,1,76.31,123.3Z"/><path class="cls-1" d="M88.31,123.22a3.35,3.35,0,1,1-3.39-3.31A3.37,3.37,0,0,1,88.31,123.22Z"/><path class="cls-1" d="M96.94,126.62a3.35,3.35,0,1,1,3.38-3.33A3.37,3.37,0,0,1,96.94,126.62Z"/><path class="cls-1" d="M109,126.62a3.35,3.35,0,1,1,3.35-3.36A3.37,3.37,0,0,1,109,126.62Z"/><path class="cls-1" d="M120.95,126.62a3.35,3.35,0,1,1,3.37-3.34A3.37,3.37,0,0,1,120.95,126.62Z"/><path class="cls-1" d="M136.31,123.25a3.35,3.35,0,1,1-3.36-3.34A3.37,3.37,0,0,1,136.31,123.25Z"/><path class="cls-1" d="M144.95,126.62a3.35,3.35,0,1,1,3.36-3.34A3.37,3.37,0,0,1,144.95,126.62Z"/><path class="cls-1" d="M160.31,123.23a3.35,3.35,0,1,1-3.38-3.32A3.37,3.37,0,0,1,160.31,123.23Z"/><path class="cls-1" d="M169,119.91a3.35,3.35,0,1,1-3.37,3.33A3.37,3.37,0,0,1,169,119.91Z"/><path class="cls-1" d="M184.31,123.25a3.35,3.35,0,1,1-3.36-3.34A3.37,3.37,0,0,1,184.31,123.25Z"/><path class="cls-1" d="M196.31,123.25a3.35,3.35,0,1,1-3.37-3.34A3.37,3.37,0,0,1,196.31,123.25Z"/><path class="cls-1" d="M205,126.62a3.35,3.35,0,1,1,3.32-3.39A3.37,3.37,0,0,1,205,126.62Z"/><path class="cls-1" d="M217,126.62a3.35,3.35,0,1,1,3.35-3.36A3.37,3.37,0,0,1,217,126.62Z"/><path class="cls-1" d="M232.31,123.24a3.35,3.35,0,1,1-3.38-3.33A3.37,3.37,0,0,1,232.31,123.24Z"/><path class="cls-1" d="M241,119.91a3.35,3.35,0,1,1-3.36,3.34A3.37,3.37,0,0,1,241,119.91Z"/><path class="cls-1" d="M256.07,123.29a3.35,3.35,0,1,1-3.32-3.38A3.37,3.37,0,0,1,256.07,123.29Z"/><path class="cls-1" d="M268.07,123.23a3.35,3.35,0,1,1-3.39-3.32A3.37,3.37,0,0,1,268.07,123.23Z"/><path class="cls-1" d="M273.37,123.24a3.35,3.35,0,1,1,3.33,3.37A3.37,3.37,0,0,1,273.37,123.24Z"/><path class="cls-1" d="M139,126.08a3.18,3.18,0,1,1-3.19,3.18A3.13,3.13,0,0,1,139,126.08Z"/><path class="cls-1" d="M246.71,126.08a3.18,3.18,0,1,1-3.17,3.19A3.13,3.13,0,0,1,246.71,126.08Z"/><path class="cls-1" d="M237.9,129.29a3.18,3.18,0,1,1-3.16-3.21A3.13,3.13,0,0,1,237.9,129.29Z"/><path class="cls-1" d="M222.7,132.45a3.18,3.18,0,1,1,3.2-3.16A3.13,3.13,0,0,1,222.7,132.45Z"/><path class="cls-1" d="M213.9,129.24a3.18,3.18,0,1,1-3.2-3.16A3.13,3.13,0,0,1,213.9,129.24Z"/><path class="cls-1" d="M201.9,129.32a3.18,3.18,0,1,1-3.13-3.24A3.13,3.13,0,0,1,201.9,129.32Z"/><path class="cls-1" d="M186.82,126.08a3.18,3.18,0,1,1-3.28,3.08A3.14,3.14,0,0,1,186.82,126.08Z"/><path class="cls-1" d="M177.9,129.26a3.18,3.18,0,1,1-3.19-3.18A3.13,3.13,0,0,1,177.9,129.26Z"/><path class="cls-1" d="M165.9,129.24a3.18,3.18,0,1,1-3.21-3.16A3.13,3.13,0,0,1,165.9,129.24Z"/><path class="cls-1" d="M154.14,129.24a3.18,3.18,0,1,1-3.21-3.15A3.13,3.13,0,0,1,154.14,129.24Z"/><path class="cls-1" d="M106.14,129.24a3.18,3.18,0,1,1-3.21-3.16A3.13,3.13,0,0,1,106.14,129.24Z"/><path class="cls-1" d="M126.91,126.08a3.18,3.18,0,1,1-3.13,3.24A3.13,3.13,0,0,1,126.91,126.08Z"/><path class="cls-1" d="M115,126.08a3.18,3.18,0,1,1-3.19,3.18A3.13,3.13,0,0,1,115,126.08Z"/><path class="cls-1" d="M10.14,129.32a3.13,3.13,0,0,1-3.24,3.13A3.18,3.18,0,1,1,7,126.08,3.13,3.13,0,0,1,10.14,129.32Z"/><path class="cls-1" d="M18.93,126.08a3.18,3.18,0,1,1-3.16,3.21A3.13,3.13,0,0,1,18.93,126.08Z"/><path class="cls-1" d="M46.14,129.24a3.18,3.18,0,1,1-3.21-3.15A3.13,3.13,0,0,1,46.14,129.24Z"/><path class="cls-1" d="M87.78,129.16a3.18,3.18,0,1,1,3.08,3.28A3.14,3.14,0,0,1,87.78,129.16Z"/><path class="cls-1" d="M58.14,129.25a3.18,3.18,0,1,1-3.2-3.17A3.13,3.13,0,0,1,58.14,129.25Z"/><path class="cls-1" d="M67,132.45a3.18,3.18,0,1,1,3.15-3.21A3.13,3.13,0,0,1,67,132.45Z"/><path class="cls-1" d="M270.68,126.08a3.18,3.18,0,1,1-3.15,3.22A3.13,3.13,0,0,1,270.68,126.08Z"/><path class="cls-1" d="M82.14,129.27A3.18,3.18,0,1,1,79,126.08,3.13,3.13,0,0,1,82.14,129.27Z"/><path class="cls-1" d="M31,126.08a3.18,3.18,0,1,1-3.18,3.19A3.13,3.13,0,0,1,31,126.08Z"/><path class="cls-1" d="M258.75,126.08a3.18,3.18,0,1,1-3.21,3.15A3.13,3.13,0,0,1,258.75,126.08Z"/><path class="cls-1" d="M282.77,126.08a3.18,3.18,0,1,1-3.24,3.13A3.13,3.13,0,0,1,282.77,126.08Z"/><path class="cls-1" d="M294.67,126.08a3.18,3.18,0,1,1-3.14,3.23A3.13,3.13,0,0,1,294.67,126.08Z"/><path class="cls-1" d="M309.9,129.24a3.18,3.18,0,1,1-3.21-3.15A3.13,3.13,0,0,1,309.9,129.24Z"/><path class="cls-1" d="M321.9,129.29a3.18,3.18,0,1,1-3.16-3.21A3.13,3.13,0,0,1,321.9,129.29Z"/><path class="cls-1" d="M345.84,129.28a3,3,0,0,1-3.26,3.16,3.18,3.18,0,0,1,.28-6.36A3,3,0,0,1,345.84,129.28Z"/><path class="cls-1" d="M333.9,129.28a3.18,3.18,0,1,1-3.16-3.2A3.13,3.13,0,0,1,333.9,129.28Z"/><path class="cls-1" d="M144.67,138.34a3.08,3.08,0,1,1,3.13-3A3.14,3.14,0,0,1,144.67,138.34Z"/><path class="cls-1" d="M231.79,135.31a3.08,3.08,0,1,1-3-3.12A3.14,3.14,0,0,1,231.79,135.31Z"/><path class="cls-1" d="M219.79,135.22a3.07,3.07,0,1,1-3.09-3A3.15,3.15,0,0,1,219.79,135.22Z"/><path class="cls-1" d="M207.79,135.25a3.07,3.07,0,1,1-3.06-3.06A3.14,3.14,0,0,1,207.79,135.25Z"/><path class="cls-1" d="M183.79,135.22a3.07,3.07,0,1,1-3.09-3A3.14,3.14,0,0,1,183.79,135.22Z"/><path class="cls-1" d="M171.79,135.22a3.07,3.07,0,1,1-3.09-3A3.14,3.14,0,0,1,171.79,135.22Z"/><path class="cls-1" d="M159.79,135.28a3.08,3.08,0,1,1-3-3.09A3.14,3.14,0,0,1,159.79,135.28Z"/><path class="cls-1" d="M192.7,132.19a3.07,3.07,0,1,1-3.06,3.06A3.14,3.14,0,0,1,192.7,132.19Z"/><path class="cls-1" d="M120.74,132.19a3.08,3.08,0,1,1-3.1,3A3.14,3.14,0,0,1,120.74,132.19Z"/><path class="cls-1" d="M111.79,135.25a3.07,3.07,0,1,1-3.06-3.06A3.14,3.14,0,0,1,111.79,135.25Z"/><path class="cls-1" d="M99.79,135.29a3.08,3.08,0,1,1-3-3.1A3.14,3.14,0,0,1,99.79,135.29Z"/><path class="cls-1" d="M87.79,135.22a3.07,3.07,0,1,1-3.09-3A3.15,3.15,0,0,1,87.79,135.22Z"/><path class="cls-1" d="M72.94,138.34a3.08,3.08,0,1,1,3.09-3A3.14,3.14,0,0,1,72.94,138.34Z"/><path class="cls-1" d="M60.93,132.19a3.07,3.07,0,1,1-3,3.07A3.15,3.15,0,0,1,60.93,132.19Z"/><path class="cls-1" d="M288.7,138.34a3.08,3.08,0,1,1,3.09-3A3.14,3.14,0,0,1,288.7,138.34Z"/><path class="cls-1" d="M276.71,132.19a3.07,3.07,0,1,1-3.06,3.06A3.14,3.14,0,0,1,276.71,132.19Z"/><path class="cls-1" d="M264.68,132.19a3.07,3.07,0,1,1-3,3.09A3.14,3.14,0,0,1,264.68,132.19Z"/><path class="cls-1" d="M255.79,135.2a3.08,3.08,0,1,1-3.1-3A3.15,3.15,0,0,1,255.79,135.2Z"/><path class="cls-1" d="M243.79,135.22a3.07,3.07,0,1,1-3.09-3A3.15,3.15,0,0,1,243.79,135.22Z"/><path class="cls-1" d="M28,135.32a3.08,3.08,0,1,1-3-3.13A3.14,3.14,0,0,1,28,135.32Z"/><path class="cls-1" d="M132.7,138.34a3.08,3.08,0,1,1,3.1-3A3.14,3.14,0,0,1,132.7,138.34Z"/><path class="cls-1" d="M52,135.32a3.08,3.08,0,1,1-3-3.13A3.15,3.15,0,0,1,52,135.32Z"/><path class="cls-1" d="M40,135.24a3.07,3.07,0,1,1-3.07-3A3.15,3.15,0,0,1,40,135.24Z"/><path class="cls-1" d="M333.64,135.27a3.07,3.07,0,1,1,3,3.07A3.14,3.14,0,0,1,333.64,135.27Z"/><path class="cls-1" d="M327.79,135.28a3.08,3.08,0,1,1-3-3.09A3.14,3.14,0,0,1,327.79,135.28Z"/><path class="cls-1" d="M16,135.27A3.14,3.14,0,0,1,13,138.34a3.07,3.07,0,1,1,0-6.15A3.14,3.14,0,0,1,16,135.27Z"/><path class="cls-1" d="M312.7,132.19a3.07,3.07,0,1,1-3.06,3.06A3.14,3.14,0,0,1,312.7,132.19Z"/><path class="cls-1" d="M303.79,135.26a3.07,3.07,0,1,1-3.05-3.07A3.14,3.14,0,0,1,303.79,135.26Z"/><path class="cls-1" d="M321.61,141.23a2.89,2.89,0,1,1-2.9-2.86A2.87,2.87,0,0,1,321.61,141.23Z"/><path class="cls-1" d="M210.7,138.37a2.89,2.89,0,1,1-2.88,2.88A2.87,2.87,0,0,1,210.7,138.37Z"/><path class="cls-1" d="M249.61,141.32a2.9,2.9,0,1,1-2.81-3A2.87,2.87,0,0,1,249.61,141.32Z"/><path class="cls-1" d="M177.61,141.26a2.89,2.89,0,1,1-2.87-2.89A2.87,2.87,0,0,1,177.61,141.26Z"/><path class="cls-1" d="M186.82,138.37a2.9,2.9,0,1,1-3,2.77A2.87,2.87,0,0,1,186.82,138.37Z"/><path class="cls-1" d="M201.61,141.31a2.9,2.9,0,1,1-2.82-2.94A2.87,2.87,0,0,1,201.61,141.31Z"/><path class="cls-1" d="M222.72,138.37a2.89,2.89,0,1,1-2.9,2.86A2.87,2.87,0,0,1,222.72,138.37Z"/><path class="cls-1" d="M234.72,144.16a2.89,2.89,0,1,1,2.9-2.86A2.87,2.87,0,0,1,234.72,144.16Z"/><path class="cls-1" d="M54.82,138.37a2.9,2.9,0,1,1-3,2.77A2.87,2.87,0,0,1,54.82,138.37Z"/><path class="cls-1" d="M258.68,138.37a2.89,2.89,0,1,1-2.85,2.91A2.87,2.87,0,0,1,258.68,138.37Z"/><path class="cls-1" d="M270.71,144.16a2.89,2.89,0,1,1,2.91-2.85A2.87,2.87,0,0,1,270.71,144.16Z"/><path class="cls-1" d="M333.61,141.25a2.89,2.89,0,1,1-2.88-2.88A2.87,2.87,0,0,1,333.61,141.25Z"/><path class="cls-1" d="M285.61,141.27a2.89,2.89,0,1,1-2.86-2.9A2.87,2.87,0,0,1,285.61,141.27Z"/><path class="cls-1" d="M294.67,144.16a2.9,2.9,0,1,1,2.95-2.81A2.87,2.87,0,0,1,294.67,144.16Z"/><path class="cls-1" d="M306.72,144.16a2.89,2.89,0,1,1,2.9-2.86A2.87,2.87,0,0,1,306.72,144.16Z"/><path class="cls-1" d="M6.7,138.37a2.89,2.89,0,1,1-2.88,2.88A2.87,2.87,0,0,1,6.7,138.37Z"/><path class="cls-1" d="M18.71,144.16a2.89,2.89,0,1,1,2.91-2.85A2.87,2.87,0,0,1,18.71,144.16Z"/><path class="cls-1" d="M33.61,141.26a2.89,2.89,0,1,1-2.87-2.89A2.87,2.87,0,0,1,33.61,141.26Z"/><path class="cls-1" d="M39.83,141.27a2.89,2.89,0,1,1,2.87,2.89A2.87,2.87,0,0,1,39.83,141.27Z"/><path class="cls-1" d="M69.61,141.24a2.89,2.89,0,1,1-2.89-2.87A2.87,2.87,0,0,1,69.61,141.24Z"/><path class="cls-1" d="M78.77,144.16a2.89,2.89,0,1,1,2.84-2.92A2.87,2.87,0,0,1,78.77,144.16Z"/><path class="cls-1" d="M87.83,141.09a2.9,2.9,0,1,1,2.69,3.06A2.88,2.88,0,0,1,87.83,141.09Z"/><path class="cls-1" d="M105.61,141.29a2.89,2.89,0,1,1-2.84-2.92A2.87,2.87,0,0,1,105.61,141.29Z"/><path class="cls-1" d="M114.76,144.16a2.89,2.89,0,1,1,2.85-2.91A2.87,2.87,0,0,1,114.76,144.16Z"/><path class="cls-1" d="M129.61,141.25a2.89,2.89,0,1,1-2.88-2.88A2.87,2.87,0,0,1,129.61,141.25Z"/><path class="cls-1" d="M138.67,144.16a2.9,2.9,0,1,1,2.95-2.81A2.87,2.87,0,0,1,138.67,144.16Z"/><path class="cls-1" d="M150.74,138.37a2.89,2.89,0,1,1-2.92,2.84A2.87,2.87,0,0,1,150.74,138.37Z"/><path class="cls-1" d="M162.66,144.16a2.9,2.9,0,1,1,3-2.81A2.87,2.87,0,0,1,162.66,144.16Z"/><path class="cls-1" d="M3.83,84.13l.26.26.52,1.06A4.1,4.1,0,0,1,2,91.23c-.76.21-1.21.09-1-.78.52-2.37-.12-4.82.61-7.18C2.43,83.19,3,83.91,3.83,84.13Z"/><path class="cls-1" d="M4.81,99.31a3.9,3.9,0,0,1-3.32,3.79c-.54.05-.9-.06-.76-.68.46-2,.17-4.11.21-6.16,0-.83.29-.93,1-.74A3.9,3.9,0,0,1,4.81,99.31Z"/><path class="cls-1" d="M108.7,150a2.72,2.72,0,1,1,2.74-2.7A2.68,2.68,0,0,1,108.7,150Z"/><path class="cls-1" d="M231.44,147.25a2.72,2.72,0,1,1-2.73-2.71A2.68,2.68,0,0,1,231.44,147.25Z"/><path class="cls-1" d="M336.7,144.54a2.72,2.72,0,1,1-2.7,2.74A2.68,2.68,0,0,1,336.7,144.54Z"/><path class="cls-1" d="M322,147.16a2.72,2.72,0,1,1,2.62,2.82A2.68,2.68,0,0,1,322,147.16Z"/><path class="cls-1" d="M315.44,147.24a2.72,2.72,0,1,1-2.74-2.7A2.68,2.68,0,0,1,315.44,147.24Z"/><path class="cls-1" d="M303.44,147.29a2.72,2.72,0,1,1-2.7-2.74A2.68,2.68,0,0,1,303.44,147.29Z"/><path class="cls-1" d="M144.74,150a2.72,2.72,0,1,1,2.69-2.74A2.68,2.68,0,0,1,144.74,150Z"/><path class="cls-1" d="M291.44,147.31a2.72,2.72,0,1,1-2.67-2.77A2.68,2.68,0,0,1,291.44,147.31Z"/><path class="cls-1" d="M276.66,150a2.72,2.72,0,1,1,2.78-2.66A2.68,2.68,0,0,1,276.66,150Z"/><path class="cls-1" d="M264.69,150a2.72,2.72,0,1,1,2.74-2.7A2.68,2.68,0,0,1,264.69,150Z"/><path class="cls-1" d="M252.74,150a2.72,2.72,0,1,1,2.7-2.74A2.68,2.68,0,0,1,252.74,150Z"/><path class="cls-1" d="M240.73,150a2.72,2.72,0,1,1,2.71-2.73A2.68,2.68,0,0,1,240.73,150Z"/><path class="cls-1" d="M219.44,147.32a2.72,2.72,0,1,1-2.66-2.78A2.68,2.68,0,0,1,219.44,147.32Z"/><path class="cls-1" d="M207.44,147.29a2.72,2.72,0,1,1-2.7-2.74A2.68,2.68,0,0,1,207.44,147.29Z"/><path class="cls-1" d="M135.44,147.24a2.72,2.72,0,1,1-2.74-2.7A2.68,2.68,0,0,1,135.44,147.24Z"/><path class="cls-1" d="M192.74,144.54a2.72,2.72,0,1,1-2.75,2.69A2.68,2.68,0,0,1,192.74,144.54Z"/><path class="cls-1" d="M180.69,150a2.72,2.72,0,1,1,2.74-2.7A2.68,2.68,0,0,1,180.69,150Z"/><path class="cls-1" d="M168.7,150a2.72,2.72,0,1,1,2.74-2.7A2.68,2.68,0,0,1,168.7,150Z"/><path class="cls-1" d="M159.44,147.24a2.72,2.72,0,1,1-2.74-2.7A2.68,2.68,0,0,1,159.44,147.24Z"/><path class="cls-1" d="M123.44,147.25a2.72,2.72,0,1,1-2.73-2.71A2.68,2.68,0,0,1,123.44,147.25Z"/><path class="cls-1" d="M15.44,147.32a2.72,2.72,0,1,1-2.66-2.78A2.68,2.68,0,0,1,15.44,147.32Z"/><path class="cls-1" d="M27.44,147.28a2.72,2.72,0,1,1-2.7-2.74A2.68,2.68,0,0,1,27.44,147.28Z"/><path class="cls-1" d="M36.78,144.54A2.72,2.72,0,1,1,34,147.21,2.68,2.68,0,0,1,36.78,144.54Z"/><path class="cls-1" d="M51.44,147.28a2.72,2.72,0,1,1-2.7-2.73A2.68,2.68,0,0,1,51.44,147.28Z"/><path class="cls-1" d="M63.44,147.31a2.72,2.72,0,1,1-2.67-2.77A2.68,2.68,0,0,1,63.44,147.31Z"/><path class="cls-1" d="M72.7,144.54a2.72,2.72,0,1,1-2.7,2.74A2.68,2.68,0,0,1,72.7,144.54Z"/><path class="cls-1" d="M87.44,147.29a2.72,2.72,0,1,1-2.69-2.75A2.68,2.68,0,0,1,87.44,147.29Z"/><path class="cls-1" d="M96.67,150a2.72,2.72,0,1,1,2.76-2.67A2.68,2.68,0,0,1,96.67,150Z"/><path class="cls-1" d="M345.87,84.31l.14-.14c2-.89,2-.9,2.54,1.36.42,1.75.09,3.56.16,5.34,0,.63-.4.43-.74.36a4.09,4.09,0,0,1-2.68-5.76C345.48,85.09,345.68,84.7,345.87,84.31Z"/><path class="cls-1" d="M342.84,144.16a2.88,2.88,0,0,1-2.8-1.8,2.9,2.9,0,0,1,3.76-3.79,1.06,1.06,0,0,1,.84,1.24c-.17,1.24-.28,2.49-.52,3.71C344,144.23,343.27,144.07,342.84,144.16Z"/><path class="cls-1" d="M114.74,150.68a2.59,2.59,0,1,1-2.6,2.6A2.65,2.65,0,0,1,114.74,150.68Z"/><path class="cls-1" d="M129.31,153.28a2.59,2.59,0,1,1-2.6-2.6A2.65,2.65,0,0,1,129.31,153.28Z"/><path class="cls-1" d="M138.76,150.68a2.59,2.59,0,1,1-2.63,2.57A2.65,2.65,0,0,1,138.76,150.68Z"/><path class="cls-1" d="M9.31,153.21a2.65,2.65,0,0,1-2.56,2.64,2.59,2.59,0,0,1-.1-5.17A2.65,2.65,0,0,1,9.31,153.21Z"/><path class="cls-1" d="M18.74,155.85a2.59,2.59,0,1,1,2.57-2.63A2.65,2.65,0,0,1,18.74,155.85Z"/><path class="cls-1" d="M33.31,153.23a2.59,2.59,0,1,1-2.65-2.55A2.65,2.65,0,0,1,33.31,153.23Z"/><path class="cls-1" d="M105.31,153.29a2.59,2.59,0,1,1-2.59-2.61A2.65,2.65,0,0,1,105.31,153.29Z"/><path class="cls-1" d="M42.7,150.68a2.59,2.59,0,1,1-2.56,2.64A2.65,2.65,0,0,1,42.7,150.68Z"/><path class="cls-1" d="M54.78,150.68a2.59,2.59,0,1,1-2.64,2.56A2.65,2.65,0,0,1,54.78,150.68Z"/><path class="cls-1" d="M66.69,155.85a2.59,2.59,0,1,1,2.61-2.59A2.65,2.65,0,0,1,66.69,155.85Z"/><path class="cls-1" d="M78.66,150.68a2.59,2.59,0,1,1-2.53,2.67A2.65,2.65,0,0,1,78.66,150.68Z"/><path class="cls-1" d="M90.78,150.68a2.59,2.59,0,1,1-2.64,2.56A2.65,2.65,0,0,1,90.78,150.68Z"/><path class="cls-1" d="M309.31,153.27a2.59,2.59,0,1,1-2.61-2.59A2.65,2.65,0,0,1,309.31,153.27Z"/><path class="cls-1" d="M318.67,150.68a2.59,2.59,0,1,1-2.54,2.66A2.65,2.65,0,0,1,318.67,150.68Z"/><path class="cls-1" d="M333.31,153.32a2.59,2.59,0,1,1-2.56-2.64A2.65,2.65,0,0,1,333.31,153.32Z"/><path class="cls-1" d="M150.73,155.85a2.59,2.59,0,1,1,2.58-2.62A2.65,2.65,0,0,1,150.73,155.85Z"/><path class="cls-1" d="M162.68,155.85a2.59,2.59,0,1,1,2.62-2.58A2.65,2.65,0,0,1,162.68,155.85Z"/><path class="cls-1" d="M174.73,155.85a2.59,2.59,0,1,1,2.58-2.62A2.65,2.65,0,0,1,174.73,155.85Z"/><path class="cls-1" d="M186.68,155.85a2.59,2.59,0,1,1,2.62-2.58A2.65,2.65,0,0,1,186.68,155.85Z"/><path class="cls-1" d="M198.7,150.68a2.59,2.59,0,1,1-2.56,2.64A2.65,2.65,0,0,1,198.7,150.68Z"/><path class="cls-1" d="M210.74,155.85a2.59,2.59,0,1,1,2.56-2.64A2.65,2.65,0,0,1,210.74,155.85Z"/><path class="cls-1" d="M222.67,150.68a2.59,2.59,0,1,1-2.54,2.67A2.65,2.65,0,0,1,222.67,150.68Z"/><path class="cls-1" d="M237.31,153.29a2.59,2.59,0,1,1-2.59-2.61A2.65,2.65,0,0,1,237.31,153.29Z"/><path class="cls-1" d="M249.31,153.24a2.59,2.59,0,1,1-2.64-2.56A2.65,2.65,0,0,1,249.31,153.24Z"/><path class="cls-1" d="M258.77,155.85a2.59,2.59,0,1,1,2.53-2.67A2.65,2.65,0,0,1,258.77,155.85Z"/><path class="cls-1" d="M270.68,155.85a2.59,2.59,0,1,1,2.63-2.58A2.65,2.65,0,0,1,270.68,155.85Z"/><path class="cls-1" d="M282.68,150.68a2.59,2.59,0,1,1-2.55,2.65A2.65,2.65,0,0,1,282.68,150.68Z"/><path class="cls-1" d="M294.78,150.68a2.59,2.59,0,1,1-2.64,2.56A2.65,2.65,0,0,1,294.78,150.68Z"/><path class="cls-1" d="M1,111.27c0-1,0-2,0-3,0-.57.22-.66.72-.58a3.66,3.66,0,0,1,2.9,3.49,3.67,3.67,0,0,1-2.88,3.63c-.62.11-.75-.13-.73-.68C1,113.18,1,112.23,1,111.27Z"/><path class="cls-1" d="M348.53,97a22.9,22.9,0,0,0-.3,5.1c0,.82-.44.93-1.1.55a3.86,3.86,0,0,1-.25-6.64c.43-.29,1-.68,1.42-.46S348.39,96.43,348.53,97Z"/><path class="cls-1" d="M12.71,161.65a2.39,2.39,0,1,1,2.39-2.35A2.42,2.42,0,0,1,12.71,161.65Z"/><path class="cls-1" d="M27.11,159.3a2.39,2.39,0,1,1-2.32-2.42A2.42,2.42,0,0,1,27.11,159.3Z"/><path class="cls-1" d="M39.11,159.24a2.39,2.39,0,1,1-2.38-2.36A2.42,2.42,0,0,1,39.11,159.24Z"/><path class="cls-1" d="M48.68,161.65a2.39,2.39,0,1,1,2.43-2.32A2.42,2.42,0,0,1,48.68,161.65Z"/><path class="cls-1" d="M60.68,156.88a2.39,2.39,0,1,1-2.34,2.4A2.42,2.42,0,0,1,60.68,156.88Z"/><path class="cls-1" d="M72.69,161.65a2.39,2.39,0,1,1,2.42-2.32A2.42,2.42,0,0,1,72.69,161.65Z"/><path class="cls-1" d="M84.71,156.88a2.39,2.39,0,1,1-2.38,2.36A2.42,2.42,0,0,1,84.71,156.88Z"/><path class="cls-1" d="M96.71,161.65a2.39,2.39,0,1,1,2.4-2.34A2.42,2.42,0,0,1,96.71,161.65Z"/><path class="cls-1" d="M108.77,161.65a2.39,2.39,0,1,1,2.34-2.4A2.42,2.42,0,0,1,108.77,161.65Z"/><path class="cls-1" d="M120.72,156.88a2.39,2.39,0,1,1-2.39,2.35A2.42,2.42,0,0,1,120.72,156.88Z"/><path class="cls-1" d="M132.75,161.65a2.39,2.39,0,1,1,2.36-2.38A2.42,2.42,0,0,1,132.75,161.65Z"/><path class="cls-1" d="M147.11,159.31a2.39,2.39,0,1,1-2.31-2.43A2.42,2.42,0,0,1,147.11,159.31Z"/><path class="cls-1" d="M159.11,159.22a2.39,2.39,0,1,1-2.4-2.34A2.42,2.42,0,0,1,159.11,159.22Z"/><path class="cls-1" d="M171.11,159.29a2.39,2.39,0,1,1-2.33-2.41A2.42,2.42,0,0,1,171.11,159.29Z"/><path class="cls-1" d="M183.11,159.27a2.39,2.39,0,1,1-2.35-2.39A2.42,2.42,0,0,1,183.11,159.27Z"/><path class="cls-1" d="M195.11,159.27a2.39,2.39,0,1,1-2.35-2.39A2.42,2.42,0,0,1,195.11,159.27Z"/><path class="cls-1" d="M204.68,161.65a2.39,2.39,0,1,1,2.43-2.32A2.42,2.42,0,0,1,204.68,161.65Z"/><path class="cls-1" d="M219.11,159.27a2.39,2.39,0,1,1-2.35-2.39A2.42,2.42,0,0,1,219.11,159.27Z"/><path class="cls-1" d="M228.7,156.88a2.39,2.39,0,1,1-2.36,2.38A2.42,2.42,0,0,1,228.7,156.88Z"/><path class="cls-1" d="M240.73,161.65a2.39,2.39,0,1,1,2.37-2.37A2.42,2.42,0,0,1,240.73,161.65Z"/><path class="cls-1" d="M255.11,159.27a2.39,2.39,0,1,1-2.35-2.39A2.42,2.42,0,0,1,255.11,159.27Z"/><path class="cls-1" d="M264.71,156.88a2.39,2.39,0,1,1-2.37,2.37A2.42,2.42,0,0,1,264.71,156.88Z"/><path class="cls-1" d="M276.71,161.65a2.39,2.39,0,1,1,2.39-2.35A2.42,2.42,0,0,1,276.71,161.65Z"/><path class="cls-1" d="M286.33,159.27a2.39,2.39,0,1,1,2.36,2.38A2.42,2.42,0,0,1,286.33,159.27Z"/><path class="cls-1" d="M300.7,156.88a2.39,2.39,0,1,1-2.37,2.37A2.42,2.42,0,0,1,300.7,156.88Z"/><path class="cls-1" d="M312.76,156.88a2.39,2.39,0,1,1-2.43,2.31A2.42,2.42,0,0,1,312.76,156.88Z"/><path class="cls-1" d="M324.68,161.65a2.39,2.39,0,1,1,2.43-2.32A2.42,2.42,0,0,1,324.68,161.65Z"/><path class="cls-1" d="M339.11,159.22a2.39,2.39,0,1,1-2.4-2.34A2.42,2.42,0,0,1,339.11,159.22Z"/><path class="cls-1" d="M4.31,123.21a3.38,3.38,0,0,1-2.25,3.21c-.34.09-.66.19-.62-.34.15-1.83-.32-3.63-.26-5.46,0-.63.19-.73.77-.55A3.42,3.42,0,0,1,4.31,123.21Z"/><path class="cls-1" d="M20.88,165.24a2.17,2.17,0,1,1-2.12-2.15A2.17,2.17,0,0,1,20.88,165.24Z"/><path class="cls-1" d="M186.77,163.1a2.17,2.17,0,1,1-2.22,2A2.16,2.16,0,0,1,186.77,163.1Z"/><path class="cls-1" d="M176.88,165.32a2.17,2.17,0,1,1-2-2.22A2.16,2.16,0,0,1,176.88,165.32Z"/><path class="cls-1" d="M30.77,163.1a2.17,2.17,0,1,1-2.21,2.06A2.17,2.17,0,0,1,30.77,163.1Z"/><path class="cls-1" d="M44.88,165.23a2.17,2.17,0,1,1-2.14-2.13A2.16,2.16,0,0,1,44.88,165.23Z"/><path class="cls-1" d="M54.74,167.43a2.17,2.17,0,1,1,2.14-2.13A2.17,2.17,0,0,1,54.74,167.43Z"/><path class="cls-1" d="M162.68,163.1a2.17,2.17,0,1,1-2.13,2.14A2.17,2.17,0,0,1,162.68,163.1Z"/><path class="cls-1" d="M66.77,167.43a2.17,2.17,0,1,1,2.12-2.15A2.16,2.16,0,0,1,66.77,167.43Z"/><path class="cls-1" d="M80.88,165.29a2.17,2.17,0,1,1-2.08-2.19A2.17,2.17,0,0,1,80.88,165.29Z"/><path class="cls-1" d="M92.88,165.23a2.17,2.17,0,1,1-2.14-2.13A2.17,2.17,0,0,1,92.88,165.23Z"/><path class="cls-1" d="M104.88,165.22a2.17,2.17,0,1,1-2.15-2.12A2.16,2.16,0,0,1,104.88,165.22Z"/><path class="cls-1" d="M116.88,165.36a2.17,2.17,0,1,1-2-2.26A2.17,2.17,0,0,1,116.88,165.36Z"/><path class="cls-1" d="M128.88,165.31a2.17,2.17,0,1,1-2.06-2.21A2.17,2.17,0,0,1,128.88,165.31Z"/><path class="cls-1" d="M136.55,165.17a2.17,2.17,0,1,1,2,2.26A2.17,2.17,0,0,1,136.55,165.17Z"/><path class="cls-1" d="M150.71,163.1a2.17,2.17,0,1,1-2.16,2.11A2.16,2.16,0,0,1,150.71,163.1Z"/><path class="cls-1" d="M200.88,165.31a2.17,2.17,0,1,1-2.06-2.21A2.17,2.17,0,0,1,200.88,165.31Z"/><path class="cls-1" d="M212.88,165.21a2.17,2.17,0,1,1-2.16-2.11A2.16,2.16,0,0,1,212.88,165.21Z"/><path class="cls-1" d="M224.88,165.32a2.17,2.17,0,1,1-2-2.22A2.17,2.17,0,0,1,224.88,165.32Z"/><path class="cls-1" d="M234.68,163.1a2.17,2.17,0,1,1-2.13,2.14A2.17,2.17,0,0,1,234.68,163.1Z"/><path class="cls-1" d="M248.88,165.25a2.17,2.17,0,1,1-2.12-2.15A2.16,2.16,0,0,1,248.88,165.25Z"/><path class="cls-1" d="M260.88,165.3a2.17,2.17,0,1,1-2.06-2.21A2.17,2.17,0,0,1,260.88,165.3Z"/><path class="cls-1" d="M272.88,165.21a2.17,2.17,0,1,1-2.16-2.11A2.16,2.16,0,0,1,272.88,165.21Z"/><path class="cls-1" d="M282.73,167.43a2.17,2.17,0,1,1,2.15-2.12A2.17,2.17,0,0,1,282.73,167.43Z"/><path class="cls-1" d="M294.73,167.43a2.17,2.17,0,1,1,2.15-2.12A2.17,2.17,0,0,1,294.73,167.43Z"/><path class="cls-1" d="M306.81,163.1a2.17,2.17,0,1,1-2.26,2A2.17,2.17,0,0,1,306.81,163.1Z"/><path class="cls-1" d="M318.77,167.43a2.17,2.17,0,1,1,2.11-2.16A2.16,2.16,0,0,1,318.77,167.43Z"/><path class="cls-1" d="M332.88,165.26a2.17,2.17,0,1,1-2.11-2.16A2.16,2.16,0,0,1,332.88,165.26Z"/><path class="cls-1" d="M12.69,169.33a1.94,1.94,0,1,1-1.91,2A1.9,1.9,0,0,1,12.69,169.33Z"/><path class="cls-1" d="M26.66,171.3a1.94,1.94,0,1,1-1.94-2A1.91,1.91,0,0,1,26.66,171.3Z"/><path class="cls-1" d="M38.66,171.31a1.94,1.94,0,1,1-1.92-2A1.91,1.91,0,0,1,38.66,171.31Z"/><path class="cls-1" d="M48.73,173.2a1.94,1.94,0,1,1,1.93-2A1.9,1.9,0,0,1,48.73,173.2Z"/><path class="cls-1" d="M62.66,171.25a1.94,1.94,0,1,1-2-1.93A1.9,1.9,0,0,1,62.66,171.25Z"/><path class="cls-1" d="M72.76,169.33a1.94,1.94,0,1,1-2,1.93A1.91,1.91,0,0,1,72.76,169.33Z"/><path class="cls-1" d="M84.67,169.33a1.94,1.94,0,1,1-1.89,2A1.91,1.91,0,0,1,84.67,169.33Z"/><path class="cls-1" d="M98.66,171.26a1.94,1.94,0,1,1-2-1.93A1.9,1.9,0,0,1,98.66,171.26Z"/><path class="cls-1" d="M108.77,169.33a1.94,1.94,0,1,1-2,1.92A1.91,1.91,0,0,1,108.77,169.33Z"/><path class="cls-1" d="M120.75,173.2a1.94,1.94,0,1,1,1.9-2A1.9,1.9,0,0,1,120.75,173.2Z"/><path class="cls-1" d="M132.69,169.33a1.94,1.94,0,1,1-1.91,2A1.9,1.9,0,0,1,132.69,169.33Z"/><path class="cls-1" d="M146.66,171.21a1.94,1.94,0,1,1-2-1.88A1.91,1.91,0,0,1,146.66,171.21Z"/><path class="cls-1" d="M158.66,171.23a1.94,1.94,0,1,1-2-1.91A1.9,1.9,0,0,1,158.66,171.23Z"/><path class="cls-1" d="M170.66,171.28a1.94,1.94,0,1,1-2-2A1.91,1.91,0,0,1,170.66,171.28Z"/><path class="cls-1" d="M180.69,173.2a1.94,1.94,0,1,1,2-1.94A1.91,1.91,0,0,1,180.69,173.2Z"/><path class="cls-1" d="M192.76,173.2a1.94,1.94,0,1,1,1.9-2A1.91,1.91,0,0,1,192.76,173.2Z"/><path class="cls-1" d="M206.66,171.29a1.94,1.94,0,1,1-1.94-2A1.91,1.91,0,0,1,206.66,171.29Z"/><path class="cls-1" d="M216.7,173.2a1.94,1.94,0,1,1,2-2A1.91,1.91,0,0,1,216.7,173.2Z"/><path class="cls-1" d="M228.69,173.2a1.94,1.94,0,1,1,2-1.94A1.91,1.91,0,0,1,228.69,173.2Z"/><path class="cls-1" d="M240.7,169.33a1.94,1.94,0,1,1-1.92,2A1.9,1.9,0,0,1,240.7,169.33Z"/><path class="cls-1" d="M252.75,173.2a1.94,1.94,0,1,1,1.9-2A1.9,1.9,0,0,1,252.75,173.2Z"/><path class="cls-1" d="M266.66,171.21a1.94,1.94,0,1,1-2-1.88A1.91,1.91,0,0,1,266.66,171.21Z"/><path class="cls-1" d="M278.66,171.31a1.94,1.94,0,1,1-1.93-2A1.91,1.91,0,0,1,278.66,171.31Z"/><path class="cls-1" d="M288.68,173.2a1.94,1.94,0,1,1,2-1.93A1.91,1.91,0,0,1,288.68,173.2Z"/><path class="cls-1" d="M302.66,171.21a1.94,1.94,0,1,1-2-1.88A1.91,1.91,0,0,1,302.66,171.21Z"/><path class="cls-1" d="M312.77,173.2a1.94,1.94,0,1,1,1.89-2A1.91,1.91,0,0,1,312.77,173.2Z"/><path class="cls-1" d="M326.66,171.22a1.94,1.94,0,1,1-2-1.89A1.91,1.91,0,0,1,326.66,171.22Z"/><path class="cls-1" d="M336.73,169.33a1.9,1.9,0,0,1,1.9,1.64c0,1.39-.78,2.25-1.93,2.24a1.94,1.94,0,0,1,0-3.88Z"/><path class="cls-1" d="M347.83,107.8l-.56,6.64a3.5,3.5,0,0,1-1.91-3.23C345.39,109.67,346.17,108.61,347.83,107.8Z"/><path class="cls-1" d="M6.8,163.1a2.1,2.1,0,0,1,1.88,1.26,2,2,0,0,1-.27,2.25,1.59,1.59,0,0,1-1.64.77c-.48-.15-.45-.82-.54-1.31a17.24,17.24,0,0,0-.4-1.83C5.57,163.34,6,163.06,6.8,163.1Z"/><path class="cls-1" d="M340.13,153.34a2.68,2.68,0,0,1,2-2.58c.69-.17,1,.09.75.71a21.16,21.16,0,0,0-.65,3.43c-.15.93-.52.85-1.09.42A2.62,2.62,0,0,1,340.13,153.34Z"/><path class="cls-1" d="M282.75,179a1.69,1.69,0,1,1,1.65-1.69A1.68,1.68,0,0,1,282.75,179Z"/><path class="cls-1" d="M296.41,177.22a1.69,1.69,0,1,1-1.7-1.65A1.68,1.68,0,0,1,296.41,177.22Z"/><path class="cls-1" d="M330.71,179a1.69,1.69,0,1,1,1.7-1.65A1.68,1.68,0,0,1,330.71,179Z"/><path class="cls-1" d="M320.41,177.23a1.69,1.69,0,1,1-1.69-1.65A1.68,1.68,0,0,1,320.41,177.23Z"/><path class="cls-1" d="M18.71,175.57A1.69,1.69,0,1,1,17,177.24,1.68,1.68,0,0,1,18.71,175.57Z"/><path class="cls-1" d="M32.41,177.28a1.69,1.69,0,1,1-1.64-1.7A1.68,1.68,0,0,1,32.41,177.28Z"/><path class="cls-1" d="M44.41,177.31a1.69,1.69,0,1,1-1.61-1.73A1.68,1.68,0,0,1,44.41,177.31Z"/><path class="cls-1" d="M54.81,175.57A1.69,1.69,0,1,1,53,177.14,1.68,1.68,0,0,1,54.81,175.57Z"/><path class="cls-1" d="M68.41,177.24a1.69,1.69,0,1,1-1.68-1.67A1.68,1.68,0,0,1,68.41,177.24Z"/><path class="cls-1" d="M80.41,177.31a1.69,1.69,0,1,1-1.61-1.73A1.68,1.68,0,0,1,80.41,177.31Z"/><path class="cls-1" d="M90.63,179a1.69,1.69,0,1,1,1.78-1.57A1.68,1.68,0,0,1,90.63,179Z"/><path class="cls-1" d="M102.68,175.57a1.69,1.69,0,1,1-1.65,1.7A1.68,1.68,0,0,1,102.68,175.57Z"/><path class="cls-1" d="M308.41,177.22a1.69,1.69,0,1,1-1.7-1.64A1.68,1.68,0,0,1,308.41,177.22Z"/><path class="cls-1" d="M114.81,175.57a1.69,1.69,0,1,1-1.78,1.57A1.68,1.68,0,0,1,114.81,175.57Z"/><path class="cls-1" d="M126.74,179a1.69,1.69,0,1,1,1.67-1.68A1.68,1.68,0,0,1,126.74,179Z"/><path class="cls-1" d="M140.41,177.25a1.69,1.69,0,1,1-1.68-1.67A1.68,1.68,0,0,1,140.41,177.25Z"/><path class="cls-1" d="M152.41,177.26a1.69,1.69,0,1,1-1.66-1.68A1.68,1.68,0,0,1,152.41,177.26Z"/><path class="cls-1" d="M162.7,175.57a1.69,1.69,0,1,1-1.67,1.68A1.68,1.68,0,0,1,162.7,175.57Z"/><path class="cls-1" d="M174.74,179a1.69,1.69,0,1,1,1.67-1.68A1.68,1.68,0,0,1,174.74,179Z"/><path class="cls-1" d="M186.74,179a1.69,1.69,0,1,1,1.67-1.68A1.68,1.68,0,0,1,186.74,179Z"/><path class="cls-1" d="M198.67,175.57a1.69,1.69,0,1,1-1.64,1.71A1.68,1.68,0,0,1,198.67,175.57Z"/><path class="cls-1" d="M212.41,177.32a1.69,1.69,0,1,1-1.6-1.74A1.68,1.68,0,0,1,212.41,177.32Z"/><path class="cls-1" d="M221,177.27a1.69,1.69,0,1,1,1.66,1.68A1.68,1.68,0,0,1,221,177.27Z"/><path class="cls-1" d="M234.63,179a1.69,1.69,0,1,1,1.78-1.57A1.68,1.68,0,0,1,234.63,179Z"/><path class="cls-1" d="M248.41,177.27a1.69,1.69,0,1,1-1.65-1.7A1.68,1.68,0,0,1,248.41,177.27Z"/><path class="cls-1" d="M260.41,177.25a1.69,1.69,0,1,1-1.67-1.67A1.68,1.68,0,0,1,260.41,177.25Z"/><path class="cls-1" d="M272.41,177.31a1.69,1.69,0,1,1-1.61-1.73A1.68,1.68,0,0,1,272.41,177.31Z"/><path class="cls-1" d="M1.94,132.45c2.2,1,2.75,3.37,1.23,4.92-.19.19-.41.52-.67.39a1,1,0,0,1-.32-.7,11.32,11.32,0,0,0-.08-2.26A9.54,9.54,0,0,1,1.94,132.45Z"/><path class="cls-1" d="M314.15,183.24c-.14.9-.62,1.46-1.5,1.41a1.29,1.29,0,0,1-1.31-1.41,1.31,1.31,0,0,1,1.46-1.37A1.4,1.4,0,0,1,314.15,183.24Z"/><path class="cls-1" d="M324.68,181.84a1.39,1.39,0,0,1,1.42,1.43,1.39,1.39,0,0,1-2.78,0C323.32,182.43,323.87,182,324.68,181.84Z"/><path class="cls-1" d="M24.75,181.85a1.38,1.38,0,0,1,1.35,1.39,1.39,1.39,0,1,1-2.78-.07A1.38,1.38,0,0,1,24.75,181.85Z"/><path class="cls-1" d="M36.68,181.84a1.39,1.39,0,0,1,1.42,1.43,1.39,1.39,0,0,1-2.78,0C35.32,182.43,35.87,182,36.68,181.84Z"/><path class="cls-1" d="M48.69,181.84c.9.13,1.46.6,1.42,1.49a1.29,1.29,0,0,1-1.39,1.33,1.31,1.31,0,0,1-1.39-1.45A1.4,1.4,0,0,1,48.69,181.84Z"/><path class="cls-1" d="M60.77,184.69c-.89-.12-1.46-.57-1.44-1.46a1.29,1.29,0,0,1,1.36-1.35,1.3,1.3,0,0,1,1.41,1.42A1.4,1.4,0,0,1,60.77,184.69Z"/><path class="cls-1" d="M74.15,183.23c-.13.9-.6,1.46-1.49,1.42a1.29,1.29,0,0,1-1.33-1.39,1.31,1.31,0,0,1,1.45-1.39A1.4,1.4,0,0,1,74.15,183.23Z"/><path class="cls-1" d="M84.69,181.84c.9.14,1.46.61,1.42,1.5a1.29,1.29,0,0,1-1.4,1.32,1.31,1.31,0,0,1-1.38-1.46A1.4,1.4,0,0,1,84.69,181.84Z"/><path class="cls-1" d="M98.15,183.2c-.11.89-.56,1.47-1.45,1.45a1.29,1.29,0,0,1-1.36-1.36,1.31,1.31,0,0,1,1.41-1.42A1.4,1.4,0,0,1,98.15,183.2Z"/><path class="cls-1" d="M110.14,183.19c-.09.88-.54,1.46-1.43,1.46a1.29,1.29,0,0,1-1.38-1.33,1.3,1.3,0,0,1,1.39-1.45C109.56,181.86,110,182.42,110.14,183.19Z"/><path class="cls-1" d="M120.78,184.69c-.89-.11-1.47-.56-1.45-1.45a1.29,1.29,0,0,1,1.36-1.36,1.31,1.31,0,0,1,1.42,1.41A1.4,1.4,0,0,1,120.78,184.69Z"/><path class="cls-1" d="M132.76,184.69c-.9-.13-1.46-.59-1.43-1.48a1.29,1.29,0,0,1,1.39-1.33,1.3,1.3,0,0,1,1.39,1.44A1.4,1.4,0,0,1,132.76,184.69Z"/><path class="cls-1" d="M144.75,184.68c-.85-.1-1.42-.54-1.42-1.43a1.39,1.39,0,0,1,2.78,0C146.11,184.1,145.57,184.55,144.75,184.68Z"/><path class="cls-1" d="M158.14,183.23a1.39,1.39,0,0,1-1.43,1.42,1.39,1.39,0,0,1,0-2.78C157.56,181.87,158,182.41,158.14,183.23Z"/><path class="cls-1" d="M168.76,184.69c-.89-.12-1.46-.58-1.43-1.47a1.29,1.29,0,0,1,1.38-1.34,1.3,1.3,0,0,1,1.4,1.43A1.4,1.4,0,0,1,168.76,184.69Z"/><path class="cls-1" d="M182.14,183.26a1.39,1.39,0,0,1-1.47,1.39,1.29,1.29,0,0,1-1.34-1.38,1.3,1.3,0,0,1,1.43-1.4C181.59,181.89,182,182.44,182.14,183.26Z"/><path class="cls-1" d="M192.78,181.85c.85.16,1.4.64,1.32,1.53a1.29,1.29,0,0,1-1.44,1.27,1.3,1.3,0,0,1-1.33-1.5A1.39,1.39,0,0,1,192.78,181.85Z"/><path class="cls-1" d="M204.77,181.85c.85.16,1.4.64,1.33,1.52a1.29,1.29,0,0,1-1.43,1.28,1.31,1.31,0,0,1-1.34-1.49A1.39,1.39,0,0,1,204.77,181.85Z"/><path class="cls-1" d="M216.75,184.68c-.85-.1-1.42-.54-1.42-1.43a1.39,1.39,0,0,1,2.78,0C218.11,184.1,217.57,184.55,216.75,184.68Z"/><path class="cls-1" d="M230.15,183.24c-.15.9-.62,1.46-1.5,1.41a1.29,1.29,0,0,1-1.31-1.41,1.31,1.31,0,0,1,1.46-1.37A1.4,1.4,0,0,1,230.15,183.24Z"/><path class="cls-1" d="M242.14,183.26a1.39,1.39,0,0,1-1.47,1.39,1.29,1.29,0,0,1-1.34-1.38,1.3,1.3,0,0,1,1.43-1.4C241.59,181.89,242,182.44,242.14,183.26Z"/><path class="cls-1" d="M252.73,181.84c.9.17,1.45.65,1.37,1.54a1.29,1.29,0,0,1-1.44,1.27,1.31,1.31,0,0,1-1.33-1.5A1.4,1.4,0,0,1,252.73,181.84Z"/><path class="cls-1" d="M264.68,184.68c-.85-.14-1.41-.62-1.35-1.51a1.29,1.29,0,0,1,1.41-1.3,1.31,1.31,0,0,1,1.36,1.47A1.39,1.39,0,0,1,264.68,184.68Z"/><path class="cls-1" d="M276.73,181.84c.85.13,1.41.59,1.37,1.48a1.29,1.29,0,0,1-1.39,1.33,1.3,1.3,0,0,1-1.39-1.45A1.39,1.39,0,0,1,276.73,181.84Z"/><path class="cls-1" d="M290.14,183.25c-.11.85-.56,1.42-1.45,1.41a1.29,1.29,0,0,1-1.36-1.36,1.3,1.3,0,0,1,1.42-1.42C289.57,181.88,290,182.43,290.14,183.25Z"/><path class="cls-1" d="M300.74,181.85a1.38,1.38,0,0,1,1.36,1.38,1.39,1.39,0,1,1-2.78,0A1.38,1.38,0,0,1,300.74,181.85Z"/><path class="cls-1" d="M12.66,181.83c.88.09,1.45.54,1.46,1.43a1.34,1.34,0,0,1-1.32,1.42c-.44.06-1.33-1.24-1.3-1.88S12.13,182,12.66,181.83Z"/><path class="cls-1" d="M346.16,125.38c-1.21-1.84-1-3.4.67-4.78C346.54,122.27,346.67,123.81,346.16,125.38Z"/><path class="cls-1" d="M19.84,189.26c-.1.71-.5,1.14-1.2,1.1a1,1,0,0,1-1-1.12,1,1,0,0,1,1.18-1.08A1.09,1.09,0,0,1,19.84,189.26Z"/><path class="cls-1" d="M31.77,189.26a1,1,0,0,1-1,1,1,1,0,0,1,0-2.07A1,1,0,0,1,31.77,189.26Z"/><path class="cls-1" d="M42.73,190.27a.93.93,0,0,1-1-1,.91.91,0,0,1,1-1,.9.9,0,0,1,.95,1A.93.93,0,0,1,42.73,190.27Z"/><path class="cls-1" d="M55.73,189.25c-.07.66-.4,1-1,1a.9.9,0,0,1-1-1,.91.91,0,0,1,1.06-1A.93.93,0,0,1,55.73,189.25Z"/><path class="cls-1" d="M67.72,189.26a.93.93,0,0,1-1,1,.91.91,0,0,1-1-1,.9.9,0,0,1,1-.94A.93.93,0,0,1,67.72,189.26Z"/><path class="cls-1" d="M79.73,189.25c-.07.66-.4,1-1,1a.9.9,0,0,1-1-1,.91.91,0,0,1,1.06-1A.93.93,0,0,1,79.73,189.25Z"/><path class="cls-1" d="M91.72,189.3a.93.93,0,0,1-1,1,.9.9,0,0,1-1-1,.91.91,0,0,1,1.05-1A.93.93,0,0,1,91.72,189.3Z"/><path class="cls-1" d="M102.69,190.27a.93.93,0,0,1-1-1,.9.9,0,0,1,1-1,.91.91,0,0,1,1,1A.93.93,0,0,1,102.69,190.27Z"/><path class="cls-1" d="M114.7,190.27a.93.93,0,0,1-1-1,.9.9,0,0,1,1-1,.91.91,0,0,1,1,1A.93.93,0,0,1,114.7,190.27Z"/><path class="cls-1" d="M127.72,189.28a.93.93,0,0,1-1,1,.9.9,0,0,1-1-1,.91.91,0,0,1,1-1A.93.93,0,0,1,127.72,189.28Z"/><path class="cls-1" d="M139.72,189.2c0,.62-.3,1-.92,1.05a.91.91,0,0,1-1.07-1,.9.9,0,0,1,1-1A.93.93,0,0,1,139.72,189.2Z"/><path class="cls-1" d="M151.72,189.28a.93.93,0,0,1-1,1,.9.9,0,0,1-1-1,.91.91,0,0,1,1-1A.93.93,0,0,1,151.72,189.28Z"/><path class="cls-1" d="M163.72,189.28a.93.93,0,0,1-1,1,.9.9,0,0,1-1-1,.91.91,0,0,1,1-1A.93.93,0,0,1,163.72,189.28Z"/><path class="cls-1" d="M174.73,190.27a.93.93,0,0,1-1-1,.91.91,0,0,1,1-1,.9.9,0,0,1,.95,1A.93.93,0,0,1,174.73,190.27Z"/><path class="cls-1" d="M186.73,190.27a.93.93,0,0,1-1-1,.91.91,0,0,1,1-1,.9.9,0,0,1,.95,1A.93.93,0,0,1,186.73,190.27Z"/><path class="cls-1" d="M198.78,190.27c-.62,0-1-.3-1-.92a.91.91,0,0,1,1-1.07.9.9,0,0,1,1,1A.93.93,0,0,1,198.78,190.27Z"/><path class="cls-1" d="M211.72,189.26a.93.93,0,0,1-1,1,.91.91,0,0,1-1-1,.9.9,0,0,1,1-.94A.93.93,0,0,1,211.72,189.26Z"/><path class="cls-1" d="M223.73,189.19c0,.67-.35,1-1,1.06a.91.91,0,0,1-1-1,.9.9,0,0,1,1-.94A.94.94,0,0,1,223.73,189.19Z"/><path class="cls-1" d="M234.65,188.26c.67,0,1,.35,1.06,1a.91.91,0,0,1-1,1,.9.9,0,0,1-.94-1A.94.94,0,0,1,234.65,188.26Z"/><path class="cls-1" d="M247.72,189.3a.93.93,0,0,1-1,1,.9.9,0,0,1-1-1,.91.91,0,0,1,1.05-1A.93.93,0,0,1,247.72,189.3Z"/><path class="cls-1" d="M259.72,189.26a.93.93,0,0,1-1,1,.91.91,0,0,1-1-1,.9.9,0,0,1,1-.94A.93.93,0,0,1,259.72,189.26Z"/><path class="cls-1" d="M270.65,188.26c.67,0,1.05.35,1.06,1a.91.91,0,0,1-1,1,.9.9,0,0,1-.94-1A.93.93,0,0,1,270.65,188.26Z"/><path class="cls-1" d="M282.85,190.27c-.68,0-1.08-.3-1.12-.92a.91.91,0,0,1,1-1.07.9.9,0,0,1,1,1A.93.93,0,0,1,282.85,190.27Z"/><path class="cls-1" d="M294.76,190.27c-.67-.06-1-.38-1-1a.9.9,0,0,1,1-1,.91.91,0,0,1,1,1A.93.93,0,0,1,294.76,190.27Z"/><path class="cls-1" d="M306.76,188.26a.93.93,0,0,1,.95,1,.9.9,0,0,1-1,1,.91.91,0,0,1-1-1.06A.93.93,0,0,1,306.76,188.26Z"/><path class="cls-1" d="M318.76,188.26a.93.93,0,0,1,.95,1,.9.9,0,0,1-1,1,.91.91,0,0,1-1-1.06A.93.93,0,0,1,318.76,188.26Z"/><path class="cls-1" d="M331.68,189.21c-.23.44-.28,1.09-1,1a.9.9,0,0,1-.92-1,.91.91,0,0,1,1.07-1A.85.85,0,0,1,331.68,189.21Z"/><path class="cls-1" d="M340.49,16.59c-3.72-9.5-307.88-26.53-327-9-12,11-19,122-8,134,3.08,3.35,73.12,7.88,148.58,11,18.42,52-52.31,96-44.58,95,64.06-8,100-65,99.05-93.05,68.84,2.1,129.68,2.47,133.95-.95C352.49,145.59,349.49,39.59,340.49,16.59Z"/><path class="cls-2" d="M22.49,16.59c-7.59,1.82-18,78-6,111,22,7,139,7,147,11s9,61-23,91c30-21,62-53,54-92,22,0,127,10,136,3s8-94,1-116C280.49,11.59,72.49,4.59,22.49,16.59Z"/></g></g></svg>