<svg xmlns="http://www.w3.org/2000/svg" viewBox="0 0 42.9 79.55"><defs><style>.cls-1{fill:#010300;}</style></defs><title>section-arrow</title><g id="Layer_2" data-name="Layer 2"><g id="OBJECTS"><path class="cls-1" d="M30.27,52.86a5.65,5.65,0,0,1-.15-1.14c0-.17,0-.35,0-.66l.06-.82L30.46,47l.5-6.54,1-13.08c.63-8.72,1.27-17.44,1.85-26.18l1.45,1.36L2.35,8.16,4,5.41c1.61,3.92,3.23,7.84,4.7,11.81s2.92,8,4.27,12,2.61,8.07,3.8,12.15c.57,2,1.13,4.09,1.66,6.14s1,4.12,1.48,6.19l-1.93-1.4c2,0,3.91.07,6,.19Zm1.42,1.43c-2.09.33-4.29.69-6.58,1s-4.65.58-7,.8a1.79,1.79,0,0,1-1.87-1.23l-.05-.17-3.86-12-3.89-12q-2-6-4.06-11.93C3,14.81,1.61,10.83.15,6.88l0-.08A2,2,0,0,1,1.31,4.24a2.11,2.11,0,0,1,.44-.11L34.87,0h.05a1.25,1.25,0,0,1,1.39,1.09,1.32,1.32,0,0,1,0,.28c-.9,8.7-1.69,17.4-2.45,26.11-.4,4.35-.71,8.71-1.05,13.07-.17,2.18-.32,4.36-.46,6.54l-.2,3.27,0,.82c0,.24,0,.6-.06,1A16.35,16.35,0,0,1,31.69,54.29Z"/><path class="cls-1" d="M41.95,54.49,23.71,55.54c-3,.22-6.06.44-9.07.71s-6,.57-9,1.07l.67-2c3.41,3.37,6.88,6.7,10.27,10.14l10,10.22-3.39.1c1.49-1.88,3-3.77,4.37-5.67s2.73-3.85,4.1-5.86l2.13-3c.74-1,1.48-2,2.25-2.91A65.69,65.69,0,0,1,41,52.89a1,1,0,0,1,1.64,1.17h0c-1.06,2.22-2.25,4.34-3.43,6.46l-1.8,3.15L35.59,66.8C34.3,68.86,33,71,31.44,73s-3.08,3.9-4.69,5.75l-.06.07a2.23,2.23,0,0,1-3.14.21l-.19-.18c-1.61-1.78-3.19-3.61-4.74-5.45L14,67.79Q9.5,62.27,4.64,57l0,0A1.16,1.16,0,0,1,5.31,55c3.08-.38,6.12-.59,9.17-.81s6.08-.37,9.12-.52l9.11-.52c3-.19,6.07-.38,9.07-.67h0a1,1,0,0,1,.2,2Z"/><path class="cls-1" d="M26.59,48.2c.15-2.16.18-4.32.21-6.49s0-4.33-.12-6.5-.13-4.33,0-6.49a26,26,0,0,1,.88-6.47v0a.49.49,0,0,1,1,0,25.88,25.88,0,0,1,.42,6.51c-.07,2.17-.29,4.33-.5,6.49s-.45,4.32-.59,6.48-.25,4.33-.25,6.5a.48.48,0,1,1-1,0V48.2Z"/><path class="cls-1" d="M27.73,16.46a1.25,1.25,0,0,1,1.18.72,1.15,1.15,0,0,1,0,.87,1.46,1.46,0,0,1-.58.73,1.33,1.33,0,0,1-1.06.17,1.43,1.43,0,0,1-.95-.87A1.18,1.18,0,0,1,26.45,17a.89.89,0,0,1,1-.43.48.48,0,1,1,.45.85.39.39,0,0,0,.5.18.21.21,0,0,0,.1-.3.51.51,0,0,0-.41-.31.23.23,0,0,0-.27.17c0,.16.08.38.15.34s-.09-.18-.05-.09a.48.48,0,1,1-.18-.95Z"/><path class="cls-1" d="M28.23,10.2a1.33,1.33,0,0,1,1.06,1.07,1.22,1.22,0,0,1-.2.91,1.54,1.54,0,0,1-.81.58,1.42,1.42,0,0,1-1.13-.12,1.5,1.5,0,0,1-.72-1.15,1.27,1.27,0,0,1,.4-1.09A1,1,0,0,1,28,10.22a.48.48,0,1,1,.19.94.39.39,0,0,0,.38.34.16.16,0,0,0,.17-.2.45.45,0,0,0-.29-.36c-.15,0-.24,0-.25.11s.05.36.13.29-.08-.28-.11-.18A.88.88,0,1,1,27.52,10Z"/></g></g></svg>