<svg xmlns="http://www.w3.org/2000/svg" viewBox="0 0 294.31 244.58"><defs><style>.cls-1{fill:#fff;}</style></defs><title>title-container2</title><g id="Layer_2" data-name="Layer 2"><g id="Layer_3" data-name="Layer 3"><path d="M154.95,131.35a3.62,3.62,0,1,1,3.62-3.61A3.63,3.63,0,0,1,154.95,131.35Z"/><circle cx="145.91" cy="118.69" r="3.62" transform="translate(27.06 264.47) rotate(-89.93)"/><path d="M145.91,140.38a3.6,3.6,0,1,1,3.6-3.55A3.64,3.64,0,0,1,145.91,140.38Z"/><path d="M136.9,131.33a3.6,3.6,0,1,1,3.57-3.58A3.64,3.64,0,0,1,136.9,131.33Z"/><path d="M154.88,113.24a3.6,3.6,0,1,1,3.67-3.48A3.64,3.64,0,0,1,154.88,113.24Z"/><path d="M167.6,118.69a3.6,3.6,0,1,1-3.55-3.6A3.64,3.64,0,0,1,167.6,118.69Z"/><path d="M140.44,109.63a3.57,3.57,0,1,1-3.59-3.55A3.61,3.61,0,0,1,140.44,109.63Z"/><path d="M158.53,145.82a3.57,3.57,0,1,1-3.57-3.57A3.61,3.61,0,0,1,158.53,145.82Z"/><path d="M136.84,142.26a3.57,3.57,0,1,1-3.54,3.59A3.61,3.61,0,0,1,136.84,142.26Z"/><path d="M118.79,131.3a3.57,3.57,0,1,1,3.55-3.59A3.61,3.61,0,0,1,118.79,131.3Z"/><path d="M182.11,115.12a3.57,3.57,0,1,1-3.59,3.55A3.61,3.61,0,0,1,182.11,115.12Z"/><path d="M127.83,115.12a3.57,3.57,0,1,1-3.58,3.56A3.61,3.61,0,0,1,127.83,115.12Z"/><path d="M127.85,140.35a3.57,3.57,0,1,1,3.54-3.6A3.61,3.61,0,0,1,127.85,140.35Z"/><path d="M167.57,136.76a3.57,3.57,0,1,1-3.59-3.55A3.61,3.61,0,0,1,167.57,136.76Z"/><path d="M145.92,97a3.57,3.57,0,1,1-3.58,3.56A3.61,3.61,0,0,1,145.92,97Z"/><path d="M176.62,109.67a3.57,3.57,0,1,1-3.55-3.59A3.61,3.61,0,0,1,176.62,109.67Z"/><path d="M173.06,124.17a3.57,3.57,0,1,1-3.59,3.55A3.61,3.61,0,0,1,173.06,124.17Z"/><path d="M118.74,142.3a3.52,3.52,0,1,1-3.48,3.52A3.52,3.52,0,0,1,118.74,142.3Z"/><path d="M140.39,91.56A3.52,3.52,0,1,1,136.91,88,3.52,3.52,0,0,1,140.39,91.56Z"/><path d="M158.48,91.6A3.52,3.52,0,1,1,155,88,3.52,3.52,0,0,1,158.48,91.6Z"/><path d="M118.74,106.12a3.52,3.52,0,1,1-3.49,3.51A3.52,3.52,0,0,1,118.74,106.12Z"/><path d="M127.87,104.12a3.52,3.52,0,1,1,3.48-3.52A3.52,3.52,0,0,1,127.87,104.12Z"/><path d="M167.53,100.64a3.52,3.52,0,1,1-3.44-3.56A3.52,3.52,0,0,1,167.53,100.64Z"/><path d="M113.26,118.76a3.53,3.53,0,1,1-3.41-3.59A3.52,3.52,0,0,1,113.26,118.76Z"/><path d="M149.44,154.87a3.52,3.52,0,1,1-3.48-3.52A3.52,3.52,0,0,1,149.44,154.87Z"/><path d="M109.75,133.25a3.52,3.52,0,1,1-3.54,3.46A3.52,3.52,0,0,1,109.75,133.25Z"/><path d="M146,79a3.48,3.48,0,1,1-3.56,3.4A3.44,3.44,0,0,1,146,79Z"/><path d="M185.57,100.58a3.48,3.48,0,1,1-3.5-3.47A3.44,3.44,0,0,1,185.57,100.58Z"/><path d="M173.07,88.07a3.48,3.48,0,1,1-3.51,3.46A3.44,3.44,0,0,1,173.07,88.07Z"/><path d="M100.66,124.25a3.48,3.48,0,1,1-3.45,3.51A3.44,3.44,0,0,1,100.66,124.25Z"/><path d="M191.13,124.25a3.48,3.48,0,1,1-3.47,3.49A3.44,3.44,0,0,1,191.13,124.25Z"/><path d="M127.81,158.35a3.48,3.48,0,1,1,3.5-3.47A3.44,3.44,0,0,1,127.81,158.35Z"/><path d="M191.16,113.13a3.48,3.48,0,1,1,3.46-3.51A3.44,3.44,0,0,1,191.16,113.13Z"/><path d="M185.57,136.8a3.48,3.48,0,1,1-3.46-3.51A3.44,3.44,0,0,1,185.57,136.8Z"/><path d="M173,149.31a3.48,3.48,0,1,1,3.56-3.4A3.44,3.44,0,0,1,173,149.31Z"/><path d="M167.48,154.86a3.48,3.48,0,1,1-3.5-3.47A3.44,3.44,0,0,1,167.48,154.86Z"/><path d="M140.32,163.89a3.46,3.46,0,1,1-3.44-3.43A3.42,3.42,0,0,1,140.32,163.89Z"/><path d="M164,79.05a3.46,3.46,0,1,1-3.41,3.45A3.42,3.42,0,0,1,164,79.05Z"/><path d="M122.23,91.59a3.46,3.46,0,1,1-3.37-3.5A3.42,3.42,0,0,1,122.23,91.59Z"/><path d="M100.68,106.19a3.46,3.46,0,1,1-3.45,3.41A3.42,3.42,0,0,1,100.68,106.19Z"/><path d="M158.41,163.91a3.46,3.46,0,1,1-3.42-3.45A3.42,3.42,0,0,1,158.41,163.91Z"/><path d="M109.69,97.14a3.46,3.46,0,1,1-3.42,3.45A3.42,3.42,0,0,1,109.69,97.14Z"/><path d="M200.14,122.14a3.46,3.46,0,1,1,3.5-3.37A3.42,3.42,0,0,1,200.14,122.14Z"/><path d="M109.71,158.33a3.46,3.46,0,1,1,3.48-3.39A3.42,3.42,0,0,1,109.71,158.33Z"/><circle cx="200.18" cy="136.78" r="3.44" transform="translate(61.83 335.88) rotate(-89.55)"/><circle cx="100.69" cy="145.82" r="3.44" transform="translate(-45.97 245.3) rotate(-89.52)"/><path d="M209.23,113.06a3.42,3.42,0,1,1,3.42-3.37A3.45,3.45,0,0,1,209.23,113.06Z"/><circle cx="191.14" cy="145.82" r="3.44" transform="translate(43.78 335.78) rotate(-89.54)"/><circle cx="118.78" cy="163.91" r="3.44" transform="translate(-0.93 0.68) rotate(-0.32)"/><path d="M173,160.49a3.42,3.42,0,1,1-3.38,3.41A3.45,3.45,0,0,1,173,160.49Z"/><path d="M149.33,173a3.42,3.42,0,1,1-3.37-3.42A3.45,3.45,0,0,1,149.33,173Z"/><circle cx="127.82" cy="82.51" r="3.44" transform="translate(-0.41 0.63) rotate(-0.28)"/><circle cx="91.64" cy="118.69" r="3.44" transform="matrix(1, -0.01, 0.01, 1, -0.66, 0.51)"/><circle cx="191.14" cy="91.55" r="3.44" transform="translate(-0.78 1.64) rotate(-0.49)"/><path d="M104.11,91.52a3.42,3.42,0,1,1-3.41-3.38A3.45,3.45,0,0,1,104.11,91.52Z"/><circle cx="182.09" cy="82.51" r="3.44" transform="translate(98.43 264.08) rotate(-89.64)"/><circle cx="200.18" cy="100.6" r="3.44" transform="translate(97.93 299.94) rotate(-89.52)"/><path d="M95.08,136.82a3.44,3.44,0,1,1-3.4-3.48A3.44,3.44,0,0,1,95.08,136.82Z"/><path d="M155,70a3.42,3.42,0,1,1-3.49,3.3A3.46,3.46,0,0,1,155,70Z"/><circle cx="182.09" cy="154.87" r="3.44" transform="translate(26.13 336.02) rotate(-89.65)"/><path d="M212.62,127.75a3.39,3.39,0,1,1-3.38-3.41A3.44,3.44,0,0,1,212.62,127.75Z"/><path d="M82.57,131.13A3.39,3.39,0,1,1,86,127.76,3.44,3.44,0,0,1,82.57,131.13Z"/><path d="M131.22,172.95a3.39,3.39,0,1,1-3.4-3.38A3.44,3.44,0,0,1,131.22,172.95Z"/><path d="M137,70.07a3.39,3.39,0,1,1-3.52,3.26A3.44,3.44,0,0,1,137,70.07Z"/><path d="M173,76.86a3.39,3.39,0,1,1,3.43-3.36A3.44,3.44,0,0,1,173,76.86Z"/><path d="M113.13,82.5a3.39,3.39,0,1,1-3.41-3.38A3.44,3.44,0,0,1,113.13,82.5Z"/><path d="M200.17,79.12a3.39,3.39,0,1,1-3.38,3.41A3.44,3.44,0,0,1,200.17,79.12Z"/><path d="M95,100.57a3.39,3.39,0,1,1-3.42-3.37A3.44,3.44,0,0,1,95,100.57Z"/><path d="M104.08,163.89a3.39,3.39,0,1,1-3.42-3.37A3.44,3.44,0,0,1,104.08,163.89Z"/><path d="M164.13,169.62a3.35,3.35,0,1,1-3.47,3.2A3.35,3.35,0,0,1,164.13,169.62Z"/><path d="M200.15,151.52a3.35,3.35,0,1,1-3.32,3.36A3.35,3.35,0,0,1,200.15,151.52Z"/><path d="M91.68,158.22A3.35,3.35,0,1,1,95,154.85,3.35,3.35,0,0,1,91.68,158.22Z"/><path d="M106.38,173a3.35,3.35,0,1,1,3.36,3.31A3.35,3.35,0,0,1,106.38,173Z"/><path d="M191.27,70.12a3.35,3.35,0,1,1-3.47,3.19A3.34,3.34,0,0,1,191.27,70.12Z"/><path d="M79.25,145.69a3.35,3.35,0,1,1,3.19,3.48A3.34,3.34,0,0,1,79.25,145.69Z"/><path d="M212.58,91.58a3.35,3.35,0,1,1-3.3-3.38A3.35,3.35,0,0,1,212.58,91.58Z"/><path d="M140.17,182a3.3,3.3,0,1,1-3.29-3.34A3.26,3.26,0,0,1,140.17,182Z"/><path d="M209.27,142.52a3.3,3.3,0,1,1-3.34,3.29A3.27,3.27,0,0,1,209.27,142.52Z"/><path d="M149.21,64.46a3.3,3.3,0,1,1-3.28-3.34A3.27,3.27,0,0,1,149.21,64.46Z"/><path d="M164,67.72a3.3,3.3,0,1,1,3.35-3.28A3.27,3.27,0,0,1,164,67.72Z"/><path d="M221.58,118.72a3.3,3.3,0,1,1-3.29-3.34A3.27,3.27,0,0,1,221.58,118.72Z"/><path d="M85.9,109.62a3.3,3.3,0,1,1-3.35-3.27A3.26,3.26,0,0,1,85.9,109.62Z"/><path d="M218.32,97.3a3.3,3.3,0,1,1-3.35,3.28A3.27,3.27,0,0,1,218.32,97.3Z"/><path d="M122.08,73.51a3.3,3.3,0,1,1-3.28-3.34A3.26,3.26,0,0,1,122.08,73.51Z"/><path d="M194.44,163.93a3.3,3.3,0,1,1-3.31-3.31A3.26,3.26,0,0,1,194.44,163.93Z"/><path d="M73.6,115.41a3.28,3.28,0,1,1-3.33,3.2A3.24,3.24,0,0,1,73.6,115.41Z"/><path d="M182.16,169.69a3.28,3.28,0,1,1-3.34,3.18A3.24,3.24,0,0,1,182.16,169.69Z"/><path d="M182.08,67.69a3.27,3.27,0,1,1,3.28-3.24A3.24,3.24,0,0,1,182.08,67.69Z"/><path d="M70.28,136.71a3.28,3.28,0,1,1,3.18,3.35A3.25,3.25,0,0,1,70.28,136.71Z"/><path d="M158.23,181.93a3.28,3.28,0,1,1-3.33-3.2A3.24,3.24,0,0,1,158.23,181.93Z"/><path d="M227.29,106.39a3.26,3.26,0,1,1-3.23,3.3A3.25,3.25,0,0,1,227.29,106.39Z"/><path d="M218.25,133.52a3.26,3.26,0,1,1-3.23,3.3A3.25,3.25,0,0,1,218.25,133.52Z"/><path d="M100.65,76.72a3.26,3.26,0,1,1,3.29-3.24A3.25,3.25,0,0,1,100.65,76.72Z"/><path d="M209.24,76.72a3.26,3.26,0,1,1,3.24-3.29A3.25,3.25,0,0,1,209.24,76.72Z"/><path d="M85.85,91.58A3.26,3.26,0,1,1,82.6,88.3,3.25,3.25,0,0,1,85.85,91.58Z"/><path d="M124.57,64.34a3.26,3.26,0,1,1,3.2,3.33A3.26,3.26,0,0,1,124.57,64.34Z"/><path d="M82.56,160.66A3.26,3.26,0,1,1,79.34,164,3.25,3.25,0,0,1,82.56,160.66Z"/><path d="M118.75,178.75a3.26,3.26,0,1,1-3.23,3.31A3.25,3.25,0,0,1,118.75,178.75Z"/><path d="M94.9,82.49a3.26,3.26,0,1,1-3.3-3.24A3.25,3.25,0,0,1,94.9,82.49Z"/><path d="M73.55,103.84a3.24,3.24,0,1,1,3.24-3.21A3.28,3.28,0,0,1,73.55,103.84Z"/><path d="M151.72,55.24a3.24,3.24,0,1,1,3.08,3.37A3.28,3.28,0,0,1,151.72,55.24Z"/><path d="M91.67,169.72a3.24,3.24,0,1,1-3.26,3.19A3.28,3.28,0,0,1,91.67,169.72Z"/><path d="M176.28,182a3.24,3.24,0,1,1-3.21-3.24A3.28,3.28,0,0,1,176.28,182Z"/><path d="M230.55,127.75a3.24,3.24,0,1,1-3.2-3.25A3.28,3.28,0,0,1,230.55,127.75Z"/><path d="M67.74,127.74a3.24,3.24,0,1,1-3.21-3.24A3.28,3.28,0,0,1,67.74,127.74Z"/><path d="M76.79,154.9a3.24,3.24,0,1,1-3.18-3.27A3.28,3.28,0,0,1,76.79,154.9Z"/><path d="M203.42,64.39a3.24,3.24,0,1,1-3.24-3.21A3.28,3.28,0,0,1,203.42,64.39Z"/><path d="M221.51,82.5a3.24,3.24,0,1,1-3.22-3.23A3.28,3.28,0,0,1,221.51,82.5Z"/><path d="M140.07,55.38a3.21,3.21,0,1,1-3.22-3.21A3.25,3.25,0,0,1,140.07,55.38Z"/><path d="M64.51,112.85a3.21,3.21,0,1,1,3.2-3.24A3.25,3.25,0,0,1,64.51,112.85Z"/><path d="M112.94,64.39a3.21,3.21,0,1,1-3.25-3.18A3.25,3.25,0,0,1,112.94,64.39Z"/><path d="M173.06,52.17a3.21,3.21,0,1,1-3.22,3.21A3.25,3.25,0,0,1,173.06,52.17Z"/><path d="M145.92,194.26a3.21,3.21,0,1,1,3.2-3.24A3.25,3.25,0,0,1,145.92,194.26Z"/><path d="M227.29,88.35a3.21,3.21,0,1,1-3.17,3.26A3.25,3.25,0,0,1,227.29,88.35Z"/><path d="M103.89,182.08a3.21,3.21,0,1,1-3.16-3.28A3.25,3.25,0,0,1,103.89,182.08Z"/><path d="M218.24,151.72a3.15,3.15,0,1,1-3.12,3.19A3.14,3.14,0,0,1,218.24,151.72Z"/><path d="M239.52,118.66a3.15,3.15,0,1,1-3.18-3.13A3.13,3.13,0,0,1,239.52,118.66Z"/><path d="M191.16,52.22A3.15,3.15,0,1,1,188,55.35,3.13,3.13,0,0,1,191.16,52.22Z"/><path d="M127.87,187.9a3.15,3.15,0,1,1-3.2,3.11A3.14,3.14,0,0,1,127.87,187.9Z"/><path d="M239.52,100.58a3.15,3.15,0,1,1-3.17-3.13A3.13,3.13,0,0,1,239.52,100.58Z"/><path d="M67.66,145.81a3.15,3.15,0,1,1-3.16-3.14A3.13,3.13,0,0,1,67.66,145.81Z"/><path d="M212.38,163.95a3.15,3.15,0,1,1-3.12-3.18A3.14,3.14,0,0,1,212.38,163.95Z"/><path d="M203.34,173a3.15,3.15,0,1,1-3.14-3.16A3.13,3.13,0,0,1,203.34,173Z"/><path d="M191.18,178.89a3.11,3.11,0,1,1-3.15,3A3.07,3.07,0,0,1,191.18,178.89Z"/><path d="M121.89,55.42a3.11,3.11,0,1,1-3-3.15A3.07,3.07,0,0,1,121.89,55.42Z"/><path d="M227.32,142.71a3.11,3.11,0,1,1-3.11,3.07A3.07,3.07,0,0,1,227.32,142.71Z"/><path d="M224.23,73.45a3.09,3.09,0,1,1,3.07,3.1A3.06,3.06,0,0,1,224.23,73.45Z"/><path d="M73.52,79.42a3.09,3.09,0,1,1-3.06,3.11A3.06,3.06,0,0,1,73.52,79.42Z"/><path d="M67.59,91.56a3.09,3.09,0,1,1-3.08-3.09A3.06,3.06,0,0,1,67.59,91.56Z"/><path d="M218.25,67.51a3.09,3.09,0,1,1,3.1-3.07A3.06,3.06,0,0,1,218.25,67.51Z"/><path d="M58.55,118.65a3.09,3.09,0,1,1-3.13-3A3.06,3.06,0,0,1,58.55,118.65Z"/><path d="M58.55,136.76a3.09,3.09,0,1,1-3.11-3.06A3.06,3.06,0,0,1,58.55,136.76Z"/><path d="M239.45,136.8a3.09,3.09,0,1,1-3.07-3.11A3.06,3.06,0,0,1,239.45,136.8Z"/><path d="M149,46.36a3.09,3.09,0,1,1-3.06-3.11A3.06,3.06,0,0,1,149,46.36Z"/><path d="M167.09,46.35A3.09,3.09,0,1,1,164,43.24,3.06,3.06,0,0,1,167.09,46.35Z"/><path d="M109.74,188a3.09,3.09,0,1,1-3.1,3.07A3.06,3.06,0,0,1,109.74,188Z"/><path d="M164,194.14a3.09,3.09,0,1,1,3.11-3.07A3.06,3.06,0,0,1,164,194.14Z"/><path d="M82.59,76.55a3.09,3.09,0,1,1,3.1-3.07A3.06,3.06,0,0,1,82.59,76.55Z"/><path d="M236.36,79.44a3.07,3.07,0,1,1-3.06,3.05A3.09,3.09,0,0,1,236.36,79.44Z"/><path d="M185.16,46.36a3.07,3.07,0,1,1-3-3.1A3.09,3.09,0,0,1,185.16,46.36Z"/><path d="M94.71,64.4a3.07,3.07,0,1,1-3.07-3A3.09,3.09,0,0,1,94.71,64.4Z"/><path d="M73.63,169.89a3.07,3.07,0,1,1-3.14,3A3.09,3.09,0,0,1,73.63,169.89Z"/><path d="M67.57,163.92a3.07,3.07,0,1,1-3-3.07A3.09,3.09,0,0,1,67.57,163.92Z"/><path d="M209.24,58.44a3.07,3.07,0,1,1,3.05-3.06A3.09,3.09,0,0,1,209.24,58.44Z"/><path d="M182.11,188a3,3,0,1,1-3.06,3.05A3.09,3.09,0,0,1,182.11,188Z"/><path d="M130.87,46.32a3,3,0,1,1-3.07-3A3.09,3.09,0,0,1,130.87,46.32Z"/><path d="M82.64,179a3,3,0,1,1-3.08,3A3.09,3.09,0,0,1,82.64,179Z"/><path d="M103.73,55.4a3,3,0,1,1-3-3.07A3.09,3.09,0,0,1,103.73,55.4Z"/><path d="M245.37,112.69a3,3,0,1,1,3.08-3A3.09,3.09,0,0,1,245.37,112.69Z"/><path d="M58.5,100.61a3,3,0,1,1-3.05-3.06A3.09,3.09,0,0,1,58.5,100.61Z"/><path d="M46.4,130.73a3,3,0,1,1,3-3A3,3,0,0,1,46.4,130.73Z"/><path d="M139.87,200.14a3,3,0,1,1-2.93-3A3,3,0,0,1,139.87,200.14Z"/><path d="M58.46,154.89a3,3,0,1,1-3-3A3,3,0,0,1,58.46,154.89Z"/><path d="M200.22,49.33a3,3,0,1,1,3-3A3,3,0,0,1,200.22,49.33Z"/><path d="M94.59,191a2.95,2.95,0,1,1-2.9-2.94A2.91,2.91,0,0,1,94.59,191Z"/><path d="M157.9,200.05a2.95,2.95,0,1,1-2.94-2.9A2.91,2.91,0,0,1,157.9,200.05Z"/><path d="M109.76,43.38a2.95,2.95,0,1,1-3,2.87A2.91,2.91,0,0,1,109.76,43.38Z"/><path d="M227.36,166.86a2.95,2.95,0,1,1,2.91-2.94A2.91,2.91,0,0,1,227.36,166.86Z"/><path d="M121.72,200.12a2.95,2.95,0,1,1-2.87-3A2.91,2.91,0,0,1,121.72,200.12Z"/><path d="M218.27,175.91a2.95,2.95,0,1,1,2.95-2.9A2.91,2.91,0,0,1,218.27,175.91Z"/><path d="M245.41,88.61a2.95,2.95,0,1,1-2.95,2.9A2.91,2.91,0,0,1,245.41,88.61Z"/><path d="M245.41,130.68a2.95,2.95,0,1,1,2.95-2.9A2.91,2.91,0,0,1,245.41,130.68Z"/><path d="M49.33,145.84a2.91,2.91,0,1,1-2.9-2.93A2.88,2.88,0,0,1,49.33,145.84Z"/><path d="M173,34.37a2.91,2.91,0,1,1-2.89,2.93A2.88,2.88,0,0,1,173,34.37Z"/><path d="M209.18,179.09a2.91,2.91,0,1,1-2.87,3A2.88,2.88,0,0,1,209.18,179.09Z"/><path d="M157.87,37.33a2.91,2.91,0,1,1-2.87-3A2.88,2.88,0,0,1,157.87,37.33Z"/><path d="M239.28,154.91a2.91,2.91,0,1,1-2.87-3A2.88,2.88,0,0,1,239.28,154.91Z"/><path d="M236.34,61.51a2.91,2.91,0,1,1-2.89,2.93A2.88,2.88,0,0,1,236.34,61.51Z"/><path d="M49.33,109.67a2.91,2.91,0,1,1-2.89-2.94A2.88,2.88,0,0,1,49.33,109.67Z"/><path d="M67.4,73.51a2.89,2.89,0,1,1-2.81-2.93A2.9,2.9,0,0,1,67.4,73.51Z"/><path d="M55.42,79.62a2.89,2.89,0,1,1-2.85,2.89A2.9,2.9,0,0,1,55.42,79.62Z"/><path d="M191.1,40.18A2.89,2.89,0,1,1,194,37.37,2.9,2.9,0,0,1,191.1,40.18Z"/><path d="M227.31,58.27a2.89,2.89,0,1,1,2.9-2.84A2.9,2.9,0,0,1,227.31,58.27Z"/><path d="M76.44,64.42a2.89,2.89,0,1,1-2.85-2.89A2.9,2.9,0,0,1,76.44,64.42Z"/><path d="M136.91,40.18a2.89,2.89,0,1,1,2.85-2.89A2.9,2.9,0,0,1,136.91,40.18Z"/><path d="M203.05,191.07a2.87,2.87,0,1,1-2.87-2.89A2.92,2.92,0,0,1,203.05,191.07Z"/><path d="M245.38,148.69a2.87,2.87,0,1,1,2.89-2.86A2.92,2.92,0,0,1,245.38,148.69Z"/><path d="M245.42,76.33a2.87,2.87,0,1,1,2.86-2.9A2.91,2.91,0,0,1,245.42,76.33Z"/><path d="M85.46,55.41a2.87,2.87,0,1,1-2.85-2.91A2.92,2.92,0,0,1,85.46,55.41Z"/><path d="M103.56,200.09a2.87,2.87,0,1,1-2.89-2.87A2.91,2.91,0,0,1,103.56,200.09Z"/><path d="M175.92,200.06a2.87,2.87,0,1,1-2.92-2.84A2.92,2.92,0,0,1,175.92,200.06Z"/><path d="M218.24,49.2a2.87,2.87,0,1,1,2.9-2.86A2.92,2.92,0,0,1,218.24,49.2Z"/><path d="M257.32,100.61a2.87,2.87,0,1,1-2.88-2.88A2.92,2.92,0,0,1,257.32,100.61Z"/><path d="M67.33,182a2.83,2.83,0,1,1-2.8-2.85A2.86,2.86,0,0,1,67.33,182Z"/><path d="M46.38,88.73a2.83,2.83,0,1,1-2.79,2.87A2.86,2.86,0,0,1,46.38,88.73Z"/><path d="M37.39,134a2.83,2.83,0,1,1-2.85,2.81A2.86,2.86,0,0,1,37.39,134Z"/><path d="M254.48,121.52a2.83,2.83,0,1,1,2.8-2.85A2.86,2.86,0,0,1,254.48,121.52Z"/><path d="M58.29,172.94a2.83,2.83,0,1,1-2.84-2.81A2.86,2.86,0,0,1,58.29,172.94Z"/><path d="M73.51,188.28A2.77,2.77,0,1,1,70.78,191,2.73,2.73,0,0,1,73.51,188.28Z"/><path d="M191.19,197.36a2.73,2.73,0,1,1-2.78,2.71A2.7,2.7,0,0,1,191.19,197.36Z"/><path d="M121.54,37.3a2.77,2.77,0,1,1-2.71-2.78A2.73,2.73,0,0,1,121.54,37.3Z"/><path d="M46.42,166.68A2.77,2.77,0,1,1,49.18,164,2.73,2.73,0,0,1,46.42,166.68Z"/><path d="M91.66,49.1a2.77,2.77,0,1,1,2.75-2.74A2.73,2.73,0,0,1,91.66,49.1Z"/><path d="M148.65,209.18a2.73,2.73,0,1,1-2.71-2.78A2.7,2.7,0,0,1,148.65,209.18Z"/><path d="M257.19,82.55a2.73,2.73,0,1,1-2.71-2.77A2.7,2.7,0,0,1,257.19,82.55Z"/><path d="M254.46,139.51a2.73,2.73,0,1,1,2.72-2.77A2.7,2.7,0,0,1,254.46,139.51Z"/><path d="M206.46,37.21A2.77,2.77,0,1,1,209.11,40,2.73,2.73,0,0,1,206.46,37.21Z"/><path d="M37.42,121.46a2.77,2.77,0,1,1,2.72-2.77A2.73,2.73,0,0,1,37.42,121.46Z"/><path d="M145.93,30.95a2.71,2.71,0,1,1,2.69-2.71A2.72,2.72,0,0,1,145.93,30.95Z"/><path d="M37.4,157.58a2.71,2.71,0,1,1,2.68-2.72A2.72,2.72,0,0,1,37.4,157.58Z"/><path d="M164,30.95a2.71,2.71,0,1,1,2.67-2.73A2.72,2.72,0,0,1,164,30.95Z"/><path d="M37.37,103.31a2.71,2.71,0,1,1,2.71-2.69A2.72,2.72,0,0,1,37.37,103.31Z"/><path d="M127.8,211.85a2.71,2.71,0,1,1,2.73-2.67A2.72,2.72,0,0,1,127.8,211.85Z"/><path d="M109.71,206.46a2.68,2.68,0,1,1-2.67,2.66A2.73,2.73,0,0,1,109.71,206.46Z"/><path d="M182.1,30.92a2.68,2.68,0,1,1,2.68-2.64A2.73,2.73,0,0,1,182.1,30.92Z"/><path d="M239,46.33a2.68,2.68,0,1,1-2.64-2.68A2.73,2.73,0,0,1,239,46.33Z"/><path d="M85.28,200.09a2.68,2.68,0,1,1-2.64-2.68A2.73,2.73,0,0,1,85.28,200.09Z"/><path d="M227.33,179.32a2.68,2.68,0,1,1-2.7,2.63A2.73,2.73,0,0,1,227.33,179.32Z"/><path d="M239,173a2.68,2.68,0,1,1-2.63-2.69A2.73,2.73,0,0,1,239,173Z"/><path d="M266.18,109.64a2.68,2.68,0,1,1-2.64-2.68A2.73,2.73,0,0,1,266.18,109.64Z"/><path d="M200.2,25.6a2.64,2.64,0,1,1-2.65,2.64A2.65,2.65,0,0,1,200.2,25.6Z"/><path d="M248,163.9a2.64,2.64,0,1,1-2.67-2.62A2.65,2.65,0,0,1,248,163.9Z"/><path d="M263.47,94.19a2.64,2.64,0,1,1,2.67-2.62A2.65,2.65,0,0,1,263.47,94.19Z"/><path d="M245.4,58A2.64,2.64,0,1,1,248,55.36,2.65,2.65,0,0,1,245.4,58Z"/><path d="M103.32,37.25a2.64,2.64,0,1,1-2.69-2.6A2.65,2.65,0,0,1,103.32,37.25Z"/><path d="M55.46,61.78a2.64,2.64,0,1,1-2.63,2.66A2.65,2.65,0,0,1,55.46,61.78Z"/><path d="M28.32,125.1a2.64,2.64,0,1,1-2.63,2.66A2.65,2.65,0,0,1,28.32,125.1Z"/><path d="M215.64,191a2.64,2.64,0,1,1,2.61,2.68A2.65,2.65,0,0,1,215.64,191Z"/><path d="M64.52,58a2.64,2.64,0,1,1,2.62-2.67A2.65,2.65,0,0,1,64.52,58Z"/><path d="M164,211.78a2.64,2.64,0,1,1,2.66-2.63A2.65,2.65,0,0,1,164,211.78Z"/><path d="M266.07,127.75a2.58,2.58,0,1,1-2.54-2.59A2.53,2.53,0,0,1,266.07,127.75Z"/><path d="M229.89,37.27a2.58,2.58,0,1,1-2.57-2.56A2.53,2.53,0,0,1,229.89,37.27Z"/><path d="M130.4,28.22a2.58,2.58,0,1,1-2.57-2.56A2.53,2.53,0,0,1,130.4,28.22Z"/><path d="M46.49,70.89a2.58,2.58,0,1,1-2.65,2.48A2.53,2.53,0,0,1,46.49,70.89Z"/><path d="M257,64.44a2.58,2.58,0,1,1-2.54-2.59A2.53,2.53,0,0,1,257,64.44Z"/><path d="M76.1,46.33a2.54,2.54,0,1,1-2.5-2.55A2.53,2.53,0,0,1,76.1,46.33Z"/><path d="M30.87,145.86a2.54,2.54,0,1,1-2.46-2.58A2.53,2.53,0,0,1,30.87,145.86Z"/><path d="M37.34,80a2.54,2.54,0,1,1-2.52,2.53A2.53,2.53,0,0,1,37.34,80Z"/><path d="M254.42,152.33a2.54,2.54,0,1,1-2.51,2.53A2.53,2.53,0,0,1,254.42,152.33Z"/><path d="M28.31,112.19a2.54,2.54,0,1,1,2.56-2.48A2.53,2.53,0,0,1,28.31,112.19Z"/><path d="M266,73.43a2.52,2.52,0,1,1-2.57-2.49A2.55,2.55,0,0,1,266,73.43Z"/><path d="M48.94,182a2.52,2.52,0,1,1-2.59-2.48A2.55,2.55,0,0,1,48.94,182Z"/><path d="M211.75,200.12a2.52,2.52,0,1,1-2.52-2.55A2.55,2.55,0,0,1,211.75,200.12Z"/><path d="M91.62,211.66a2.52,2.52,0,1,1,2.54-2.52A2.55,2.55,0,0,1,91.62,211.66Z"/><path d="M182.07,211.66a2.52,2.52,0,1,1,2.54-2.52A2.55,2.55,0,0,1,182.07,211.66Z"/><path d="M37.39,170.48a2.48,2.48,0,1,1-2.5,2.47A2.53,2.53,0,0,1,37.39,170.48Z"/><path d="M263.46,143.34a2.48,2.48,0,1,1-2.44,2.53A2.53,2.53,0,0,1,263.46,143.34Z"/><path d="M109.75,30.72a2.48,2.48,0,1,1,2.46-2.51A2.53,2.53,0,0,1,109.75,30.72Z"/><path d="M220.76,28.23a2.48,2.48,0,1,1-2.49-2.48A2.53,2.53,0,0,1,220.76,28.23Z"/><path d="M57.95,191a2.48,2.48,0,1,1-2.5-2.47A2.53,2.53,0,0,1,57.95,191Z"/><path d="M82.52,39.7A2.42,2.42,0,1,1,85,37.38,2.4,2.4,0,0,1,82.52,39.7Z"/><path d="M275,100.64a2.42,2.42,0,1,1-2.36-2.46A2.39,2.39,0,0,1,275,100.64Z"/><path d="M66.92,200.14a2.42,2.42,0,1,1-2.36-2.46A2.39,2.39,0,0,1,66.92,200.14Z"/><path d="M28.37,89.14a2.42,2.42,0,1,1-2.46,2.35A2.39,2.39,0,0,1,28.37,89.14Z"/><path d="M272.5,116.32a2.37,2.37,0,1,1-2.33,2.37A2.34,2.34,0,0,1,272.5,116.32Z"/><path d="M157.33,19.17A2.37,2.37,0,1,1,155,16.82,2.34,2.34,0,0,1,157.33,19.17Z"/><path d="M191.1,21.57a2.37,2.37,0,1,1,2.41-2.29A2.34,2.34,0,0,1,191.1,21.57Z"/><path d="M175.42,19.18a2.37,2.37,0,1,1-2.34-2.36A2.34,2.34,0,0,1,175.42,19.18Z"/><circle cx="19.28" cy="118.69" r="2.35" transform="translate(-99.75 135.74) rotate(-88.92)"/><circle cx="200.18" cy="209.14" r="2.35" transform="translate(-3.84 3.74) rotate(-1.06)"/><circle cx="245.41" cy="37.28" r="2.35" transform="translate(-0.08 0.53) rotate(-0.12)"/><circle cx="28.33" cy="163.91" r="2.35" transform="translate(-0.59 0.1) rotate(-0.21)"/><circle cx="118.78" cy="218.19" r="2.35" transform="translate(-100.88 334.21) rotate(-89.28)"/><circle cx="136.87" cy="218.19" r="2.35" transform="translate(-2.42 1.54) rotate(-0.64)"/><path d="M254.47,48.64a2.31,2.31,0,1,1,2.29-2.33A2.37,2.37,0,0,1,254.47,48.64Z"/><path d="M274.86,82.48a2.31,2.31,0,1,1-2.34-2.29A2.37,2.37,0,0,1,274.86,82.48Z"/><path d="M19.24,134.47A2.31,2.31,0,1,1,17,136.82,2.37,2.37,0,0,1,19.24,134.47Z"/><path d="M136.89,16.88a2.31,2.31,0,1,1-2.34,2.29A2.37,2.37,0,0,1,136.89,16.88Z"/><path d="M245.42,179.69a2.31,2.31,0,1,1-2.32,2.31A2.37,2.37,0,0,1,245.42,179.69Z"/><path d="M155,215.87a2.31,2.31,0,1,1-2.35,2.28A2.37,2.37,0,0,1,155,215.87Z"/><path d="M93.89,28.26A2.25,2.25,0,1,1,91.68,26,2.23,2.23,0,0,1,93.89,28.26Z"/><path d="M238.61,191.09a2.25,2.25,0,1,1-2.18-2.29A2.23,2.23,0,0,1,238.61,191.09Z"/><path d="M39.62,64.4a2.25,2.25,0,1,1-2.25-2.22A2.23,2.23,0,0,1,39.62,64.4Z"/><path d="M209.26,16.95A2.25,2.25,0,1,1,207,19.14,2.23,2.23,0,0,1,209.26,16.95Z"/><path d="M274.79,136.78a2.25,2.25,0,1,1-2.22-2.25A2.23,2.23,0,0,1,274.79,136.78Z"/><path d="M254.45,175.21A2.25,2.25,0,1,1,256.7,173,2.23,2.23,0,0,1,254.45,175.21Z"/><path d="M46.4,53.13a2.25,2.25,0,1,1-2.23,2.24A2.23,2.23,0,0,1,46.4,53.13Z"/><path d="M73.57,211.39a2.25,2.25,0,1,1,2.22-2.25A2.23,2.23,0,0,1,73.57,211.39Z"/><path d="M55.48,44.08a2.25,2.25,0,1,1-2.27,2.2A2.23,2.23,0,0,1,55.48,44.08Z"/><path d="M238.61,28.22A2.25,2.25,0,1,1,236.36,26,2.23,2.23,0,0,1,238.61,28.22Z"/><path d="M263.46,57.62a2.25,2.25,0,1,1,2.29-2.18A2.23,2.23,0,0,1,263.46,57.62Z"/><path d="M100.66,215.94a2.25,2.25,0,1,1-2.22,2.25A2.23,2.23,0,0,1,100.66,215.94Z"/><path d="M229.51,200.06a2.2,2.2,0,1,1-2.18-2.16A2.16,2.16,0,0,1,229.51,200.06Z"/><path d="M21.48,100.58A2.2,2.2,0,1,1,19.3,98.4,2.16,2.16,0,0,1,21.48,100.58Z"/><path d="M265.67,163.89a2.17,2.17,0,1,1-2.21-2.14A2.18,2.18,0,0,1,265.67,163.89Z"/><path d="M30.49,73.44a2.17,2.17,0,1,1-2.21-2.14A2.18,2.18,0,0,1,30.49,73.44Z"/><path d="M64.55,35.12a2.17,2.17,0,1,1-2.21,2.15A2.19,2.19,0,0,1,64.55,35.12Z"/><path d="M120.94,19.22A2.17,2.17,0,1,1,118.78,17,2.19,2.19,0,0,1,120.94,19.22Z"/><path d="M175.21,218.17A2.17,2.17,0,1,1,173,216,2.18,2.18,0,0,1,175.21,218.17Z"/><path d="M21.41,154.84a2.13,2.13,0,1,1-2.16-2.1A2.18,2.18,0,0,1,21.41,154.84Z"/><path d="M274.6,64.4a2.05,2.05,0,1,1-2.07-2A2,2,0,0,1,274.6,64.4Z"/><path d="M227.31,17.14a2.05,2.05,0,1,1-2,2.06A2,2,0,0,1,227.31,17.14Z"/><path d="M82.59,216.13a2.05,2.05,0,1,1-2,2.06A2,2,0,0,1,82.59,216.13Z"/><path d="M272.56,152.86a2,2,0,1,1-2,2A2,2,0,0,1,272.56,152.86Z"/><path d="M48.42,200.08a2,2,0,1,1-2-2A2,2,0,0,1,48.42,200.08Z"/><path d="M75.56,28.21a2,2,0,1,1-2-2A2,2,0,0,1,75.56,28.21Z"/><path d="M39.38,191.05a2,2,0,1,1-2-2A2,2,0,0,1,39.38,191.05Z"/><path d="M283.59,109.67a2,2,0,1,1-2-2A2,2,0,0,1,283.59,109.67Z"/><path d="M220.28,209.16a2,2,0,1,1-2-2A2,2,0,0,1,220.28,209.16Z"/><path d="M193.14,218.2a2,2,0,1,1-2-2A2,2,0,0,1,193.14,218.2Z"/><path d="M30.3,182a2,2,0,1,1-1.91-2A2,2,0,0,1,30.3,182Z"/><path d="M19.32,80.53a2,2,0,1,1-2,1.92A2,2,0,0,1,19.32,80.53Z"/><path d="M55.45,211.06a1.92,1.92,0,1,1,1.93-1.88A1.95,1.95,0,0,1,55.45,211.06Z"/><path d="M12.15,127.76a1.92,1.92,0,1,1-1.87-1.95A1.95,1.95,0,0,1,12.15,127.76Z"/><path d="M102.61,19.16a1.92,1.92,0,1,1-1.93-1.88A2,2,0,0,1,102.61,19.16Z"/><path d="M281.63,93.47a1.92,1.92,0,1,1,1.88-1.93A2,2,0,0,1,281.63,93.47Z"/><path d="M283.51,127.75a1.92,1.92,0,1,1-1.89-1.93A1.95,1.95,0,0,1,283.51,127.75Z"/><path d="M263.51,39.13a1.84,1.84,0,1,1,1.83-1.83A1.8,1.8,0,0,1,263.51,39.13Z"/><path d="M164,8.31a1.84,1.84,0,1,1-1.88,1.78A1.8,1.8,0,0,1,164,8.31Z"/><path d="M256.3,28.21a1.84,1.84,0,1,1-1.85-1.81A1.8,1.8,0,0,1,256.3,28.21Z"/><path d="M183.93,10.11a1.84,1.84,0,1,1-1.86-1.8A1.8,1.8,0,0,1,183.93,10.11Z"/><path d="M202,10.13a1.84,1.84,0,1,1-1.83-1.83A1.8,1.8,0,0,1,202,10.13Z"/><path d="M21.09,172.94a1.81,1.81,0,1,1-1.78-1.79A1.82,1.82,0,0,1,21.09,172.94Z"/><path d="M254.43,192.86a1.81,1.81,0,1,1,1.83-1.74A1.82,1.82,0,0,1,254.43,192.86Z"/><path d="M245.41,21a1.81,1.81,0,1,1,1.81-1.76A1.82,1.82,0,0,1,245.41,21Z"/><path d="M12,145.87A1.81,1.81,0,1,1,10.32,144,1.82,1.82,0,0,1,12,145.87Z"/><path d="M8.43,109.67a1.81,1.81,0,1,1,1.79,1.78A1.82,1.82,0,0,1,8.43,109.67Z"/><path d="M37.37,48.09a1.76,1.76,0,1,1,1.76-1.71A1.8,1.8,0,0,1,37.37,48.09Z"/><path d="M245.45,201.85a1.76,1.76,0,1,1,1.72-1.75A1.8,1.8,0,0,1,245.45,201.85Z"/><path d="M145.92,8.39a1.76,1.76,0,1,1-1.76,1.71A1.8,1.8,0,0,1,145.92,8.39Z"/><path d="M109.77,229a1.76,1.76,0,1,1,1.72-1.75A1.8,1.8,0,0,1,109.77,229Z"/><path d="M66.26,218.17a1.76,1.76,0,1,1-1.73-1.74A1.8,1.8,0,0,1,66.26,218.17Z"/><path d="M46.39,35.53a1.76,1.76,0,1,1-1.73,1.74A1.8,1.8,0,0,1,46.39,35.53Z"/><path d="M127.86,229a1.76,1.76,0,1,1,1.72-1.75A1.8,1.8,0,0,1,127.86,229Z"/><path d="M283.26,145.84a1.67,1.67,0,1,1-1.63-1.69A1.63,1.63,0,0,1,283.26,145.84Z"/><path d="M283.26,73.49a1.67,1.67,0,1,1-1.62-1.69A1.63,1.63,0,0,1,283.26,73.49Z"/><path d="M218.31,11.82a1.67,1.67,0,1,1,1.63-1.68A1.63,1.63,0,0,1,218.31,11.82Z"/><path d="M145.9,228.9a1.67,1.67,0,1,1,1.68-1.63A1.63,1.63,0,0,1,145.9,228.9Z"/><path d="M28.35,57A1.67,1.67,0,1,1,30,55.38,1.63,1.63,0,0,1,28.35,57Z"/><path d="M209.23,216.52a1.67,1.67,0,1,1-1.67,1.64A1.63,1.63,0,0,1,209.23,216.52Z"/><path d="M274.21,46.29a1.67,1.67,0,1,1-1.69-1.63A1.63,1.63,0,0,1,274.21,46.29Z"/><path d="M265.17,182a1.67,1.67,0,1,1-1.64-1.68A1.63,1.63,0,0,1,265.17,182Z"/><path d="M84.22,19.18a1.63,1.63,0,1,1-1.62-1.61A1.64,1.64,0,0,1,84.22,19.18Z"/><path d="M93.27,227.26a1.63,1.63,0,1,1-1.58-1.65A1.64,1.64,0,0,1,93.27,227.26Z"/><path d="M236.33,207.51a1.63,1.63,0,1,1-1.59,1.64A1.64,1.64,0,0,1,236.33,207.51Z"/><path d="M11.81,91.55A1.57,1.57,0,1,1,10.25,90,1.61,1.61,0,0,1,11.81,91.55Z"/><path d="M129.39,10.12a1.57,1.57,0,1,1-1.58-1.54A1.61,1.61,0,0,1,129.39,10.12Z"/><path d="M272.57,171.39a1.57,1.57,0,1,1-1.6,1.52A1.61,1.61,0,0,1,272.57,171.39Z"/><path d="M57,28.2a1.57,1.57,0,1,1-1.59-1.53A1.61,1.61,0,0,1,57,28.2Z"/><path d="M164,225.66a1.57,1.57,0,1,1-1.56,1.55A1.61,1.61,0,0,1,164,225.66Z"/><path d="M20.76,64.38a1.48,1.48,0,1,1-1.51-1.44A1.44,1.44,0,0,1,20.76,64.38Z"/><path d="M236.39,8.67a1.48,1.48,0,1,1-1.5,1.45A1.44,1.44,0,0,1,236.39,8.67Z"/><path d="M11.67,163.89a1.43,1.43,0,1,1-1.46-1.4A1.47,1.47,0,0,1,11.67,163.89Z"/><path d="M75,227.27a1.43,1.43,0,1,1-1.4-1.47A1.47,1.47,0,0,1,75,227.27Z"/><path d="M182.1,228.66a1.43,1.43,0,1,1,1.43-1.43A1.46,1.46,0,0,1,182.1,228.66Z"/><path d="M109.7,8.81a1.34,1.34,0,1,1-1.31,1.32A1.32,1.32,0,0,1,109.7,8.81Z"/><path d="M38.71,209.16a1.34,1.34,0,1,1-1.28-1.35A1.32,1.32,0,0,1,38.71,209.16Z"/><path d="M292,118.73a1.34,1.34,0,1,1-1.25-1.38A1.32,1.32,0,0,1,292,118.73Z"/><path d="M290.6,101.94a1.34,1.34,0,1,1,1.37-1.26A1.32,1.32,0,0,1,290.6,101.94Z"/><path d="M65.77,19.19a1.27,1.27,0,1,1-1.24-1.27A1.27,1.27,0,0,1,65.77,19.19Z"/><path d="M281.6,56.64a1.27,1.27,0,1,1,1.26-1.25A1.27,1.27,0,0,1,281.6,56.64Z"/><path d="M28.35,201.36a1.27,1.27,0,1,1,1.24-1.27A1.27,1.27,0,0,1,28.35,201.36Z"/><path d="M46.46,216.92a1.27,1.27,0,1,1-1.31,1.2A1.27,1.27,0,0,1,46.46,216.92Z"/><path d="M227.34,216.92a1.27,1.27,0,1,1-1.29,1.22A1.27,1.27,0,0,1,227.34,216.92Z"/><path d="M1.21,117.5a1.21,1.21,0,0,1,1.17,1.24,1.19,1.19,0,0,1-1.26,1.14A1.15,1.15,0,0,1,0,118.69,1.19,1.19,0,0,1,1.21,117.5Z"/><path d="M264.69,19.16a1.21,1.21,0,0,1-1.18,1.23,1.19,1.19,0,0,1-1.2-1.2A1.15,1.15,0,0,1,263.44,18,1.19,1.19,0,0,1,264.69,19.16Z"/><path d="M281.55,162.72a1.21,1.21,0,0,1,1.23,1.18,1.19,1.19,0,0,1-1.2,1.2A1.15,1.15,0,0,1,280.4,164,1.19,1.19,0,0,1,281.55,162.72Z"/><path d="M1.17,135.59a1.21,1.21,0,0,1,1.22,1.19A1.19,1.19,0,0,1,1.17,138,1.15,1.15,0,0,1,0,136.83,1.19,1.19,0,0,1,1.17,135.59Z"/><path d="M201.38,227.23a1.21,1.21,0,0,1-1.22,1.19,1.19,1.19,0,0,1-1.16-1.24,1.15,1.15,0,0,1,1.17-1.14A1.19,1.19,0,0,1,201.38,227.23Z"/><path d="M255.55,10.22a1,1,0,0,1-1,1,1.05,1.05,0,0,1-1.14-1.1,1,1,0,0,1,1.07-1.08A1.09,1.09,0,0,1,255.55,10.22Z"/><path d="M91.81,9.06a1,1,0,0,1,.92,1.13,1.06,1.06,0,0,1-1.2,1,1,1,0,0,1-1-1.18A1.1,1.1,0,0,1,91.81,9.06Z"/><path d="M290.55,137.88a1.07,1.07,0,0,1-1-1.15,1.06,1.06,0,0,1,1.2-1,1,1,0,0,1,1,1.17A1.06,1.06,0,0,1,290.55,137.88Z"/><path d="M263.55,199a1.07,1.07,0,0,1,1,1.12,1.06,1.06,0,0,1-1.18,1.06,1,1,0,0,1-1-1.15A1.05,1.05,0,0,1,263.55,199Z"/><path d="M11.34,73.42a1.07,1.07,0,0,1-1,1.13,1.05,1.05,0,0,1-1.14-1.1,1,1,0,0,1,1.07-1.07A1,1,0,0,1,11.34,73.42Z"/><path d="M290.51,83.6a1,1,0,0,1-1-1.09,1.05,1.05,0,0,1,1.15-1.09,1,1,0,0,1,1,1.13A1.1,1.1,0,0,1,290.51,83.6Z"/><path d="M20.37,191.16a1,1,0,0,1-1.07,1A1.05,1.05,0,0,1,18.19,191a1,1,0,0,1,1.11-1A1.09,1.09,0,0,1,20.37,191.16Z"/><path d="M254.51,208a1,1,0,0,1,1,1,1.05,1.05,0,0,1-1.09,1.15,1,1,0,0,1-1.08-1.07A1.09,1.09,0,0,1,254.51,208Z"/><path d="M173.08,0a1.07,1.07,0,0,1,1.05,1.11A1.06,1.06,0,0,1,173,2.19a1,1,0,0,1-1-1.14A1.05,1.05,0,0,1,173.08,0Z"/><path d="M190.05.93A1,1,0,0,1,191.19,0a1.06,1.06,0,0,1,1,1.2,1,1,0,0,1-1.18,1A1.1,1.1,0,0,1,190.05.93Z"/><path d="M209.2.1a1,1,0,0,1,1,.92,1,1,0,1,1-2,.08A1,1,0,0,1,209.2.1Z"/><path d="M1.21,99.59a1,1,0,0,1,1,1.08.91.91,0,0,1-1,.92.92.92,0,0,1-1-1.06A1,1,0,0,1,1.21,99.59Z"/><path d="M273.55,191.05c-.09.65-.45,1-1.08,1a.91.91,0,0,1-.92-1,.92.92,0,0,1,1.06-1A1,1,0,0,1,273.55,191.05Z"/><path d="M2.2,154.86a1,1,0,0,1-1,1,.91.91,0,0,1-1-1,.92.92,0,0,1,1-1A1,1,0,0,1,2.2,154.86Z"/><path d="M227.35,2.11a1,1,0,0,1-1-.92,1,1,0,1,1,2-.08A1,1,0,0,1,227.35,2.11Z"/><path d="M29.33,37.28a1,1,0,0,1-1,1,.91.91,0,0,1-1-1,.92.92,0,0,1,1-1A1,1,0,0,1,29.33,37.28Z"/><path d="M37.39,29.24a1,1,0,0,1-1-1,.91.91,0,0,1,1-1,.92.92,0,0,1,1,1A1,1,0,0,1,37.39,29.24Z"/><path d="M273.55,28.21a1,1,0,0,1-.92,1,1,1,0,1,1-.08-2A1,1,0,0,1,273.55,28.21Z"/><path d="M55.46,226.22a1,1,0,0,1,1,1.06.91.91,0,0,1-1,.94.92.92,0,0,1-1-1A1,1,0,0,1,55.46,226.22Z"/><path d="M101.69,236.28c-.08.65-.44,1-1.07,1a.91.91,0,0,1-.93-1,.93.93,0,0,1,1.05-1A1,1,0,0,1,101.69,236.28Z"/><path d="M119.78,236.28c-.09.65-.44,1-1.08,1a.91.91,0,0,1-.92-1,.92.92,0,0,1,1.06-1A1,1,0,0,1,119.78,236.28Z"/><path d="M137.87,236.27a1,1,0,0,1-1,1,.91.91,0,0,1-1-1,.92.92,0,0,1,1-1A1,1,0,0,1,137.87,236.27Z"/><path d="M10.23,181.1c.54.07.9.36.89.92a.83.83,0,0,1-.92.87.82.82,0,0,1-.85-.86C9.33,181.47,9.69,181.18,10.23,181.1Z"/><path d="M218.27,226.32c.54.08.9.37.88.93a.89.89,0,0,1-1.77,0C217.38,226.69,217.73,226.4,218.27,226.32Z"/><path d="M246.32,218.2c-.09.54-.38.89-.95.87a.89.89,0,0,1,0-1.77C246,217.29,246.25,217.66,246.32,218.2Z"/><path d="M82.59,237.18c-.54-.08-.9-.37-.88-.93a.89.89,0,0,1,1.77,0C83.49,236.82,83.14,237.11,82.59,237.18Z"/><path d="M281.63,182.76a.7.7,0,0,1-.79-.7.69.69,0,0,1,.75-.81.67.67,0,0,1,.74.73A.7.7,0,0,1,281.63,182.76Z"/><path d="M20,46.27c0,.51-.26.79-.73.8a.69.69,0,0,1-.78-.78.68.68,0,0,1,.76-.71A.7.7,0,0,1,20,46.27Z"/><path d="M69.74,235.48a.7.7,0,0,1-.73-.75.68.68,0,0,1,.72-.75.69.69,0,0,1,.78.78A.7.7,0,0,1,69.74,235.48Z"/><path d="M155,236.5c-.28-.23-.87.31-.9-.36a.77.77,0,0,1,.85-.75.78.78,0,0,1,.87.73C155.84,236.76,155.27,236.3,155,236.5Z"/><path d="M155,1c.28.25.89-.3.9.36,0,.47-.46.69-.91.68s-.92-.23-.9-.7C154.08.76,154.68,1.29,155,1Z"/><path d="M291,154.75c-.22.2.08.85-.54.83-.41,0-.6-.37-.57-.77a.7.7,0,0,1,.77-.69C291.1,154.1,291,154.41,291,154.75Z"/><path d="M12.86,61.17c-11,8.47-18.25,88.11-1,134.5,3.9,10.52,103.25.75,103.25.75-3,19.45-18.81,39.33-34.42,47.14-9,4.49,86.79-4.49,111.49-53.87,46.39-9,92-17.21,96.52-22.45s16-62.67-16.91-141.24C264.6,9,45,36.48,12.86,61.17Z"/><path class="cls-1" d="M17.43,172.47C13.5,156.76,5.8,98.61,21.75,69,27,59.27,203.28,24.4,260.43,36.83c17.21,3.74,18,103.3,17,115.44-.75,9.54-73,21.51-105.87,26.75-10.29,1.87.75,3.93,3.37,4.68-6,13.47-31.43,35.17-62.1,43.4,11.22-9.73,18.71-32.17,17.21-44.15-15.71,2.24-47.89,3.55-67.15,3.55C20,186.5,19.35,180.17,17.43,172.47Z"/></g></g></svg>