<svg xmlns="http://www.w3.org/2000/svg" viewBox="0 0 66.5 29.38">
    <title>title-quote</title>
    <g id="title-quote" data-name="Layer 2">
        <g id="Isolation_Mode" data-name="Isolation Mode">
            <path d="M1.09,23.13l.76.08c.49.05,1.23.17,2.11.21s2,.14,3.2.19l2,0h2.19c.77,0,1.56-.05,2.38-.06s1.67-.07,2.54-.13c1.74-.14,3.58-.27,5.47-.5s3.84-.48,5.81-.76,4-.64,6-1,4-.81,5.88-1.3,3.8-1,5.61-1.49l5.15-1.54c1.62-.5,3.15-1,4.53-1.45s2.64-.91,3.74-1.33,2-.81,2.78-1.14,1.34-.63,1.71-.83.61-.31.61-.31l.3-.13a1.93,1.93,0,0,1,2.5,2.66s-.14.27-.46.76a14.43,14.43,0,0,1-1.5,2,21.39,21.39,0,0,1-2.72,2.52,31,31,0,0,1-3.88,2.6,40.68,40.68,0,0,1-4.87,2.34,50.1,50.1,0,0,1-5.63,1.9c-2,.52-4,1-6.14,1.41s-4.25.75-6.4,1a87.39,87.39,0,0,1-12.7.61c-2,0-4-.19-5.85-.39s-3.6-.43-5.2-.75-3.06-.65-4.34-1-2.37-.72-3.29-1.06-1.56-.63-2-.82L.58,25a1,1,0,0,1,.51-1.88Z" />
            <path d="M11.51,17.05h.57c.37,0,.91,0,1.56,0s1.47-.07,2.38-.18,2-.22,3.08-.42,2.34-.41,3.61-.7,2.61-.62,4-1,2.77-.83,4.2-1.26,2.85-.95,4.26-1.51,2.81-1.1,4.16-1.71S42,9,43.22,8.4c2.48-1.27,4.72-2.52,6.57-3.66a37.75,37.75,0,0,0,4.23-3c.48-.4.85-.73,1.08-1l.39-.35.09-.08a1.29,1.29,0,0,1,2.1,1.32s-.06.21-.21.6c-.08.19-.15.44-.28.71l-.46.91a17.15,17.15,0,0,1-1.54,2.27,22.6,22.6,0,0,1-2.41,2.53,29.26,29.26,0,0,1-3.22,2.46,34.48,34.48,0,0,1-3.87,2.22c-1.38.67-2.83,1.31-4.32,1.89s-3,1.12-4.57,1.57-3.11.86-4.66,1.23-3.09.62-4.58.84-2.95.39-4.33.48-2.7.15-3.91.11S17,19.38,16,19.27s-1.83-.24-2.54-.38-1.25-.28-1.6-.39l-.54-.16a.66.66,0,0,1,.19-1.29Z" />
        </g>
    </g>
</svg>