<svg xmlns="http://www.w3.org/2000/svg" viewBox="0 0 643.03 336.05"><defs><style>.cls-1{fill:#e75339;}.cls-2{fill:#a62610;}.cls-3{fill:#feff97;}</style></defs><title>trees</title><g id="Layer_2" data-name="Layer 2"><g id="Isolation_Mode" data-name="Isolation Mode"><path class="cls-1" d="M112.18,87.7a85.43,85.43,0,0,0,7.72-12.2,106.85,106.85,0,0,1-6.79,32.68l8.62-14.64a98.35,98.35,0,0,1-15.54,40.32,147.65,147.65,0,0,0,18.37-20.29,108,108,0,0,1-13.66,32.73l12.84-15.62L119.61,142l8.92-9.62c-3.31,15.06-12.1,28.25-20.72,41a116.25,116.25,0,0,0,23.43-21.56,186,186,0,0,1-14.57,27.35q8.74-8.84,17.16-18A142.35,142.35,0,0,1,113,198.86l24.83-19.43q-8.71,15.4-18.63,30.08,16.08-13.85,31.47-28.49c3.42,1.58,7.31,1.72,11.08,1.82L200.37,184a113,113,0,0,1-34.57-18.49,84.27,84.27,0,0,0,22.59,6.19,56.56,56.56,0,0,1-21.86-10,68.92,68.92,0,0,0,27.6,6A192.89,192.89,0,0,1,164,149.14a148.77,148.77,0,0,0,24.45.56,75.9,75.9,0,0,1-25.87-18.45,24.83,24.83,0,0,0,13.33,3.44,36.41,36.41,0,0,1-12.6-6.93,159.68,159.68,0,0,0,25.29,2.61,135.83,135.83,0,0,1-32.81-20.17l21,2.51-25-13.56a138.49,138.49,0,0,0,28.35.69,61.17,61.17,0,0,1-33.9-16.41l11.59,2a27.63,27.63,0,0,1-10.57-6.51,29.93,29.93,0,0,0,17.82,3.31,94.29,94.29,0,0,1-28.34-17.72,45.5,45.5,0,0,0,20.55,6A41,41,0,0,1,135,58.49a46.81,46.81,0,0,0,23.23,5.87c-7-.42-12.75-5.62-17.44-10.86a142.93,142.93,0,0,1-23.68-36.42,229.24,229.24,0,0,1,1.5,33.17,127.27,127.27,0,0,1-1.69,19C116.06,74.31,115.35,83.52,112.18,87.7Z"/><path class="cls-1" d="M429.07,75.28a48.37,48.37,0,0,0,12-7.44,73.9,73.9,0,0,1-24.4,23.39l20.11-9.78a62.19,62.19,0,0,1-28.36,21.3,133.19,133.19,0,0,0,29.9-10.36,119,119,0,0,1-38.08,24.4,233.85,233.85,0,0,0,32.54-11.49,181.18,181.18,0,0,1-20.95,13.91l17.65-4.66,3.9-2.57a101.92,101.92,0,0,1-32.73,22.8l28.67-11.34a226.57,226.57,0,0,1-35,26.69l26.41-11.49a98.23,98.23,0,0,1-43.64,26.92c13.21.2,26-4.07,38.55-8.3a108.4,108.4,0,0,1-37.47,22.86l34.47-6.75q-14.89,9.5-30.58,17.67a219.12,219.12,0,0,0,63.53-12.11c-1.53,2.26.54,5.18,2.59,7,17.12,15.08,40.49,20.38,62.79,25.16a235.07,235.07,0,0,1-34.65-34.13c9,9.18,21.83,13.21,34.12,16.92l-33.76-25.26a71,71,0,0,0,29.86,10.47,96.59,96.59,0,0,1-27.36-18.85A59.82,59.82,0,0,0,521.49,168c-20.47-13.89-41.57-28.44-54.37-49.6a67.17,67.17,0,0,0,27,13.44,211.67,211.67,0,0,1-25.7-20.54,55.5,55.5,0,0,0,23.13,8.75A71.62,71.62,0,0,1,468,102.64a87.26,87.26,0,0,0,32.77,13.75,88.63,88.63,0,0,1-36.83-30.64,117.13,117.13,0,0,0,34.45,15,57.44,57.44,0,0,1-35.26-34.64,50.22,50.22,0,0,0,28,16.33A50.62,50.62,0,0,1,464.52,58.8,69.57,69.57,0,0,0,485,68.45a48.7,48.7,0,0,1-27.7-40.84C453.43,42.53,445,68.45,429.07,75.28Z"/><path class="cls-1" d="M482,56l12.63-5.24L482.87,64.61l11.86-8a69.39,69.39,0,0,1-27.52,27.22,165,165,0,0,1,24.31-11.12,142.35,142.35,0,0,1-17.05,15.69,44.45,44.45,0,0,1,16.14-7.13,121.79,121.79,0,0,1-44.72,33.15c13.07-6.29,28.85-5.68,41.31-13.1a179,179,0,0,1-39.76,27.9l35-9.34a203.46,203.46,0,0,1-30.13,18.22A89.79,89.79,0,0,1,477.6,133a95.87,95.87,0,0,1-47.92,20.18,131.37,131.37,0,0,0,71.84-10.9c2.36-1.09,4.83-2.28,7.43-2.11,2.42.16,4.58,1.48,6.7,2.65,20.46,11.34,45,11.9,68.38,11.46a359.18,359.18,0,0,1-46.61-32.39,36.39,36.39,0,0,0,28.13,8.47,84.46,84.46,0,0,1-30-15.82,89.8,89.8,0,0,0,20.85,4.68l-19.55-11.42a84.12,84.12,0,0,0,41.37,9.61A178.81,178.81,0,0,1,527.54,86,64.26,64.26,0,0,0,559,91.08,60.56,60.56,0,0,1,531.72,77a23.06,23.06,0,0,0,14.51,3.73A81.53,81.53,0,0,1,528.91,67a109.19,109.19,0,0,0,36.17,4.31c-7.52-4.37-16.79-4.42-24.86-7.66s-14.36-9.35-20.52-15.36q13.33,1.11,26.73,1.23A64.69,64.69,0,0,1,521,41.15q13.45.73,26.93.9a55.23,55.23,0,0,1-29.1-10.9A82.68,82.68,0,0,0,545.93,30c-8.08,1.15-15-5.6-19.94-12.08A183.91,183.91,0,0,1,513.84,0c-1.37,9.27-4.36,21.21-8.79,29.59S491.11,52.23,482,56Z"/><path class="cls-2" d="M154.71,138.12a133.37,133.37,0,0,0,11.5-19.38,166.81,166.81,0,0,1-9.13,51.3l12.8-23.24a153.54,153.54,0,0,1-22.45,63.61,230.51,230.51,0,0,0,27.76-32.48,168.67,168.67,0,0,1-19.85,51.68l19.34-25-5.94,17.94,13.49-15.42c-4.5,23.65-17.63,44.63-30.5,65a181.49,181.49,0,0,0,35.61-34.7,290.36,290.36,0,0,1-21.52,43.33q13.25-14.19,26-28.87a222.23,222.23,0,0,1-30.84,59.64l37.88-31.43q-12.9,24.43-27.73,47.77,24.47-22.34,47.83-45.86c5.41,2.31,11.49,2.35,17.38,2.35h60.34a176.44,176.44,0,0,1-54.77-27.32,131.56,131.56,0,0,0,35.53,8.65,88.31,88.31,0,0,1-34.56-14.64,107.6,107.6,0,0,0,43.34,8.06,301.15,301.15,0,0,1-47.88-27.46,232.25,232.25,0,0,0,38.19-.22,118.5,118.5,0,0,1-41.2-27.63,38.77,38.77,0,0,0,21,4.78,56.83,56.83,0,0,1-20-10.25,249.27,249.27,0,0,0,39.59,2.95,212.05,212.05,0,0,1-52.1-30l32.95,3-39.69-20A216.22,216.22,0,0,0,261.3,154a95.5,95.5,0,0,1-53.64-24.09l18.18,2.62a43.13,43.13,0,0,1-16.78-9.69,46.73,46.73,0,0,0,28,4.36,147.21,147.21,0,0,1-45-26.39,71,71,0,0,0,32.33,8.49A64.07,64.07,0,0,1,189,91.52a73.07,73.07,0,0,0,36.52,8.12c-11-.33-20.15-8.2-27.7-16.17a223.13,223.13,0,0,1-38.59-55.78,357.89,357.89,0,0,1,3.83,51.7,198.71,198.71,0,0,1-1.8,29.71C160.17,117,159.46,131.46,154.71,138.12Z"/><path class="cls-2" d="M511.09,97.26a79.68,79.68,0,0,0,21.22-9.67,121.74,121.74,0,0,1-44.69,33.2l34.89-11.85a102.45,102.45,0,0,1-50.74,29,219.4,219.4,0,0,0,51-10.78,196.06,196.06,0,0,1-67.26,32,385.21,385.21,0,0,0,55.55-12.07A298.39,298.39,0,0,1,474,165.5l29.81-4,6.91-3.4a167.88,167.88,0,0,1-58.18,30.52L501.68,176A373.23,373.23,0,0,1,439,212.42l45.53-13.34a161.8,161.8,0,0,1-76.87,35c21.55,3.05,43.38-1.3,64.71-5.63a178.57,178.57,0,0,1-65.94,29.65l57.72-3.94q-26.29,12.46-53.61,22.59A361,361,0,0,0,516.9,270c-3,3.37-.18,8.59,2.79,12,24.87,28.17,62,41.65,97.45,54.05a387.22,387.22,0,0,1-49.61-62.92c12.78,16.85,33,26.09,52.28,34.68l-50-48.24a117,117,0,0,0,46.65,23.26,159.11,159.11,0,0,1-40.83-36.45A98.54,98.54,0,0,0,643,267.87c-30.59-26.92-62.08-55-78.65-92.27a110.65,110.65,0,0,0,41.44,27.53A348.65,348.65,0,0,1,568,164.28a91.42,91.42,0,0,0,36,19.06A118,118,0,0,1,569,150a143.73,143.73,0,0,0,50.73,29.22,146,146,0,0,1-53.88-57.67,192.94,192.94,0,0,0,53.21,31.56A94.62,94.62,0,0,1,568.61,89.2a82.72,82.72,0,0,0,42.32,32.44,83.39,83.39,0,0,1-38.51-44,114.6,114.6,0,0,0,31.54,20c-24.19-15-38.95-44-36.86-72.45C557.64,48.73,538.46,89.37,511.09,97.26Z"/><path class="cls-2" d="M32.55,99.63a88.47,88.47,0,0,0,16-20.33,135.16,135.16,0,0,1-27.25,55.48l28.42-29.42a113.74,113.74,0,0,1-35.37,54.38,243.58,243.58,0,0,0,44.87-36.55A217.68,217.68,0,0,1,9.13,189a427.7,427.7,0,0,0,48.7-40.14,331.3,331.3,0,0,1-27.27,37L58,166.79l5.09-6.87a186.39,186.39,0,0,1-41.93,59.69l42.14-37.46a414.38,414.38,0,0,1-43.33,67.78l38.17-36.3A179.64,179.64,0,0,1,0,287.23c22.82-7.93,42.17-23.32,61-38.43a198.25,198.25,0,0,1-50,62.77l55-33.21Q46.34,304,24.52,327.89a400.73,400.73,0,0,0,101.55-60.64c-1.21,4.84,4.19,8.57,8.83,10.38,38.86,15.18,82.34,9.63,123.66,3.85a429.9,429.9,0,0,1-80.94-36.91c21.18,10.13,45.78,9,69.22,7.67L173,230a129.9,129.9,0,0,0,57.87-.73A176.65,176.65,0,0,1,172,214.05a109.4,109.4,0,0,0,77.44-13C205.6,190,160.23,178.23,125,149.9A122.85,122.85,0,0,0,179.85,156a387.09,387.09,0,0,1-57-19.16,101.5,101.5,0,0,0,45.23.52,131,131,0,0,1-51.52-15.15,159.58,159.58,0,0,0,64.93,3.07A162.09,162.09,0,0,1,99,95.75a214.21,214.21,0,0,0,68.56,4.12A105,105,0,0,1,85.24,62.46,91.84,91.84,0,0,0,143.5,73a92.58,92.58,0,0,1-60.39-23.9A127.23,127.23,0,0,0,124.4,52.8C92.89,50.24,63.58,29.1,51.21,0,53.85,28.08,55.56,77.94,32.55,99.63Z"/><path class="cls-2" d="M234,143.74a48.37,48.37,0,0,0,9.32-10.66,73.91,73.91,0,0,1-16.41,29.54l16.33-15.28a62.19,62.19,0,0,1-20.82,28.72A133.19,133.19,0,0,0,248,157.34a119,119,0,0,1-29.19,34.55,233.87,233.87,0,0,0,27.7-20.57,181.16,181.16,0,0,1-15.91,19.47l15.49-9.66,3-3.61a101.92,101.92,0,0,1-24.55,31.44l24-19.3A226.58,226.58,0,0,1,223,225.46l21.85-18.77a98.23,98.23,0,0,1-33.76,38.6c12.68-3.7,23.67-11.57,34.38-19.3a108.4,108.4,0,0,1-29.06,32.9l30.94-16.62q-11.43,13.47-24,25.91a219.12,219.12,0,0,0,57.13-30.31c-.8,2.61,2,4.79,4.53,5.91,20.8,9.36,44.7,7.53,67.42,5.52a235.06,235.06,0,0,1-43.18-22.39c11.29,6.12,24.75,6.19,37.59,6.1l-39.71-14.18a71,71,0,0,0,31.62,1.2,96.59,96.59,0,0,1-31.7-9.94,59.82,59.82,0,0,0,42.65-5c-23.65-7.24-48.11-14.91-66.59-31.36a67.17,67.17,0,0,0,29.81,4.86,211.66,211.66,0,0,1-30.62-12A55.5,55.5,0,0,0,307,168.09a71.62,71.62,0,0,1-27.71-9.69,87.25,87.25,0,0,0,35.37,3.47,88.63,88.63,0,0,1-44.23-18.42,117.13,117.13,0,0,0,37.33,4.14,57.44,57.44,0,0,1-43.91-22.7,50.22,50.22,0,0,0,31.53,7.35A50.62,50.62,0,0,1,263,117.53a69.57,69.57,0,0,0,22.45,3.17A48.7,48.7,0,0,1,247,89.84C247.64,105.25,247.2,132.52,234,143.74Z"/><path class="cls-2" d="M462.91,94.39a41.1,41.1,0,0,0,12.77-1.64,120.94,120.94,0,0,1-49.86,33.71L454,121.84a132.93,132.93,0,0,1-49.14,43.36l30.69-5.86a70.93,70.93,0,0,1-20.31,14.6,76.69,76.69,0,0,1,15.12-3.07,38.94,38.94,0,0,0-9.68,9q7.3-1.56,14.5-3.58a117.29,117.29,0,0,1-60.32,33.27,328.89,328.89,0,0,0,44.24-2l-23,12.52,20.48-.64a23,23,0,0,0-9,4.75l9.83,1.9A124.61,124.61,0,0,1,359.34,256a325.08,325.08,0,0,0,90-4.36,88,88,0,0,0,39.84,32c10,4,21,6.32,29,13.42q-16.91-24-31.62-49.5a119.75,119.75,0,0,0,36.84,21,109.26,109.26,0,0,1-31.11-31.36,126.11,126.11,0,0,0,37.36,24.94A163.79,163.79,0,0,1,493.54,222a22.07,22.07,0,0,0,11.56,4.23,39.56,39.56,0,0,1-11.74-11l11.8,8.38a126.14,126.14,0,0,1-15-31.22,131.14,131.14,0,0,0,51,32c-20-16.73-40.74-34.48-50.41-58.69a113.54,113.54,0,0,0,27.41,14.4,78.89,78.89,0,0,1-20.8-19.77,45.8,45.8,0,0,0,13.49,6.87,49,49,0,0,1-13.53-19,100.62,100.62,0,0,0,49.87,22.26,130.11,130.11,0,0,1-45.27-53.27A40.09,40.09,0,0,0,524.29,131a68.35,68.35,0,0,1-22.83-28.12A30.43,30.43,0,0,0,520.64,117a96.77,96.77,0,0,1-17.39-20.66,159,159,0,0,0,37.71,20c-22.83-14.71-32.85-43.41-34.38-70.53-4.15,10-9.12,19.89-16.22,28.12C485.1,80,471.91,94.66,462.91,94.39Z"/><path class="cls-2" d="M388,120.92a31.34,31.34,0,0,0,9.71-1.42,92.23,92.23,0,0,1-37.57,26.38L381.6,142a101.37,101.37,0,0,1-36.89,33.72L368,170.8a54.09,54.09,0,0,1-15.29,11.41,58.49,58.49,0,0,1,11.48-2.54,29.7,29.7,0,0,0-7.26,7q5.55-1.29,11-2.92a89.45,89.45,0,0,1-45.55,26.18,250.82,250.82,0,0,0,33.71-2.15l-17.39,9.86,15.61-.76a17.56,17.56,0,0,0-6.83,3.74l7.52,1.32a95,95,0,0,1-43.87,23.61A247.92,247.92,0,0,0,379.72,241a67.12,67.12,0,0,0,30.81,23.89c7.65,2.9,16.09,4.54,22.31,9.84q-13.22-18.09-24.77-37.32a91.32,91.32,0,0,0,28.37,15.54,83.32,83.32,0,0,1-24.14-23.49A96.17,96.17,0,0,0,441.13,248a124.91,124.91,0,0,1-28.07-30.12,16.83,16.83,0,0,0,8.87,3.07,30.17,30.17,0,0,1-9.1-8.26l9.11,6.23a96.2,96.2,0,0,1-11.87-23.61A100,100,0,0,0,449.37,219c-15.47-12.49-31.53-25.74-39.22-44.08a86.59,86.59,0,0,0,21.09,10.61,60.16,60.16,0,0,1-16.12-14.8,34.93,34.93,0,0,0,10.38,5.06,37.39,37.39,0,0,1-10.57-14.28,76.73,76.73,0,0,0,38.32,16.3,99.23,99.23,0,0,1-35.23-40A30.57,30.57,0,0,0,435.29,148,52.13,52.13,0,0,1,417.5,126.9a23.2,23.2,0,0,0,14.82,10.5,73.8,73.8,0,0,1-13.54-15.52,121.23,121.23,0,0,0,29,14.72c-17.61-10.91-25.63-32.66-27.16-53.32-3,7.69-6.69,15.29-12,21.66C404.72,109.67,394.86,121,388,120.92Z"/><path class="cls-2" d="M292.19,138a31.34,31.34,0,0,0,9.1-3.69,92.23,92.23,0,0,1-30.21,34.56L291,160a101.37,101.37,0,0,1-27.8,41.53l21.5-10.29A54.09,54.09,0,0,1,272.54,206a58.48,58.48,0,0,1,10.55-5.2,29.7,29.7,0,0,0-5.39,8.52q5.08-2.57,10-5.46a89.45,89.45,0,0,1-38,36.27A250.82,250.82,0,0,0,281.91,230l-14.55,13.71,15-4.45a17.56,17.56,0,0,0-5.74,5.26l7.62-.51a95,95,0,0,1-37,33.37,247.92,247.92,0,0,0,65.49-20.71,67.12,67.12,0,0,0,35.61,15.87c8.12,1,16.71.58,24,4.25q-17.14-14.43-32.94-30.35a91.33,91.33,0,0,0,31.25,8.35,83.32,83.32,0,0,1-29-17.08A96.17,96.17,0,0,0,374,248.8a124.92,124.92,0,0,1-34.43-22.58,16.83,16.83,0,0,0,9.35.87,30.17,30.17,0,0,1-10.8-5.85l10.33,3.88A96.2,96.2,0,0,1,331.34,205a100,100,0,0,0,43.8,13.67c-18-8.45-36.75-17.5-48.58-33.48a86.58,86.58,0,0,0,23,5.29A60.16,60.16,0,0,1,330.38,180a34.93,34.93,0,0,0,11.28,2.44A37.39,37.39,0,0,1,328,171a76.73,76.73,0,0,0,41.1,6.72,99.23,99.23,0,0,1-43.74-30.48,30.57,30.57,0,0,0,19.22,5.84,52.13,52.13,0,0,1-22.3-16.29,23.2,23.2,0,0,0,16.89,6.68,73.8,73.8,0,0,1-16.84-11.85A121.23,121.23,0,0,0,354,139c-19.7-6.41-32.66-25.62-39.06-45.32-1.12,8.19-2.86,16.44-6.49,23.89C305.76,123.13,298.88,136.49,292.19,138Z"/><path class="cls-2" d="M380.6,157.82,371,152.57l8.89,13.83-9-8c4.81,11.44,12.14,21,20.85,27.22a113.56,113.56,0,0,0-18.42-11.12,126.74,126.74,0,0,0,12.92,15.69,30.4,30.4,0,0,0-12.23-7.13c9.15,14.3,20.85,25.75,33.89,33.15-9.9-6.29-21.86-5.68-31.3-13.1A142.73,142.73,0,0,0,406.78,231l-26.56-9.34a153.36,153.36,0,0,0,22.83,18.22,54,54,0,0,0-19.13-5.07c10.38,11,23.11,18,36.31,20.18-18.44,3.22-37.55-.61-54.44-10.9-1.79-1.09-3.66-2.28-5.63-2.11s-3.47,1.48-5.08,2.65c-15.5,11.34-34.09,11.9-51.82,11.46a285.29,285.29,0,0,0,35.32-32.39c-5.78,6.61-13.73,9.77-21.32,8.47A60.82,60.82,0,0,0,340,216.38a54.46,54.46,0,0,1-15.8,4.68L339,209.64a51.56,51.56,0,0,1-31.35,9.61,136.2,136.2,0,0,0,38.39-31.49,38.35,38.35,0,0,1-23.81,5.12,43.38,43.38,0,0,0,20.65-14.06,14.38,14.38,0,0,1-11,3.73A68.21,68.21,0,0,0,345,168.84a64,64,0,0,1-27.41,4.31c5.7-4.37,12.72-4.42,18.83-7.66s10.88-9.35,15.55-15.36q-10.1,1.11-20.25,1.23a41.5,41.5,0,0,0,19.28-8.42q-10.19.73-20.4.9c7.94-.75,15.69-4.59,22-10.9a47.8,47.8,0,0,1-20.55-1.13c6.13,1.15,11.34-5.6,15.11-12.08a195.59,195.59,0,0,0,9.21-17.94c1,9.27,3.31,21.21,6.66,29.59S373.69,154,380.6,157.82Z"/><path class="cls-3" d="M246.91,89.93a51.13,51.13,0,0,0,37.42,30.68c.63.12.9-.84.27-1a50.12,50.12,0,0,1-36.72-30c-.24-.59-1.21-.33-1,.27Z"/><path class="cls-3" d="M159.8,28.44A225.83,225.83,0,0,0,187.22,73c9.26,11.71,20.53,23,35.47,26.73a.5.5,0,0,0,.27-1C207.87,95,196.65,83.4,187.37,71.56a225.27,225.27,0,0,1-26.71-43.62c-.27-.58-1.13-.08-.86.5Z"/><path class="cls-3" d="M185.64,88.36a66.25,66.25,0,0,0,37.67,21c.63.11.9-.85.27-1a65.38,65.38,0,0,1-37.22-20.76c-.43-.48-1.14.23-.71.71Z"/><path class="cls-3" d="M314.41,94.42a68.28,68.28,0,0,1-7.3,24.2c-3.6,7.1-8,14.38-14.74,18.9-.53.36,0,1.22.5.86,6.87-4.61,11.42-12,15.09-19.26a69.72,69.72,0,0,0,7.43-24.7c.06-.64-.94-.64-1,0Z"/><path class="cls-3" d="M314.65,94.53a86.76,86.76,0,0,0,5.17,13.8c.28.58,1.14.07.86-.5a85.16,85.16,0,0,1-5.07-13.56.5.5,0,0,0-1,.27Z"/><path class="cls-3" d="M321.27,110.41a.5.5,0,0,0,0-1,.5.5,0,0,0,0,1Z"/><path class="cls-3" d="M321.61,111.24v.17a.5.5,0,0,0,1,0v-.17a.5.5,0,0,0-1,0Z"/><path class="cls-3" d="M322.86,113c2.79,5,6.35,9.09,10,13.47.41.49,1.12-.22.71-.71-3.61-4.3-7.13-8.36-9.87-13.27-.31-.56-1.18-.06-.86.5Z"/><path class="cls-3" d="M334.61,127.74a.5.5,0,0,0,0-1,.5.5,0,0,0,0,1Z"/><path class="cls-3" d="M335.84,129c4.67,3.88,10.23,8.4,16.3,9.69.63.13.9-.83.27-1-5.85-1.25-11.35-5.7-15.86-9.43-.49-.41-1.2.3-.71.71Z"/><path class="cls-3" d="M339,130.43c4-3.12,6.69-7.43,9.05-11.89,2.87-5.41,5.66-10.88,8.49-16.31.3-.57-.57-1.08-.86-.5-2.7,5.2-5.38,10.41-8.11,15.6-2.43,4.63-5.07,9.16-9.27,12.4-.51.39.2,1.1.71.71Z"/><path class="cls-3" d="M356.08,101.74a107.49,107.49,0,0,0,11.28,40.08c.29.57,1.15.07.86-.5a106.17,106.17,0,0,1-11.14-39.57c-.05-.64-1.05-.64-1,0Z"/><path class="cls-3" d="M397.28,119.24a85.26,85.26,0,0,1-37.13,25.54c-.6.21-.34,1.18.27,1A86.23,86.23,0,0,0,398,119.95c.41-.49-.29-1.2-.71-.71Z"/><path class="cls-3" d="M388.31,121.7c16.35-6.11,25-22,32.61-36.62.3-.57-.57-1.08-.86-.5-7.45,14.37-15.94,30.16-32,36.16-.6.22-.34,1.19.27,1Z"/><path class="cls-3" d="M462.88,95a44.46,44.46,0,0,0,23.81-15.9c.39-.51-.48-1-.86-.5A43.36,43.36,0,0,1,462.62,94a.5.5,0,0,0,.27,1Z"/><path class="cls-3" d="M488.52,76.82v-.25a.5.5,0,0,0-1,0v.25a.5.5,0,0,0,1,0Z"/><path class="cls-3" d="M490,74.32a.5.5,0,0,0,0-1,.5.5,0,0,0,0,1Z"/><path class="cls-3" d="M490.38,74.18l1-1a.5.5,0,0,0-.71-.71l-1,1a.5.5,0,0,0,.71.71Z"/><path class="cls-3" d="M493.92,70.55l1.73-3a.5.5,0,0,0-.86-.5l-1.73,3a.5.5,0,0,0,.86.5Z"/><path class="cls-3" d="M497.27,63.57a.5.5,0,0,0,0-1,.5.5,0,0,0,0,1Z"/><path class="cls-3" d="M425.41,127.56A125.25,125.25,0,0,0,476,93.06c.43-.48-.28-1.19-.71-.71a124.22,124.22,0,0,1-50.14,34.25c-.6.22-.34,1.19.27,1Z"/><path class="cls-3" d="M405.49,165.2q12.38-7.29,24-15.67c.52-.37,0-1.24-.5-.86q-11.66,8.38-24,15.67a.5.5,0,0,0,.5.86Z"/><path class="cls-3" d="M431.81,147.86l2.75-2.75a.5.5,0,0,0-.71-.71l-2.75,2.75a.5.5,0,0,0,.71.71Z"/><path class="cls-3" d="M437,142.82v-.25a.5.5,0,0,0-1,0v.25a.5.5,0,0,0,1,0Z"/><path class="cls-3" d="M440.07,139.61a69.48,69.48,0,0,0,14-17.19.5.5,0,0,0-.86-.5,68.66,68.66,0,0,1-13.89,17c-.48.43.23,1.13.71.71Z"/><path class="cls-3" d="M415.55,174.56a89.63,89.63,0,0,0,12.2-7.83c.5-.39,0-1.25-.5-.86A89.63,89.63,0,0,1,415,173.7c-.57.3-.06,1.17.5.86Z"/><path class="cls-3" d="M430.27,164.82a.5.5,0,0,0,0-1,.5.5,0,0,0,0,1Z"/><path class="cls-3" d="M375.18,209.69A91.57,91.57,0,0,0,406,198.49a.5.5,0,0,0-.5-.86,90.8,90.8,0,0,1-30.6,11.1c-.63.11-.36,1.07.27,1Z"/><path class="cls-3" d="M408.77,197.07a.5.5,0,0,0,0-1,.5.5,0,0,0,0,1Z"/><path class="cls-3" d="M411.52,195.57a.5.5,0,0,0,0-1,.5.5,0,0,0,0,1Z"/><path class="cls-3" d="M414,194.65a68.17,68.17,0,0,0,9.17-6.47c.49-.41-.22-1.12-.71-.71a66.58,66.58,0,0,1-9,6.31.5.5,0,0,0,.5.86Z"/><path class="cls-3" d="M425.52,186.32v-.25a.5.5,0,0,0-1,0v.25a.5.5,0,0,0,1,0Z"/><path class="cls-3" d="M427.66,184.46q4-3.65,7.65-7.59c.44-.47-.27-1.18-.71-.71q-3.68,3.95-7.65,7.59c-.48.44.23,1.14.71.71Z"/><path class="cls-3" d="M262.88,117.8a78,78,0,0,0,9.62,8.06c.53.37,1-.49.5-.86a76.36,76.36,0,0,1-9.42-7.91c-.46-.45-1.17.25-.71.71Z"/><path class="cls-3" d="M274.61,126.57a.5.5,0,0,0,0-1,.5.5,0,0,0,0,1Z"/><path class="cls-3" d="M276.27,127.74h.17a.5.5,0,0,0,0-1h-.17a.5.5,0,0,0,0,1Z"/><path class="cls-3" d="M279.09,128.92a103.47,103.47,0,0,0,15,3.84c.63.13.9-.84.27-1a103.46,103.46,0,0,1-15-3.84c-.61-.22-.87.75-.27,1Z"/><path class="cls-3" d="M263.1,125.39c4.12,4.9,8.35,9.77,14.09,12.8.57.3,1.07-.56.5-.86-5.67-3-9.83-7.81-13.89-12.64-.41-.49-1.12.22-.71.71Z"/><path class="cls-3" d="M279.11,139.24h.17a.5.5,0,0,0,0-1h-.17a.5.5,0,0,0,0,1Z"/><path class="cls-3" d="M281.11,140.41a.5.5,0,0,0,0-1,.5.5,0,0,0,0,1Z"/><path class="cls-3" d="M283.62,141.93a91.58,91.58,0,0,0,16.88,5.14c.63.13.9-.84.27-1A91.59,91.59,0,0,1,283.89,141c-.59-.25-.85.72-.27,1Z"/><path class="cls-3" d="M269.91,143.46a70.28,70.28,0,0,0,24.1,14c.61.21.87-.76.27-1a69,69,0,0,1-23.66-13.74c-.48-.43-1.19.28-.71.71Z"/><path class="cls-3" d="M295.51,157.69l.33.17c.57.29,1.08-.57.5-.86l-.33-.17c-.57-.29-1.08.57-.5.86Z"/><path class="cls-3" d="M298.77,158.57a.5.5,0,0,0,0-1,.5.5,0,0,0,0,1Z"/><path class="cls-3" d="M278.83,158.72a98.82,98.82,0,0,0,27.44,9.7c.63.12.9-.84.27-1a97.88,97.88,0,0,1-27.2-9.6c-.57-.3-1.07.56-.5.86Z"/><path class="cls-3" d="M282.14,166.76a118.79,118.79,0,0,0,14.17,6.29c.6.22.87-.74.27-1a116.76,116.76,0,0,1-13.93-6.19c-.57-.3-1.08.56-.5.86Z"/><path class="cls-3" d="M298.27,173.74a.5.5,0,0,0,0-1,.5.5,0,0,0,0,1Z"/><path class="cls-3" d="M300.81,174.71a47.93,47.93,0,0,0,5.17,1.8.5.5,0,0,0,.27-1,47.92,47.92,0,0,1-5.17-1.8c-.59-.25-.85.72-.27,1Z"/><path class="cls-3" d="M322,131.86a41,41,0,0,0,8.53,6.81.5.5,0,0,0,.5-.86,40.19,40.19,0,0,1-8.33-6.66.5.5,0,0,0-.71.71Z"/><path class="cls-3" d="M332.11,139.57v.17a.5.5,0,0,0,1,0v-.17a.5.5,0,0,0-1,0Z"/><path class="cls-3" d="M322.4,137.4a39.89,39.89,0,0,0,19.79,15c.61.21.87-.75.27-1a38.75,38.75,0,0,1-19.19-14.54c-.36-.52-1.23,0-.86.5Z"/><path class="cls-3" d="M325.2,148.13a94.92,94.92,0,0,0,7.36,8.31.5.5,0,0,0,.71-.71,94.94,94.94,0,0,1-7.36-8.31c-.4-.51-1.1.21-.71.71Z"/><path class="cls-3" d="M334.61,158.24a.5.5,0,0,0,0-1,.5.5,0,0,0,0,1Z"/><path class="cls-3" d="M336.94,160.24h.17a.5.5,0,0,0,0-1h-.17a.5.5,0,0,0,0,1Z"/><path class="cls-3" d="M336.83,166.48q4.77-4.06,9.24-8.43c.46-.45-.25-1.16-.71-.71q-4.48,4.38-9.24,8.43c-.49.42.22,1.12.71.71Z"/><path class="cls-3" d="M347.27,156.41a.5.5,0,0,0,0-1,.5.5,0,0,0,0,1Z"/><path class="cls-3" d="M350.1,153.57,351.4,152a14.45,14.45,0,0,1,1.26-1.52l-.35.15.12,0-.43-.25,0,.06v-.5l0,.06.56-.23,0,0c-.61-.21-.87.75-.27,1l0,0a.51.51,0,0,0,.56-.23.6.6,0,0,0,0-.63.48.48,0,0,0-.43-.25c-.67.09-1,.81-1.43,1.3l-1.61,2c-.4.5.3,1.21.71.71Z"/><path class="cls-3" d="M344.35,147.66a37.51,37.51,0,0,0,6.74-4.43c.5-.41-.21-1.11-.71-.71a36.33,36.33,0,0,1-6.54,4.28c-.57.29-.07,1.16.5.86Z"/><path class="cls-3" d="M190.67,100.42q9.51,7.56,19.46,14.53c.53.37,1-.5.5-.86q-9.85-6.89-19.26-14.37c-.5-.4-1.21.31-.71.71Z"/><path class="cls-3" d="M212.52,116.07a.5.5,0,0,0,0-1,.5.5,0,0,0,0,1Z"/><path class="cls-3" d="M214.5,117.55l21.52,9.7c.58.26,1.09-.6.5-.86L215,116.68c-.58-.26-1.09.6-.5.86Z"/><path class="cls-3" d="M208.66,122.94a33.57,33.57,0,0,0,15.48,9.62.5.5,0,0,0,.27-1,32.56,32.56,0,0,1-15-9.37c-.44-.48-1.14.23-.71.71Z"/><path class="cls-3" d="M207.56,130.29A83.26,83.26,0,0,0,219.8,140c.54.35,1-.51.5-.86a81.9,81.9,0,0,1-12-9.51c-.47-.44-1.17.26-.71.71Z"/><path class="cls-3" d="M222,141.32a.5.5,0,0,0,0-1,.5.5,0,0,0,0,1Z"/><path class="cls-3" d="M224.82,142.92a119.83,119.83,0,0,0,27.59,11.32.5.5,0,0,0,.27-1,118.77,118.77,0,0,1-27.35-11.22.5.5,0,0,0-.5.86Z"/><path class="cls-3" d="M217.23,154.58q6.94,3.61,14,7.06c.58.28,1.08-.58.5-.86q-7-3.45-14-7.06c-.57-.3-1.08.57-.5.86Z"/><path class="cls-3" d="M233.52,162.82h.25a.5.5,0,0,0,0-1h-.25a.5.5,0,0,0,0,1Z"/><path class="cls-3" d="M236.47,164.61a129.49,129.49,0,0,0,15.66,6c.62.19.88-.78.27-1A127.46,127.46,0,0,1,237,163.74c-.58-.27-1.09.6-.5.86Z"/><path class="cls-3" d="M223.46,171.58a301.37,301.37,0,0,0,40.75,26.53c.57.31,1.07-.56.5-.86A301.38,301.38,0,0,1,224,170.72c-.51-.39-1,.48-.5.86Z"/><path class="cls-3" d="M267.27,199.07h.25a.5.5,0,0,0,0-1h-.25a.5.5,0,0,0,0,1Z"/><path class="cls-3" d="M272,200.82h.5a.5.5,0,0,0,0-1H272a.5.5,0,0,0,0,1Z"/><path class="cls-3" d="M344.61,175.95A109.57,109.57,0,0,0,382,142.62c.37-.53-.5-1-.86-.5a108.49,108.49,0,0,1-37.06,33c-.57.31-.06,1.17.5.86Z"/><path class="cls-3" d="M353.54,182.3a35.85,35.85,0,0,0,6.28-3.93c.51-.39-.2-1.1-.71-.71a34.68,34.68,0,0,1-6.08,3.77c-.58.28-.07,1.14.5.86Z"/><path class="cls-3" d="M361.52,176.82a.5.5,0,0,0,0-1,.5.5,0,0,0,0,1Z"/><path class="cls-3" d="M363.86,175.16l4-3.75c.47-.44-.24-1.15-.71-.71l-4,3.75c-.47.44.24,1.15.71.71Z"/><path class="cls-3" d="M322,210.33a81.91,81.91,0,0,0,28.72-11.73c.54-.35,0-1.22-.5-.86a81.18,81.18,0,0,1-28.48,11.62c-.63.13-.36,1.09.27,1Z"/><path class="cls-3" d="M353,197l1.76-1.23c.52-.37,0-1.23-.5-.86l-1.76,1.23c-.52.37,0,1.23.5.86Z"/><path class="cls-3" d="M356.52,194.57a.5.5,0,0,0,0-1,.5.5,0,0,0,0,1Z"/><path class="cls-3" d="M359.85,192.16l7.26-7.24a.5.5,0,0,0-.71-.71l-7.26,7.24a.5.5,0,0,0,.71.71Z"/><path class="cls-3" d="M339,218.23a127.67,127.67,0,0,0,15.44-9.57c.52-.37,0-1.24-.5-.86a127.67,127.67,0,0,1-15.44,9.57c-.57.3-.06,1.16.5.86Z"/><path class="cls-3" d="M317,243.72a22.08,22.08,0,0,0,9.45-2.87c3.78-1.92,7.53-3.91,11.3-5.87.57-.3.07-1.16-.5-.86l-9.74,5.07c-3.34,1.73-6.66,3.44-10.5,3.54a.5.5,0,0,0,0,1Z"/><path class="cls-3" d="M339.9,233.29l.75-.25c.61-.21.35-1.17-.27-1l-.75.25c-.61.21-.35,1.17.27,1Z"/><path class="cls-3" d="M342.77,231.32a.5.5,0,0,0,0-1,.5.5,0,0,0,0,1Z"/><path class="cls-3" d="M345.93,229.11a76.31,76.31,0,0,0,8.27-6.1c.49-.42-.22-1.12-.71-.71a74.36,74.36,0,0,1-8.07,5.94c-.54.35,0,1.21.5.86Z"/><path class="cls-3" d="M69.23,26.82C73,30.21,76.76,33.6,80.8,36.65A68.57,68.57,0,0,0,87.17,41c1.1.65,2.22,1.27,3.37,1.84.5.25,1,.53,1.54.73l.84.37a1.51,1.51,0,0,0,1.36-.1l.18.68.06-.1a.5.5,0,0,0-.86-.5l-.06.1a.51.51,0,0,0,.18.68l.16.1a.5.5,0,0,0,.5,0l.14-.08a.5.5,0,0,0,.23-.56c-.55-1.51-3.2-1.89-4.54-2.58a59.4,59.4,0,0,1-6.9-4.24,146.47,146.47,0,0,1-13.45-11.2c-.48-.43-1.19.27-.71.71Z"/><path class="cls-3" d="M97.44,45.74h.33a.5.5,0,0,0,0-1h-.33a.5.5,0,0,0,0,1Z"/><path class="cls-3" d="M100.77,47.07h.67a.5.5,0,0,0,0-1h-.67a.5.5,0,0,0,0,1Z"/><path class="cls-3" d="M83,49A80.89,80.89,0,0,0,95.9,58.26a.5.5,0,0,0,.5-.86,79.58,79.58,0,0,1-12.68-9.1c-.48-.42-1.19.28-.71.71Z"/><path class="cls-3" d="M98.77,60.07h.33a.5.5,0,0,0,0-1h-.33a.5.5,0,0,0,0,1Z"/><path class="cls-3" d="M104.27,62.91v.33a.5.5,0,0,0,1,0v-.33a.5.5,0,0,0-1,0Z"/><path class="cls-3" d="M84.84,62.85A184.18,184.18,0,0,0,107.45,83.1c.51.39,1-.48.5-.86a182.68,182.68,0,0,1-22.41-20.1c-.44-.47-1.15.24-.71.71Z"/><path class="cls-3" d="M111.27,84.91v.33a.5.5,0,0,0,1,0v-.33a.5.5,0,0,0-1,0Z"/><path class="cls-3" d="M116.11,87.74a.5.5,0,0,0,0-1,.5.5,0,0,0,0,1Z"/><path class="cls-3" d="M98.84,96.15a91.3,91.3,0,0,0,12.32,8.35q3.22,1.81,6.59,3.34,1.44.66,2.91,1.26c.73.3,3.36,1.79,4.17,1.43-.59.25-.08,1.12.5.86l.25-.11a.5.5,0,0,0,.25-.43c.12-1.24-1.63-1.43-2.49-1.76a86.72,86.72,0,0,1-8.62-3.82,89.46,89.46,0,0,1-15.19-9.83c-.5-.4-1.21.31-.71.71Z"/><path class="cls-3" d="M128.42,112.59l.33.33a.5.5,0,0,0,.71-.71l-.33-.33a.5.5,0,0,0-.71.71Z"/><path class="cls-3" d="M133.44,114.74h.33a.5.5,0,0,0,0-1h-.33a.5.5,0,0,0,0,1Z"/><path class="cls-3" d="M117,122.82a124.18,124.18,0,0,0,18.34,7.95c.61.21.87-.76.27-1a122.57,122.57,0,0,1-18.1-7.85c-.57-.3-1.07.56-.5.86Z"/><path class="cls-3" d="M139.44,131.41a.5.5,0,0,0,0-1,.5.5,0,0,0,0,1Z"/><path class="cls-3" d="M516.23,95.47a126.83,126.83,0,0,0,23-18.82c.45-.46-.26-1.17-.71-.71a125.72,125.72,0,0,1-22.76,18.66c-.54.35,0,1.21.5.86Z"/><path class="cls-3" d="M542.44,72.41a.5.5,0,0,0,0-1,.5.5,0,0,0,0,1Z"/><path class="cls-3" d="M546.44,65.41a.5.5,0,0,0,0-1,.5.5,0,0,0,0,1Z"/><path class="cls-3" d="M246.55,88.5c.27,19,.25,40.08-13.08,55.19-.42.48.28,1.19.71.71,13.52-15.33,13.64-36.61,13.37-55.9a.5.5,0,0,0-1,0Z"/><path class="cls-3" d="M170.53,62a58.59,58.59,0,0,1-4-9.21c-.2-.61-1.17-.35-1,.27a60.12,60.12,0,0,0,4.06,9.45C170,63.06,170.83,62.56,170.53,62Z"/><path class="cls-3" d="M172.24,60.3A50.57,50.57,0,0,1,169,51.75a.5.5,0,0,0-1,.27,52,52,0,0,0,3.34,8.79C171.66,61.39,172.52,60.88,172.24,60.3Z"/><path class="cls-3" d="M174.36,58.81a13.42,13.42,0,0,1-3.15-3.15c-.37-.52-1.24,0-.86.5a14.85,14.85,0,0,0,3.51,3.51C174.38,60,174.88,59.18,174.36,58.81Z"/><path class="cls-3" d="M173.46,54.55l-1.33-1.33a.5.5,0,0,0-.71.71l1.33,1.33A.5.5,0,0,0,173.46,54.55Z"/><path class="cls-3" d="M167.44,47.07a.5.5,0,0,0,0,1A.5.5,0,0,0,167.44,47.07Z"/><path class="cls-3" d="M176.51,70.67l-1-1.67a.5.5,0,0,0-.86.5l1,1.67A.5.5,0,0,0,176.51,70.67Z"/><path class="cls-3" d="M181.78,70.56a19.59,19.59,0,0,1-5.14-8.14c-.2-.61-1.17-.35-1,.27a20.68,20.68,0,0,0,5.4,8.58C181.54,71.71,182.25,71,181.78,70.56Z"/><path class="cls-3" d="M182.58,68l-3-5c-.33-.55-1.2,0-.86.5l3,5C182,69,182.91,68.52,182.58,68Z"/><path class="cls-3" d="M186.24,80.64a14.61,14.61,0,0,1-4.91-6.56c-.23-.6-1.19-.34-1,.27a15.81,15.81,0,0,0,5.37,7.15C186.25,81.89,186.75,81,186.24,80.64Z"/><path class="cls-3" d="M188,79.3A36.49,36.49,0,0,1,183.88,73c-.3-.57-1.16-.07-.86.5a37.71,37.71,0,0,0,4.3,6.52C187.73,80.51,188.43,79.8,188,79.3Z"/><path class="cls-3" d="M189,77a23.4,23.4,0,0,1-3.8-5.33c-.3-.57-1.16-.07-.86.5a24.35,24.35,0,0,0,4,5.54C188.77,78.15,189.48,77.44,189,77Z"/><path class="cls-3" d="M193.36,88.34A42.7,42.7,0,0,1,186.25,81c-.38-.51-1.25,0-.86.5A43.71,43.71,0,0,0,192.65,89C193.15,89.45,193.86,88.75,193.36,88.34Z"/><path class="cls-3" d="M194.29,86.23a23.73,23.73,0,0,1-6.07-6.92.5.5,0,0,0-.86.5,25,25,0,0,0,6.43,7.28C194.3,87.48,194.8,86.61,194.29,86.23Z"/><path class="cls-3" d="M194.11,83.56l-4.64-5c-.44-.47-1.14.23-.71.71l4.64,5C193.84,84.74,194.55,84,194.11,83.56Z"/><path class="cls-3" d="M195.42,83.25l-4.64-5.36c-.42-.49-1.13.22-.71.71L194.71,84C195.13,84.45,195.84,83.74,195.42,83.25Z"/><path class="cls-3" d="M192.11,78.74a.5.5,0,0,0,0,1A.5.5,0,0,0,192.11,78.74Z"/><path class="cls-3" d="M201,93.65l-6-5.39c-.48-.43-1.19.27-.71.71l6,5.39C200.81,94.79,201.52,94.08,201,93.65Z"/><path class="cls-3" d="M201.39,90.64a73.23,73.23,0,0,1-5.58-5.43c-.44-.47-1.14.23-.71.71a73.26,73.26,0,0,0,5.58,5.43C201.16,91.77,201.87,91.06,201.39,90.64Z"/><path class="cls-3" d="M201.5,88.17l-5.69-4.63c-.5-.4-1.21.3-.71.71l5.69,4.63C201.29,89.28,202,88.57,201.5,88.17Z"/><path class="cls-3" d="M197.11,82.41a.5.5,0,0,0,0,1A.5.5,0,0,0,197.11,82.41Z"/><path class="cls-3" d="M207.34,94.85l-5.33-3a.5.5,0,0,0-.5.86l5.33,3A.5.5,0,0,0,207.34,94.85Z"/><path class="cls-3" d="M205.11,90.74a.5.5,0,0,0,0,1A.5.5,0,0,0,205.11,90.74Z"/><path class="cls-3" d="M164.44,40.74a.5.5,0,0,0,0,1A.5.5,0,0,0,164.44,40.74Z"/><path class="cls-3" d="M191.34,97.49a15.09,15.09,0,0,1-3.11-3.19c-.37-.52-1.24,0-.86.5a16.67,16.67,0,0,0,3.47,3.55C191.35,98.75,191.85,97.88,191.34,97.49Z"/><path class="cls-3" d="M190,93.52l-2-1.37c-.53-.37-1,.5-.5.86l2,1.37C190,94.75,190.52,93.88,190,93.52Z"/><path class="cls-3" d="M201.93,116a25.07,25.07,0,0,1-5.79-5.41c-.4-.51-1.1.21-.71.71a25.88,25.88,0,0,0,6,5.57C202,117.18,202.46,116.32,201.93,116Z"/><path class="cls-3" d="M201.65,112.53,198,109.79c-.51-.39-1,.48-.5.86l3.61,2.74C201.66,113.78,202.16,112.91,201.65,112.53Z"/><path class="cls-3" d="M202.44,111.07a.5.5,0,0,0,0,1A.5.5,0,0,0,202.44,111.07Z"/><path class="cls-3" d="M185.54,97.65l-2-3c-.36-.53-1.22,0-.86.5l2,3C185,98.69,185.9,98.19,185.54,97.65Z"/><path class="cls-3" d="M180.77,85.07a.5.5,0,0,0,0,1A.5.5,0,0,0,180.77,85.07Z"/><path class="cls-3" d="M181.11,82.41a.5.5,0,0,0,0,1A.5.5,0,0,0,181.11,82.41Z"/><path class="cls-3" d="M207.65,117.87l-1-.68c-.53-.37-1,.5-.5.86l1,.68C207.68,119.1,208.18,118.23,207.65,117.87Z"/><path class="cls-3" d="M211.77,117.41a.5.5,0,0,0,0,1A.5.5,0,0,0,211.77,117.41Z"/><path class="cls-3" d="M247.68,119.45l-1.72,8c-.13.63.83.9,1,.27l1.72-8C248.78,119.09,247.82,118.82,247.68,119.45Z"/><path class="cls-3" d="M248,112.11l-1.1,6.65c-.1.63.86.9,1,.27l1.1-6.65C249,111.74,248.06,111.47,248,112.11Z"/><path class="cls-3" d="M249.35,113.45l-.64,4.67c-.09.63.88.9,1,.27l.64-4.67C250.4,113.09,249.44,112.81,249.35,113.45Z"/><path class="cls-3" d="M251,117.11l-.33,2.33c-.09.63.87.9,1,.27l.33-2.33C252,116.74,251.05,116.47,251,117.11Z"/><path class="cls-3" d="M244.29,125.44a22.64,22.64,0,0,1-1.61,5.88c-.25.59.61,1.1.86.5a23.49,23.49,0,0,0,1.71-6.12C245.34,125.08,244.38,124.8,244.29,125.44Z"/><path class="cls-3" d="M247.61,100.24v10.67a.5.5,0,0,0,1,0V100.24A.5.5,0,0,0,247.61,100.24Z"/><path class="cls-3" d="M249.61,103.57v7.67a.5.5,0,0,0,1,0v-7.67A.5.5,0,0,0,249.61,103.57Z"/><path class="cls-3" d="M255.19,108a39,39,0,0,1-4.26-7.89c-.24-.59-1.2-.33-1,.27a40.17,40.17,0,0,0,4.36,8.13C254.69,109,255.56,108.53,255.19,108Z"/><path class="cls-3" d="M255.49,105.68l-2.64-5c-.3-.57-1.16-.06-.86.5l2.64,5C254.93,106.75,255.79,106.25,255.49,105.68Z"/><path class="cls-3" d="M259.79,112.22l-3-3a.5.5,0,0,0-.71.71l3,3A.5.5,0,0,0,259.79,112.22Z"/><path class="cls-3" d="M262.86,111.16l-3.09-3.25c-.44-.47-1.15.24-.71.71l3.09,3.25C262.59,112.33,263.3,111.62,262.86,111.16Z"/><path class="cls-3" d="M257.55,119l-1.33-2.33a.5.5,0,0,0-.86.5l1.33,2.33A.5.5,0,0,0,257.55,119Z"/><path class="cls-3" d="M256.44,124.07a.5.5,0,0,0,0,1A.5.5,0,0,0,256.44,124.07Z"/><path class="cls-3" d="M269.11,135.57l-5.3-5.69c-.44-.47-1.15.24-.71.71l5.3,5.69C268.84,136.75,269.55,136,269.11,135.57Z"/><path class="cls-3" d="M266.8,137l-2.64-3.69c-.37-.52-1.24,0-.86.5l2.64,3.69C266.3,138.06,267.17,137.57,266.8,137Z"/><path class="cls-3" d="M265.24,138.41l-1.33-.33a.5.5,0,0,0-.27,1l1.33.33A.5.5,0,0,0,265.24,138.41Z"/><path class="cls-3" d="M276.11,139.41a.5.5,0,0,0,0,1A.5.5,0,0,0,276.11,139.41Z"/><path class="cls-3" d="M313,109.79l-2.14,8.3a.5.5,0,0,0,1,.27l2.14-8.3A.5.5,0,0,0,313,109.79Z"/><path class="cls-3" d="M314.33,114.45,313,118.12c-.22.61.75.87,1,.27l1.33-3.67C315.51,114.11,314.55,113.85,314.33,114.45Z"/><path class="cls-3" d="M315.77,116.74a.5.5,0,0,0,0,1A.5.5,0,0,0,315.77,116.74Z"/><path class="cls-3" d="M320.44,113.9a11.16,11.16,0,0,1-2.83-4.47c-.21-.61-1.17-.35-1,.27a12.26,12.26,0,0,0,3.09,4.91C320.2,115.06,320.91,114.35,320.44,113.9Z"/><path class="cls-3" d="M320.25,109.29l-1.37-2c-.36-.53-1.23,0-.86.5l1.37,2C319.75,110.32,320.61,109.82,320.25,109.29Z"/><path class="cls-3" d="M326,126.51a12.64,12.64,0,0,1-4.38-6.08c-.21-.61-1.17-.35-1,.27a13.8,13.8,0,0,0,4.84,6.68C326,127.76,326.51,126.89,326,126.51Z"/><path class="cls-3" d="M324.44,120.07a.5.5,0,0,0,0,1A.5.5,0,0,0,324.44,120.07Z"/><path class="cls-3" d="M327.11,120.74a.5.5,0,0,0,0,1A.5.5,0,0,0,327.11,120.74Z"/><path class="cls-3" d="M307.31,124.64l-1.36,3c-.26.58.6,1.09.86.5l1.36-3C308.44,124.57,307.58,124.06,307.31,124.64Z"/><path class="cls-3" d="M310,126.32l-1.69,2.31c-.38.52.49,1,.86.5l1.69-2.31C311.24,126.3,310.38,125.8,310,126.32Z"/><path class="cls-3" d="M347.34,122.32,344.07,127c-.37.53.5,1,.86.5l3.26-4.72C348.57,122.29,347.7,121.79,347.34,122.32Z"/><path class="cls-3" d="M350.68,116.32l-1,2.33c-.25.58.61,1.09.86.5l1-2.33C351.79,116.24,350.93,115.73,350.68,116.32Z"/><path class="cls-3" d="M351.62,119l-4.53,6.43c-.37.53.5,1,.86.5l4.53-6.43C352.86,118.93,352,118.43,351.62,119Z"/><path class="cls-3" d="M353.4,119.87a31.52,31.52,0,0,0-3.73,5.78c-.29.57.58,1.08.86.5a30.38,30.38,0,0,1,3.57-5.58C354.51,120.08,353.81,119.37,353.4,119.87Z"/><path class="cls-3" d="M353.66,112.64l-.66,1c-.36.54.51,1,.86.5l.66-1C354.87,112.61,354,112.11,353.66,112.64Z"/><path class="cls-3" d="M355.11,118.74a.5.5,0,0,0,0,1A.5.5,0,0,0,355.11,118.74Z"/><path class="cls-3" d="M391.81,128.29a80.1,80.1,0,0,1-10.7,7.72.5.5,0,0,0,.5.86A81.71,81.71,0,0,0,392.52,129C393,128.58,392.3,127.88,391.81,128.29Z"/><path class="cls-3" d="M391.08,131.21l-7,6.31c-.48.43.23,1.14.71.71l7-6.31C392.27,131.49,391.56,130.78,391.08,131.21Z"/><path class="cls-3" d="M391.45,133.58l-4,4.65c-.42.49.29,1.2.71.71l4-4.65C392.57,133.8,391.87,133.09,391.45,133.58Z"/><path class="cls-3" d="M393.66,136a4.46,4.46,0,0,1-1.46,1.52c-.54.34,0,1.21.5.86a5.57,5.57,0,0,0,1.82-1.87A.5.5,0,0,0,393.66,136Z"/><path class="cls-3" d="M400.06,119.69a60.14,60.14,0,0,1-7,9.85c-.42.48.28,1.19.71.71a61.43,61.43,0,0,0,7.16-10.05A.5.5,0,0,0,400.06,119.69Z"/><path class="cls-3" d="M399.61,122.94a90.9,90.9,0,0,1-6.12,8c-.42.49.29,1.2.71.71a93.19,93.19,0,0,0,6.27-8.21C400.84,122.92,400,122.41,399.61,122.94Z"/><path class="cls-3" d="M399.6,126.94a25,25,0,0,1-4.43,5.37c-.48.44.23,1.14.71.71a26,26,0,0,0,4.59-5.57C400.8,126.9,399.93,126.39,399.6,126.94Z"/><path class="cls-3" d="M403.33,128.65a38.41,38.41,0,0,1-5.59,6.9c-.46.45.25,1.16.71.71a39.53,39.53,0,0,0,5.75-7.1C404.54,128.61,403.68,128.11,403.33,128.65Z"/><path class="cls-3" d="M413.84,100.41A50.63,50.63,0,0,1,400.11,116c-.51.38,0,1.25.5.86a51.81,51.81,0,0,0,14.09-16A.5.5,0,0,0,413.84,100.41Z"/><path class="cls-3" d="M414.44,102.57q-5.21,6.59-11,12.65c-.44.47.26,1.17.71.71q5.8-6.07,11-12.65C415.55,102.78,414.84,102.07,414.44,102.57Z"/><path class="cls-3" d="M414.18,106.3l-8.08,9.26c-.42.48.28,1.19.71.71l8.08-9.26C415.31,106.53,414.6,105.82,414.18,106.3Z"/><path class="cls-3" d="M413.35,110.66l-3,4.67c-.35.54.52,1,.86.5l3-4.67C414.56,110.62,413.7,110.12,413.35,110.66Z"/><path class="cls-3" d="M418.79,91.72l-4.71,8.64c-.31.57.56,1.07.86.5l4.71-8.64C420,91.66,419.1,91.15,418.79,91.72Z"/><path class="cls-3" d="M417.38,98.35l-2.36,4a.5.5,0,0,0,.86.5l2.36-4A.5.5,0,0,0,417.38,98.35Z"/><path class="cls-3" d="M417.07,103l-1,1.32c-.39.51.48,1,.86.5l1-1.32C418.32,103,417.45,102.53,417.07,103Z"/><path class="cls-3" d="M472,97.15c-.34,2.37-2.88,4-4.56,5.56s-3.24,2.9-4.9,4.31q-5.27,4.5-10.82,8.64c-.51.38,0,1.25.5.86q6-4.51,11.73-9.4,2.83-2.43,5.57-5c1.49-1.38,3.14-2.63,3.44-4.74C473.07,96.79,472.1,96.51,472,97.15Z"/><path class="cls-3" d="M471.54,101.35q-6.46,6.08-13.47,11.52c-.51.39.2,1.1.71.71q7-5.44,13.47-11.52C472.72,101.62,472,100.91,471.54,101.35Z"/><path class="cls-3" d="M470.39,104.86q-3.86,3.82-8,7.33c-.49.42.22,1.12.71.71q4.14-3.51,8-7.33A.5.5,0,0,0,470.39,104.86Z"/><path class="cls-3" d="M469.75,110.55l-1.67,1.33c-.5.4.21,1.11.71.71l1.67-1.33C471,110.86,470.25,110.15,469.75,110.55Z"/><path class="cls-3" d="M473.29,98.44a84.26,84.26,0,0,1-2.86,11c-.2.61.76.87,1,.27a84.24,84.24,0,0,0,2.86-11C474.37,98.08,473.41,97.81,473.29,98.44Z"/><path class="cls-3" d="M475.88,98.09a47.07,47.07,0,0,1-3.28,10.19c-.26.58.6,1.09.86.5a48.23,48.23,0,0,0,3.38-10.43C477,97.73,476,97.46,475.88,98.09Z"/><path class="cls-3" d="M480,100.65,478,105c-.27.58.59,1.09.86.5l2-4.33C481.13,100.58,480.27,100.07,480,100.65Z"/><path class="cls-3" d="M481.11,102.74a.5.5,0,0,0,0,1A.5.5,0,0,0,481.11,102.74Z"/><path class="cls-3" d="M459.77,122.41a.5.5,0,0,0,0,1A.5.5,0,0,0,459.77,122.41Z"/><path class="cls-3" d="M492,75.32l-3.91,6.39c-.34.55.53,1.05.86.5l3.91-6.39C493.2,75.27,492.34,74.77,492,75.32Z"/><path class="cls-3" d="M493.7,77.67l-2,3.34a.5.5,0,0,0,.86.5l2-3.34A.5.5,0,0,0,493.7,77.67Z"/><path class="cls-3" d="M496.7,78l-1.33,2.34a.5.5,0,0,0,.86.5l1.33-2.34A.5.5,0,0,0,496.7,78Z"/><path class="cls-3" d="M446.93,135.26a86.08,86.08,0,0,1-18.32,18.33c-.51.38,0,1.25.5.86a87.67,87.67,0,0,0,18.68-18.68C448.17,135.25,447.3,134.75,446.93,135.26Z"/><path class="cls-3" d="M444.74,141.55a101.14,101.14,0,0,1-11.66,11.34c-.5.41.21,1.11.71.71a101.13,101.13,0,0,0,11.66-11.34C445.87,141.77,445.17,141.06,444.74,141.55Z"/><path class="cls-3" d="M446.12,143.93a35.46,35.46,0,0,0-5.15,5.2c-.4.5.3,1.21.71.71a35.44,35.44,0,0,1,5.15-5.2C447.33,144.23,446.62,143.53,446.12,143.93Z"/><path class="cls-3" d="M450.42,142.22l-2.33,2.67c-.42.48.28,1.19.71.71l2.33-2.67C451.55,142.45,450.85,141.74,450.42,142.22Z"/><path class="cls-3" d="M428.67,185.14A89.27,89.27,0,0,1,408.9,199.9c-.56.31-.06,1.17.5.86a90.22,90.22,0,0,0,20-14.92C429.84,185.4,429.13,184.69,428.67,185.14Z"/><path class="cls-3" d="M427.75,189.55c-2.41,2.08-4.9,4.07-7.48,5.94-1,.69-3.12,1.73-2.09,3.29,1.32,2,3.61-1,2.19-2,.49-.4,1-.86,1.25-1.07q1-.76,2-1.54,2.46-1.91,4.81-3.94C428.95,189.84,428.24,189.13,427.75,189.55Z"/><path class="cls-3" d="M430,190l-1.69,2.32c-.38.52.49,1,.86.5l1.69-2.32C431.22,189.95,430.35,189.45,430,190Z"/><path class="cls-3" d="M432.44,192.07a.5.5,0,0,0,0,1A.5.5,0,0,0,432.44,192.07Z"/><path class="cls-3" d="M379.6,149.78a.68.68,0,0,0-.78.23.51.51,0,0,0,0,.69c-2.9,2.53-12.83,12.36-13.84,13.4-.45.46.26,1.17.71.71q4.19-4.33,8.52-8.51,2-1.93,4-3.82c.69-.65,1.72-1.2,1.74-2.22A.51.51,0,0,0,379.6,149.78Z"/><path class="cls-3" d="M375.65,159.64l-1,1.33c-.39.51.48,1,.86.5l1-1.33C376.9,159.63,376,159.13,375.65,159.64Z"/><path class="cls-3" d="M378.77,159.07a.5.5,0,0,0,0,1A.5.5,0,0,0,378.77,159.07Z"/><path class="cls-3" d="M276.61,59.24v.67a.5.5,0,0,0,1,0v-.67A.5.5,0,0,0,276.61,59.24Z"/><path class="cls-3" d="M303.11,74.74h-.67a.5.5,0,0,0,0,1h.67A.5.5,0,0,0,303.11,74.74Z"/><path class="cls-3" d="M325.46,70.22l-.67-.67a.5.5,0,0,0-.71.71l.67.67A.5.5,0,0,0,325.46,70.22Z"/><path class="cls-3" d="M338.79,94.22l-.67-.67a.5.5,0,0,0-.71.71l.67.67A.5.5,0,0,0,338.79,94.22Z"/><path class="cls-3" d="M355.6,63.62l-.67-1.33c-.29-.58-1.15-.07-.86.5l.67,1.33C355,64.7,355.89,64.2,355.6,63.62Z"/><path class="cls-3" d="M361.77,94.74a.5.5,0,0,0,0,1A.5.5,0,0,0,361.77,94.74Z"/><path class="cls-3" d="M283.77,92.07h-.67a.5.5,0,0,0,0,1h.67A.5.5,0,0,0,283.77,92.07Z"/><path class="cls-3" d="M247.77,73.41a.5.5,0,0,0,0,1A.5.5,0,0,0,247.77,73.41Z"/><path class="cls-3" d="M231.77,114.07a.5.5,0,0,0,0,1A.5.5,0,0,0,231.77,114.07Z"/><path class="cls-3" d="M248.61,35.24v.67a.5.5,0,0,0,1,0v-.67A.5.5,0,0,0,248.61,35.24Z"/><path class="cls-3" d="M234.61,16.57v.67a.5.5,0,0,0,1,0v-.67A.5.5,0,0,0,234.61,16.57Z"/><path class="cls-3" d="M257.77,16.74a.5.5,0,0,0,0,1A.5.5,0,0,0,257.77,16.74Z"/><path class="cls-3" d="M371.42,42.22l-.67.67a.5.5,0,0,0,.71.71l.67-.67A.5.5,0,0,0,371.42,42.22Z"/></g></g></svg>