<svg xmlns="http://www.w3.org/2000/svg" viewBox="0 0 718.91 1043.46"><defs><style>.cls-1{isolation:isolate;}.cls-2{mix-blend-mode:overlay;}.cls-3{fill:none;}.cls-4{fill:#fff;}.cls-5,.cls-9{fill:#feff97;}.cls-6{fill:#a62610;}.cls-7{fill:#96924a;}.cls-8{fill:#c1bf63;}.cls-9{opacity:0.3;}</style></defs><title>ufo</title><g class="cls-1"><g id="Layer_2" data-name="Layer 2"><g id="Isolation_Mode" data-name="Isolation Mode"><g class="cls-2"><rect class="cls-3" x="478.79" y="223.16" width="1.74" height="1.74" transform="translate(-34.56 98.15) rotate(-11.28)"/><circle class="cls-4" cx="479.66" cy="224.03" r="0.87" transform="translate(-34.56 98.15) rotate(-11.28)"/><rect class="cls-3" x="460.05" y="248.17" width="1.4" height="1.4" transform="translate(-39.78 94.93) rotate(-11.28)"/><circle class="cls-4" cx="460.75" cy="248.87" r="0.7" transform="translate(-39.78 94.93) rotate(-11.28)"/><rect class="cls-3" x="445.15" y="283.34" width="1.58" height="1.58" transform="matrix(0.98, -0.2, 0.2, 0.98, -46.96, 92.71)"/><circle class="cls-4" cx="445.93" cy="284.12" r="0.79" transform="translate(-46.96 92.71) rotate(-11.28)"/><rect class="cls-3" x="426.5" y="239.57" width="1.16" height="1.16" transform="translate(-38.73 88.18) rotate(-11.28)"/><circle class="cls-4" cx="427.08" cy="240.15" r="0.58" transform="translate(-38.73 88.18) rotate(-11.28)"/><rect class="cls-3" x="410.79" y="267.14" width="0.35" height="0.35" transform="translate(-44.35 85.55) rotate(-11.28)"/><circle class="cls-4" cx="410.96" cy="267.32" r="0.17" transform="translate(-44.35 85.55) rotate(-11.28)"/><rect class="cls-3" x="398.49" y="253.61" width="2.22" height="2.22" transform="translate(-42.1 83.08) rotate(-11.28)"/><circle class="cls-4" cx="399.6" cy="254.71" r="1.11" transform="translate(-42.1 83.08) rotate(-11.28)"/><rect class="cls-3" x="369.9" y="234.58" width="0.62" height="0.62" transform="translate(-38.79 76.95) rotate(-11.28)"/><circle class="cls-4" cx="370.21" cy="234.89" r="0.31" transform="translate(-38.79 76.95) rotate(-11.28)"/><rect class="cls-3" x="357.66" y="273.68" width="2.54" height="2.54" transform="translate(-46.85 75.52) rotate(-11.28)"/><circle class="cls-4" cx="358.93" cy="274.95" r="1.27" transform="translate(-46.85 75.52) rotate(-11.28)"/><rect class="cls-3" x="359.85" y="290.34" width="0.86" height="0.86" transform="translate(-49.92 76.09) rotate(-11.28)"/><circle class="cls-4" cx="360.29" cy="290.78" r="0.43" transform="translate(-49.92 76.09) rotate(-11.28)"/><rect class="cls-3" x="352.9" y="237.39" width="2.28" height="2.28" transform="matrix(0.98, -0.2, 0.2, 0.98, -39.82, 73.86)"/><circle class="cls-4" cx="354.04" cy="238.52" r="1.14" transform="translate(-39.82 73.86) rotate(-11.28)"/><rect class="cls-3" x="326.08" y="256.13" width="2.48" height="2.48" transform="translate(-44.02 69) rotate(-11.28)"/><circle class="cls-4" cx="327.32" cy="257.37" r="1.24" transform="translate(-44.02 69) rotate(-11.28)"/><rect class="cls-3" x="307.94" y="258.2" width="1.1" height="1.1" transform="translate(-44.65 65.34) rotate(-11.28)"/><circle class="cls-4" cx="308.49" cy="258.75" r="0.55" transform="translate(-44.65 65.34) rotate(-11.28)"/><rect class="cls-3" x="278.01" y="275.59" width="0.43" height="0.43" transform="translate(-48.58 59.75) rotate(-11.28)"/><circle class="cls-4" cx="278.23" cy="275.81" r="0.22" transform="translate(-48.58 59.75) rotate(-11.28)"/><rect class="cls-3" x="276.73" y="277.8" width="1.83" height="1.83" transform="translate(-49.15 59.69) rotate(-11.28)"/><circle class="cls-4" cx="277.64" cy="278.72" r="0.91" transform="translate(-49.15 59.69) rotate(-11.28)"/><rect class="cls-3" x="248.35" y="300.14" width="0.65" height="0.65" transform="translate(-53.97 54.45) rotate(-11.28)"/><circle class="cls-4" cx="248.67" cy="300.46" r="0.32" transform="translate(-53.97 54.45) rotate(-11.28)"/><rect class="cls-3" x="216.76" y="308.56" width="1.64" height="1.64" transform="translate(-56.31 48.54) rotate(-11.28)"/><circle class="cls-4" cx="217.58" cy="309.38" r="0.82" transform="translate(-56.31 48.54) rotate(-11.28)"/><rect class="cls-3" x="209.29" y="299.65" width="1.32" height="1.32" transform="translate(-54.69 46.87) rotate(-11.28)"/><circle class="cls-4" cx="209.95" cy="300.31" r="0.66" transform="translate(-54.69 46.87) rotate(-11.28)"/><rect class="cls-3" x="179.97" y="261.57" width="1.4" height="1.4" transform="translate(-47.81 40.41) rotate(-11.28)"/><circle class="cls-4" cx="180.67" cy="262.27" r="0.7" transform="translate(-47.81 40.41) rotate(-11.28)"/><rect class="cls-3" x="175.62" y="261.65" width="2.34" height="2.34" transform="translate(-47.99 39.66) rotate(-11.28)"/><circle class="cls-4" cx="176.8" cy="262.82" r="1.17" transform="translate(-47.99 39.66) rotate(-11.28)"/><rect class="cls-3" x="166.75" y="283.93" width="2.21" height="2.21" transform="translate(-52.51 38.34) rotate(-11.28)"/><circle class="cls-4" cx="167.85" cy="285.04" r="1.1" transform="translate(-52.51 38.34) rotate(-11.28)"/><rect class="cls-3" x="153.3" y="305.56" width="1.46" height="1.46" transform="translate(-56.94 36.05) rotate(-11.28)"/><circle class="cls-4" cx="154.03" cy="306.29" r="0.73" transform="translate(-56.94 36.05) rotate(-11.28)"/><rect class="cls-3" x="127.11" y="321.41" width="2.54" height="2.54" transform="translate(-60.64 31.34) rotate(-11.28)"/><circle class="cls-4" cx="128.38" cy="322.68" r="1.27" transform="translate(-60.64 31.34) rotate(-11.28)"/><rect class="cls-3" x="115.95" y="303.22" width="2.6" height="2.6" transform="translate(-57.3 28.82) rotate(-11.28)"/><circle class="cls-4" cx="117.25" cy="304.52" r="1.3" transform="translate(-57.3 28.82) rotate(-11.28)"/><rect class="cls-3" x="114.76" y="295.73" width="0.51" height="0.51" transform="translate(-55.67 28.21) rotate(-11.28)"/><circle class="cls-4" cx="115.01" cy="295.98" r="0.26" transform="translate(-55.67 28.21) rotate(-11.28)"/><rect class="cls-3" x="84.33" y="315.36" width="1.13" height="1.13" transform="translate(-60.16 22.71) rotate(-11.28)"/><circle class="cls-4" cx="84.89" cy="315.92" r="0.56" transform="translate(-60.16 22.71) rotate(-11.28)"/><rect class="cls-3" x="67.24" y="284.94" width="0.56" height="0.56" transform="translate(-54.48 18.72) rotate(-11.28)"/><circle class="cls-4" cx="67.52" cy="285.21" r="0.28" transform="translate(-54.48 18.72) rotate(-11.28)"/><rect class="cls-3" x="72.51" y="290.56" width="1.16" height="1.16" transform="translate(-55.54 19.92) rotate(-11.28)"/><circle class="cls-4" cx="73.09" cy="291.14" r="0.58" transform="translate(-55.54 19.92) rotate(-11.28)"/><rect class="cls-3" x="60.63" y="284.23" width="1.37" height="1.37" transform="translate(-54.55 17.5) rotate(-11.28)"/><circle class="cls-4" cx="61.31" cy="284.91" r="0.68" transform="translate(-54.55 17.5) rotate(-11.28)"/><rect class="cls-3" x="82.99" y="290.53" width="2.19" height="2.19" transform="translate(-55.42 22.08) rotate(-11.28)"/><circle class="cls-4" cx="84.09" cy="291.63" r="1.1" transform="translate(-55.42 22.08) rotate(-11.28)"/><rect class="cls-3" x="48.45" y="250.03" width="1.42" height="1.42" transform="translate(-48.1 14.46) rotate(-11.28)"/><circle class="cls-4" cx="49.16" cy="250.74" r="0.71" transform="translate(-48.1 14.46) rotate(-11.28)"/><rect class="cls-3" x="65.16" y="241.51" width="2.17" height="2.17" transform="translate(-46.17 17.64) rotate(-11.28)"/><circle class="cls-4" cx="66.24" cy="242.6" r="1.08" transform="translate(-46.17 17.64) rotate(-11.28)"/><rect class="cls-3" x="94.47" y="258.72" width="0.45" height="0.45" transform="translate(-48.82 23.53) rotate(-11.28)"/><circle class="cls-4" cx="94.7" cy="258.95" r="0.22" transform="translate(-48.82 23.53) rotate(-11.28)"/><rect class="cls-3" x="85.01" y="239.5" width="2.5" height="2.5" transform="translate(-45.43 21.52) rotate(-11.28)"/><circle class="cls-4" cx="86.26" cy="240.75" r="1.25" transform="translate(-45.43 21.52) rotate(-11.28)"/><rect class="cls-3" x="110.56" y="271.94" width="2.34" height="2.34" transform="translate(-51.26 27.13) rotate(-11.28)"/><circle class="cls-4" cx="111.73" cy="273.11" r="1.17" transform="translate(-51.26 27.13) rotate(-11.28)"/><rect class="cls-3" x="115.44" y="209.34" width="2.24" height="2.24" transform="translate(-38.91 26.86) rotate(-11.28)"/><circle class="cls-4" cx="116.55" cy="210.46" r="1.12" transform="translate(-38.91 26.86) rotate(-11.28)"/><rect class="cls-3" x="131.85" y="203.65" width="1.88" height="1.88" transform="translate(-37.45 29.93) rotate(-11.28)"/><circle class="cls-4" cx="132.79" cy="204.58" r="0.94" transform="translate(-37.45 29.93) rotate(-11.28)"/><rect class="cls-3" x="155.14" y="257.27" width="0.61" height="0.61" transform="translate(-47.38 35.38) rotate(-11.28)"/><circle class="cls-4" cx="155.44" cy="257.58" r="0.3" transform="translate(-47.38 35.38) rotate(-11.28)"/><rect class="cls-3" x="169.86" y="250.59" width="1.45" height="1.45" transform="translate(-45.86 38.22) rotate(-11.28)"/><circle class="cls-4" cx="170.59" cy="251.31" r="0.73" transform="translate(-45.86 38.22) rotate(-11.28)"/><rect class="cls-3" x="176.37" y="237.76" width="2.51" height="2.51" transform="translate(-43.32 39.36) rotate(-11.28)"/><circle class="cls-4" cx="177.62" cy="239.01" r="1.25" transform="translate(-43.32 39.36) rotate(-11.28)"/><rect class="cls-3" x="179.03" y="209.37" width="1.31" height="1.31" transform="translate(-37.61 39.2) rotate(-11.28)"/><circle class="cls-4" cx="179.69" cy="210.03" r="0.65" transform="translate(-37.61 39.2) rotate(-11.28)"/><rect class="cls-3" x="177.66" y="197.33" width="0.75" height="0.75" transform="translate(-35.23 38.64) rotate(-11.28)"/><circle class="cls-4" cx="178.03" cy="197.71" r="0.38" transform="translate(-35.23 38.64) rotate(-11.28)"/><rect class="cls-3" x="195.55" y="208.72" width="1.15" height="1.15" transform="translate(-37.15 42.4) rotate(-11.28)"/><circle class="cls-4" cx="196.12" cy="209.29" r="0.57" transform="translate(-37.15 42.4) rotate(-11.28)"/><rect class="cls-3" x="227.69" y="210.19" width="1.74" height="1.74" transform="translate(-36.87 48.78) rotate(-11.28)"/><circle class="cls-4" cx="228.56" cy="211.06" r="0.87" transform="translate(-36.87 48.78) rotate(-11.28)"/><rect class="cls-3" x="234.53" y="238.54" width="2.08" height="2.08" transform="translate(-42.31 50.71) rotate(-11.28)"/><circle class="cls-4" cx="235.57" cy="239.58" r="1.04" transform="translate(-42.31 50.71) rotate(-11.28)"/><rect class="cls-3" x="233.49" y="192.71" width="2.25" height="2.25" transform="translate(-33.38 49.64) rotate(-11.28)"/><circle class="cls-4" cx="234.61" cy="193.83" r="1.13" transform="translate(-33.38 49.64) rotate(-11.28)"/><rect class="cls-3" x="251.26" y="183.45" width="1.09" height="1.09" transform="translate(-31.13 52.81) rotate(-11.28)"/><circle class="cls-4" cx="251.8" cy="183.99" r="0.54" transform="translate(-31.13 52.81) rotate(-11.28)"/><rect class="cls-3" x="255.55" y="200.19" width="1.32" height="1.32" transform="translate(-34.34 53.99) rotate(-11.28)"/><circle class="cls-4" cx="256.21" cy="200.85" r="0.66" transform="translate(-34.34 53.99) rotate(-11.28)"/><rect class="cls-3" x="261.92" y="179.45" width="2.59" height="2.59" transform="translate(-30.27 54.98) rotate(-11.28)"/><circle class="cls-4" cx="263.21" cy="180.74" r="1.29" transform="translate(-30.27 54.98) rotate(-11.28)"/><rect class="cls-3" x="270.53" y="185.04" width="2.6" height="2.6" transform="translate(-31.2 56.77) rotate(-11.28)"/><circle class="cls-4" cx="271.83" cy="186.34" r="1.3" transform="translate(-31.2 56.77) rotate(-11.28)"/><rect class="cls-3" x="288.29" y="221.35" width="0.74" height="0.74" transform="translate(-37.79 60.75) rotate(-11.28)"/><circle class="cls-4" cx="288.66" cy="221.72" r="0.37" transform="translate(-37.79 60.75) rotate(-11.28)"/><rect class="cls-3" x="301.71" y="201.44" width="1.72" height="1.72" transform="translate(-33.72 63.09) rotate(-11.28)"/><circle class="cls-4" cx="302.57" cy="202.29" r="0.86" transform="translate(-33.72 63.09) rotate(-11.28)"/><rect class="cls-3" x="331.31" y="216.2" width="1.26" height="1.26" transform="translate(-36 69.12) rotate(-11.28)"/><circle class="cls-4" cx="331.94" cy="216.82" r="0.63" transform="translate(-36 69.12) rotate(-11.28)"/><rect class="cls-3" x="360.13" y="174.01" width="2.18" height="2.18" transform="translate(-27.27 74.04) rotate(-11.28)"/><circle class="cls-4" cx="361.22" cy="175.1" r="1.09" transform="translate(-27.27 74.04) rotate(-11.28)"/><rect class="cls-3" x="376.94" y="212.46" width="0.55" height="0.55" transform="translate(-34.32 77.89) rotate(-11.28)"/><circle class="cls-4" cx="377.21" cy="212.73" r="0.27" transform="translate(-34.32 77.89) rotate(-11.28)"/><rect class="cls-3" x="390.21" y="180.6" width="2.02" height="2.02" transform="translate(-27.97 80.03) rotate(-11.28)"/><circle class="cls-4" cx="391.22" cy="181.61" r="1.01" transform="translate(-27.97 80.03) rotate(-11.28)"/><rect class="cls-3" x="406.99" y="206.1" width="0.73" height="0.73" transform="translate(-32.52 83.67) rotate(-11.28)"/><circle class="cls-4" cx="407.35" cy="206.46" r="0.36" transform="translate(-32.52 83.67) rotate(-11.28)"/><rect class="cls-3" x="426.89" y="204.86" width="1.62" height="1.62" transform="translate(-31.97 87.63) rotate(-11.28)"/><circle class="cls-4" cx="427.7" cy="205.66" r="0.81" transform="translate(-31.97 87.63) rotate(-11.28)"/><rect class="cls-3" x="444.48" y="172.29" width="1.65" height="1.65" transform="translate(-25.26 90.45) rotate(-11.28)"/><circle class="cls-4" cx="445.3" cy="173.11" r="0.82" transform="translate(-25.26 90.45) rotate(-11.28)"/><rect class="cls-3" x="470.29" y="197.99" width="1.33" height="1.33" transform="translate(-29.76 95.96) rotate(-11.28)"/><circle class="cls-4" cx="470.95" cy="198.65" r="0.66" transform="translate(-29.76 95.96) rotate(-11.28)"/><rect class="cls-3" x="497.14" y="199.94" width="0.45" height="0.45" transform="translate(-29.55 101.15) rotate(-11.28)"/><circle class="cls-4" cx="497.37" cy="200.17" r="0.23" transform="translate(-29.55 101.15) rotate(-11.28)"/><rect class="cls-3" x="507.89" y="189.34" width="1.91" height="1.91" transform="matrix(0.98, -0.2, 0.2, 0.98, -27.39, 103.21)"/><circle class="cls-4" cx="508.84" cy="190.3" r="0.95" transform="translate(-27.39 103.21) rotate(-11.28)"/><rect class="cls-3" x="517.06" y="145.58" width="1.92" height="1.92" transform="translate(-18.66 104.16) rotate(-11.28)"/><circle class="cls-4" cx="518.02" cy="146.55" r="0.96" transform="translate(-18.66 104.16) rotate(-11.28)"/><rect class="cls-3" x="541.53" y="173.19" width="2.34" height="2.34" transform="translate(-23.62 109.52) rotate(-11.28)"/><circle class="cls-4" cx="542.7" cy="174.36" r="1.17" transform="translate(-23.62 109.52) rotate(-11.28)"/><rect class="cls-3" x="542.07" y="155.11" width="0.52" height="0.52" transform="translate(-19.91 109.08) rotate(-11.28)"/><circle class="cls-4" cx="542.32" cy="155.37" r="0.26" transform="matrix(0.98, -0.2, 0.2, 0.98, -19.91, 109.08)"/><rect class="cls-3" x="542.31" y="151.34" width="1.58" height="1.58" transform="translate(-19.27 109.17) rotate(-11.28)"/><circle class="cls-4" cx="543.1" cy="152.13" r="0.79" transform="translate(-19.27 109.17) rotate(-11.28)"/><rect class="cls-3" x="532.58" y="151.35" width="1.76" height="1.76" transform="translate(-19.47 107.29) rotate(-11.28)"/><circle class="cls-4" cx="533.46" cy="152.23" r="0.88" transform="translate(-19.47 107.29) rotate(-11.28)"/><rect class="cls-3" x="524.69" y="151.85" width="0.76" height="0.76" transform="translate(-19.63 105.65) rotate(-11.28)"/><circle class="cls-4" cx="525.06" cy="152.23" r="0.38" transform="translate(-19.63 105.65) rotate(-11.28)"/><rect class="cls-3" x="506.94" y="137.03" width="2.4" height="2.4" transform="translate(-17.22 102.07) rotate(-11.28)"/><circle class="cls-4" cx="508.15" cy="138.23" r="1.2" transform="translate(-17.22 102.07) rotate(-11.28)"/><rect class="cls-3" x="476.85" y="119.4" width="0.67" height="0.67" transform="translate(-14.2 95.65) rotate(-11.28)"/><circle class="cls-4" cx="477.19" cy="119.74" r="0.34" transform="translate(-14.2 95.65) rotate(-11.28)"/><rect class="cls-3" x="458.62" y="148.55" width="2.54" height="2.54" transform="translate(-20.42 92.85) rotate(-11.28)"/><circle class="cls-4" cx="459.89" cy="149.82" r="1.27" transform="translate(-20.42 92.85) rotate(-11.28)"/><rect class="cls-3" x="451.86" y="156.23" width="0.36" height="0.36" transform="translate(-21.86 91.44) rotate(-11.28)"/><circle class="cls-4" cx="452.04" cy="156.41" r="0.18" transform="translate(-21.86 91.44) rotate(-11.28)"/><rect class="cls-3" x="434.54" y="160.43" width="1.98" height="1.98" transform="translate(-23.16 88.31) rotate(-11.28)"/><circle class="cls-4" cx="435.54" cy="161.42" r="0.99" transform="translate(-23.16 88.31) rotate(-11.28)"/><rect class="cls-3" x="400.64" y="145.5" width="1.78" height="1.78" transform="translate(-20.88 81.37) rotate(-11.28)"/><circle class="cls-4" cx="401.53" cy="146.39" r="0.89" transform="translate(-20.88 81.37) rotate(-11.28)"/><rect class="cls-3" x="369.07" y="144.6" width="0.6" height="0.6" transform="translate(-21.21 75.05) rotate(-11.28)"/><circle class="cls-4" cx="369.36" cy="144.9" r="0.3" transform="translate(-21.21 75.05) rotate(-11.28)"/><rect class="cls-3" x="343.75" y="164.46" width="0.73" height="0.73" transform="translate(-25.59 70.49) rotate(-11.28)"/><circle class="cls-4" cx="344.12" cy="164.83" r="0.36" transform="translate(-25.59 70.49) rotate(-11.28)"/><rect class="cls-3" x="330.26" y="183.45" width="0.8" height="0.8" transform="translate(-29.57 68.23) rotate(-11.28)"/><circle class="cls-4" cx="330.66" cy="183.85" r="0.4" transform="translate(-29.57 68.23) rotate(-11.28)"/><rect class="cls-3" x="316.75" y="191.13" width="0.34" height="0.34" transform="translate(-31.3 65.69) rotate(-11.28)"/><circle class="cls-4" cx="316.93" cy="191.31" r="0.17" transform="translate(-31.3 65.69) rotate(-11.28)"/><rect class="cls-3" x="291.39" y="191.67" width="1.11" height="1.11" transform="translate(-31.96 60.82) rotate(-11.28)"/><circle class="cls-4" cx="291.94" cy="192.23" r="0.56" transform="translate(-31.96 60.82) rotate(-11.28)"/><rect class="cls-3" x="265.95" y="172.1" width="1.2" height="1.2" transform="translate(-28.63 55.47) rotate(-11.28)"/><circle class="cls-4" cx="266.55" cy="172.7" r="0.6" transform="translate(-28.63 55.47) rotate(-11.28)"/><rect class="cls-3" x="250.68" y="173.01" width="1.87" height="1.87" transform="matrix(0.98, -0.2, 0.2, 0.98, -29.16, 52.58)"/><circle class="cls-4" cx="251.62" cy="173.94" r="0.94" transform="translate(-29.16 52.58) rotate(-11.28)"/><rect class="cls-3" x="230.49" y="203.73" width="1.25" height="1.25" transform="matrix(0.98, -0.2, 0.2, 0.98, -35.51, 49.15)"/><circle class="cls-4" cx="231.12" cy="204.35" r="0.63" transform="translate(-35.51 49.15) rotate(-11.28)"/><rect class="cls-3" x="216.71" y="167.62" width="2.04" height="2.04" transform="translate(-28.78 45.85) rotate(-11.28)"/><circle class="cls-4" cx="217.73" cy="168.64" r="1.02" transform="translate(-28.78 45.85) rotate(-11.28)"/><rect class="cls-3" x="214.23" y="202.53" width="0.74" height="0.74" transform="translate(-35.54 45.9) rotate(-11.28)"/><circle class="cls-4" cx="214.6" cy="202.9" r="0.37" transform="translate(-35.54 45.9) rotate(-11.28)"/><rect class="cls-3" x="191.92" y="195.77" width="1.98" height="1.98" transform="translate(-34.76 41.53) rotate(-11.28)"/><circle class="cls-4" cx="192.91" cy="196.76" r="0.99" transform="translate(-34.76 41.53) rotate(-11.28)"/><rect class="cls-3" x="177.86" y="199.36" width="0.98" height="0.98" transform="translate(-35.65 38.75) rotate(-11.28)"/><circle class="cls-4" cx="178.35" cy="199.84" r="0.49" transform="translate(-35.65 38.75) rotate(-11.28)"/><rect class="cls-3" x="159.73" y="187.05" width="1.74" height="1.74" transform="translate(-33.66 35.04) rotate(-11.28)"/><circle class="cls-4" cx="160.6" cy="187.92" r="0.87" transform="translate(-33.66 35.04) rotate(-11.28)"/><rect class="cls-3" x="155.42" y="198.14" width="1.26" height="1.26" transform="translate(-35.87 34.36) rotate(-11.28)"/><circle class="cls-4" cx="156.06" cy="198.77" r="0.63" transform="translate(-35.87 34.36) rotate(-11.28)"/><rect class="cls-3" x="149.7" y="231.27" width="1.92" height="1.92" transform="translate(-42.52 33.96) rotate(-11.28)"/><circle class="cls-4" cx="150.66" cy="232.23" r="0.96" transform="translate(-42.52 33.96) rotate(-11.28)"/><rect class="cls-3" x="121.9" y="193.06" width="1.91" height="1.91" transform="translate(-35.58 27.78) rotate(-11.28)"/><circle class="cls-4" cx="122.86" cy="194.02" r="0.96" transform="translate(-35.58 27.78) rotate(-11.28)"/><rect class="cls-3" x="121.67" y="197.67" width="2.07" height="2.07" transform="translate(-36.5 27.84) rotate(-11.28)"/><circle class="cls-4" cx="122.7" cy="198.7" r="1.04" transform="translate(-36.5 27.84) rotate(-11.28)"/><rect class="cls-3" x="109.89" y="216.43" width="1.18" height="1.18" transform="translate(-40.32 25.8) rotate(-11.28)"/><circle class="cls-4" cx="110.48" cy="217.02" r="0.59" transform="translate(-40.32 25.8) rotate(-11.28)"/><rect class="cls-3" x="89.33" y="225.99" width="0.56" height="0.56" transform="matrix(0.98, -0.2, 0.2, 0.98, -42.53, 21.9)"/><circle class="cls-4" cx="89.61" cy="226.27" r="0.28" transform="translate(-42.53 21.9) rotate(-11.28)"/><rect class="cls-3" x="86.17" y="202.34" width="2.47" height="2.47" transform="matrix(0.98, -0.2, 0.2, 0.98, -38.13, 21.03)"/><circle class="cls-4" cx="87.41" cy="203.57" r="1.23" transform="translate(-38.13 21.03) rotate(-11.28)"/><rect class="cls-3" x="76.57" y="213.24" width="2.6" height="2.6" transform="translate(-40.46 19.38) rotate(-11.28)"/><circle class="cls-4" cx="77.87" cy="214.54" r="1.3" transform="translate(-40.46 19.38) rotate(-11.28)"/><rect class="cls-3" x="55.88" y="187.87" width="1.44" height="1.44" transform="translate(-35.8 14.71) rotate(-11.28)"/><circle class="cls-4" cx="56.6" cy="188.59" r="0.72" transform="translate(-35.8 14.71) rotate(-11.28)"/><rect class="cls-3" x="42.41" y="188.06" width="2.56" height="2.56" transform="translate(-36.19 12.2) rotate(-11.28)"/><circle class="cls-4" cx="43.69" cy="189.34" r="1.28" transform="translate(-36.19 12.2) rotate(-11.28)"/><rect class="cls-3" x="46.3" y="184.04" width="1.77" height="1.77" transform="translate(-35.26 12.8) rotate(-11.28)"/><circle class="cls-4" cx="47.18" cy="184.93" r="0.89" transform="translate(-35.26 12.8) rotate(-11.28)"/><rect class="cls-3" x="2.84" y="160.9" width="2.33" height="2.33" transform="translate(-31.62 3.91) rotate(-11.28)"/><circle class="cls-4" cx="4" cy="162.06" r="1.16" transform="translate(-31.62 3.91) rotate(-11.28)"/><rect class="cls-3" x="34.53" y="139.35" width="0.63" height="0.63" transform="translate(-26.65 9.51) rotate(-11.28)"/><circle class="cls-4" cx="34.84" cy="139.67" r="0.31" transform="translate(-26.65 9.51) rotate(-11.28)"/><rect class="cls-3" x="61.3" y="120.41" width="0.83" height="0.83" transform="translate(-22.44 14.41) rotate(-11.28)"/><circle class="cls-4" cx="61.71" cy="120.83" r="0.41" transform="translate(-22.44 14.41) rotate(-11.28)"/><rect class="cls-3" x="75.4" y="151.7" width="1.73" height="1.73" transform="translate(-28.37 17.86) rotate(-11.28)"/><circle class="cls-4" cx="76.26" cy="152.57" r="0.87" transform="translate(-28.37 17.86) rotate(-11.28)"/><rect class="cls-3" x="75.25" y="112.37" width="1.24" height="1.24" transform="translate(-20.64 17.02) rotate(-11.28)"/><circle class="cls-4" cx="75.87" cy="112.99" r="0.62" transform="translate(-20.64 17.02) rotate(-11.28)"/><rect class="cls-3" x="97.54" y="125.77" width="2.23" height="2.23" transform="translate(-22.91 21.75) rotate(-11.28)"/><circle class="cls-4" cx="98.65" cy="126.89" r="1.12" transform="matrix(0.98, -0.2, 0.2, 0.98, -22.91, 21.75)"/><rect class="cls-3" x="110.75" y="123.41" width="1.19" height="1.19" transform="translate(-22.11 24.18) rotate(-11.28)"/><circle class="cls-4" cx="111.35" cy="124.01" r="0.6" transform="translate(-22.11 24.18) rotate(-11.28)"/><rect class="cls-3" x="112.17" y="100.84" width="1.94" height="1.94" transform="translate(-17.73 24.1) rotate(-11.28)"/><circle class="cls-4" cx="113.14" cy="101.81" r="0.97" transform="translate(-17.73 24.1) rotate(-11.28)"/><rect class="cls-3" x="129.12" y="127.48" width="2.2" height="2.2" transform="translate(-22.64 27.96) rotate(-11.28)"/><circle class="cls-4" cx="130.22" cy="128.58" r="1.1" transform="translate(-22.64 27.96) rotate(-11.28)"/><rect class="cls-3" x="149.92" y="108.79" width="0.74" height="0.74" transform="translate(-18.45 31.51) rotate(-11.28)"/><circle class="cls-4" cx="150.29" cy="109.16" r="0.37" transform="translate(-18.45 31.51) rotate(-11.28)"/><rect class="cls-3" x="175.52" y="145.82" width="2.19" height="2.19" transform="translate(-25.33 37.38) rotate(-11.28)"/><circle class="cls-4" cx="176.62" cy="146.91" r="1.09" transform="translate(-25.33 37.38) rotate(-11.28)"/><rect class="cls-3" x="180.14" y="91.52" width="0.81" height="0.81" transform="translate(-14.49 37.09) rotate(-11.28)"/><circle class="cls-4" cx="180.55" cy="91.92" r="0.41" transform="translate(-14.49 37.09) rotate(-11.28)"/><rect class="cls-3" x="206.98" y="85.06" width="1.36" height="1.36" transform="translate(-12.76 42.28) rotate(-11.28)"/><circle class="cls-4" cx="207.66" cy="85.75" r="0.68" transform="translate(-12.76 42.28) rotate(-11.28)"/><rect class="cls-3" x="214.49" y="78.94" width="1.36" height="1.36" transform="translate(-11.42 43.63) rotate(-11.28)"/><circle class="cls-4" cx="215.17" cy="79.61" r="0.68" transform="translate(-11.42 43.63) rotate(-11.28)"/><rect class="cls-3" x="231" y="86.02" width="2.61" height="2.61" transform="translate(-12.59 47.13) rotate(-11.28)"/><circle class="cls-4" cx="232.3" cy="87.33" r="1.31" transform="translate(-12.59 47.13) rotate(-11.28)"/><rect class="cls-3" x="243.89" y="113.21" width="0.74" height="0.74" transform="translate(-17.5 49.97) rotate(-11.28)"/><circle class="cls-4" cx="244.26" cy="113.58" r="0.37" transform="translate(-17.5 49.97) rotate(-11.28)"/><rect class="cls-3" x="262.83" y="111.29" width="2.23" height="2.23" transform="matrix(0.98, -0.2, 0.2, 0.98, -16.89, 53.8)"/><circle class="cls-4" cx="263.94" cy="112.4" r="1.11" transform="matrix(0.98, -0.2, 0.2, 0.98, -16.89, 53.8)"/><rect class="cls-3" x="291.9" y="90.3" width="2.37" height="2.37" transform="translate(-12.23 59.09) rotate(-11.28)"/><circle class="cls-4" cx="293.08" cy="91.49" r="1.18" transform="translate(-12.23 59.09) rotate(-11.28)"/><rect class="cls-3" x="296.78" y="120.35" width="2.55" height="2.55" transform="translate(-18.03 60.65) rotate(-11.28)"/><circle class="cls-4" cx="298.06" cy="121.63" r="1.27" transform="translate(-18.03 60.65) rotate(-11.28)"/><rect class="cls-3" x="310.12" y="81.04" width="0.91" height="0.91" transform="translate(-9.94 62.32) rotate(-11.28)"/><circle class="cls-4" cx="310.57" cy="81.5" r="0.45" transform="translate(-9.94 62.32) rotate(-11.28)"/><rect class="cls-3" x="324.54" y="68.93" width="1.4" height="1.4" transform="translate(-7.34 64.96) rotate(-11.28)"/><circle class="cls-4" cx="325.24" cy="69.63" r="0.7" transform="translate(-7.34 64.96) rotate(-11.28)"/><rect class="cls-3" x="328.94" y="90.7" width="2.11" height="2.11" transform="translate(-11.57 66.32) rotate(-11.28)"/><circle class="cls-4" cx="329.99" cy="91.75" r="1.06" transform="translate(-11.57 66.32) rotate(-11.28)"/><rect class="cls-3" x="350.7" y="73.02" width="2.56" height="2.56" transform="translate(-7.73 70.28) rotate(-11.28)"/><circle class="cls-4" cx="351.98" cy="74.3" r="1.28" transform="translate(-7.73 70.28) rotate(-11.28)"/><rect class="cls-3" x="385.52" y="113.31" width="0.6" height="0.6" transform="translate(-14.77 77.66) rotate(-11.28)"/><circle class="cls-4" cx="385.82" cy="113.61" r="0.3" transform="translate(-14.77 77.66) rotate(-11.28)"/><rect class="cls-3" x="401.84" y="69.88" width="1.33" height="1.33" transform="matrix(0.98, -0.2, 0.2, 0.98, -6.02, 80.09)"/><circle class="cls-4" cx="402.5" cy="70.55" r="0.66" transform="translate(-6.02 80.09) rotate(-11.28)"/><rect class="cls-3" x="424.42" y="106.49" width="2.41" height="2.41" transform="translate(-12.84 85.33) rotate(-11.28)"/><circle class="cls-4" cx="425.62" cy="107.7" r="1.2" transform="translate(-12.84 85.33) rotate(-11.28)"/><rect class="cls-3" x="453.12" y="80.88" width="2.06" height="2.06" transform="translate(-7.25 90.42) rotate(-11.28)"/><circle class="cls-4" cx="454.15" cy="81.91" r="1.03" transform="translate(-7.25 90.42) rotate(-11.28)"/><rect class="cls-3" x="460.5" y="73.35" width="2.53" height="2.53" transform="translate(-5.68 91.76) rotate(-11.28)"/><circle class="cls-4" cx="461.77" cy="74.62" r="1.27" transform="translate(-5.68 91.76) rotate(-11.28)"/><rect class="cls-3" x="456.26" y="46.33" width="1" height="1" transform="translate(-0.34 90.25) rotate(-11.28)"/><circle class="cls-4" cx="456.77" cy="46.83" r="0.5" transform="translate(-0.34 90.25) rotate(-11.28)"/><rect class="cls-3" x="486.99" y="93.77" width="1.11" height="1.11" transform="translate(-9.03 97.19) rotate(-11.28)"/><circle class="cls-4" cx="487.55" cy="94.33" r="0.56" transform="translate(-9.03 97.19) rotate(-11.28)"/><rect class="cls-3" x="510.68" y="55.07" width="2.39" height="2.39" transform="translate(-1.12 101.21) rotate(-11.28)"/><circle class="cls-4" cx="511.88" cy="56.27" r="1.2" transform="translate(-1.12 101.21) rotate(-11.28)"/><rect class="cls-3" x="468.18" y="45.91" width="1.96" height="1.96" transform="translate(-0.11 92.68) rotate(-11.28)"/><circle class="cls-4" cx="469.16" cy="46.89" r="0.98" transform="translate(-0.11 92.68) rotate(-11.28)"/><rect class="cls-3" x="509.98" y="30.75" width="0.38" height="0.38" transform="translate(3.8 100.39) rotate(-11.28)"/><circle class="cls-4" cx="510.18" cy="30.94" r="0.19" transform="translate(3.8 100.39) rotate(-11.28)"/><rect class="cls-3" x="471.77" y="50.59" width="1.39" height="1.39" transform="translate(-0.9 93.41) rotate(-11.28)"/><circle class="cls-4" cx="472.46" cy="51.28" r="0.69" transform="translate(-0.9 93.41) rotate(-11.28)"/><rect class="cls-3" x="462.65" y="38.43" width="1.14" height="1.14" transform="translate(1.32 91.36) rotate(-11.28)"/><circle class="cls-4" cx="463.22" cy="39" r="0.57" transform="translate(1.32 91.36) rotate(-11.28)"/><rect class="cls-3" x="433.96" y="0.23" width="2.63" height="2.63" transform="translate(8.11 85.17) rotate(-11.28)"/><circle class="cls-4" cx="435.27" cy="1.54" r="1.31" transform="translate(8.11 85.17) rotate(-11.28)"/><rect class="cls-3" x="431.57" y="37.81" width="0.4" height="0.4" transform="translate(0.91 85.19) rotate(-11.28)"/><circle class="cls-4" cx="431.77" cy="38.01" r="0.2" transform="translate(0.91 85.19) rotate(-11.28)"/><rect class="cls-3" x="403.72" y="39.16" width="1.56" height="1.56" transform="translate(0 79.89) rotate(-11.28)"/><circle class="cls-4" cx="404.5" cy="39.94" r="0.78" transform="translate(0 79.89) rotate(-11.28)"/><rect class="cls-3" x="400.25" y="31.34" width="2.11" height="2.11" transform="translate(1.41 79.12) rotate(-11.28)"/><circle class="cls-4" cx="401.31" cy="32.4" r="1.06" transform="matrix(0.98, -0.2, 0.2, 0.98, 1.41, 79.12)"/><rect class="cls-3" x="372.03" y="57.25" width="0.5" height="0.5" transform="translate(-4.06 73.93) rotate(-11.28)"/><circle class="cls-4" cx="372.28" cy="57.5" r="0.25" transform="translate(-4.06 73.93) rotate(-11.28)"/><rect class="cls-3" x="352.49" y="14.42" width="1.26" height="1.26" transform="translate(3.88 69.36) rotate(-11.28)"/><circle class="cls-4" cx="353.12" cy="15.05" r="0.63" transform="translate(3.88 69.36) rotate(-11.28)"/><rect class="cls-3" x="331.82" y="14.57" width="2.48" height="2.48" transform="translate(3.34 65.45) rotate(-11.28)"/><circle class="cls-4" cx="333.06" cy="15.81" r="1.24" transform="translate(3.34 65.45) rotate(-11.28)"/><rect class="cls-3" x="324.78" y="27.29" width="0.39" height="0.39" transform="translate(0.9 64.1) rotate(-11.28)"/><circle class="cls-4" cx="324.97" cy="27.48" r="0.19" transform="translate(0.9 64.1) rotate(-11.28)"/><rect class="cls-3" x="299.04" y="30.59" width="0.65" height="0.65" transform="translate(-0.26 59.15) rotate(-11.28)"/><circle class="cls-4" cx="299.36" cy="30.91" r="0.33" transform="translate(-0.26 59.15) rotate(-11.28)"/><rect class="cls-3" x="301.3" y="70.07" width="0.56" height="0.56" transform="matrix(0.98, -0.2, 0.2, 0.98, -7.93, 60.35)"/><circle class="cls-4" cx="301.58" cy="70.34" r="0.28" transform="translate(-7.93 60.35) rotate(-11.28)"/><rect class="cls-3" x="283.82" y="47.1" width="0.68" height="0.68" transform="translate(-3.79 56.5) rotate(-11.28)"/><circle class="cls-4" cx="284.16" cy="47.44" r="0.34" transform="translate(-3.79 56.5) rotate(-11.28)"/><rect class="cls-3" x="273.08" y="31.53" width="0.6" height="0.6" transform="translate(-0.94 54.09) rotate(-11.28)"/><circle class="cls-4" cx="273.38" cy="31.83" r="0.3" transform="translate(-0.94 54.09) rotate(-11.28)"/><rect class="cls-3" x="265.61" y="30.45" width="0.43" height="0.43" transform="translate(-0.86 52.59) rotate(-11.28)"/><circle class="cls-4" cx="265.82" cy="30.67" r="0.22" transform="translate(-0.86 52.59) rotate(-11.28)"/><rect class="cls-3" x="261.47" y="15.91" width="1.59" height="1.59" transform="translate(1.8 51.62) rotate(-11.28)"/><circle class="cls-4" cx="262.27" cy="16.7" r="0.79" transform="translate(1.8 51.62) rotate(-11.28)"/><rect class="cls-3" x="247.26" y="71.23" width="1.61" height="1.61" transform="translate(-9.3 49.91) rotate(-11.28)"/><circle class="cls-4" cx="248.06" cy="72.04" r="0.8" transform="translate(-9.3 49.91) rotate(-11.28)"/><rect class="cls-3" x="210.38" y="28.89" width="1.78" height="1.78" transform="translate(-1.74 41.9) rotate(-11.28)"/><circle class="cls-4" cx="211.27" cy="29.78" r="0.89" transform="translate(-1.74 41.9) rotate(-11.28)"/><rect class="cls-3" x="179.68" y="42.16" width="0.68" height="0.68" transform="matrix(0.98, -0.2, 0.2, 0.98, -4.84, 36.03)"/><circle class="cls-4" cx="180.02" cy="42.5" r="0.34" transform="translate(-4.84 36.03) rotate(-11.28)"/><rect class="cls-3" x="171.06" y="77.99" width="1.3" height="1.3" transform="translate(-12.06 35.11) rotate(-11.28)"/><circle class="cls-4" cx="171.71" cy="78.64" r="0.65" transform="translate(-12.06 35.11) rotate(-11.28)"/><rect class="cls-3" x="145.81" y="44.78" width="1.81" height="1.81" transform="translate(-6.1 29.58) rotate(-11.28)"/><circle class="cls-4" cx="146.72" cy="45.68" r="0.91" transform="translate(-6.1 29.58) rotate(-11.28)"/><rect class="cls-3" x="131.82" y="65.57" width="2.23" height="2.23" transform="translate(-10.48 27.29) rotate(-11.28)"/><circle class="cls-4" cx="132.94" cy="66.69" r="1.12" transform="translate(-10.48 27.29) rotate(-11.28)"/><rect class="cls-3" x="106.78" y="49.28" width="1.09" height="1.09" transform="translate(-7.67 21.95) rotate(-11.28)"/><circle class="cls-4" cx="107.32" cy="49.82" r="0.54" transform="translate(-7.67 21.95) rotate(-11.28)"/><rect class="cls-3" x="96.19" y="88.53" width="1.41" height="1.41" transform="translate(-15.58 20.68) rotate(-11.28)"/><circle class="cls-4" cx="96.89" cy="89.24" r="0.7" transform="translate(-15.58 20.68) rotate(-11.28)"/><rect class="cls-3" x="73.43" y="104.25" width="0.41" height="0.41" transform="translate(-19.01 16.42) rotate(-11.28)"/><circle class="cls-4" cx="73.63" cy="104.46" r="0.21" transform="translate(-19.01 16.42) rotate(-11.28)"/><rect class="cls-3" x="28.54" y="75.95" width="1.25" height="1.25" transform="translate(-14.41 7.18) rotate(-11.28)"/><circle class="cls-4" cx="29.16" cy="76.57" r="0.63" transform="translate(-14.41 7.18) rotate(-11.28)"/><rect class="cls-3" x="22.57" y="82.47" width="2" height="2" transform="translate(-15.87 6.22) rotate(-11.28)"/><circle class="cls-4" cx="23.57" cy="83.46" r="1" transform="translate(-15.87 6.22) rotate(-11.28)"/><rect class="cls-3" x="0.18" y="109.25" width="2.08" height="2.08" transform="translate(-21.55 2.37) rotate(-11.28)"/><circle class="cls-4" cx="1.22" cy="110.29" r="1.04" transform="translate(-21.55 2.37) rotate(-11.28)"/></g><ellipse class="cls-5" cx="264.75" cy="143.28" rx="48.58" ry="31.03" transform="translate(-22.91 54.55) rotate(-11.28)"/><path class="cls-5" d="M261.78,128.38c-92.53,18.46-196,93.68-196,93.68l2.68.13,203.93-40.68,203.93-40.68,2.43-1.15S354.31,109.93,261.78,128.38Z"/><path class="cls-6" d="M262.44,131.72C169.91,150.18,65.77,222.1,65.77,222.1l2.68.09,203.93-40.68,203.93-40.68,2.44-1.11S355,113.26,262.44,131.72Z"/><path class="cls-7" d="M479.55,140.2c.74,3.7-91.42,25.19-205.84,48S65.94,226.54,65.2,222.84,155.6,192.53,270,169.71,478.81,136.5,479.55,140.2Z"/><ellipse class="cls-8" cx="272.71" cy="183.19" rx="113.64" ry="3.67" transform="translate(-30.56 56.88) rotate(-11.28)"/><ellipse class="cls-5" cx="272.71" cy="183.19" rx="60.91" ry="1.97" transform="translate(-30.56 56.88) rotate(-11.28)"/><polygon class="cls-9" points="332.44 171.27 272.71 183.19 212.97 195.1 173.53 1043.46 443.77 989.56 718.91 934.68 332.44 171.27"/><polygon class="cls-9" points="324.93 172.77 272.71 183.19 220.48 193.6 190.37 1040.1 443.77 989.56 702.08 938.04 324.93 172.77"/><polygon class="cls-9" points="316.3 174.5 272.71 183.19 229.12 191.88 209.74 1036.24 443.77 989.56 682.71 941.9 316.3 174.5"/><path d="M66.25,222.54a611.37,611.37,0,0,1,147.8-79.18c27.65-10.13,56.39-17.71,85.83-19.93,28.39-2.14,57.27-.81,85.58,1.81a638.49,638.49,0,0,1,93,15.68c1.24.3,1.9-1.58.65-1.89-55.23-13.54-113-20.62-169.95-18.13-57.62,2.52-113,24.4-163.79,50.55A625.65,625.65,0,0,0,64.92,221c-1,.75.29,2.25,1.33,1.5Z"/><path d="M65.2,221.72c-.67,2.32.91,3.12,3.07,3.12,6.49,0,13.38-1.6,19.83-2.44q21.5-2.78,42.93-6.07,42.86-6.58,85.36-15.21a1,1,0,0,0-.39-2q-36.7,7.43-73.68,13.37-18,2.88-36.05,5.41-9.27,1.3-18.55,2.5l-9.78,1.24c-1.08.13-10.94,1-10.84.69.36-1.24-1.53-1.89-1.89-.65Z"/><path d="M219.72,200.12a1,1,0,0,0,0-2,1,1,0,0,0,0,2Z"/><path d="M223.32,199.4a1,1,0,0,0,0-2,1,1,0,0,0,0,2Z"/><path d="M226.26,198.81a1,1,0,0,0,0-2,1,1,0,0,0,0,2Z"/><path d="M477.81,140.34c-.23,2.39-17,5.27-19.46,5.91q-8.68,2.23-17.37,4.4-18.35,4.6-36.76,9-36.33,8.63-72.86,16.39a1,1,0,0,0,.39,2q40.42-8.6,80.61-18.24Q432.2,155,452,149.93q9.65-2.45,19.29-5c2.75-.72,8.19-.84,8.53-4.48a1,1,0,0,0-2-.14Z"/><path d="M327.53,178.27a1,1,0,0,0,0-2,1,1,0,0,0,0,2Z"/><path d="M324.65,178.19l-.07-.33a1,1,0,0,0-2,.39l.07.33a1,1,0,0,0,2-.39Z"/><path d="M219.6,140.61c6.13-15.82,23.09-24.25,38.91-27.2,16-3,32.75-.44,46.34,8.71a1,1,0,0,0,1.11-1.66c-14.44-9.72-32.43-12.24-49.33-8.71-16,3.35-32.7,12.2-38.91,28.22-.47,1.2,1.43,1.85,1.89.65Z"/><path class="cls-5" d="M212.41,203.85l-2.91,66.55a.5.5,0,0,0,1,.07l2.91-66.55A.5.5,0,0,0,212.41,203.85Z"/><path class="cls-5" d="M209,275.62l.08.4a.5.5,0,0,0,1-.2l-.08-.4A.5.5,0,0,0,209,275.62Z"/><path class="cls-5" d="M210,281.45a.5.5,0,0,0,.2,1A.5.5,0,0,0,210,281.45Z"/><path class="cls-5" d="M209.71,286.61q-1.11,28.92-3.7,57.76a.5.5,0,0,0,1,.07q2.59-28.83,3.7-57.76C210.74,286,209.74,286,209.71,286.61Z"/><path class="cls-5" d="M205.88,352.11l.13.65a.5.5,0,0,0,1-.2l-.13-.65A.5.5,0,0,0,205.88,352.11Z"/><path class="cls-5" d="M206.79,360.94a.5.5,0,0,0,.2,1A.5.5,0,0,0,206.79,360.94Z"/><path class="cls-5" d="M206,369a210.4,210.4,0,0,1-1.57,31.49c-.08.64.92.71,1,.07A210.4,210.4,0,0,0,207,369C207,368.41,206,368.33,206,369Z"/><path class="cls-5" d="M337.48,180.86a.5.5,0,0,0-.89.45,290.76,290.76,0,0,1,13,28.73c.23.6,1.13.15.89-.45A290.79,290.79,0,0,0,337.48,180.86Z"/><path class="cls-5" d="M352.78,213.54a.5.5,0,0,0,.2,1A.5.5,0,0,0,352.78,213.54Z"/><path class="cls-5" d="M355.26,219.16a.5.5,0,0,0,.2,1A.5.5,0,0,0,355.26,219.16Z"/><path class="cls-5" d="M370.44,249.89l-12.55-25.37a.5.5,0,0,0-.89.45l12.55,25.37A.5.5,0,0,0,370.44,249.89Z"/><path class="cls-5" d="M371.24,254.13l.08.4a.5.5,0,0,0,1-.2l-.08-.4A.5.5,0,0,0,371.24,254.13Z"/><path class="cls-5" d="M376,261.92a.5.5,0,0,0,.2,1A.5.5,0,0,0,376,261.92Z"/><path class="cls-5" d="M396.88,307.86q-8.77-18.3-16.82-36.93c-.26-.59-1.15-.14-.89.45q8,18.63,16.82,36.93A.5.5,0,0,0,396.88,307.86Z"/><path class="cls-5" d="M400.71,317.5a.5.5,0,0,0,.2,1A.5.5,0,0,0,400.71,317.5Z"/><path class="cls-5" d="M407,331l.13.65a.5.5,0,0,0,1-.2l-.13-.65A.5.5,0,0,0,407,331Z"/><path class="cls-5" d="M415.58,346.62l-1.44-.4c-.62-.17-.95.77-.33.95l1.44.4C415.87,347.74,416.2,346.8,415.58,346.62Z"/><path class="cls-5" d="M305.16,267.9a.5.5,0,0,0,.2,1A.5.5,0,0,0,305.16,267.9Z"/><path class="cls-5" d="M302.42,247.37a.5.5,0,0,0,.2,1A.5.5,0,0,0,302.42,247.37Z"/><path class="cls-5" d="M320.59,263.46a.5.5,0,0,0,.2,1A.5.5,0,0,0,320.59,263.46Z"/><path class="cls-5" d="M279.29,233.63a.5.5,0,0,0,.2,1A.5.5,0,0,0,279.29,233.63Z"/><path class="cls-5" d="M264.89,259.45l.13.65a.5.5,0,0,0,1-.2l-.13-.65A.5.5,0,0,0,264.89,259.45Z"/><path class="cls-5" d="M263,223.3l-.65.13a.5.5,0,0,0,.2,1l.65-.13A.5.5,0,0,0,263,223.3Z"/><path class="cls-5" d="M300.48,217.17a.5.5,0,0,0,.2,1A.5.5,0,0,0,300.48,217.17Z"/><path class="cls-5" d="M319.17,229.08a.5.5,0,0,0,.2,1A.5.5,0,0,0,319.17,229.08Z"/><path class="cls-5" d="M308.2,201.35a.5.5,0,0,0,.2,1A.5.5,0,0,0,308.2,201.35Z"/><path class="cls-5" d="M252.2,292.06a.5.5,0,0,0,.2,1A.5.5,0,0,0,252.2,292.06Z"/><path class="cls-5" d="M238.62,243.61l.13.65a.5.5,0,0,0,1-.2l-.13-.65A.5.5,0,0,0,238.62,243.61Z"/><path class="cls-5" d="M303.58,294a.5.5,0,0,0,.2,1A.5.5,0,0,0,303.58,294Z"/><path class="cls-5" d="M272.38,199a.5.5,0,0,0,.2,1A.5.5,0,0,0,272.38,199Z"/><path class="cls-5" d="M250.26,209l-.78-.52a.5.5,0,0,0-.56.83l.78.52A.5.5,0,0,0,250.26,209Z"/><path class="cls-5" d="M366.33,297.68l.08.4a.5.5,0,0,0,1-.2l-.08-.4A.5.5,0,0,0,366.33,297.68Z"/><path d="M67.36,222c19.06-8.81,39.41-14.11,59.74-19.07Q158.52,195.3,190,187.7L225.88,179c.62-.15.43-1.13-.2-1l-64.06,15.55c-20.84,5.06-41.86,9.66-62.43,15.71a234.59,234.59,0,0,0-32.28,11.87c-.58.27-.14,1.16.45.89Z"/><path d="M228.21,178.59l4.81-1.4c.61-.18.42-1.16-.2-1l-4.81,1.4c-.61.18-.42,1.16.2,1Z"/><path d="M235.32,176.8l.33-.07a.5.5,0,0,0-.2-1l-.33.07a.5.5,0,0,0,.2,1Z"/><path d="M239.3,176.29Q291.24,165,343.74,156.63q15-2.4,30.1-4.56c.64-.09.44-1.07-.2-1q-52.61,7.55-104.74,18-14.92,3-29.8,6.22a.5.5,0,0,0,.2,1Z"/><path d="M376.15,151.77l.33-.07a.5.5,0,0,0-.2-1l-.33.07a.5.5,0,0,0,.2,1Z"/><path d="M379.16,150.45v-.07l-.17.34h-.36l-.21-.32,0,.06c.2.6,1.18.42,1-.2s-1.26-.66-1.26.11,1,.72,1,.07Z"/><path d="M382,150.51q33.39-6,67.22-9c.64-.06.44-1-.2-1q-33.79,3-67.22,9a.5.5,0,0,0,.2,1Z"/><path d="M451.92,141a4.83,4.83,0,0,0,2.61-.12c.6-.2.41-1.19-.2-1a3.89,3.89,0,0,1-2.09.15c-.62-.13-1,.81-.33.95Z"/><path d="M457.12,140.71a.5.5,0,0,0,0-1,.5.5,0,0,0,0,1Z"/><path d="M460.15,140.68l14.9-.31c.64,0,.72-1,.07-1l-14.9.31c-.64,0-.72,1-.07,1Z"/><path d="M275.85,162.56a13.25,13.25,0,0,1,4.78,3.53c.42.49,1.17-.18.75-.66a14.37,14.37,0,0,0-5.2-3.81c-.59-.26-.91.69-.33.95Z"/><path d="M277.69,161.75A12.24,12.24,0,0,1,281,164c.47.43,1.22-.23.75-.66a13.7,13.7,0,0,0-3.75-2.48c-.59-.26-.91.68-.33.95Z"/><path d="M280.88,161.06a13.58,13.58,0,0,1,1,4.88c0,.64,1,.72,1,.07a15,15,0,0,0-1.12-5.4c-.24-.6-1.14-.14-.89.45Z"/><path d="M283.32,162l.53,4c.08.64,1.06.44,1-.2l-.53-4c-.08-.64-1.06-.44-1,.2Z"/><path d="M285.41,163.33l.24,1.23a.5.5,0,0,0,1-.2l-.24-1.23a.5.5,0,0,0-1,.2Z"/><path d="M285.51,160.49a.5.5,0,0,0,0-1,.5.5,0,0,0,0,1Z"/><path d="M284.18,159a.5.5,0,0,0,0-1,.5.5,0,0,0,0,1Z"/><path d="M286.39,163.12a8.1,8.1,0,0,1,5.59,1.2c.54.34,1.1-.49.56-.83a9.19,9.19,0,0,0-6.34-1.35c-.64.09-.44,1.07.2,1Z"/><path d="M287.72,160.9a9.4,9.4,0,0,1,4.56.57c.6.23.93-.72.33-.95a10.5,10.5,0,0,0-5.08-.6c-.64.08-.44,1.06.2,1Z"/><path d="M288.68,158a3.25,3.25,0,0,0,1.45.3c.64,0,.72-1,.07-1a2.58,2.58,0,0,1-1.19-.25c-.59-.27-.91.68-.33.95Z"/><path d="M291.3,156.66a19.5,19.5,0,0,1,1.67,7.07c0,.64,1,.71,1,.07a20.89,20.89,0,0,0-1.77-7.59c-.26-.59-1.15-.14-.89.45Z"/><path d="M293.6,156.09a34.35,34.35,0,0,1,1.61,7.08c.08.64,1.06.44,1-.2a34.35,34.35,0,0,0-1.61-7.08c-.21-.6-1.19-.41-1,.2Z"/><path d="M296.6,158l.92,4.84.86-.43-.25-.49c0-.64-1-.72-1-.07a1.6,1.6,0,0,0,.5,1.23.5.5,0,0,0,.86-.43l-.92-4.84a.5.5,0,0,0-1,.2Z"/><path d="M296.69,154.7l-.25,0a.5.5,0,0,0,.2,1l.25,0a.5.5,0,0,0-.2-1Z"/><path d="M298.06,161.11a6.17,6.17,0,0,1,4.07,2.15c.42.49,1.17-.17.75-.66a7.21,7.21,0,0,0-4.75-2.48c-.64-.07-.71.93-.07,1Z"/><path d="M298.32,158.82a23.57,23.57,0,0,1,6.11,3.39c.51.39,1.06-.44.56-.83a24.47,24.47,0,0,0-6.34-3.51c-.6-.23-.93.72-.33.95Z"/><path d="M299.43,156.86a18.21,18.21,0,0,1,5.27,2.73c.52.39,1.07-.45.56-.83a19.05,19.05,0,0,0-5.49-2.84.5.5,0,0,0-.33.95Z"/><path d="M307.13,159.76l-.25,0a.5.5,0,0,0,.2,1l.25,0a.5.5,0,0,0-.2-1Z"/><path d="M308.62,161.91a19.07,19.07,0,0,1,1.75-5.66c.28-.58-.67-.9-.95-.33a19.9,19.9,0,0,0-1.8,5.91c-.09.64.91.71,1,.07Z"/><path d="M311,161.54l1.4-4.6c.19-.62-.76-.94-.95-.33l-1.4,4.6c-.19.62.76.94.95.33Z"/><path d="M312.82,155.56a.5.5,0,0,0,0-1,.5.5,0,0,0,0,1Z"/><path d="M311.26,159.46a10.23,10.23,0,0,1,3.86,1.4c.55.33,1.11-.5.56-.83a11.48,11.48,0,0,0-4.34-1.56c-.64-.09-.71.9-.07,1Z"/><path d="M313.66,157.3a18.86,18.86,0,0,0,5.17,2.37c.62.18.95-.77.33-.95a18,18,0,0,1-4.94-2.25.5.5,0,0,0-.56.83Z"/><path d="M303.6,152.81a.5.5,0,0,0,0-1,.5.5,0,0,0,0,1Z"/><path d="M305.07,150.64l.54.15c.62.17.95-.77.33-.95l-.54-.15c-.62-.17-.95.77-.33.95Z"/><path d="M307.57,151a.5.5,0,0,0,0-1,.5.5,0,0,0,0,1Z"/><path d="M310.51,139.64l.83.34c.6.25.92-.7.33-.95l-.83-.34c-.6-.25-.92.7-.33.95Z"/><path d="M312.88,138a.5.5,0,0,0,0-1,.5.5,0,0,0,0,1Z"/><path d="M283.91,142.32l.59.39a.5.5,0,0,0,.56-.83l-.59-.39a.5.5,0,0,0-.56.83Z"/><path d="M277.46,167.45,279,163.8c.25-.6-.7-.92-.95-.33l-1.52,3.65c-.25.6.7.92.95.33Z"/><path d="M275.27,167.53a3.52,3.52,0,0,1,.9-1.92c.43-.47-.23-1.22-.66-.75a4.69,4.69,0,0,0-1.24,2.6c-.09.64.91.71,1,.07Z"/><path d="M276.73,163.77a.5.5,0,0,0,0-1,.5.5,0,0,0,0,1Z"/><path d="M272.42,168.74l.87-2c.26-.59-.69-.91-.95-.33l-.88,2c-.26.59.69.91.95.33Z"/><path d="M250.78,168.62a19.47,19.47,0,0,1,5.42,3.22l.56-.83-.35-.22c-.54-.34-1.1.49-.56.83l.35.22a.5.5,0,0,0,.56-.83,20.28,20.28,0,0,0-5.65-3.34c-.6-.24-.92.71-.33.95Z"/><path d="M252.16,166.54a16.75,16.75,0,0,1,5.72,4.05c.44.47,1.19-.19.75-.66a18,18,0,0,0-6.15-4.33c-.59-.25-.91.69-.33.95Z"/><path d="M254.8,164.5a3.93,3.93,0,0,1,1.54,1.06.5.5,0,0,0,.75-.66,5,5,0,0,0-2-1.34c-.6-.23-.93.72-.33.95Z"/><path d="M258.49,166.9a.5.5,0,0,0,0-1,.5.5,0,0,0,0,1Z"/><path d="M259.83,168.94l1.62,1.72c.44.47,1.19-.19.75-.66l-1.62-1.72c-.44-.47-1.19.19-.75.66Z"/><path d="M252.67,169.75a5.46,5.46,0,0,0-1,3.24c0,.64,1,.72,1,.07a4.55,4.55,0,0,1,.87-2.75c.38-.52-.46-1.08-.83-.56Z"/><path d="M250,169a6.24,6.24,0,0,0-1,3.71c0,.64,1,.71,1,.07a5.35,5.35,0,0,1,.85-3.22A.5.5,0,0,0,250,169Z"/><path d="M246.81,173.68a17.27,17.27,0,0,1,2.51-7.87c.34-.55-.5-1.11-.83-.56a18.39,18.39,0,0,0-2.68,8.35.5.5,0,0,0,1,.07Z"/><path d="M244.28,174.47a37.64,37.64,0,0,1,1.9-7.7.5.5,0,0,0-.95-.33,38.91,38.91,0,0,0-2,8c-.09.64.91.71,1,.07Z"/><path d="M239.89,174.82a12.65,12.65,0,0,1,2.32-3c.47-.44-.2-1.19-.66-.75a13.55,13.55,0,0,0-2.49,3.18c-.31.56.52,1.12.83.56Z"/><path d="M243.09,170.23a.5.5,0,0,0,0-1,.5.5,0,0,0,0,1Z"/><path d="M239.06,171.22l1.53-1.14c.52-.38-.15-1.13-.66-.75l-1.53,1.14c-.52.38.15,1.13.66.75Z"/><path d="M261.93,167a7.54,7.54,0,0,1,2.85-.37.5.5,0,0,0,.07-1,8.29,8.29,0,0,0-3.12.38c-.6.2-.42,1.18.2,1Z"/><path d="M262.27,164.41l.78.1c.64.08.71-.92.07-1l-.78-.1c-.64-.08-.71.92-.07,1Z"/><path d="M263.93,159.7a.5.5,0,0,0,0-1,.5.5,0,0,0,0,1Z"/><path d="M330.38,147.85a4,4,0,0,1,3.22,1.3c.43.47,1.18-.19.75-.66a4.94,4.94,0,0,0-3.9-1.63c-.64,0-.71,1-.07,1Z"/><path d="M332.2,145.56a4,4,0,0,1,1.72.81c.51.4,1.06-.44.56-.83a5.07,5.07,0,0,0-2.2-1c-.63-.12-.7.88-.07,1Z"/><path d="M335.32,143.21a16.69,16.69,0,0,0-.6,7.72c.1.64,1.08.44,1-.2a15.51,15.51,0,0,1,.56-7.2.5.5,0,0,0-.95-.33Z"/><path d="M336.83,144.66a12.24,12.24,0,0,0-.2,4.63c.09.64,1.07.44,1-.2a10.9,10.9,0,0,1,.17-4.1c.15-.62-.8-1-.95-.33Z"/><path d="M339,141.69l-.25,0a.5.5,0,0,0,.2,1l.25,0a.5.5,0,0,0-.2-1Z"/><path d="M384.75,141.24a27.12,27.12,0,0,1,6,6.79c.34.54,1.24.1.89-.45a28.62,28.62,0,0,0-6.37-7.17c-.5-.4-1.05.43-.56.83Z"/><path d="M387,139.94a36.67,36.67,0,0,1,6.37,8.09c.32.55,1.22.11.89-.45a37.69,37.69,0,0,0-6.51-8.31c-.46-.44-1.21.22-.75.66Z"/><path d="M389.76,139.22a39.06,39.06,0,0,1,3.2,4.15q.56.84,1.07,1.71c.2.33,1.38,2,1.25,2.32l.75-.25-.12-.06.14.69,0-.08c.31-.56-.52-1.12-.83-.56l0,.08a.51.51,0,0,0,.14.69l.12.06a.51.51,0,0,0,.75-.25c.41-1.12-1.28-3.08-1.82-4a40.35,40.35,0,0,0-3.89-5.21.5.5,0,0,0-.75.66Z"/><path d="M394.07,144.32a27.53,27.53,0,0,1,7.5,2.92c.56.32,1.12-.51.56-.83a28.41,28.41,0,0,0-7.73-3c-.62-.14-1,.8-.33.95Z"/><path d="M392,141a12,12,0,0,1,6.67,2.31c.52.38,1.08-.45.56-.83A12.93,12.93,0,0,0,392,140c-.64,0-.72,1-.07,1Z"/><path d="M401.86,144.42a.5.5,0,0,0,0-1,.5.5,0,0,0,0,1Z"/><path d="M404.41,145.7a.5.5,0,0,0,0-1,.5.5,0,0,0,0,1Z"/><path d="M396.51,140.05a38.31,38.31,0,0,1,9.87,5.37c.52.39,1.07-.45.56-.83a39.22,39.22,0,0,0-10.1-5.49.5.5,0,0,0-.33.95Z"/><path d="M406.82,145.87a25,25,0,0,1,.91-6.69c.17-.62-.77-.95-.95-.33a26,26,0,0,0-1,6.94c0,.64,1,.72,1,.07Z"/><path d="M408.56,145.78l.12-1.82a.5.5,0,0,0-1-.07l-.12,1.82a.5.5,0,0,0,1,.07Z"/><path d="M408.68,141.54a.5.5,0,0,0,0-1,.5.5,0,0,0,0,1Z"/><path d="M410.79,145.58A13.18,13.18,0,0,1,413,139a.5.5,0,0,0-.83-.56,14.22,14.22,0,0,0-2.38,7,.5.5,0,0,0,1,.07Z"/><path d="M413.43,144.42l-.1-.49a.5.5,0,0,0-1,.2l.1.49a.5.5,0,0,0,1-.2Z"/><path d="M414.17,142.22a.5.5,0,0,0,0-1,.5.5,0,0,0,0,1Z"/><path d="M382.3,149.49a13.61,13.61,0,0,1,1.67-4.75c.32-.56-.51-1.11-.83-.56a15,15,0,0,0-1.84,5.23c-.1.64.9.7,1,.07Z"/><path d="M384.93,149.07a18.43,18.43,0,0,1,2.19-5.42c.33-.55-.5-1.11-.83-.56a19.25,19.25,0,0,0-2.3,5.65c-.14.62.8,1,.95.33Z"/><path d="M388.09,147.83a4.46,4.46,0,0,1,.56-1.67c.32-.56-.51-1.12-.83-.56a5.71,5.71,0,0,0-.72,2.15c-.08.64.92.71,1,.07Z"/><path d="M429.8,137l1.13.54c.58.28.9-.67.33-.95l-1.13-.54c-.58-.28-.9.67-.33.95Z"/><path d="M434.42,135.13a.5.5,0,0,0,0-1,.5.5,0,0,0,0,1Z"/><path d="M194.43,172.12a18.53,18.53,0,0,1,6.4,3.72c.47.42,1.23-.23.75-.66a19.74,19.74,0,0,0-6.82-4,.5.5,0,0,0-.33.95Z"/><path d="M195.56,170.48a15.64,15.64,0,0,1,6.16,3.28c.49.42,1-.42.56-.83a16.28,16.28,0,0,0-6.39-3.39c-.62-.17-.95.78-.33.95Z"/><path d="M196.53,167.83l5.14,2.81c.56.31,1.12-.52.56-.83L197.08,167c-.56-.31-1.12.52-.56.83Z"/><path d="M202.22,177.37A18.48,18.48,0,0,1,203.52,167l-1-.07.08.65c.08.64,1.06.44,1-.2l-.08-.65c-.07-.53-.78-.48-1-.07a19.48,19.48,0,0,0-1.34,10.88c.1.64,1.08.44,1-.2Z"/><path d="M204.39,176.43a13,13,0,0,1,.55-5.74.5.5,0,0,0-.95-.33,14.17,14.17,0,0,0-.58,6.26c.08.64,1.06.44,1-.2Z"/><path d="M205.14,169.13a.5.5,0,0,0,0-1,.5.5,0,0,0,0,1Z"/><path d="M206.39,175.14a7.21,7.21,0,0,1,.61-3.3c.26-.59-.69-.91-.95-.33a7.87,7.87,0,0,0-.66,3.56c0,.64,1,.71,1,.07Z"/><path d="M149.51,184.11a15.55,15.55,0,0,1,7.38,2.67.5.5,0,0,0,.56-.83,16.63,16.63,0,0,0-7.87-2.83.5.5,0,0,0-.07,1Z"/><path d="M151.31,181.92a13.54,13.54,0,0,1,6.07,2.56c.52.39,1.07-.45.56-.83a14.59,14.59,0,0,0-6.56-2.73c-.64-.1-.7.9-.07,1Z"/><path d="M152.31,179.91a21.1,21.1,0,0,1,5.13,1.93c.56.3,1.12-.53.56-.83a22,22,0,0,0-5.36-2c-.62-.15-1,.8-.33.95Z"/><path d="M158.36,177.78A67.84,67.84,0,0,1,157,188.24c-.13.62.82,1,.95.33a69.44,69.44,0,0,0,1.36-10.72.5.5,0,0,0-1-.07Z"/><path d="M160.26,179.75l-.91,7.05c-.08.64.92.71,1,.07l.91-7.05c.08-.64-.92-.71-1-.07Z"/><path d="M161.86,183l-.23,1.56c-.09.64.91.71,1,.07l.23-1.56c.09-.64-.91-.71-1-.07Z"/><path d="M164.8,181.76a2.58,2.58,0,0,1,1.43.59c.5.4,1.05-.43.56-.83a3.51,3.51,0,0,0-1.91-.76.5.5,0,0,0-.07,1Z"/><path d="M166.42,178.24l.59.39a.5.5,0,0,0,.56-.83l-.59-.39a.5.5,0,0,0-.56.83Z"/><path d="M121.21,199.49a21.42,21.42,0,0,1,4.58,3.09c.48.42,1.23-.24.75-.66a22.33,22.33,0,0,0-4.77-3.26c-.57-.29-1.13.54-.56.83Z"/><path d="M122.94,197.85c1.05.6,2.09,1.22,3.11,1.88l1.34.9c.26.18,1.53.85,1.6,1.18l.16-.47-.09.06.5-.1-.11,0,.33.37v-.08c-.06-.64-1-.44-1,.2v.08a.48.48,0,0,0,.33.38.68.68,0,0,0,.69-.13.49.49,0,0,0,.16-.47c-.21-.94-1.79-1.66-2.52-2.16-1.28-.87-2.6-1.68-3.95-2.44-.56-.31-1.12.51-.56.83Z"/><path d="M125,196.26a19.47,19.47,0,0,1,6.5,5.13c.41.5,1.16-.17.75-.66a20.6,20.6,0,0,0-6.92-5.41c-.58-.28-.9.67-.33.95Z"/><path d="M130.41,197.16l3,2.46c.5.41,1.05-.43.56-.83l-3-2.46c-.5-.41-1.05.43-.56.83Z"/><path d="M128.2,194.93a.5.5,0,0,0,0-1,.5.5,0,0,0,0,1Z"/><path d="M135,200.22a8.8,8.8,0,0,1,.08-4.36c.17-.62-.78-.95-.95-.33a9.89,9.89,0,0,0-.11,4.88c.14.63,1.12.43,1-.2Z"/><path d="M136.7,199.76q0-1.15,0-2.3c0-.64-1-.72-1-.07v2.3c0,.64,1,.72,1,.07Z"/><path d="M140,198.59a19.42,19.42,0,0,1,1.7-7c.26-.59-.68-.91-.95-.33a20.22,20.22,0,0,0-1.75,7.21.5.5,0,0,0,1,.07Z"/><path d="M142.06,198.59a36.68,36.68,0,0,1,1.39-5,.5.5,0,0,0-.95-.33,36.66,36.66,0,0,0-1.39,5c-.13.62.82,1,.95.33Z"/><path d="M142.3,196.59a7.59,7.59,0,0,1,3.14,1c.55.32,1.11-.51.56-.83a8.78,8.78,0,0,0-3.63-1.17.5.5,0,0,0-.07,1Z"/><path d="M143.55,194.58l5.07,2.27c.59.26.91-.68.33-.95l-5.07-2.27c-.59-.26-.91.68-.33.95Z"/><path d="M144.1,191.72a7.26,7.26,0,0,1,3.86,1.12c.54.34,1.1-.49.56-.83a8.24,8.24,0,0,0-4.34-1.29c-.64,0-.72,1-.07,1Z"/><path d="M149.83,193.42a.5.5,0,0,0,0-1,.5.5,0,0,0,0,1Z"/><path d="M152,194.79a5.86,5.86,0,0,0,2.29,1.48.5.5,0,0,0,.33-.95,4.75,4.75,0,0,1-1.87-1.2c-.44-.46-1.2.2-.75.66Z"/><path d="M150.83,190.78a62,62,0,0,1,6.19,4.1c.52.39,1.07-.45.56-.83a62,62,0,0,0-6.19-4.1c-.55-.32-1.11.51-.56.83Z"/><path d="M181.79,183.14a5.5,5.5,0,0,1,1.82,1.27c.44.46,1.19-.2.75-.66a6.74,6.74,0,0,0-2.24-1.55c-.59-.25-.91.69-.33.95Z"/><path d="M183.12,181.57l1.23,1c.5.41,1-.43.56-.83l-1.23-1c-.5-.41-1,.43-.56.83Z"/><path d="M230.9,151a10.85,10.85,0,0,1,4,2.49c.46.45,1.21-.21.75-.66a12,12,0,0,0-4.4-2.78.5.5,0,0,0-.33.95Z"/><path d="M232.83,149a6.23,6.23,0,0,1,2.44,1.3c.48.42,1.23-.24.75-.66a7.32,7.32,0,0,0-2.86-1.59c-.62-.18-.95.77-.33.95Z"/><path d="M236.2,155.55A16.49,16.49,0,0,1,237,149a.5.5,0,0,0-.95-.33,17.75,17.75,0,0,0-.85,7.1c.05.64,1,.44,1-.2Z"/><path d="M238.29,154.63a6.42,6.42,0,0,1,.24-2.34c.18-.62-.77-.94-.95-.33a7.77,7.77,0,0,0-.28,2.86c.05.64,1,.44,1-.2Z"/><path d="M241.29,151a.5.5,0,0,0,0-1,.5.5,0,0,0,0,1Z"/><path d="M267,142.66l1.12.55c.58.28.9-.67.33-.95l-1.12-.55c-.58-.28-.9.67-.33.95Z"/><path d="M270,139.11a.5.5,0,0,0,0-1,.5.5,0,0,0,0,1Z"/><path d="M351.68,134.9a8,8,0,0,1,4.18,3.3c.34.54,1.24.1.89-.45a9,9,0,0,0-4.75-3.8.5.5,0,0,0-.33.95Z"/><path d="M353.22,133.37a17.6,17.6,0,0,1,4.45,3.77l.65-.75-.49-.39c-.5-.4-1.05.43-.56.83l.49.39c.45.37,1-.33.65-.75a18.43,18.43,0,0,0-4.65-3.94c-.55-.33-1.11.5-.56.83Z"/><path d="M355.32,132.14a7.85,7.85,0,0,1,2.32,2c.4.51,1.14-.16.75-.66a8.58,8.58,0,0,0-2.51-2.18c-.56-.32-1.11.51-.56.83Z"/><path d="M357.33,141.06a24.92,24.92,0,0,1,3.41-8,.5.5,0,0,0-.83-.56,25.68,25.68,0,0,0-3.53,8.23c-.15.62.8,1,.95.33Z"/><path d="M360.22,138.5l.79-1.78c.26-.59-.69-.91-.95-.33l-.79,1.78c-.26.59.69.91.95.33Z"/><path d="M362,135a.5.5,0,0,0,0-1,.5.5,0,0,0,0,1Z"/><path d="M357.78,142a.5.5,0,0,0,0-1,.5.5,0,0,0,0,1Z"/></g></g></g></svg>