<svg xmlns="http://www.w3.org/2000/svg" xmlns:xlink="http://www.w3.org/1999/xlink" viewBox="0 0 244.66 151.9"><defs><style>.cls-1{fill:#fff;}.cls-2{fill:none;}.cls-3{fill:#e6e6e6;}.cls-4{clip-path:url(#clip-path);}.cls-5{clip-path:url(#clip-path-2);}.cls-6{fill:#e75339;}.cls-7{clip-path:url(#clip-path-3);}.cls-8{fill:#e04d33;}.cls-9{fill:#c23118;}.cls-10{clip-path:url(#clip-path-4);}.cls-11{fill:#d9482e;}.cls-12{fill:#a62610;}.cls-13{clip-path:url(#clip-path-5);}</style><clipPath id="clip-path"><path class="cls-1" d="M122.89,107.9a7.19,7.19,0,1,1,6.64-7.17A6.92,6.92,0,0,1,122.89,107.9Zm0-10.33a3.22,3.22,0,1,0,2.64,3.16A2.94,2.94,0,0,0,122.89,97.57Z"/></clipPath><clipPath id="clip-path-2"><path class="cls-1" d="M139.43,107.9a7.19,7.19,0,1,1,6.64-7.17A6.92,6.92,0,0,1,139.43,107.9Zm0-10.33a3.22,3.22,0,1,0,2.64,3.16A2.94,2.94,0,0,0,139.43,97.57Z"/></clipPath><clipPath id="clip-path-3"><path class="cls-2" d="M114.32,91.69V130a23.33,23.33,0,0,0,3.31,6.41c2.16,2.76,7.84,9.85,14.41,10.35,0,0,9.06-1.18,16.39-14.1v-41L145,84.58s-5.84-3.16-6.22-3.26-9.07,1.39-9.63,1.19-9.28,1.87-9.28,1.87l-4,3.36Z"/></clipPath><clipPath id="clip-path-4"><ellipse class="cls-3" cx="122.89" cy="100.73" rx="4.64" ry="5.16"/></clipPath><clipPath id="clip-path-5"><ellipse class="cls-3" cx="139.43" cy="100.73" rx="4.64" ry="5.16"/></clipPath></defs><title>brand-socialmedia</title><g id="Layer_2" data-name="Layer 2"><g id="Layer_1-2" data-name="Layer 1"><path class="cls-1" d="M75.82,49.8,97,53.47,108.4,68.93l2.27-13.08,9,1.55a8.32,8.32,0,0,0,9.61-6.77L135,17.33a8.32,8.32,0,0,0-6.77-9.61L84.44.12a8.32,8.32,0,0,0-9.61,6.77l-5.78,33.3A8.32,8.32,0,0,0,75.82,49.8Zm.64-3.7a4.56,4.56,0,0,1-3.71-5.27l5.78-33.3A4.56,4.56,0,0,1,83.8,3.82l43.81,7.6a4.56,4.56,0,0,1,3.71,5.27L125.54,50a4.56,4.56,0,0,1-5.27,3.71l-12.65-2.19-1.41,8.13L99.11,50Z"/><path class="cls-1" d="M48.64,121.57s-2.1-.66,0-3c.86-1,2.18-1.49,1.72-4.82-.41-3-3.42-3.66-4.85-3.68h-.2c-1.44,0-4.44.69-4.85,3.68-.46,3.33.86,3.87,1.72,4.82,2.1,2.32,0,3,0,3-6.42,3.33-5.85,6.77-5.85,6.77H54.49S55.06,124.89,48.64,121.57Z"/><path class="cls-1" d="M12.33,95.59s-2.1-.66,0-3c.86-1,2.18-1.49,1.72-4.82-.41-3-3.42-3.66-4.85-3.68H9c-1.44,0-4.44.69-4.85,3.68-.46,3.33.86,3.87,1.72,4.82,2.1,2.32,0,3,0,3C-.56,98.92,0,102.35,0,102.35H18.18S18.75,98.92,12.33,95.59Z"/><path class="cls-1" d="M6.69,108.12H6.62a.31.31,0,0,1-.23-.37c.17-.75.32-1.19.33-1.21a.31.31,0,0,1,.58.2s-.15.43-.31,1.15A.31.31,0,0,1,6.69,108.12Z"/><path class="cls-1" d="M21.63,125.93h0c-.79,0-1.56-.12-2.3-.21a.31.31,0,1,1,.08-.61c.72.09,1.48.16,2.25.21a.31.31,0,0,1,0,.61Zm-4.53-.6H17a21,21,0,0,1-2.23-.62.31.31,0,1,1,.2-.58,20.35,20.35,0,0,0,2.17.6.31.31,0,0,1-.07.6Zm-4.31-1.5a.3.3,0,0,1-.14,0,13.65,13.65,0,0,1-2-1.23.31.31,0,0,1,.37-.49,13,13,0,0,0,1.9,1.17.31.31,0,0,1-.14.58ZM9.17,121.1a.3.3,0,0,1-.23-.1,11.24,11.24,0,0,1-1.37-1.9.31.31,0,0,1,.53-.3,10.64,10.64,0,0,0,1.3,1.8.31.31,0,0,1-.23.51ZM6.9,117.16a.31.31,0,0,1-.29-.21,13.69,13.69,0,0,1-.55-2.27.31.31,0,0,1,.6-.09,13.11,13.11,0,0,0,.52,2.17.31.31,0,0,1-.19.39Zm-.71-4.5a.31.31,0,0,1-.31-.3v-.17A19.27,19.27,0,0,1,6,110a.31.31,0,0,1,.61.07,18.68,18.68,0,0,0-.12,2.09v.16a.31.31,0,0,1-.3.31Z"/><path class="cls-1" d="M23.95,126a.31.31,0,1,1,0-.61l1.21,0h0a.31.31,0,0,1,0,.61l-1.23,0Z"/><polygon class="cls-1" points="26.89 121.66 26.89 129.8 33.62 124.95 26.89 121.66"/><path class="cls-1" d="M44.51,105.69h.07a.31.31,0,0,1,.22.37c-.19.74-.35,1.18-.36,1.2a.31.31,0,1,1-.57-.21s.16-.43.34-1.14A.31.31,0,0,1,44.51,105.69Z"/><path class="cls-1" d="M30,87.56h0c.79.06,1.56.15,2.29.26a.31.31,0,1,1-.09.6c-.72-.11-1.47-.2-2.25-.26a.31.31,0,0,1,0-.61Zm4.51.7h.07a20.92,20.92,0,0,1,2.22.67.31.31,0,1,1-.21.57,20.37,20.37,0,0,0-2.15-.65.31.31,0,0,1,.08-.6Zm4.27,1.59a.31.31,0,0,1,.14,0,13.69,13.69,0,0,1,2,1.27.31.31,0,0,1-.38.48,13,13,0,0,0-1.87-1.21.31.31,0,0,1,.15-.57Zm3.57,2.81a.31.31,0,0,1,.23.11,11.24,11.24,0,0,1,1.33,1.93.31.31,0,1,1-.54.29,10.65,10.65,0,0,0-1.26-1.83.31.31,0,0,1,.24-.5Zm2.18,4a.31.31,0,0,1,.28.21,13.71,13.71,0,0,1,.5,2.29.31.31,0,1,1-.61.08A13.15,13.15,0,0,0,44.2,97a.3.3,0,0,1,.2-.38Zm.62,4.52a.31.31,0,0,1,.3.31v.17a19.32,19.32,0,0,1-.17,2.15.31.31,0,1,1-.61-.08,18.67,18.67,0,0,0,.17-2.08v-.16a.3.3,0,0,1,.31-.3Z"/><path class="cls-1" d="M27.65,87.45a.31.31,0,1,1,0,.61H26.42a.31.31,0,0,1,0-.61h1.23Z"/><polygon class="cls-1" points="24.62 91.71 24.8 83.58 17.96 88.28 24.62 91.71"/><path class="cls-1" d="M230.38,80.47l-30-9.19a5.4,5.4,0,0,1-3.58-6.74l7.31-23.86a5.4,5.4,0,0,1,6.74-3.58l30,9.19A5.4,5.4,0,0,1,244.42,53l-7.31,23.86A5.4,5.4,0,0,1,230.38,80.47ZM210.31,38.88a3.54,3.54,0,0,0-4.41,2.34l-7.31,23.86a3.54,3.54,0,0,0,2.34,4.42l30,9.19a3.54,3.54,0,0,0,4.42-2.34l7.31-23.86a3.54,3.54,0,0,0-2.35-4.41Z"/><polygon class="cls-1" points="213.42 45.77 207.25 65.93 233.45 61.84 213.42 45.77"/><path class="cls-1" d="M216.84,133.73l-5-12.49s3.36-5.1.13-9.78c-.89-1.29,3.82-4.15,6,1.61,1.18,3,.72,4.19.72,4.19s9.95-6.51,11.39-2.9c0,0,1.21,1.67-1.1,2.82,0,0,2.5-.88,3.07,1.32.43,1.64-1.85,2.61-1.85,2.61a2,2,0,0,1,2.69,1.07,1.82,1.82,0,0,1-1.3,2.56s2.38-.27,2.22,1.44C233.55,129.46,224.93,133,216.84,133.73Z"/><polygon class="cls-1" points="210.52 121.22 215.94 134.79 210.83 136.98 205.52 123.67 210.52 121.22"/><path class="cls-1" d="M172.87,101.1l19.8,7.43V79.84l-19.8,7.43H162.71V101.1h6.91v14.85h2.3V101.1Zm17.5,4.1-16.13-6.05V89.22l16.13-6.05ZM165,89.57h6.91v9.22H165Z"/><path class="cls-1" d="M196.37,99.65a6.91,6.91,0,0,0,0-9.78l-1.63,1.63a4.61,4.61,0,0,1,0,6.52Z"/><path class="cls-1" d="M201,103.64a12.57,12.57,0,0,0,0-17.76l-1.63,1.63a10.27,10.27,0,0,1,0,14.5Z"/><path class="cls-1" d="M91.1,99.1v12.37H93V99.1h5.76V87.58H90.32L73.83,81.4v23.89L90.32,99.1ZM75.75,84.17l13.44,5v8.27l-13.44,5Zm21.12,13H91.1V89.5h5.76Z"/><path class="cls-1" d="M72.11,96.54a3.84,3.84,0,0,1,0-5.43l-1.36-1.36a5.75,5.75,0,0,0,0,8.14Z"/><path class="cls-1" d="M68.27,99.86a8.55,8.55,0,0,1,0-12.08l-1.36-1.36a10.47,10.47,0,0,0,0,14.79Z"/><path class="cls-1" d="M40.52,27.61H65.63v3.75H40.52a3.15,3.15,0,0,0-3.14,3.14V60.89A3.15,3.15,0,0,0,40.52,64H51v5.89L57.12,64h18.1a3.15,3.15,0,0,0,3.14-3.14v-3h3.75v3a6.9,6.9,0,0,1-6.9,6.9H58.62L47.2,78.7V67.79H40.52a6.9,6.9,0,0,1-6.9-6.9V34.51A6.9,6.9,0,0,1,40.52,27.61Z"/><path class="cls-1" d="M179.09,31.53c-6.56-2.46-9.2,4.26-9.79,6.1-1.29-1.08-7.18-5.5-11.6.37-5,6.59,6.35,15.35,15.47,14.48h.13v0C181.47,48.08,186.63,34.36,179.09,31.53Z"/><path class="cls-1" d="M123.25,107.84a7.13,7.13,0,1,1,6.59-7.11A6.87,6.87,0,0,1,123.25,107.84Zm0-10.21a3.16,3.16,0,1,0,2.59,3.11A2.89,2.89,0,0,0,123.25,97.63Z"/><path class="cls-1" d="M132.15,148.75l-.21,0c-6.76-.52-12.25-6.59-15.78-11.12a27.39,27.39,0,0,1-3.73-7l-.11-.32v-39l2.07-4.77,4.79-4,.45-.11c7.6-1.81,9.33-2,10-1.91s3.6-.45,5.31-.7c3.76-.56,4-.57,4.5-.44.27.07.61.16,6.61,3.44l.58.32,3.77,8.1v41.92l-.26.46c-7.73,13.64-17.4,15-17.81,15.1Zm-15.83-19.13a23.1,23.1,0,0,0,3,5.54c1.75,2.23,7,9,12.7,9.57,1.23-.25,8.27-2.08,14.41-12.62v-40L143.58,86c-2-1.1-4.15-2.24-5-2.67-.65.08-1.95.27-3,.43-4.51.67-5.76.82-6.43.72-1,.1-4.78.93-8.12,1.71L117.67,89l-1.36,3.13ZM129.24,84.5Z"/><path class="cls-1" d="M132.09,148.75l-.21,0c-7.6-.58-13.8-8.51-15.84-11.12a25.27,25.27,0,0,1-3.64-7l-.09-.29v-39l1.94-4.76,4.69-4,.47-.11c7.61-1.81,9.34-2,10-1.91s3.61-.45,5.33-.7c3.77-.56,4-.58,4.51-.44.26.07.61.16,6.66,3.43l.57.31,3.9,8.1v41.94l-.26.46c-7.73,13.64-17.46,15-17.87,15.1Zm-15.78-19.11a21,21,0,0,0,2.88,5.51c4.65,5.95,8.94,9.17,12.76,9.57,1.24-.25,8.32-2.08,14.47-12.62v-40L143.49,86c-2.06-1.11-4.21-2.25-5.07-2.68-.65.08-2,.27-3,.43-4.52.67-5.78.82-6.44.72-1,.1-4.78.92-8.12,1.71l-3.21,2.73-1.28,3.13ZM129,84.5Z"/><path class="cls-1" d="M147.54,104.73l-1.62-9.55s-1-5.49-4.81-7.41c-2.32-1.18-5.37-.85-9.06,1l-6.85,3.38,2.91-4.24a21,21,0,0,1-5.3,0A5.13,5.13,0,0,0,118.57,89a7.59,7.59,0,0,0-2.13,5.77l.17,8.79-4-7.85c-.13-.25-3.13-6.31-1.12-11.84a11,11,0,0,1,5.76-6.16c.88-1.62,3.45-4.87,10.14-6.18a24.85,24.85,0,0,1,4.08-.41c2-.08,3-.11,4.95-1.71l4.24-3.54-1,5.44a11.52,11.52,0,0,1-.44,1.58,15.16,15.16,0,0,1,2.47-.29l3.2-.09-1.25,2.77a1.47,1.47,0,0,0,.72-.64l1.75-4.25,1.92,4.17a9.74,9.74,0,0,1,0,6.94c1.46,1.89,3.59,6.17,1.73,13.8ZM133.31,75.05c-.55.06-1.1.08-1.65.1a20.82,20.82,0,0,0-3.47.34c-6.21,1.21-7.47,4.3-7.52,4.43l-.28.86-.81.31a7.27,7.27,0,0,0-4.3,4.18,7.6,7.6,0,0,0-.41,1.86,9.37,9.37,0,0,1,1-1.06,9.06,9.06,0,0,1,7.41-2.18h.11Zm4.75,8a10.57,10.57,0,0,1,4.87,1.14,11,11,0,0,1,3.32,2.64,6.27,6.27,0,0,0-1.74-3.36l-1.23-1L144,81a7.29,7.29,0,0,0,.63-1.78,12.32,12.32,0,0,1-3.76.72L139,80l-.21-1.81a4,4,0,0,1,.05-1.08,22.66,22.66,0,0,0-3.29,1.19l-11.93,5.62c4.47.48,6.69-.75,6.71-.76l2.28-1.29.56,2.08A15.29,15.29,0,0,1,138.07,83.07Z"/><path class="cls-1" d="M124.83,138.63l-1.95-2.49c-.19-.24-1.83-2.43-1-4.76a20.84,20.84,0,0,0,.65-2.61l.34-1.93,1.94.3a2.8,2.8,0,0,1,1.85,1.19l.13.2c.75-.15,1.69-.38,2.42-.55a35.63,35.63,0,0,1,4.25-.86,31.85,31.85,0,0,1,4.32-.09l0-.29L139,126a2.16,2.16,0,0,1,2.52.56c.85.91,1.83,3.32.05,6.52l-2.06,3.71-1.58-4c-4.11.51-9.44,1.17-11.23,1.41a5.6,5.6,0,0,1-.49,1.58Zm17-10.95v0Z"/><path class="cls-1" d="M129.55,136.65h-.61l-3.43-2.29,3-2.7.56-.1c2.67-.48,6.17-.71,7.71.87l2.17,2.23-2.93,1A20.85,20.85,0,0,1,129.55,136.65Z"/><path class="cls-1" d="M139.43,107.88a7.17,7.17,0,1,1,6.62-7.15A6.91,6.91,0,0,1,139.43,107.88Zm0-10.3a3.2,3.2,0,1,0,2.62,3.15A2.92,2.92,0,0,0,139.43,97.59Z"/><path class="cls-1" d="M122.89,107.88a7.17,7.17,0,1,1,6.62-7.15A6.91,6.91,0,0,1,122.89,107.88Zm0-10.3a3.2,3.2,0,1,0,2.62,3.15A2.92,2.92,0,0,0,122.89,97.59Z"/><path class="cls-1" d="M122.89,107.9a7.19,7.19,0,1,1,6.64-7.17A6.92,6.92,0,0,1,122.89,107.9Zm0-10.33a3.22,3.22,0,1,0,2.64,3.16A2.94,2.94,0,0,0,122.89,97.57Z"/><g class="cls-4"><path class="cls-1" d="M126.92,102.92a2.74,2.74,0,0,1-2-.9,2.8,2.8,0,0,0-2.07-1,6.53,6.53,0,0,0-2.17,1.14,2.71,2.71,0,0,1-2.73.54,2.74,2.74,0,0,1-1.66-2.1v0l-.55-3.32,1.47-3,2.27-1.78,5.21-.68,2.59,1.58.25.41s.27.44.43.68a12.15,12.15,0,0,1,.79,1l.29.39c.47.43.61,1,1.08,3.05l.22.94-1,1.25a2.69,2.69,0,0,1-1.3,1.49A2.53,2.53,0,0,1,126.92,102.92Zm-7-5v0a6.16,6.16,0,0,1,3.32-.89,7.69,7.69,0,0,1,2,.45l-.17-.22a5.24,5.24,0,0,1-.7-.95l-.57-.35-2.73.36-.69.54Z"/></g><path class="cls-1" d="M123.28,106.53a4,4,0,1,1,4-4A4,4,0,0,1,123.28,106.53Zm0-4h0Z"/><path class="cls-1" d="M124,105.08a2.84,2.84,0,1,1,2.84-2.84A2.85,2.85,0,0,1,124,105.08Zm0-4a1.16,1.16,0,1,0,1.16,1.16A1.16,1.16,0,0,0,124,101.08Z"/><path class="cls-1" d="M123.08,110.09a9.5,9.5,0,1,1,9.5-9.5A9.51,9.51,0,0,1,123.08,110.09Zm0-15a5.5,5.5,0,1,0,5.5,5.5A5.51,5.51,0,0,0,123.08,95.09Z"/><path class="cls-1" d="M139.27,110.09a9.5,9.5,0,1,1,9.5-9.5A9.51,9.51,0,0,1,139.27,110.09Zm0-15a5.5,5.5,0,1,0,5.5,5.5A5.51,5.51,0,0,0,139.27,95.09Z"/><path class="cls-1" d="M139.43,107.9a7.19,7.19,0,1,1,6.64-7.17A6.92,6.92,0,0,1,139.43,107.9Zm0-10.33a3.22,3.22,0,1,0,2.64,3.16A2.94,2.94,0,0,0,139.43,97.57Z"/><g class="cls-5"><path class="cls-1" d="M143.46,102.92a2.74,2.74,0,0,1-2-.9,2.8,2.8,0,0,0-2.07-1,6.54,6.54,0,0,0-2.17,1.14,2.72,2.72,0,0,1-2.73.54,2.75,2.75,0,0,1-1.66-2.1v0l-.55-3.32,1.47-3L136,92.51l5.21-.68,2.59,1.58.25.41s.27.44.43.68a12.15,12.15,0,0,1,.79,1l.29.39c.47.43.61,1,1.08,3.05l.22.94-1,1.25a2.7,2.7,0,0,1-1.31,1.49A2.53,2.53,0,0,1,143.46,102.92Zm-7-5v.05a6.13,6.13,0,0,1,3.32-.89,7.69,7.69,0,0,1,2,.45l-.17-.22a5.24,5.24,0,0,1-.7-.95l-.57-.35-2.73.36-.69.54Z"/></g><path class="cls-1" d="M139.46,106.5a4,4,0,1,1,4-4A4,4,0,0,1,139.46,106.5Zm0-4a0,0,0,0,0,0,0l2,0Z"/><path class="cls-1" d="M140.14,105.07a2.83,2.83,0,1,1,2.83-2.83A2.83,2.83,0,0,1,140.14,105.07Zm0-4a1.17,1.17,0,1,0,1.17,1.17A1.17,1.17,0,0,0,140.14,101.07Z"/><ellipse class="cls-1" cx="123.25" cy="100.73" rx="4.59" ry="5.11"/><path class="cls-6" d="M114.32,91.69V130a25.49,25.49,0,0,0,3.42,6.41c2.16,2.76,7.79,9.85,14.36,10.35,0,0,9-1.18,16.33-14.1v-41l-3.31-7.11s-5.79-3.16-6.16-3.26-9,1.39-9.61,1.19-9.26,1.87-9.26,1.87L116,87.74Z"/><g class="cls-7"><path class="cls-8" d="M116.11,87.25l30.23,55.26-4.51,7.5s-13.71,2.07-14.18,1.87-6.95-3.36-7.23-3.55a50.27,50.27,0,0,1-4.88-4.64c-.47-.79-5.07-35.61-5.07-35.61s2.25-9.79,2.07-10.28S116.11,87.25,116.11,87.25Z"/></g><path class="cls-9" d="M114.44,94.85s-5.68-11.25,4.36-15.59c0,0,1.39-4.24,9-5.72,4.56-.89,6.28.49,9.93-2.56a10.85,10.85,0,0,1-3,5.52,21.2,21.2,0,0,1,7.09-1.87,11.29,11.29,0,0,0-1,3.36s4.46-.1,5.47-2.57a7.93,7.93,0,0,1-.51,6.51s4.46,3.36,2.13,12.93c0,0-2.53-14.9-16.72-7.89a3,3,0,0,0,.2-2.07s-2.74,1.68-8.31,1S114.34,89.71,114.44,94.85Z"/><path class="cls-9" d="M124.46,134.91a3.61,3.61,0,0,1-.72-2.89,23.06,23.06,0,0,0,.72-2.89s.86.13.59,1.25,5.86-1,8.55-1.25a31.74,31.74,0,0,1,5.39,0s.92-.66.86-1.18,1.72,1.12,0,4.21l-.6-1.51s-12.89,1.58-13.49,1.71a1.22,1.22,0,0,0-1,1.25A3.4,3.4,0,0,1,124.46,134.91Z"/><path class="cls-9" d="M128.76,134.12l.66-.59s4.8-.86,5.92.3a18.82,18.82,0,0,1-5.79.82Z"/><ellipse class="cls-1" cx="139.43" cy="100.73" rx="4.62" ry="5.15"/><ellipse class="cls-1" cx="122.89" cy="100.73" rx="4.62" ry="5.15"/><ellipse class="cls-3" cx="122.89" cy="100.73" rx="4.64" ry="5.16"/><g class="cls-10"><path class="cls-11" d="M118.28,100.27s.2,1.11,1.18.33S122.13,98.94,123,99a4.78,4.78,0,0,1,3.36,1.58c.69.71,1.18-.06,1.13-.35l.69-.86s-.47-2-.54-2.07-1.06-1.46-1.13-1.48a9.93,9.93,0,0,1-.67-1l-1.58-1-4,.52-1.48,1.16-1,2Z"/></g><circle class="cls-11" cx="123.28" cy="102.54" r="1.99"/><circle class="cls-1" cx="123.97" cy="102.24" r="0.84"/><path class="cls-12" d="M123.08,109.9a9.31,9.31,0,1,1,9.31-9.31A9.32,9.32,0,0,1,123.08,109.9Zm0-15a5.69,5.69,0,1,0,5.69,5.69A5.7,5.7,0,0,0,123.08,94.9Z"/><path class="cls-12" d="M139.27,109.9a9.31,9.31,0,1,1,9.31-9.31A9.32,9.32,0,0,1,139.27,109.9Zm0-15a5.69,5.69,0,1,0,5.69,5.69A5.7,5.7,0,0,0,139.27,94.9Z"/><ellipse class="cls-3" cx="139.43" cy="100.73" rx="4.64" ry="5.16"/><g class="cls-13"><path class="cls-11" d="M134.83,100.27s.2,1.11,1.18.33,2.66-1.66,3.55-1.57a4.78,4.78,0,0,1,3.36,1.58c.69.71,1.18-.06,1.13-.35l.69-.86s-.47-2-.54-2.07-1.06-1.46-1.13-1.48a9.93,9.93,0,0,1-.67-1l-1.58-1-4,.52-1.48,1.16-1,2Z"/></g><circle class="cls-11" cx="139.46" cy="102.54" r="1.96"/><circle class="cls-1" cx="140.14" cy="102.24" r="0.83"/></g></g></svg>