<svg xmlns="http://www.w3.org/2000/svg" xmlns:xlink="http://www.w3.org/1999/xlink" viewBox="0 0 27.44 45.55"><defs><style>.cls-1{fill:#fff;}.cls-2,.cls-4{fill:none;}.cls-3{fill:#e6e6e6;}.cls-4{stroke:#fff;stroke-miterlimit:10;}.cls-5{clip-path:url(#clip-path);}.cls-6{clip-path:url(#clip-path-2);}.cls-7{fill:#e75339;}.cls-8{clip-path:url(#clip-path-3);}.cls-9{fill:#e04d33;}.cls-10{fill:#c23118;}.cls-11{clip-path:url(#clip-path-4);}.cls-12{fill:#d9482e;}.cls-13{fill:#a62610;}.cls-14{clip-path:url(#clip-path-5);}</style><clipPath id="clip-path"><path class="cls-1" d="M21.56,8.92A1.47,1.47,0,0,1,20.15,7.4,1.41,1.41,0,1,1,23,7.4,1.47,1.47,0,0,1,21.56,8.92Zm0-2.19A.62.62,0,0,0,21,7.4a.57.57,0,1,0,1.12,0A.62.62,0,0,0,21.56,6.73Z"/></clipPath><clipPath id="clip-path-2"><path class="cls-1" d="M25.08,8.92A1.47,1.47,0,0,1,23.67,7.4a1.41,1.41,0,1,1,2.82,0A1.47,1.47,0,0,1,25.08,8.92Zm0-2.19a.62.62,0,0,0-.56.67.57.57,0,1,0,1.12,0A.62.62,0,0,0,25.08,6.73Z"/></clipPath><clipPath id="clip-path-3"><path class="cls-2" d="M19.74,5.48v8.13a5,5,0,0,0,.7,1.36c.46.59,1.67,2.09,3.06,2.2,0,0,1.92-.25,3.48-3V5.48L26.26,4S25,3.3,24.94,3.28s-1.93.3-2,.25-2,.4-2,.4l-.84.71Z"/></clipPath><clipPath id="clip-path-4"><ellipse class="cls-3" cx="21.56" cy="7.4" rx="0.99" ry="1.1"/></clipPath><clipPath id="clip-path-5"><ellipse class="cls-3" cx="25.08" cy="7.4" rx="0.99" ry="1.1"/></clipPath></defs><title>brand-optimization</title><g id="Layer_2" data-name="Layer 2"><g id="Layer_1-2" data-name="Layer 1"><rect class="cls-4" x="0.5" y="35.79" width="6.67" height="9.26"/><rect class="cls-4" x="10.35" y="29.09" width="6.67" height="15.95"/><rect class="cls-4" x="20.21" y="17.72" width="6.67" height="27.33"/><path class="cls-1" d="M21.64,8.91a1.46,1.46,0,0,1-1.4-1.51,1.4,1.4,0,1,1,2.8,0A1.46,1.46,0,0,1,21.64,8.91Zm0-2.17a.61.61,0,0,0-.55.66.56.56,0,1,0,1.1,0A.61.61,0,0,0,21.64,6.74Z"/><path class="cls-1" d="M23.53,17.6h0c-1.44-.11-2.6-1.4-3.35-2.36a5.82,5.82,0,0,1-.79-1.49l0-.07V5.39l.44-1,1-.84.1,0A9.11,9.11,0,0,1,23,3.11c.17,0,.76-.1,1.13-.15.8-.12.84-.12,1-.09a11.06,11.06,0,0,1,1.4.73l.12.07.8,1.72v8.9l-.06.1c-1.64,2.9-3.7,3.2-3.78,3.21Zm-3.36-4.06a4.91,4.91,0,0,0,.64,1.18c.37.47,1.49,1.9,2.7,2,.26-.05,1.76-.44,3.06-2.68V5.57L26,4.28,24.9,3.71l-.64.09A7.34,7.34,0,0,1,22.89,4c-.21,0-1,.2-1.72.36l-.71.58-.29.66ZM22.91,4Z"/><path class="cls-1" d="M23.52,17.6h0c-1.62-.12-2.93-1.81-3.36-2.36a5.37,5.37,0,0,1-.77-1.5l0-.06V5.4l.41-1,1-.85.1,0A9.14,9.14,0,0,1,23,3.11c.17,0,.77-.1,1.13-.15.8-.12.84-.12,1-.09a11.5,11.5,0,0,1,1.41.73l.12.07.83,1.72v8.91l-.06.1c-1.64,2.9-3.71,3.2-3.8,3.21Zm-3.35-4.06a4.47,4.47,0,0,0,.61,1.17c1,1.26,1.9,1.95,2.71,2,.26-.05,1.77-.44,3.07-2.68V5.58l-.62-1.3-1.08-.57-.65.09A7.38,7.38,0,0,1,22.85,4c-.21,0-1,.2-1.72.36l-.68.58-.27.67ZM22.87,4Z"/><path class="cls-1" d="M26.8,8.25l-.34-2a2.42,2.42,0,0,0-1-1.57,2.15,2.15,0,0,0-1.92.21l-1.45.72.62-.9a4.45,4.45,0,0,1-1.13,0,1.09,1.09,0,0,0-.9.25,1.61,1.61,0,0,0-.45,1.23l0,1.87-.84-1.67a3.56,3.56,0,0,1-.24-2.51,2.33,2.33,0,0,1,1.22-1.31A2.91,2.91,0,0,1,22.53,1.2a5.28,5.28,0,0,1,.87-.09A1.37,1.37,0,0,0,24.45.75l.9-.75-.21,1.15a2.45,2.45,0,0,1-.09.34,3.22,3.22,0,0,1,.52-.06l.68,0L26,2a.31.31,0,0,0,.15-.14l.37-.9.41.89a2.07,2.07,0,0,1,0,1.48,3.33,3.33,0,0,1,.37,2.93Zm-3-6.3-.35,0a4.42,4.42,0,0,0-.74.07c-1.32.26-1.59.91-1.6.94L21,3.16l-.17.07a1.54,1.54,0,0,0-.91.89,1.61,1.61,0,0,0-.09.39,2,2,0,0,1,.21-.23,1.92,1.92,0,0,1,1.57-.46h0Zm1,1.7a2.24,2.24,0,0,1,1,.24,2.34,2.34,0,0,1,.71.56,1.33,1.33,0,0,0-.37-.71l-.26-.22L26,3.21a1.55,1.55,0,0,0,.13-.38,2.62,2.62,0,0,1-.8.15H25l0-.38a.85.85,0,0,1,0-.23,4.81,4.81,0,0,0-.7.25L21.72,3.83a2.56,2.56,0,0,0,1.43-.16l.48-.27.12.44A3.25,3.25,0,0,1,24.79,3.65Z"/><path class="cls-1" d="M22,15.45l-.41-.53a1.17,1.17,0,0,1-.22-1,4.43,4.43,0,0,0,.14-.55l.07-.41L22,13a.59.59,0,0,1,.39.25l0,0,.51-.12a7.57,7.57,0,0,1,.9-.18,6.76,6.76,0,0,1,.92,0v-.06l.29-.15a.46.46,0,0,1,.54.12,1.18,1.18,0,0,1,0,1.38l-.44.79-.34-.85-2.38.3a1.19,1.19,0,0,1-.1.34Zm3.61-2.33h0Z"/><path class="cls-1" d="M23,15h-.13l-.73-.49.64-.57.12,0c.57-.1,1.31-.15,1.64.19l.46.47-.62.22A4.43,4.43,0,0,1,23,15Z"/><path class="cls-1" d="M25.08,8.92A1.47,1.47,0,0,1,23.67,7.4a1.41,1.41,0,1,1,2.81,0A1.47,1.47,0,0,1,25.08,8.92Zm0-2.19a.62.62,0,0,0-.56.67.57.57,0,1,0,1.11,0A.62.62,0,0,0,25.08,6.73Z"/><path class="cls-1" d="M21.56,8.92A1.47,1.47,0,0,1,20.16,7.4,1.41,1.41,0,1,1,23,7.4,1.47,1.47,0,0,1,21.56,8.92Zm0-2.19A.62.62,0,0,0,21,7.4a.57.57,0,1,0,1.11,0A.62.62,0,0,0,21.56,6.73Z"/><path class="cls-1" d="M21.56,8.92A1.47,1.47,0,0,1,20.15,7.4,1.41,1.41,0,1,1,23,7.4,1.47,1.47,0,0,1,21.56,8.92Zm0-2.19A.62.62,0,0,0,21,7.4a.57.57,0,1,0,1.12,0A.62.62,0,0,0,21.56,6.73Z"/><g class="cls-5"><path class="cls-1" d="M22.42,7.86A.58.58,0,0,1,22,7.67a.6.6,0,0,0-.44-.21,1.39,1.39,0,0,0-.46.24.58.58,0,0,1-.58.12.58.58,0,0,1-.35-.45h0l-.12-.71L20.36,6l.48-.38L22,5.51l.55.34.05.09.09.14.17.22.06.08c.1.09.13.22.23.65l0,.2-.21.27a.57.57,0,0,1-.28.32A.54.54,0,0,1,22.42,7.86ZM20.93,6.8h0a1.31,1.31,0,0,1,.7-.19,1.63,1.63,0,0,1,.43.1l0,0a1.11,1.11,0,0,1-.15-.2l-.12-.07-.58.08L21,6.58Z"/></g><path class="cls-1" d="M21.65,8.63a.85.85,0,1,1,.85-.85A.85.85,0,0,1,21.65,8.63Zm0-.85h0Z"/><path class="cls-1" d="M21.79,8.32a.6.6,0,1,1,.6-.6A.6.6,0,0,1,21.79,8.32Zm0-.85a.25.25,0,1,0,.25.25A.25.25,0,0,0,21.79,7.47Z"/><path class="cls-1" d="M21.61,9.39a2,2,0,1,1,2-2A2,2,0,0,1,21.61,9.39Zm0-3.19a1.17,1.17,0,1,0,1.17,1.17A1.17,1.17,0,0,0,21.61,6.2Z"/><path class="cls-1" d="M25,9.39a2,2,0,1,1,2-2A2,2,0,0,1,25,9.39ZM25,6.2a1.17,1.17,0,1,0,1.17,1.17A1.17,1.17,0,0,0,25,6.2Z"/><path class="cls-1" d="M25.08,8.92A1.47,1.47,0,0,1,23.67,7.4a1.41,1.41,0,1,1,2.82,0A1.47,1.47,0,0,1,25.08,8.92Zm0-2.19a.62.62,0,0,0-.56.67.57.57,0,1,0,1.12,0A.62.62,0,0,0,25.08,6.73Z"/><g class="cls-6"><path class="cls-1" d="M25.94,7.86a.58.58,0,0,1-.42-.19.6.6,0,0,0-.44-.21,1.39,1.39,0,0,0-.46.24.58.58,0,0,1-.58.12.58.58,0,0,1-.35-.45h0l-.12-.71L23.88,6l.48-.38,1.11-.14.55.34.05.09.09.14.17.22.06.08c.1.09.13.22.23.65l0,.2-.21.27a.57.57,0,0,1-.28.32A.54.54,0,0,1,25.94,7.86ZM24.45,6.8h0a1.3,1.3,0,0,1,.7-.19,1.63,1.63,0,0,1,.43.1l0,0a1.11,1.11,0,0,1-.15-.2l-.12-.07-.58.08-.15.11Z"/></g><path class="cls-1" d="M25.09,8.63a.84.84,0,1,1,.84-.84A.84.84,0,0,1,25.09,8.63Zm0-.84h0Z"/><path class="cls-1" d="M25.23,8.32a.6.6,0,1,1,.6-.6A.6.6,0,0,1,25.23,8.32Zm0-.85a.25.25,0,1,0,.25.25A.25.25,0,0,0,25.23,7.47Z"/><ellipse class="cls-1" cx="21.64" cy="7.4" rx="0.97" ry="1.08"/><path class="cls-7" d="M19.74,5.48v8.13A5.41,5.41,0,0,0,20.47,15c.46.59,1.65,2.09,3.05,2.2,0,0,1.91-.25,3.47-3V5.48L26.29,4S25.06,3.3,25,3.28s-1.92.3-2,.25-2,.4-2,.4l-.86.71Z"/><g class="cls-8"><path class="cls-9" d="M20.12,4.54l6.42,11.74-1,1.59s-2.91.44-3,.4-1.48-.71-1.54-.75a10.68,10.68,0,0,1-1-1C19.9,16.36,18.93,9,18.93,9s.48-2.08.44-2.18S20.12,4.54,20.12,4.54Z"/></g><path class="cls-10" d="M19.77,6.15s-1.21-2.39.93-3.31c0,0,.29-.9,1.92-1.22,1-.19,1.33.1,2.11-.54a2.3,2.3,0,0,1-.65,1.17,4.5,4.5,0,0,1,1.51-.4,2.4,2.4,0,0,0-.22.71s.95,0,1.16-.54a1.69,1.69,0,0,1-.11,1.38s.95.71.45,2.75a2.28,2.28,0,0,0-3.55-1.68.63.63,0,0,0,0-.44,2.9,2.9,0,0,1-1.77.21C20.42,4.1,19.75,5.06,19.77,6.15Z"/><path class="cls-10" d="M21.9,14.66a.77.77,0,0,1-.15-.61,4.9,4.9,0,0,0,.15-.61s.18,0,.13.27,1.24-.21,1.82-.27a6.74,6.74,0,0,1,1.15,0s.2-.14.18-.25.36.24,0,.89L25,13.75s-2.74.34-2.86.36a.26.26,0,0,0-.21.27A.72.72,0,0,1,21.9,14.66Z"/><path class="cls-10" d="M22.81,14.49l.14-.13s1-.18,1.26.06A4,4,0,0,1,23,14.6Z"/><ellipse class="cls-1" cx="25.08" cy="7.4" rx="0.98" ry="1.09"/><ellipse class="cls-1" cx="21.56" cy="7.4" rx="0.98" ry="1.09"/><ellipse class="cls-3" cx="21.56" cy="7.4" rx="0.99" ry="1.1"/><g class="cls-11"><path class="cls-12" d="M20.59,7.3s0,.24.25.07A1.42,1.42,0,0,1,21.59,7a1,1,0,0,1,.71.34c.15.15.25,0,.24-.07l.15-.18s-.1-.43-.12-.44-.23-.31-.24-.31a2.11,2.11,0,0,1-.14-.21L21.86,6,21,6.06l-.31.25-.21.42Z"/></g><circle class="cls-12" cx="21.65" cy="7.78" r="0.42"/><circle class="cls-1" cx="21.79" cy="7.72" r="0.18"/><path class="cls-13" d="M21.61,9.35a2,2,0,1,1,2-2A2,2,0,0,1,21.61,9.35Zm0-3.19a1.21,1.21,0,1,0,1.21,1.21A1.21,1.21,0,0,0,21.61,6.16Z"/><path class="cls-13" d="M25,9.35a2,2,0,1,1,2-2A2,2,0,0,1,25,9.35Zm0-3.19a1.21,1.21,0,1,0,1.21,1.21A1.21,1.21,0,0,0,25,6.16Z"/><ellipse class="cls-3" cx="25.08" cy="7.4" rx="0.99" ry="1.1"/><g class="cls-14"><path class="cls-12" d="M24.1,7.3s0,.24.25.07A1.42,1.42,0,0,1,25.11,7a1,1,0,0,1,.71.34c.15.15.25,0,.24-.07l.15-.18s-.1-.43-.12-.44-.23-.31-.24-.31a2.11,2.11,0,0,1-.14-.21L25.37,6l-.84.11-.31.25L24,6.73Z"/></g><circle class="cls-12" cx="25.09" cy="7.78" r="0.42"/><circle class="cls-1" cx="25.23" cy="7.72" r="0.18"/></g></g></svg>