<svg xmlns="http://www.w3.org/2000/svg" xmlns:xlink="http://www.w3.org/1999/xlink" viewBox="0 0 115.75 89.33"><defs><style>.cls-1{fill:#fff;}.cls-2{fill:none;}.cls-3{fill:#e6e6e6;}.cls-4{fill:#606060;}.cls-5{clip-path:url(#clip-path);}.cls-6{clip-path:url(#clip-path-2);}.cls-7{fill:#e75339;}.cls-8{clip-path:url(#clip-path-3);}.cls-9{fill:#e04d33;}.cls-10{fill:#c23118;}.cls-11{clip-path:url(#clip-path-4);}.cls-12{fill:#d9482e;}.cls-13{fill:#a62610;}.cls-14{clip-path:url(#clip-path-5);}.cls-15{fill:#333;}.cls-16{clip-path:url(#clip-path-6);}.cls-17{clip-path:url(#clip-path-7);}.cls-18{clip-path:url(#clip-path-8);}</style><clipPath id="clip-path"><path class="cls-1" d="M53.93,43.26a7.13,7.13,0,0,1-6.84-7.38,7.13,7.13,0,0,1,6.84-7.38,7.13,7.13,0,0,1,6.84,7.38A7.13,7.13,0,0,1,53.93,43.26Zm0-10.64a3,3,0,0,0-2.72,3.26,3,3,0,0,0,2.72,3.26,3,3,0,0,0,2.72-3.26A3,3,0,0,0,53.93,32.62Z"/></clipPath><clipPath id="clip-path-2"><path class="cls-1" d="M71,43.26a7.13,7.13,0,0,1-6.84-7.38,6.86,6.86,0,1,1,13.67,0A7.13,7.13,0,0,1,71,43.26Zm0-10.64a3,3,0,0,0-2.72,3.26,2.76,2.76,0,1,0,5.43,0A3,3,0,0,0,71,32.62Z"/></clipPath><clipPath id="clip-path-3"><path class="cls-2" d="M45.1,26.56V66a24,24,0,0,0,3.41,6.61c2.22,2.85,8.08,10.15,14.85,10.66,0,0,9.33-1.21,16.88-14.52V26.56l-3.52-7.32s-6-3.25-6.4-3.35S61,17.32,60.39,17.12,50.83,19,50.83,19L46.76,22.5Z"/></clipPath><clipPath id="clip-path-4"><ellipse class="cls-3" cx="53.93" cy="35.88" rx="4.78" ry="5.32"/></clipPath><clipPath id="clip-path-5"><ellipse class="cls-3" cx="70.97" cy="35.88" rx="4.78" ry="5.32"/></clipPath><clipPath id="clip-path-6"><path class="cls-4" d="M61.38,68.61v3.27a2,2,0,0,0,.28.55c.18.24.67.84,1.23.88a2.16,2.16,0,0,0,1.4-1.2v-3.5L64,68l-.53-.28s-.77.12-.82.1-.79.16-.79.16l-.34.29Z"/></clipPath><clipPath id="clip-path-7"><ellipse class="cls-4" cx="62.11" cy="69.38" rx="0.4" ry="0.44"/></clipPath><clipPath id="clip-path-8"><ellipse class="cls-4" cx="63.52" cy="69.38" rx="0.4" ry="0.44"/></clipPath></defs><title>brand-mobile</title><g id="Layer_2" data-name="Layer 2"><g id="Layer_1-2" data-name="Layer 1"><path class="cls-1" d="M54.3,43.2a7.07,7.07,0,0,1-6.78-7.32,7.07,7.07,0,0,1,6.78-7.32,7.07,7.07,0,0,1,6.78,7.32A7.07,7.07,0,0,1,54.3,43.2Zm0-10.52a3,3,0,0,0-2.66,3.2,3,3,0,0,0,2.66,3.2A3,3,0,0,0,57,35.88,3,3,0,0,0,54.3,32.68Z"/><path class="cls-1" d="M63.47,85.34l-.21,0c-7-.53-12.61-6.79-16.25-11.45a28.21,28.21,0,0,1-3.84-7.2L43,66.34V26.14l2.13-4.91,4.93-4.08.47-.11c7.83-1.86,9.6-2.07,10.33-2s3.7-.46,5.47-.72c3.88-.57,4.09-.59,4.63-.45.28.07.63.17,6.81,3.54l.59.32,3.89,8.34V69.28l-.27.47c-8,14-17.92,15.5-18.34,15.55ZM47.16,65.63a23.79,23.79,0,0,0,3.08,5.7c1.8,2.3,7.22,9.23,13.08,9.86,1.27-.25,8.52-2.15,14.84-13V27l-2.93-6.29C73.15,19.59,71,18.43,70.09,18c-.67.08-2,.28-3.12.44-4.64.69-5.93.84-6.62.75-1,.1-4.93,1-8.36,1.77l-3.43,2.83L47.16,27ZM60.47,19.16Z"/><path class="cls-1" d="M63.41,85.34l-.21,0c-7.83-.6-14.21-8.77-16.31-11.45a26,26,0,0,1-3.75-7.26l-.09-.3V26.16l2-4.91,4.83-4.1.48-.11c7.84-1.86,9.62-2.07,10.34-2s3.72-.46,5.49-.72c3.88-.57,4.1-.59,4.64-.45.26.07.63.16,6.86,3.53l.59.32,4,8.34V69.28l-.27.47c-8,14-18,15.5-18.4,15.55ZM47.16,65.66a21.67,21.67,0,0,0,3,5.68c4.79,6.12,9.21,9.44,13.14,9.86,1.27-.25,8.57-2.14,14.9-13V27l-3-6.29C73,19.6,70.81,18.43,69.92,18c-.67.08-2,.28-3.14.44-4.66.69-5.95.84-6.64.75-1,.1-4.92,1-8.36,1.76l-3.31,2.81L47.16,27Zm13.11-46.5Z"/><path class="cls-1" d="M79.31,40l-1.67-9.84c0-.05-1-5.65-5-7.63-2.39-1.21-5.53-.87-9.33,1L56.31,27l3-4.37a21.58,21.58,0,0,1-5.46,0,5.28,5.28,0,0,0-4.36,1.22,7.82,7.82,0,0,0-2.19,5.94l.18,9-4.08-8.08c-.13-.26-3.22-6.49-1.15-12.19a11.3,11.3,0,0,1,5.94-6.35c.91-1.66,3.55-5,10.44-6.36a25.59,25.59,0,0,1,4.2-.43c2.08-.08,3.13-.12,5.1-1.77L72.28,0l-1,5.6a11.86,11.86,0,0,1-.45,1.63,15.62,15.62,0,0,1,2.54-.3l3.29-.1L75.35,9.68A1.51,1.51,0,0,0,76.1,9l1.8-4.38,2,4.3a10,10,0,0,1,0,7.15c1.51,2,3.69,6.36,1.78,14.22ZM64.67,9.43c-.57.06-1.13.08-1.7.1a21.44,21.44,0,0,0-3.57.35c-6.4,1.25-7.69,4.43-7.74,4.56l-.29.88-.83.32A7.49,7.49,0,0,0,46.1,20a7.82,7.82,0,0,0-.42,1.91,9.65,9.65,0,0,1,1-1.1,9.33,9.33,0,0,1,7.63-2.25h.11Zm4.89,8.26a10.88,10.88,0,0,1,5,1.17A11.37,11.37,0,0,1,78,21.59a6.46,6.46,0,0,0-1.8-3.46l-1.26-1,.69-1.5a7.51,7.51,0,0,0,.64-1.83,12.69,12.69,0,0,1-3.87.74l-1.88,0-.21-1.87a4.11,4.11,0,0,1,.06-1.12A23.34,23.34,0,0,0,67,12.78L54.69,18.56c4.6.49,6.89-.77,6.92-.79L64,16.45l.58,2.14A15.75,15.75,0,0,1,69.56,17.69Z"/><path class="cls-1" d="M55.93,74.91l-2-2.56c-.2-.25-1.88-2.5-1.08-4.9a21.46,21.46,0,0,0,.67-2.68l.35-2,2,.31a2.88,2.88,0,0,1,1.91,1.22l.13.21c.77-.15,1.74-.39,2.49-.57a36.69,36.69,0,0,1,4.38-.88,32.8,32.8,0,0,1,4.45-.1l0-.3,1.38-.73a2.23,2.23,0,0,1,2.6.58c.88.94,1.88,3.42.05,6.71l-2.12,3.82-1.63-4.14c-4.24.52-9.72,1.2-11.56,1.46A5.77,5.77,0,0,1,57.39,72ZM73.45,63.64v0Z"/><path class="cls-1" d="M60.79,72.87h-.62l-3.54-2.36,3.08-2.78.58-.1c2.75-.49,6.36-.73,7.94.9l2.23,2.3-3,1.08A21.47,21.47,0,0,1,60.79,72.87Z"/><path class="cls-1" d="M71,43.24a7.11,7.11,0,0,1-6.82-7.36,6.84,6.84,0,1,1,13.64,0A7.11,7.11,0,0,1,71,43.24Zm0-10.6a3,3,0,0,0-2.7,3.24,2.75,2.75,0,1,0,5.4,0A3,3,0,0,0,71,32.64Z"/><path class="cls-1" d="M53.93,43.24a7.11,7.11,0,0,1-6.82-7.36,7.11,7.11,0,0,1,6.82-7.36,7.11,7.11,0,0,1,6.82,7.36A7.11,7.11,0,0,1,53.93,43.24Zm0-10.6a3,3,0,0,0-2.7,3.24,3,3,0,0,0,2.7,3.24,3,3,0,0,0,2.7-3.24A3,3,0,0,0,53.93,32.64Z"/><path class="cls-1" d="M53.93,43.26a7.13,7.13,0,0,1-6.84-7.38,7.13,7.13,0,0,1,6.84-7.38,7.13,7.13,0,0,1,6.84,7.38A7.13,7.13,0,0,1,53.93,43.26Zm0-10.64a3,3,0,0,0-2.72,3.26,3,3,0,0,0,2.72,3.26,3,3,0,0,0,2.72-3.26A3,3,0,0,0,53.93,32.62Z"/><g class="cls-5"><path class="cls-1" d="M58.08,38.13a2.82,2.82,0,0,1-2-.93,2.89,2.89,0,0,0-2.13-1,6.73,6.73,0,0,0-2.23,1.18,2.79,2.79,0,0,1-2.82.56,2.82,2.82,0,0,1-1.71-2.16v0l-.56-3.42,1.52-3.07,2.34-1.83,5.37-.7,2.67,1.63.26.42s.28.46.44.7a12.51,12.51,0,0,1,.81,1l.3.4c.48.44.63,1.08,1.11,3.15l.23,1-1,1.29a2.77,2.77,0,0,1-1.34,1.54A2.6,2.6,0,0,1,58.08,38.13ZM50.87,33V33a6.34,6.34,0,0,1,3.41-.92,7.92,7.92,0,0,1,2.1.46l-.17-.23a5.4,5.4,0,0,1-.73-1L54.91,31l-2.81.37-.71.56Z"/></g><path class="cls-1" d="M54.33,41.85a4.11,4.11,0,1,1,4.11-4.11A4.11,4.11,0,0,1,54.33,41.85Zm0-4.11h0Z"/><path class="cls-1" d="M55,40.36A2.93,2.93,0,1,1,58,37.43,2.93,2.93,0,0,1,55,40.36Zm0-4.12a1.19,1.19,0,1,0,1.19,1.19A1.19,1.19,0,0,0,55,36.24Z"/><path class="cls-1" d="M54.13,45.51a9.78,9.78,0,1,1,9.78-9.78A9.79,9.79,0,0,1,54.13,45.51Zm0-15.45a5.66,5.66,0,1,0,5.66,5.66A5.67,5.67,0,0,0,54.13,30.06Z"/><path class="cls-1" d="M70.8,45.51a9.78,9.78,0,1,1,9.78-9.78A9.79,9.79,0,0,1,70.8,45.51Zm0-15.45a5.66,5.66,0,1,0,5.66,5.66A5.67,5.67,0,0,0,70.8,30.06Z"/><path class="cls-1" d="M71,43.26a7.13,7.13,0,0,1-6.84-7.38,6.86,6.86,0,1,1,13.67,0A7.13,7.13,0,0,1,71,43.26Zm0-10.64a3,3,0,0,0-2.72,3.26,2.76,2.76,0,1,0,5.43,0A3,3,0,0,0,71,32.62Z"/><g class="cls-6"><path class="cls-1" d="M75.12,38.13a2.82,2.82,0,0,1-2-.93,2.89,2.89,0,0,0-2.13-1,6.74,6.74,0,0,0-2.23,1.18,2.8,2.8,0,0,1-2.81.56,2.83,2.83,0,0,1-1.71-2.16v0l-.56-3.42,1.52-3.07,2.34-1.83,5.37-.7,2.67,1.63.26.42s.28.46.44.7a12.51,12.51,0,0,1,.81,1l.3.4c.48.44.63,1.08,1.11,3.15l.23,1-1,1.29a2.78,2.78,0,0,1-1.35,1.54A2.61,2.61,0,0,1,75.12,38.13ZM67.91,33V33a6.31,6.31,0,0,1,3.41-.92,7.92,7.92,0,0,1,2.1.46l-.17-.23a5.4,5.4,0,0,1-.73-1L71.94,31l-2.81.37-.71.56Z"/></g><path class="cls-1" d="M71,41.82a4.08,4.08,0,1,1,4.08-4.08A4.08,4.08,0,0,1,71,41.82Zm0-4.08a0,0,0,0,0,0,0l2,0Z"/><path class="cls-1" d="M71.7,40.35a2.91,2.91,0,1,1,2.91-2.91A2.92,2.92,0,0,1,71.7,40.35Zm0-4.12a1.21,1.21,0,1,0,1.21,1.21A1.21,1.21,0,0,0,71.7,36.23Z"/><ellipse class="cls-1" cx="54.3" cy="35.88" rx="4.72" ry="5.26"/><path class="cls-7" d="M45.1,26.56V66a26.25,26.25,0,0,0,3.52,6.61c2.22,2.85,8,10.15,14.79,10.66,0,0,9.27-1.21,16.82-14.52V26.56l-3.41-7.32s-6-3.25-6.35-3.35-9.31,1.43-9.89,1.22S51,19,51,19L46.87,22.5Z"/><g class="cls-8"><path class="cls-9" d="M46.95,22,78.07,78.9l-4.64,7.72s-14.12,2.13-14.6,1.93-7.15-3.46-7.45-3.66a51.77,51.77,0,0,1-5-4.78c-.48-.81-5.22-36.67-5.22-36.67s2.32-10.08,2.13-10.59S46.95,22,46.95,22Z"/></g><path class="cls-10" d="M45.23,29.82s-5.85-11.59,4.49-16.06c0,0,1.43-4.36,9.29-5.89,4.7-.91,6.47.51,10.23-2.63a11.17,11.17,0,0,1-3.13,5.68A21.83,21.83,0,0,1,73.41,9s-1.15,2.54-1,3.46c0,0,4.59-.1,5.64-2.64a8.17,8.17,0,0,1-.52,6.71S82.07,20,79.67,29.82c0,0-2.61-15.35-17.22-8.13a3.06,3.06,0,0,0,.21-2.13s-2.82,1.73-8.56,1S45.12,24.53,45.23,29.82Z"/><path class="cls-10" d="M55.55,71.08a3.72,3.72,0,0,1-.75-3,23.75,23.75,0,0,0,.75-3s.88.14.61,1.29,6-1,8.81-1.29a32.69,32.69,0,0,1,5.56,0s.95-.68.88-1.22,1.77,1.15,0,4.34l-.61-1.56S57.51,68.3,56.9,68.44a1.25,1.25,0,0,0-1,1.29A3.5,3.5,0,0,1,55.55,71.08Z"/><path class="cls-10" d="M60,70.26l.68-.61s4.95-.88,6.1.3a19.39,19.39,0,0,1-6,.85Z"/><ellipse class="cls-1" cx="70.97" cy="35.88" rx="4.76" ry="5.3"/><ellipse class="cls-1" cx="53.93" cy="35.88" rx="4.76" ry="5.3"/><ellipse class="cls-3" cx="53.93" cy="35.88" rx="4.78" ry="5.32"/><g class="cls-11"><path class="cls-12" d="M49.18,35.41s.2,1.14,1.22.34,2.74-1.71,3.66-1.61a4.92,4.92,0,0,1,3.46,1.63c.71.73,1.22-.06,1.17-.36l.71-.89s-.48-2.08-.56-2.13-1.09-1.5-1.17-1.52a10.23,10.23,0,0,1-.69-1l-1.63-1-4.09.53-1.52,1.19-1,2.06Z"/></g><circle class="cls-12" cx="54.33" cy="37.74" r="2.05"/><circle class="cls-1" cx="55.04" cy="37.43" r="0.87"/><path class="cls-13" d="M54.13,45.32a9.59,9.59,0,1,1,9.59-9.59A9.6,9.6,0,0,1,54.13,45.32Zm0-15.45A5.86,5.86,0,1,0,60,35.73,5.87,5.87,0,0,0,54.13,29.87Z"/><path class="cls-13" d="M70.8,45.32a9.59,9.59,0,1,1,9.59-9.59A9.6,9.6,0,0,1,70.8,45.32Zm0-15.45a5.86,5.86,0,1,0,5.86,5.86A5.87,5.87,0,0,0,70.8,29.87Z"/><ellipse class="cls-3" cx="70.97" cy="35.88" rx="4.78" ry="5.32"/><g class="cls-14"><path class="cls-12" d="M66.22,35.41s.2,1.14,1.22.34S70.19,34,71.1,34.14a4.92,4.92,0,0,1,3.46,1.63c.71.73,1.22-.06,1.17-.36l.71-.89s-.48-2.08-.56-2.13-1.09-1.5-1.17-1.52a10.23,10.23,0,0,1-.69-1l-1.63-1-4.09.53-1.52,1.19-1,2.06Z"/></g><circle class="cls-12" cx="71" cy="37.74" r="2.02"/><circle class="cls-1" cx="71.7" cy="37.43" r="0.85"/><path class="cls-1" d="M100.27,24.55a.78.78,0,0,1-.31-.06l-2.7-1a.84.84,0,0,1-.45-1.08l.5-1.23a8,8,0,0,1-.92-.92l-1.21.53a.8.8,0,0,1-.69,0,.79.79,0,0,1-.45-.45l-1.14-2.6a.81.81,0,0,1,0-.63.83.83,0,0,1,.46-.45l1.23-.54a7.35,7.35,0,0,1,0-1.36l-1.24-.5a.88.88,0,0,1-.44-1.12l1.05-2.63A.83.83,0,0,1,95,10l1.23.5a7.81,7.81,0,0,1,1-1l-.54-1.24a.81.81,0,0,1,0-.62.83.83,0,0,1,.46-.45l2.59-1.14a.81.81,0,0,1,.63,0,.83.83,0,0,1,.45.46l.54,1.23a7.19,7.19,0,0,1,1.36,0l.5-1.24A.83.83,0,0,1,104.23,6l2.7,1a.84.84,0,0,1,.45,1.08l-.5,1.23a7.93,7.93,0,0,1,.92.92L109,9.79a.91.91,0,0,1,1.14.47l1.14,2.59a.81.81,0,0,1,0,.63.83.83,0,0,1-.46.45l-1.23.54a7.35,7.35,0,0,1,0,1.36l1.26.51a.88.88,0,0,1,.43,1.11l-1.05,2.63a.83.83,0,0,1-1.08.44L108,20a7.9,7.9,0,0,1-1,1l.54,1.24a.81.81,0,0,1,0,.64.84.84,0,0,1-.45.44l-2.59,1.14a.8.8,0,0,1-1.08-.44l-.54-1.23a7.35,7.35,0,0,1-1.36,0L101,24A.87.87,0,0,1,100.27,24.55Zm-1.58-1.09.34.11,1.12.45a.34.34,0,0,0,.43-.19l.63-1.56h.18a6.68,6.68,0,0,0,1.61,0l.19,0,.69,1.59a.3.3,0,0,0,.42.18l2.59-1.14a.34.34,0,0,0,.19-.18.31.31,0,0,0,0-.25l-.69-1.58.15-.12a7.39,7.39,0,0,0,1.15-1.15l.12-.15,1.58.64a.34.34,0,0,0,.43-.19l1-2.62a.39.39,0,0,0-.18-.47l-1.57-.64V16a6.73,6.73,0,0,0,0-1.61l0-.19,1.59-.69a.33.33,0,0,0,.19-.18.31.31,0,0,0,0-.24l-1.14-2.59a.41.41,0,0,0-.49-.21l-1.55.68-.12-.15a7.42,7.42,0,0,0-1.11-1.11l-.15-.12L106.91,8a.34.34,0,0,0-.19-.43l-1.22-.47h0L105.16,7,104,6.51a.34.34,0,0,0-.43.19L103,8.26h-.18a6.79,6.79,0,0,0-1.61,0l-.19,0-.7-1.59a.33.33,0,0,0-.18-.19.3.3,0,0,0-.24,0L97.28,7.69a.34.34,0,0,0-.19.18.31.31,0,0,0,0,.24l.69,1.58-.15.12A7.34,7.34,0,0,0,96.49,11l-.12.15-1.58-.64a.34.34,0,0,0-.43.19l-1,2.62a.39.39,0,0,0,.19.48l1.56.63v.18a6.72,6.72,0,0,0,0,1.61l0,.19-1.59.69a.33.33,0,0,0-.19.18.31.31,0,0,0,0,.24l1.14,2.59a.33.33,0,0,0,.19.19.34.34,0,0,0,.29,0l1.55-.68.12.15a7.37,7.37,0,0,0,1.11,1.11l.15.12-.64,1.58a.34.34,0,0,0,.19.43l1.22.47Zm3.44-3.58a4.57,4.57,0,0,1-1.68-.32,4.44,4.44,0,0,1-.73-.39l-.19-.12h0l-.33-.25a4.72,4.72,0,0,1-.6-.61l-.15-.13A4.56,4.56,0,0,1,103.74,11a4.4,4.4,0,0,1,.73.39l.19.12h0l.33.25a4.67,4.67,0,0,1,.64.66l.11.09a4.6,4.6,0,0,1,.68,4.52h0A4.61,4.61,0,0,1,102.13,19.88Zm-1.95-1a3.61,3.61,0,0,0,.46.23A4.06,4.06,0,0,0,105.46,13h0l-.16-.16a3.9,3.9,0,0,0-.63-.67,4,4,0,0,0-.46-.33l-.2-.12v0a3.51,3.51,0,0,0-.46-.23,4.06,4.06,0,0,0-4.82,6.14h0l.16.16a3.9,3.9,0,0,0,.63.67,4.11,4.11,0,0,0,.46.33l.2.12Z"/><path class="cls-15" d="M68.58,50.81H57a5.4,5.4,0,0,0-5.41,5.41V83.93A5.4,5.4,0,0,0,57,89.33H68.58A5.41,5.41,0,0,0,74,83.93V56.22A5.41,5.41,0,0,0,68.58,50.81Zm3.32,33.11a3.32,3.32,0,0,1-3.32,3.29H57a3.3,3.3,0,0,1-3.29-3.29V56.22A3.3,3.3,0,0,1,57,52.93H68.58a3.32,3.32,0,0,1,3.32,3.29Z"/><path class="cls-1" d="M71.89,56.22V83.93a3.32,3.32,0,0,1-3.32,3.29H57a3.3,3.3,0,0,1-3.29-3.29V56.22A3.3,3.3,0,0,1,57,52.93H68.58A3.32,3.32,0,0,1,71.89,56.22Z"/><circle class="cls-15" cx="57.24" cy="56.65" r="1.21"/><circle class="cls-15" cx="59.56" cy="56.06" r="0.33"/><circle class="cls-15" cx="59.56" cy="57.27" r="0.33"/><ellipse class="cls-4" cx="62.14" cy="69.38" rx="0.39" ry="0.44"/><path class="cls-4" d="M61.38,68.61v3.27a2.18,2.18,0,0,0,.29.55c.18.24.67.84,1.23.88a2.15,2.15,0,0,0,1.4-1.2v-3.5L64,68l-.53-.28s-.77.12-.82.1-.79.16-.79.16l-.35.29Z"/><path class="cls-4" d="M61.38,68.61v3.27a2,2,0,0,0,.28.55c.18.24.67.84,1.23.88a2.16,2.16,0,0,0,1.4-1.2v-3.5L64,68l-.53-.28s-.77.12-.82.1-.79.16-.79.16l-.34.29Z"/><g class="cls-16"><path class="cls-4" d="M61.53,68.23l2.58,4.72-.39.64s-1.17.18-1.21.16l-.62-.3a4.29,4.29,0,0,1-.42-.4c0-.07-.43-3-.43-3s.19-.84.18-.88S61.53,68.23,61.53,68.23Z"/></g><path class="cls-4" d="M61.39,68.88s-.48-1,.37-1.33c0,0,.12-.36.77-.49.39-.08.54,0,.85-.22a.93.93,0,0,1-.26.47,1.81,1.81,0,0,1,.61-.16,1,1,0,0,0-.09.29s.38,0,.47-.22a.68.68,0,0,1,0,.56s.38.29.18,1.1a.92.92,0,0,0-1.43-.67.25.25,0,0,0,0-.18,1.17,1.17,0,0,1-.71.08C61.65,68,61.38,68.44,61.39,68.88Z"/><path class="cls-4" d="M62.24,72.3a.31.31,0,0,1-.06-.25,2,2,0,0,0,.06-.25s.07,0,.05.11.5-.08.73-.11a2.71,2.71,0,0,1,.46,0s.08-.06.07-.1.15.1,0,.36l-.05-.13-1.15.15a.1.1,0,0,0-.08.11A.29.29,0,0,1,62.24,72.3Z"/><path class="cls-4" d="M62.61,72.23l.06-.05s.41-.07.51,0a1.61,1.61,0,0,1-.49.07Z"/><ellipse class="cls-4" cx="63.52" cy="69.38" rx="0.4" ry="0.44"/><ellipse class="cls-4" cx="62.11" cy="69.38" rx="0.4" ry="0.44"/><ellipse class="cls-4" cx="62.11" cy="69.38" rx="0.4" ry="0.44"/><g class="cls-17"><path class="cls-4" d="M61.71,69.34s0,.09.1,0a.57.57,0,0,1,.3-.13.41.41,0,0,1,.29.14c.06.06.1,0,.1,0l.06-.07s0-.17,0-.18l-.1-.13-.06-.08-.13-.08-.34,0-.13.1-.08.17Z"/></g><circle class="cls-4" cx="62.14" cy="69.53" r="0.17"/><circle class="cls-4" cx="62.2" cy="69.51" r="0.07"/><circle class="cls-4" cx="62.12" cy="69.37" r="0.64"/><circle class="cls-4" cx="63.51" cy="69.37" r="0.64"/><ellipse class="cls-4" cx="63.52" cy="69.38" rx="0.4" ry="0.44"/><g class="cls-18"><path class="cls-4" d="M63.13,69.34s0,.09.1,0a.57.57,0,0,1,.3-.13.41.41,0,0,1,.29.14c.06.06.1,0,.1,0l.06-.07s0-.17,0-.18l-.1-.13-.06-.08-.13-.08-.34,0-.13.1-.08.17Z"/></g><circle class="cls-4" cx="63.52" cy="69.53" r="0.17"/><circle class="cls-4" cx="63.58" cy="69.51" r="0.07"/><path class="cls-1" d="M36.58,27.8A129.48,129.48,0,0,1,54.4,48.52a129,129,0,0,0-18.49-20Z"/><path class="cls-1" d="M40.57,21.65a24.66,24.66,0,0,1-8.1,9.91A24.06,24.06,0,0,1,20.55,36a24.85,24.85,0,0,1-6.39-.26,20,20,0,0,1-6.05-2,15.15,15.15,0,0,1-4.73-4.23A45.85,45.85,0,0,1,0,24.1a45.8,45.8,0,0,0,3.47,5.31A15,15,0,0,0,8.22,33.5a19.68,19.68,0,0,0,6,1.86,24.42,24.42,0,0,0,6.28.13A23.43,23.43,0,0,0,32,31a23.79,23.79,0,0,0,7.62-9.7Z"/><path class="cls-1" d="M92,29A87.68,87.68,0,0,0,81,43.93,88.18,88.18,0,0,1,91.23,28.36Z"/><path class="cls-1" d="M88.87,24.22a16.05,16.05,0,0,0,5.87,5.9,15.84,15.84,0,0,0,8.11,2.14A15.13,15.13,0,0,0,110.95,30a10.15,10.15,0,0,0,2.88-3.13A31.15,31.15,0,0,0,115.75,23a31.22,31.22,0,0,1-1.82,3.93,10.34,10.34,0,0,1-2.84,3.27,15.5,15.5,0,0,1-8.24,2.6,16.47,16.47,0,0,1-8.48-2,16.92,16.92,0,0,1-6.36-6Z"/><path class="cls-1" d="M15.69,18.17h0l11.75.55-4.82-15-9.29,7.35L8.06,12.82l2.28,7.07,3.77-1.22,2.61,8.11.79-.26-2.62-8.1ZM14.22,11.5l8-6.36,4.1,12.7-10.4-.49-1.85-5.74Zm-3.35,7.36L9.09,13.35,13.34,12l1.78,5.51Z"/><path class="cls-1" d="M28.17,13.15l-.73-.37A2.9,2.9,0,0,0,26.3,9.24l.37-.74a3.69,3.69,0,0,1,1.63,2A3.64,3.64,0,0,1,28.17,13.15Z"/><path class="cls-1" d="M31.39,14.52l-.73-.37a6.13,6.13,0,0,0-2.55-7.91l.38-.73A7,7,0,0,1,31.39,14.52Z"/></g></g></svg>