<svg xmlns="http://www.w3.org/2000/svg" xmlns:xlink="http://www.w3.org/1999/xlink" viewBox="0 0 142.55 108.77"><defs><style>.cls-1{fill:#fff;}.cls-2{fill:none;}.cls-3{fill:#e6e6e6;}.cls-4{clip-path:url(#clip-path);}.cls-5{clip-path:url(#clip-path-2);}.cls-6{fill:#e75339;}.cls-7{clip-path:url(#clip-path-3);}.cls-8{fill:#e04d33;}.cls-9{fill:#c23118;}.cls-10{clip-path:url(#clip-path-4);}.cls-11{fill:#d9482e;}.cls-12{fill:#a62610;}.cls-13{clip-path:url(#clip-path-5);}</style><clipPath id="clip-path"><path class="cls-1" d="M12.42,64.77a7.19,7.19,0,0,1,0-14.33,7.19,7.19,0,0,1,0,14.33Zm0-10.33a3.22,3.22,0,0,0,0,6.33,3.22,3.22,0,0,0,0-6.33Z"/></clipPath><clipPath id="clip-path-2"><path class="cls-1" d="M29,64.77a7.19,7.19,0,0,1,0-14.33,7.19,7.19,0,0,1,0,14.33Zm0-10.33a3.22,3.22,0,0,0,0,6.33,3.22,3.22,0,0,0,0-6.33Z"/></clipPath><clipPath id="clip-path-3"><path class="cls-2" d="M3.85,48.56V86.85a23.33,23.33,0,0,0,3.31,6.41C9.31,96,15,103.12,21.57,103.62c0,0,9.06-1.18,16.39-14.1v-41l-3.42-7.11S28.7,38.3,28.32,38.2s-9.07,1.39-9.63,1.19-9.28,1.87-9.28,1.87l-4,3.36Z"/></clipPath><clipPath id="clip-path-4"><ellipse class="cls-3" cx="12.42" cy="57.61" rx="4.64" ry="5.16"/></clipPath><clipPath id="clip-path-5"><ellipse class="cls-3" cx="28.96" cy="57.61" rx="4.64" ry="5.16"/></clipPath></defs><title>brand-strategy</title><g id="Layer_2" data-name="Layer 2"><g id="Layer_1-2" data-name="Layer 1"><path class="cls-1" d="M141,4.9H96V1.55a1.55,1.55,0,1,0-3.1,0V4.9h-45a1.52,1.52,0,0,0-1.55,1.55v60.7l3.1-2.38V8h90V63.45h-.65v.75H48.6l-2.25,3.1h34L67.45,90a1.54,1.54,0,0,0,.61,2.07,1.56,1.56,0,0,0,.74.2,1.44,1.44,0,0,0,1.33-.78L84.07,67.2h8.88v20a1.55,1.55,0,1,0,3.1,0v-20h9l13.92,24.28a1.63,1.63,0,0,0,1.35.82,1.27,1.27,0,0,0,.68-.17,1.56,1.56,0,0,0,.79-1,1.54,1.54,0,0,0-.13-1.17L108.5,67.3H141a1.51,1.51,0,0,0,1.55-1.55V6.45A1.52,1.52,0,0,0,141,4.9Z"/><circle class="cls-1" cx="117.51" cy="26.82" r="4" transform="translate(-3 29.19) rotate(-13.98)"/><path class="cls-1" d="M75.53,47.11c-.38.09-.72.31-.78.59a1.39,1.39,0,0,0-.16,1h0c.09.38.31.72.59.78l2.06,1.35-1.22,2a1.39,1.39,0,0,0-.16,1c.09.38.31.72.59.78a1.39,1.39,0,0,0,1,.16.86.86,0,0,0,.75-.72l1.1-2,1.91,1.25a1.21,1.21,0,0,0,1.88-.47,1.39,1.39,0,0,0,.16-1c-.09-.38-.31-.72-.59-.78l-2-1.1,1.22-2A1.39,1.39,0,0,0,82,47c-.06-.25-.31-.72-.59-.78a1.39,1.39,0,0,0-1-.16c-.25.06-.72.31-.75.72l-1.1,2-1.91-1.25C76.18,47.08,75.9,47,75.53,47.11Z"/><path class="cls-1" d="M80.68,23c-.38.09-.72.31-.78.59a1.39,1.39,0,0,0-.16,1h0c.09.38.31.72.59.78l2.06,1.35-1.22,2a1.39,1.39,0,0,0-.16,1c.06.25.31.72.59.78a1.39,1.39,0,0,0,1,.16.86.86,0,0,0,.75-.72l1.1-2,1.91,1.25a1.21,1.21,0,0,0,1.88-.47c.34-.22.25-.59.16-1s-.31-.72-.59-.78l-2-1.22,1.22-2a1,1,0,0,0,.16-1c-.09-.38-.31-.72-.59-.78a1.39,1.39,0,0,0-1-.16.86.86,0,0,0-.75.72l-1.1,2L81.8,23.22A1,1,0,0,0,80.68,23Z"/><path class="cls-1" d="M96.41,16.26c-.38.09-.72.31-.78.59a1.39,1.39,0,0,0-.16,1h0c.09.38.31.72.59.78L98.13,20l-1.22,2a1.39,1.39,0,0,0-.16,1c.06.25.31.72.59.78a1.39,1.39,0,0,0,1,.16.86.86,0,0,0,.75-.72l1.25-1.91,1.91,1.25a1.21,1.21,0,0,0,1.88-.47,1.39,1.39,0,0,0,.16-1,3.37,3.37,0,0,0-.62-.91l-2-1.22,1.22-2a1.39,1.39,0,0,0,.16-1c-.09-.38-.31-.72-.59-.78a1.39,1.39,0,0,0-1-.16.86.86,0,0,0-.75.72l-1.1,2-2.06-1.35A1.46,1.46,0,0,0,96.41,16.26Z"/><path class="cls-1" d="M111.42,30.93,105,29.61a1.31,1.31,0,0,0-1.48.93,2.35,2.35,0,0,0,0,.6l.06.09a1.12,1.12,0,0,0,.82.65l3.67.82-1,.65c-15.32,10.34-27,5.77-32.58,2.13l-.36-.23.17-.39a4.93,4.93,0,0,0-1-5.42,5,5,0,0,0-7.08-.17,4.89,4.89,0,0,0-1,5.65,3.65,3.65,0,0,0,.87,1.19,5.06,5.06,0,0,0,6,1l.26-.13.24.17c5,3.35,18.52,9.88,35.91-1.91l.9-.61-.38,3.27a1.13,1.13,0,0,0,.24.91,1.11,1.11,0,0,0,.81.41,1.7,1.7,0,0,0,1.36-.22.8.8,0,0,0,.31-.64v0l.63-6A1.27,1.27,0,0,0,111.42,30.93ZM71.93,34.74a2.71,2.71,0,0,1-1.79.68,2.81,2.81,0,0,1-1.84-.7l0,0a2.48,2.48,0,0,1-.68-1.86,2.35,2.35,0,0,1,.81-1.68,2.71,2.71,0,0,1,1.76-.74h0a2.57,2.57,0,0,1,1.68.72,1.18,1.18,0,0,1,.31.4,1.28,1.28,0,0,0,.14.21l.08.13A2.69,2.69,0,0,1,71.93,34.74Z"/><path class="cls-1" d="M12.78,64.72a7.13,7.13,0,0,1,0-14.21,7.13,7.13,0,0,1,0,14.21Zm0-10.21a3.16,3.16,0,0,0,0,6.21,3.16,3.16,0,0,0,0-6.21Z"/><path class="cls-1" d="M21.68,105.63l-.21,0C14.71,105.1,9.23,99,5.69,94.5A27.39,27.39,0,0,1,2,87.5l-.11-.32v-39l2.07-4.77,4.79-4,.45-.11c7.6-1.81,9.33-2,10-1.91s3.6-.45,5.31-.7c3.76-.56,4-.57,4.5-.44.27.07.61.16,6.61,3.44l.58.32L40,48.12V90l-.26.46c-7.73,13.64-17.4,15-17.81,15.1ZM5.85,86.5a23.1,23.1,0,0,0,3,5.54c1.75,2.23,7,9,12.7,9.57C22.78,101.36,29.82,99.52,36,89V49L33.11,42.9c-2-1.1-4.15-2.24-5-2.67-.65.08-1.95.27-3,.43-4.51.67-5.76.82-6.43.72-1,.1-4.78.93-8.12,1.71L7.2,45.85,5.85,49ZM18.77,41.38Z"/><path class="cls-1" d="M21.62,105.63l-.21,0C13.81,105,7.62,97.1,5.58,94.5a25.27,25.27,0,0,1-3.64-7l-.09-.29v-39l1.94-4.76,4.69-4,.47-.11c7.61-1.81,9.34-2,10-1.91s3.61-.45,5.33-.7c3.77-.56,4-.58,4.51-.44.26.07.61.16,6.66,3.43l.57.31,3.9,8.1V90l-.26.46c-7.73,13.64-17.46,15-17.87,15.1ZM5.85,86.52A21,21,0,0,0,8.73,92c4.65,5.95,8.94,9.17,12.76,9.57C22.73,101.36,29.81,99.53,36,89V49L33,42.91c-2.06-1.11-4.21-2.25-5.07-2.68-.65.08-2,.27-3,.43-4.52.67-5.78.82-6.44.72-1,.1-4.78.92-8.12,1.71L7.12,45.83,5.85,49ZM18.58,41.38Z"/><path class="cls-1" d="M37.07,61.61l-1.62-9.55s-1-5.49-4.81-7.41c-2.32-1.18-5.37-.85-9.06,1L14.73,49l2.91-4.24a21,21,0,0,1-5.3,0A5.13,5.13,0,0,0,8.1,45.91,7.59,7.59,0,0,0,6,51.68l.17,8.79-4-7.85c-.13-.25-3.13-6.31-1.12-11.84a11,11,0,0,1,5.76-6.16C7.71,33,10.28,29.75,17,28.44A24.85,24.85,0,0,1,21,28c2-.08,3-.11,4.95-1.71l4.24-3.54-1,5.44a11.52,11.52,0,0,1-.44,1.58,15.16,15.16,0,0,1,2.47-.29l3.2-.09-1.25,2.77a1.47,1.47,0,0,0,.72-.64l1.75-4.25,1.92,4.17a9.74,9.74,0,0,1,0,6.94c1.46,1.89,3.59,6.17,1.73,13.8ZM22.84,31.93c-.55.06-1.1.08-1.65.1a20.82,20.82,0,0,0-3.47.34c-6.21,1.21-7.47,4.3-7.52,4.43l-.28.86L9.12,38a7.27,7.27,0,0,0-4.3,4.18A7.6,7.6,0,0,0,4.41,44a9.37,9.37,0,0,1,1-1.06,9.06,9.06,0,0,1,7.41-2.18h.11Zm4.75,8a10.57,10.57,0,0,1,4.87,1.14,11,11,0,0,1,3.32,2.64A6.27,6.27,0,0,0,34,40.37l-1.23-1,.67-1.45a7.29,7.29,0,0,0,.63-1.78,12.32,12.32,0,0,1-3.76.72l-1.82,0-.21-1.81A4,4,0,0,1,28.39,34a22.66,22.66,0,0,0-3.29,1.19L13.16,40.8c4.47.48,6.69-.75,6.71-.76l2.28-1.29.56,2.08A15.29,15.29,0,0,1,27.6,39.95Z"/><path class="cls-1" d="M14.37,95.51,12.42,93c-.19-.24-1.83-2.43-1-4.76A20.84,20.84,0,0,0,12,85.65l.34-1.93,1.94.3a2.8,2.8,0,0,1,1.85,1.19l.13.2c.75-.15,1.69-.38,2.42-.55A35.63,35.63,0,0,1,22.94,84a31.85,31.85,0,0,1,4.32-.09l0-.29,1.34-.71a2.16,2.16,0,0,1,2.52.56c.85.91,1.83,3.32.05,6.52L29.08,93.7l-1.58-4c-4.11.51-9.44,1.17-11.23,1.41a5.6,5.6,0,0,1-.49,1.58Zm17-10.95v0Z"/><path class="cls-1" d="M19.08,93.52h-.61L15,91.23l3-2.7.56-.1c2.67-.48,6.17-.71,7.71.87l2.17,2.23-2.93,1A20.85,20.85,0,0,1,19.08,93.52Z"/><path class="cls-1" d="M29,64.76a7.17,7.17,0,0,1,0-14.3,7.17,7.17,0,0,1,0,14.3Zm0-10.3a3.2,3.2,0,0,0,0,6.3,3.2,3.2,0,0,0,0-6.3Z"/><path class="cls-1" d="M12.42,64.76a7.17,7.17,0,0,1,0-14.3,7.17,7.17,0,0,1,0,14.3Zm0-10.3a3.2,3.2,0,0,0,0,6.3,3.2,3.2,0,0,0,0-6.3Z"/><path class="cls-1" d="M12.42,64.77a7.19,7.19,0,0,1,0-14.33,7.19,7.19,0,0,1,0,14.33Zm0-10.33a3.22,3.22,0,0,0,0,6.33,3.22,3.22,0,0,0,0-6.33Z"/><g class="cls-4"><path class="cls-1" d="M16.45,59.79a2.74,2.74,0,0,1-2-.9,2.8,2.8,0,0,0-2.07-1,6.53,6.53,0,0,0-2.17,1.14,2.71,2.71,0,0,1-2.73.54,2.74,2.74,0,0,1-1.66-2.1v0l-.55-3.32,1.47-3L9,49.39l5.21-.68,2.59,1.58.25.41s.27.44.43.68a12.15,12.15,0,0,1,.79,1l.29.39c.47.43.61,1,1.08,3.05l.22.94-1,1.25a2.69,2.69,0,0,1-1.3,1.49A2.53,2.53,0,0,1,16.45,59.79Zm-7-5v0a6.16,6.16,0,0,1,3.32-.89,7.69,7.69,0,0,1,2,.45l-.17-.22a5.24,5.24,0,0,1-.7-.95l-.57-.35-2.73.36-.69.54Z"/></g><path class="cls-1" d="M12.81,63.41a4,4,0,1,1,4-4A4,4,0,0,1,12.81,63.41Zm0-4h0Z"/><path class="cls-1" d="M13.5,62a2.84,2.84,0,1,1,2.84-2.84A2.85,2.85,0,0,1,13.5,62Zm0-4a1.16,1.16,0,1,0,1.16,1.16A1.16,1.16,0,0,0,13.5,58Z"/><path class="cls-1" d="M12.61,67a9.5,9.5,0,1,1,9.5-9.5A9.51,9.51,0,0,1,12.61,67Zm0-15a5.5,5.5,0,1,0,5.5,5.5A5.51,5.51,0,0,0,12.61,52Z"/><path class="cls-1" d="M28.8,67a9.5,9.5,0,1,1,9.5-9.5A9.51,9.51,0,0,1,28.8,67Zm0-15a5.5,5.5,0,1,0,5.5,5.5A5.51,5.51,0,0,0,28.8,52Z"/><path class="cls-1" d="M29,64.77a7.19,7.19,0,0,1,0-14.33,7.19,7.19,0,0,1,0,14.33Zm0-10.33a3.22,3.22,0,0,0,0,6.33,3.22,3.22,0,0,0,0-6.33Z"/><g class="cls-5"><path class="cls-1" d="M33,59.79a2.74,2.74,0,0,1-2-.9,2.8,2.8,0,0,0-2.07-1,6.54,6.54,0,0,0-2.17,1.14A2.72,2.72,0,0,1,24,59.6a2.75,2.75,0,0,1-1.66-2.1v0l-.55-3.32,1.47-3,2.27-1.78,5.21-.68,2.59,1.58.25.41s.27.44.43.68a12.15,12.15,0,0,1,.79,1l.29.39c.47.43.61,1,1.08,3.05l.22.94-1,1.25a2.7,2.7,0,0,1-1.31,1.49A2.53,2.53,0,0,1,33,59.79Zm-7-5v.05a6.13,6.13,0,0,1,3.32-.89,7.69,7.69,0,0,1,2,.45l-.17-.22a5.24,5.24,0,0,1-.7-.95l-.57-.35-2.73.36-.69.54Z"/></g><path class="cls-1" d="M29,63.38a4,4,0,1,1,4-4A4,4,0,0,1,29,63.38Zm0-4a0,0,0,0,0,0,0l2,0Z"/><path class="cls-1" d="M29.67,61.95a2.83,2.83,0,1,1,2.83-2.83A2.83,2.83,0,0,1,29.67,61.95Zm0-4a1.17,1.17,0,1,0,1.17,1.17A1.17,1.17,0,0,0,29.67,57.95Z"/><ellipse class="cls-1" cx="12.78" cy="57.61" rx="4.59" ry="5.11"/><path class="cls-6" d="M3.85,48.56V86.85a25.49,25.49,0,0,0,3.42,6.41c2.16,2.76,7.79,9.85,14.36,10.35,0,0,9-1.18,16.33-14.1v-41l-3.31-7.11s-5.79-3.16-6.16-3.26-9,1.39-9.61,1.19-9.26,1.87-9.26,1.87L5.56,44.62Z"/><g class="cls-7"><path class="cls-8" d="M5.64,44.12,35.86,99.38l-4.51,7.5S17.65,109,17.18,108.76s-6.95-3.36-7.23-3.55a50.27,50.27,0,0,1-4.88-4.64C4.6,99.78,0,65,0,65s2.25-9.79,2.07-10.28S5.64,44.12,5.64,44.12Z"/></g><path class="cls-9" d="M4,51.72S-1.71,40.47,8.33,36.13c0,0,1.39-4.24,9-5.72,4.56-.89,6.28.49,9.93-2.56a10.85,10.85,0,0,1-3,5.52,21.2,21.2,0,0,1,7.09-1.87,11.29,11.29,0,0,0-1,3.36s4.46-.1,5.47-2.57a7.93,7.93,0,0,1-.51,6.51s4.46,3.36,2.13,12.93c0,0-2.53-14.9-16.72-7.89a3,3,0,0,0,.2-2.07s-2.74,1.68-8.31,1S3.87,46.59,4,51.72Z"/><path class="cls-9" d="M14,91.79a3.61,3.61,0,0,1-.72-2.89A23.06,23.06,0,0,0,14,86s.86.13.59,1.25,5.86-1,8.55-1.25a31.74,31.74,0,0,1,5.39,0s.92-.66.86-1.18,1.72,1.12,0,4.21l-.6-1.51S15.9,89.09,15.31,89.22a1.22,1.22,0,0,0-1,1.25A3.4,3.4,0,0,1,14,91.79Z"/><path class="cls-9" d="M18.29,91,19,90.4s4.8-.86,5.92.3a18.82,18.82,0,0,1-5.79.82Z"/><ellipse class="cls-1" cx="28.96" cy="57.61" rx="4.62" ry="5.15"/><ellipse class="cls-1" cx="12.42" cy="57.61" rx="4.62" ry="5.15"/><ellipse class="cls-3" cx="12.42" cy="57.61" rx="4.64" ry="5.16"/><g class="cls-10"><path class="cls-11" d="M7.81,57.15S8,58.26,9,57.48s2.66-1.66,3.55-1.57A4.78,4.78,0,0,1,15.9,57.5c.69.71,1.18-.06,1.13-.35l.69-.86s-.47-2-.54-2.07-1.06-1.46-1.13-1.48a9.93,9.93,0,0,1-.67-1l-1.58-1-4,.52L8.35,52.46l-1,2Z"/></g><circle class="cls-11" cx="12.81" cy="59.42" r="1.99"/><circle class="cls-1" cx="13.5" cy="59.11" r="0.84"/><path class="cls-12" d="M12.61,66.77a9.31,9.31,0,1,1,9.31-9.31A9.32,9.32,0,0,1,12.61,66.77Zm0-15a5.69,5.69,0,1,0,5.69,5.69A5.7,5.7,0,0,0,12.61,51.77Z"/><path class="cls-12" d="M28.8,66.77a9.31,9.31,0,1,1,9.31-9.31A9.32,9.32,0,0,1,28.8,66.77Zm0-15a5.69,5.69,0,1,0,5.69,5.69A5.7,5.7,0,0,0,28.8,51.77Z"/><ellipse class="cls-3" cx="28.96" cy="57.61" rx="4.64" ry="5.16"/><g class="cls-13"><path class="cls-11" d="M24.36,57.15s.2,1.11,1.18.33,2.66-1.66,3.55-1.57a4.78,4.78,0,0,1,3.36,1.58c.69.71,1.18-.06,1.13-.35l.69-.86s-.47-2-.54-2.07-1.06-1.46-1.13-1.48a9.93,9.93,0,0,1-.67-1l-1.58-1-4,.52L24.9,52.46l-1,2Z"/></g><circle class="cls-11" cx="28.99" cy="59.42" r="1.96"/><circle class="cls-1" cx="29.67" cy="59.12" r="0.83"/></g></g></svg>