<svg xmlns="http://www.w3.org/2000/svg" xmlns:xlink="http://www.w3.org/1999/xlink" viewBox="0 0 109.12 141.89"><defs><style>.cls-1{fill:#fff;}.cls-2{fill:none;}.cls-3{fill:#e6e6e6;}.cls-4{clip-path:url(#clip-path);}.cls-5{clip-path:url(#clip-path-2);}.cls-6{fill:#e75339;}.cls-7{clip-path:url(#clip-path-3);}.cls-8{fill:#e04d33;}.cls-9{fill:#c23118;}.cls-10{clip-path:url(#clip-path-4);}.cls-11{fill:#d9482e;}.cls-12{fill:#a62610;}.cls-13{clip-path:url(#clip-path-5);}</style><clipPath id="clip-path"><path class="cls-1" d="M42.37,96.57a7.4,7.4,0,0,1,0-14.76,7.4,7.4,0,0,1,0,14.76Zm0-10.64a3.31,3.31,0,0,0,0,6.52,3.31,3.31,0,0,0,0-6.52Z"/></clipPath><clipPath id="clip-path-2"><path class="cls-1" d="M59.41,96.57a7.4,7.4,0,1,1,6.84-7.38A7.13,7.13,0,0,1,59.41,96.57Zm0-10.64a3.31,3.31,0,0,0,0,6.52,3.31,3.31,0,0,0,0-6.52Z"/></clipPath><clipPath id="clip-path-3"><path class="cls-2" d="M33.55,79.88v39.43A24,24,0,0,0,37,125.92c2.22,2.85,8.08,10.15,14.85,10.66,0,0,9.33-1.21,16.88-14.52V79.88l-3.52-7.32s-6-3.25-6.4-3.35-9.34,1.43-9.92,1.22-9.55,1.93-9.55,1.93l-4.07,3.46Z"/></clipPath><clipPath id="clip-path-4"><ellipse class="cls-3" cx="42.37" cy="89.2" rx="4.78" ry="5.32"/></clipPath><clipPath id="clip-path-5"><ellipse class="cls-3" cx="59.41" cy="89.2" rx="4.78" ry="5.32"/></clipPath></defs><title>brand-planning</title><g id="Layer_2" data-name="Layer 2"><g id="Layer_1-2" data-name="Layer 1"><path class="cls-1" d="M38.82,35.23,28.37,36.87a.95.95,0,1,0,.29,1.87L39.12,37.1a.95.95,0,1,0-.29-1.87Z"/><path class="cls-1" d="M39.9,38.31,29.45,40a.95.95,0,1,0,.29,1.87l10.45-1.64a.95.95,0,1,0-.29-1.87Z"/><path class="cls-1" d="M38.51,41.33l-5.8,2a.95.95,0,1,0,.62,1.79l5.8-2a.95.95,0,1,0-.62-1.79Z"/><polygon class="cls-1" points="15.43 9.47 16.04 8.2 17.3 8.81 18.01 7.35 16.75 6.74 17.36 5.47 15.9 4.77 15.28 6.04 14.02 5.42 13.31 6.88 14.58 7.5 13.96 8.76 15.43 9.47"/><polygon class="cls-1" points="47.01 14.07 45.55 13.36 44.94 14.63 43.67 14.02 42.97 15.48 44.23 16.09 43.62 17.36 45.08 18.06 45.69 16.8 46.96 17.41 47.67 15.95 46.4 15.33 47.01 14.07"/><polygon class="cls-1" points="15.23 31.15 14.62 32.41 13.35 31.8 12.64 33.26 13.91 33.87 13.3 35.14 14.76 35.85 15.37 34.58 16.64 35.19 17.34 33.73 16.08 33.12 16.69 31.85 15.23 31.15"/><path class="cls-1" d="M27.86,4.53a2.33,2.33,0,1,0-3-1.43A2.33,2.33,0,0,0,27.86,4.53Zm-1.11-3.2a1.06,1.06,0,1,1-.65,1.35A1.06,1.06,0,0,1,26.75,1.33Z"/><path class="cls-1" d="M44.1,25.22a2.33,2.33,0,1,0,3,1.43A2.33,2.33,0,0,0,44.1,25.22Zm1.11,3.2a1.06,1.06,0,1,1,.65-1.35A1.06,1.06,0,0,1,45.22,28.42Z"/><path class="cls-1" d="M11.63,18.95a2.33,2.33,0,1,0-1.43,3A2.33,2.33,0,0,0,11.63,18.95Zm-3.2,1.11a1.06,1.06,0,1,1,1.35.65A1.06,1.06,0,0,1,8.43,20.06Z"/><path class="cls-1" d="M40.31,8.24a2.33,2.33,0,1,0-3-1.43A2.33,2.33,0,0,0,40.31,8.24ZM39.2,5a1.06,1.06,0,1,1-.65,1.35A1.06,1.06,0,0,1,39.2,5Z"/><path class="cls-1" d="M32.15,9.5a11.3,11.3,0,0,0-9.22,20.62,5.86,5.86,0,0,1,2.93,3.38l.79,2.26L39.17,33.4l-1.41-4A6,6,0,0,1,38,24.78,11.29,11.29,0,0,0,32.15,9.5ZM36.29,24A7.85,7.85,0,0,0,36,30l.69,2L27.89,33.6l-.25-.72a7.76,7.76,0,0,0-3.9-4.47,9.4,9.4,0,0,1-5.06-6.17,9.51,9.51,0,0,1,5-10.79A9.4,9.4,0,0,1,36.29,24Z"/><path class="cls-1" d="M105.62,62.19c1,1.11,2.3,1.49,3,.85s.57-2-.39-3.13-2.3-1.49-3-.85a1.63,1.63,0,0,0-.39,1.66l-3.76-.53a3.54,3.54,0,0,0-.79-1.5c-1-1.11-2.3-1.49-3-.85s-.59,1.76.14,2.81l-4.12,4.06a3.42,3.42,0,0,0-2.4-1l-2.36-6.4.1-.08a1.88,1.88,0,0,0,.6-1.54L94,54.09l.09.11c1,1.11,2.3,1.49,3,.85s.57-2-.39-3.13a3.52,3.52,0,0,0-1.4-1l-.57-3.66.15-.11c.74-.64.57-2-.39-3.13s-2.3-1.49-3-.85-.59,1.82.2,2.89l-3.87,7c-1.07-.94-2.41-1.16-3.23-.45a2.35,2.35,0,0,0-.23,2.9l-4,1.54c-1.12-1.19-2.59-2-3.41-1.28s-.18,2.48,1,3.79S80.63,61.78,81.5,61s.32-2.08-.58-3.31l3.95-1.5.08.1a3.29,3.29,0,0,0,2.74,1.29l2.38,6.45a1.52,1.52,0,0,0-.4,1.17l-4.57-.34a3.71,3.71,0,0,0-.69-1.16c-1-1.11-2.3-1.49-3-.85s-.57,2,.39,3.13,2.3,1.49,3,.85a1.41,1.41,0,0,0,.46-1.08l4.59.34a5.63,5.63,0,0,0,1.08,1.81l.15.17L90.1,74a1.8,1.8,0,0,0-2.1-.05c-.74.64-.57,2,.39,3.13s2.3,1.49,3,.85.57-2-.39-3.13l-.15-.17,1-5.79c1.08.83,2.2,1.05,2.86.49a1.47,1.47,0,0,0,.47-1.17l2.12.39a4,4,0,0,0,.39.53c1,1.11,2.3,1.49,3,.85s.57-2-.39-3.13-2.3-1.49-3-.85a1.61,1.61,0,0,0-.4,1.64L95,67.2a5.61,5.61,0,0,0-1.09-1.84l0,0,4.08-4c.92.85,2.05,1.08,2.72.51a1.32,1.32,0,0,0,.42-.75l4.13.58A4,4,0,0,0,105.62,62.19ZM80.93,60.37c-.23.2-1.31-.18-2.38-1.42s-1.29-2.36-1.05-2.56,1.31.18,2.38,1.42S81.16,60.17,80.93,60.37Zm15.65-6c-.31.27-1.15,0-1.81-.75S94,52,94.29,51.73s1.15,0,1.81.75S96.89,54.12,96.58,54.39Zm-2.13-3.62a1.3,1.3,0,0,0-.73.3,1.88,1.88,0,0,0-.18,2.26L89,54.8a4,4,0,0,0-.59-1.1l3.87-7a2.82,2.82,0,0,0,1.6.72Zm-2.37-7c.31-.27,1.15,0,1.81.75s.79,1.63.48,1.9-1.15,0-1.81-.75S91.77,44.08,92.08,43.81ZM85.62,55.75c-.77-.9-1-2-.44-2.51s1.65-.1,2.42.8,1,2,.44,2.51S86.39,56.65,85.62,55.75Zm-3.2,9.69c-.65-.76-.79-1.63-.48-1.9s1.15,0,1.81.75.79,1.63.48,1.9S83.07,66.2,82.42,65.44Zm8.44,11.79c-.31.27-1.15,0-1.81-.75s-.79-1.63-.48-1.9,1.15,0,1.81.75S91.17,77,90.86,77.24Zm8.8-9.9c.65.76.79,1.63.48,1.9s-1.15,0-1.81-.75-.79-1.63-.48-1.9S99,66.58,99.66,67.34Zm-5.53,1.3c-.35.3-1.48,0-2.54-1.27s-1.23-2.4-.89-2.7,1.48,0,2.54,1.27S94.48,68.34,94.13,68.64Zm4.18-8.23c-.65-.76-.79-1.63-.48-1.9s1.15,0,1.81.75.79,1.63.48,1.9S99,61.17,98.31,60.41Zm9.3.07c.65.76.79,1.63.48,1.9s-1.15,0-1.81-.75-.79-1.63-.48-1.9S107,59.72,107.61,60.48Z"/><path class="cls-1" d="M76.25,38.17l-1.13-.46a5.65,5.65,0,0,0,0-1.34l1.13-.49a.44.44,0,0,0,.25-.6l-.92-2.09a.46.46,0,0,0-.27-.26.44.44,0,0,0-.38,0l-1.11.49a6.09,6.09,0,0,0-.92-.92l.46-1.13a.47.47,0,0,0-.25-.6l-1.27-.49v0l-.9-.36a.47.47,0,0,0-.6.25l-.46,1.13a5.65,5.65,0,0,0-1.34,0L68,30.2a.44.44,0,0,0-.6-.25l-2.09.92a.44.44,0,0,0-.25.6l.49,1.13a6.1,6.1,0,0,0-1,1l-1.13-.46a.47.47,0,0,0-.6.25L62,35.46a.51.51,0,0,0,.25.64l1.13.46a5.65,5.65,0,0,0,0,1.34l-1.13.49a.44.44,0,0,0-.25.6L63,41.08a.46.46,0,0,0,.27.26.44.44,0,0,0,.38,0l1.11-.49a6.1,6.1,0,0,0,.92.92l-.46,1.13a.47.47,0,0,0,.25.6l1.27.49v0l.9.36a.47.47,0,0,0,.6-.25L68.69,43a5.65,5.65,0,0,0,1.34,0l.5,1.13a.44.44,0,0,0,.6.25l2.09-.92a.44.44,0,0,0,.25-.6L73,41.67a6.09,6.09,0,0,0,1-1l1.13.46a.47.47,0,0,0,.6-.25l.85-2.12A.51.51,0,0,0,76.25,38.17Zm-3.71.28a3.41,3.41,0,0,1-5.08,1.65h0a3.44,3.44,0,0,1-.4-.28,3.32,3.32,0,0,1-.54-.58h0a3.45,3.45,0,0,1,4.56-5.08h0a3.45,3.45,0,0,1,.4.28A3.32,3.32,0,0,1,72,35h0A3.48,3.48,0,0,1,72.54,38.46Z"/><path class="cls-1" d="M15.37,80.36a.59.59,0,0,1,.69.46l1.15-.24a1.77,1.77,0,0,0-1.49-1.39l-.14-.68-1.15.24.14.68a1.76,1.76,0,0,0,1.26,3.24.59.59,0,1,1-.46.69l-1.15.24A1.77,1.77,0,0,0,15.71,85l.14.68L17,85.44l-.14-.68a1.76,1.76,0,0,0-1.26-3.24.59.59,0,1,1-.24-1.15Z"/><path class="cls-1" d="M14.66,76.9A5.3,5.3,0,1,0,20.92,81,5.3,5.3,0,0,0,14.66,76.9Zm1.88,9.23a4.12,4.12,0,1,1,3.22-4.86A4.12,4.12,0,0,1,16.55,86.13Z"/><path class="cls-1" d="M4.95,73.47a.59.59,0,0,1,.69.46L6.8,73.7a1.77,1.77,0,0,0-1.49-1.39l-.14-.68L4,71.86l.14.68a1.76,1.76,0,0,0,1.26,3.24.59.59,0,1,1-.46.69l-1.15.24A1.77,1.77,0,0,0,5.29,78.1l.14.68,1.15-.24-.14-.68a1.76,1.76,0,0,0-1.26-3.24.59.59,0,1,1-.24-1.15Z"/><path class="cls-1" d="M10.49,74.14A5.3,5.3,0,1,0,6.36,80.4,5.3,5.3,0,0,0,10.49,74.14Zm-4.37,5.1a4.12,4.12,0,1,1,3.22-4.86A4.12,4.12,0,0,1,6.13,79.24Z"/><path class="cls-1" d="M12.66,67.09a.59.59,0,0,1-.69-.46l-1.15.24a1.77,1.77,0,0,0,1.49,1.39l.14.68,1.15-.24L13.45,68a1.76,1.76,0,0,0-1.26-3.24.59.59,0,1,1,.46-.69l1.15-.24a1.77,1.77,0,0,0-1.49-1.39l-.14-.68L11,62l.14.68a1.76,1.76,0,0,0,1.26,3.24.59.59,0,0,1,.24,1.15Z"/><path class="cls-1" d="M13.37,70.55a5.3,5.3,0,1,0-6.25-4.13A5.3,5.3,0,0,0,13.37,70.55Zm-1.88-9.23a4.12,4.12,0,1,1-3.22,4.86A4.12,4.12,0,0,1,11.48,61.32Z"/><path class="cls-1" d="M5.9,81.09l.35,1.73A1.77,1.77,0,0,0,8.34,84.2l1.73-.35-.24-1.15L8.1,83a.59.59,0,0,1-.69-.46l-.35-1.73Z"/><path class="cls-1" d="M13.14,72.4a.59.59,0,0,1-.46.69L11,73.45l.24,1.15,1.73-.35a1.77,1.77,0,0,0,1.38-2.08L14.06,71l-1.15.24Z"/><path class="cls-1" d="M42.75,96.52a7.34,7.34,0,0,1,0-14.64,7.34,7.34,0,0,1,0,14.64Zm0-10.52a3.25,3.25,0,0,0,0,6.4,3.25,3.25,0,0,0,0-6.4Z"/><path class="cls-1" d="M51.91,138.65l-.21,0c-7-.53-12.61-6.79-16.25-11.45A28.21,28.21,0,0,1,31.6,120l-.11-.33V79.45l2.13-4.91,4.93-4.08.47-.11c7.83-1.86,9.6-2.07,10.33-2s3.7-.46,5.47-.72c3.88-.57,4.09-.59,4.63-.45.28.07.63.17,6.81,3.54l.59.32,3.89,8.34V122.6l-.27.47c-8,14-17.92,15.5-18.34,15.55Zm-16.3-19.71a23.79,23.79,0,0,0,3.08,5.7c1.8,2.3,7.22,9.23,13.08,9.86,1.27-.25,8.52-2.15,14.84-13V80.34L63.69,74c-2.09-1.14-4.27-2.31-5.15-2.75-.67.08-2,.28-3.12.44-4.64.69-5.93.84-6.62.75-1,.1-4.93,1-8.36,1.77L37,77.09l-1.4,3.22ZM48.92,72.48Z"/><path class="cls-1" d="M51.86,138.65l-.21,0c-7.83-.6-14.21-8.77-16.31-11.45a26,26,0,0,1-3.75-7.26l-.09-.3V79.48l2-4.91,4.83-4.1.48-.11c7.84-1.86,9.62-2.07,10.34-2s3.72-.46,5.49-.72c3.88-.57,4.1-.59,4.64-.45.26.07.63.16,6.86,3.53l.59.32,4,8.34V122.6l-.27.47c-8,14-18,15.5-18.4,15.55ZM35.61,119a21.67,21.67,0,0,0,3,5.68c4.79,6.12,9.21,9.44,13.14,9.86,1.27-.25,8.57-2.14,14.9-13V80.35l-3-6.29c-2.12-1.14-4.33-2.32-5.22-2.76-.67.08-2,.28-3.14.44-4.66.69-5.95.84-6.64.75-1,.1-4.92,1-8.36,1.76l-3.31,2.81-1.31,3.22Zm13.11-46.5Z"/><path class="cls-1" d="M67.76,93.31l-1.67-9.84c0-.05-1-5.65-5-7.63-2.39-1.21-5.53-.87-9.33,1l-7.05,3.48,3-4.37a21.58,21.58,0,0,1-5.46,0,5.28,5.28,0,0,0-4.36,1.22,7.82,7.82,0,0,0-2.19,5.94l.18,9-4.08-8.08c-.13-.26-3.22-6.49-1.15-12.19a11.3,11.3,0,0,1,5.94-6.35c.91-1.66,3.55-5,10.44-6.36a25.59,25.59,0,0,1,4.2-.43c2.08-.08,3.13-.12,5.1-1.77l4.36-3.65-1,5.6a11.86,11.86,0,0,1-.45,1.63,15.62,15.62,0,0,1,2.54-.3l3.29-.1L63.8,63a1.51,1.51,0,0,0,.74-.66L66.34,58l2,4.3a10,10,0,0,1,0,7.15c1.51,2,3.69,6.36,1.78,14.22ZM53.11,62.75c-.57.06-1.13.08-1.7.1a21.44,21.44,0,0,0-3.57.35c-6.4,1.25-7.69,4.43-7.74,4.56l-.29.88L39,69a7.49,7.49,0,0,0-4.43,4.31,7.82,7.82,0,0,0-.42,1.91,9.65,9.65,0,0,1,1-1.1,9.33,9.33,0,0,1,7.63-2.25h.11ZM58,71a10.88,10.88,0,0,1,5,1.17,11.37,11.37,0,0,1,3.42,2.72,6.46,6.46,0,0,0-1.8-3.46l-1.26-1,.69-1.5a7.51,7.51,0,0,0,.64-1.83,12.69,12.69,0,0,1-3.87.74l-1.88,0L58.77,66a4.11,4.11,0,0,1,.06-1.12,23.34,23.34,0,0,0-3.39,1.22L43.14,71.88c4.6.49,6.89-.77,6.92-.79l2.34-1.33L53,71.9A15.75,15.75,0,0,1,58,71Z"/><path class="cls-1" d="M44.38,128.23l-2-2.56c-.2-.25-1.88-2.5-1.08-4.9a21.46,21.46,0,0,0,.67-2.68l.35-2,2,.31a2.88,2.88,0,0,1,1.91,1.22l.13.21c.77-.15,1.74-.39,2.49-.57a36.69,36.69,0,0,1,4.38-.88,32.8,32.8,0,0,1,4.45-.1l0-.3,1.38-.73a2.23,2.23,0,0,1,2.6.58c.88.94,1.88,3.42.05,6.71l-2.12,3.82-1.63-4.14c-4.24.52-9.72,1.2-11.56,1.46a5.77,5.77,0,0,1-.51,1.63ZM61.89,117v0Z"/><path class="cls-1" d="M49.24,126.18h-.62l-3.54-2.36L48.16,121l.58-.1c2.75-.49,6.36-.73,7.94.9l2.23,2.3-3,1.08A21.47,21.47,0,0,1,49.24,126.18Z"/><path class="cls-1" d="M59.41,96.56a7.38,7.38,0,1,1,6.82-7.36A7.11,7.11,0,0,1,59.41,96.56Zm0-10.6a3.3,3.3,0,0,0,0,6.48,3.3,3.3,0,0,0,0-6.48Z"/><path class="cls-1" d="M42.37,96.56a7.38,7.38,0,0,1,0-14.72,7.38,7.38,0,0,1,0,14.72Zm0-10.6a3.3,3.3,0,0,0,0,6.48,3.3,3.3,0,0,0,0-6.48Z"/><path class="cls-1" d="M42.37,96.57a7.4,7.4,0,0,1,0-14.76,7.4,7.4,0,0,1,0,14.76Zm0-10.64a3.31,3.31,0,0,0,0,6.52,3.31,3.31,0,0,0,0-6.52Z"/><g class="cls-4"><path class="cls-1" d="M46.53,91.45a2.82,2.82,0,0,1-2-.93,2.89,2.89,0,0,0-2.13-1,6.73,6.73,0,0,0-2.23,1.18,2.79,2.79,0,0,1-2.82.56,2.82,2.82,0,0,1-1.71-2.16v0L35,85.63l1.52-3.07,2.34-1.83,5.37-.7,2.67,1.63.26.42s.28.46.44.7a12.51,12.51,0,0,1,.81,1l.3.4c.48.44.63,1.08,1.11,3.15l.23,1-1,1.29a2.77,2.77,0,0,1-1.34,1.54A2.6,2.6,0,0,1,46.53,91.45Zm-7.21-5.18v.05a6.34,6.34,0,0,1,3.41-.92,7.92,7.92,0,0,1,2.1.46l-.17-.23a5.4,5.4,0,0,1-.73-1l-.59-.36-2.81.37-.71.56Z"/></g><path class="cls-1" d="M42.78,95.17a4.11,4.11,0,1,1,4.11-4.11A4.11,4.11,0,0,1,42.78,95.17Zm0-4.11h0Z"/><path class="cls-1" d="M43.49,93.67a2.93,2.93,0,1,1,2.93-2.93A2.93,2.93,0,0,1,43.49,93.67Zm0-4.12a1.19,1.19,0,1,0,1.19,1.19A1.19,1.19,0,0,0,43.49,89.55Z"/><path class="cls-1" d="M42.58,98.83A9.78,9.78,0,1,1,52.36,89,9.79,9.79,0,0,1,42.58,98.83Zm0-15.45A5.66,5.66,0,1,0,48.24,89,5.67,5.67,0,0,0,42.58,83.38Z"/><path class="cls-1" d="M59.24,98.83A9.78,9.78,0,1,1,69,89,9.79,9.79,0,0,1,59.24,98.83Zm0-15.45A5.66,5.66,0,1,0,64.91,89,5.67,5.67,0,0,0,59.24,83.38Z"/><path class="cls-1" d="M59.41,96.57a7.4,7.4,0,1,1,6.84-7.38A7.13,7.13,0,0,1,59.41,96.57Zm0-10.64a3.31,3.31,0,0,0,0,6.52,3.31,3.31,0,0,0,0-6.52Z"/><g class="cls-5"><path class="cls-1" d="M63.57,91.45a2.82,2.82,0,0,1-2-.93,2.89,2.89,0,0,0-2.13-1,6.74,6.74,0,0,0-2.23,1.18,2.8,2.8,0,0,1-2.81.56,2.83,2.83,0,0,1-1.71-2.16v0l-.56-3.42,1.52-3.07,2.34-1.83L61.3,80,64,81.66l.26.42s.28.46.44.7a12.51,12.51,0,0,1,.81,1l.3.4c.48.44.63,1.08,1.11,3.15l.23,1-1,1.29a2.78,2.78,0,0,1-1.35,1.54A2.61,2.61,0,0,1,63.57,91.45Zm-7.21-5.18v.05a6.31,6.31,0,0,1,3.41-.92,7.92,7.92,0,0,1,2.1.46l-.17-.23a5.4,5.4,0,0,1-.73-1l-.59-.36-2.81.37-.71.56Z"/></g><path class="cls-1" d="M59.45,95.13a4.08,4.08,0,1,1,4.08-4.08A4.08,4.08,0,0,1,59.45,95.13Zm0-4.08a0,0,0,0,0,0,0l2,0Z"/><path class="cls-1" d="M60.15,93.66a2.91,2.91,0,1,1,2.91-2.91A2.92,2.92,0,0,1,60.15,93.66Zm0-4.12a1.21,1.21,0,1,0,1.21,1.21A1.21,1.21,0,0,0,60.15,89.54Z"/><ellipse class="cls-1" cx="42.75" cy="89.2" rx="4.72" ry="5.26"/><path class="cls-6" d="M33.55,79.88v39.43a26.25,26.25,0,0,0,3.52,6.61c2.22,2.85,8,10.15,14.79,10.66,0,0,9.27-1.21,16.82-14.52V79.88l-3.41-7.32s-6-3.25-6.35-3.35S49.61,70.64,49,70.43s-9.54,1.93-9.54,1.93l-4.18,3.46Z"/><g class="cls-7"><path class="cls-8" d="M35.39,75.31l31.13,56.91-4.64,7.72s-14.12,2.13-14.6,1.93-7.15-3.46-7.45-3.66a51.77,51.77,0,0,1-5-4.78c-.48-.81-5.22-36.67-5.22-36.67s2.32-10.08,2.13-10.59S35.39,75.31,35.39,75.31Z"/></g><path class="cls-9" d="M33.67,83.13s-5.85-11.59,4.49-16.06c0,0,1.43-4.36,9.29-5.89,4.7-.91,6.47.51,10.23-2.63a11.17,11.17,0,0,1-3.13,5.68,21.83,21.83,0,0,1,7.31-1.93s-1.15,2.54-1,3.46c0,0,4.59-.1,5.64-2.64a8.17,8.17,0,0,1-.52,6.71s4.59,3.46,2.19,13.31c0,0-2.61-15.35-17.22-8.13a3.06,3.06,0,0,0,.21-2.13s-2.82,1.73-8.56,1S33.57,77.85,33.67,83.13Z"/><path class="cls-9" d="M44,124.39a3.72,3.72,0,0,1-.75-3,23.75,23.75,0,0,0,.75-3s.88.14.61,1.29,6-1,8.81-1.29a32.69,32.69,0,0,1,5.56,0s.95-.68.88-1.22,1.77,1.15,0,4.34L59.24,120S46,121.62,45.35,121.75a1.25,1.25,0,0,0-1,1.29A3.5,3.5,0,0,1,44,124.39Z"/><path class="cls-9" d="M48.43,123.58l.68-.61s4.95-.88,6.1.3a19.39,19.39,0,0,1-6,.85Z"/><ellipse class="cls-1" cx="59.41" cy="89.2" rx="4.76" ry="5.3"/><ellipse class="cls-1" cx="42.37" cy="89.2" rx="4.76" ry="5.3"/><ellipse class="cls-3" cx="42.37" cy="89.2" rx="4.78" ry="5.32"/><g class="cls-10"><path class="cls-11" d="M37.63,88.72s.2,1.14,1.22.34,2.74-1.71,3.66-1.61A4.92,4.92,0,0,1,46,89.08c.71.73,1.22-.06,1.17-.36l.71-.89s-.48-2.08-.56-2.13-1.09-1.5-1.17-1.52a10.23,10.23,0,0,1-.69-1l-1.63-1-4.09.53-1.52,1.19-1,2.06Z"/></g><circle class="cls-11" cx="42.78" cy="91.06" r="2.05"/><circle class="cls-1" cx="43.49" cy="90.74" r="0.87"/><path class="cls-12" d="M42.58,98.63A9.59,9.59,0,1,1,52.17,89,9.6,9.6,0,0,1,42.58,98.63Zm0-15.45A5.86,5.86,0,1,0,48.44,89,5.87,5.87,0,0,0,42.58,83.18Z"/><path class="cls-12" d="M59.24,98.63A9.59,9.59,0,1,1,68.83,89,9.6,9.6,0,0,1,59.24,98.63Zm0-15.45A5.86,5.86,0,1,0,65.1,89,5.87,5.87,0,0,0,59.24,83.18Z"/><ellipse class="cls-3" cx="59.41" cy="89.2" rx="4.78" ry="5.32"/><g class="cls-13"><path class="cls-11" d="M54.67,88.72s.2,1.14,1.22.34,2.74-1.71,3.66-1.61A4.92,4.92,0,0,1,63,89.08c.71.73,1.22-.06,1.17-.36l.71-.89s-.48-2.08-.56-2.13-1.09-1.5-1.17-1.52a10.23,10.23,0,0,1-.69-1l-1.63-1-4.09.53-1.52,1.19-1,2.06Z"/></g><circle class="cls-11" cx="59.45" cy="91.06" r="2.02"/><circle class="cls-1" cx="60.15" cy="90.75" r="0.85"/></g></g></svg>