<svg xmlns="http://www.w3.org/2000/svg" xmlns:xlink="http://www.w3.org/1999/xlink" viewBox="0 0 163.52 125.68"><defs><style>.cls-1{fill:#c23118;}.cls-2{fill:none;}.cls-3,.cls-8{fill:#fff;}.cls-4{fill:#e6e6e6;}.cls-5{clip-path:url(#clip-path);}.cls-6{clip-path:url(#clip-path-2);}.cls-7{clip-path:url(#clip-path-3);}.cls-8{font-size:12px;font-family:FuturaBT-Heavy, Futura Hv BT;}.cls-9{clip-path:url(#clip-path-4);}.cls-10{clip-path:url(#clip-path-5);}.cls-11{clip-path:url(#clip-path-6);}.cls-12{fill:#e75339;}.cls-13{clip-path:url(#clip-path-7);}.cls-14{fill:#e04d33;}.cls-15{clip-path:url(#clip-path-8);}.cls-16{fill:#d9482e;}.cls-17{fill:#a62610;}.cls-18{clip-path:url(#clip-path-9);}</style><clipPath id="clip-path"><path class="cls-1" d="M88.29,103.64v3.78a2.3,2.3,0,0,0,.33.63c.21.27.77,1,1.42,1a2.49,2.49,0,0,0,1.62-1.39v-4l-.34-.7-.61-.32s-.89.14-1,.12-.92.18-.92.18l-.39.33Z"/></clipPath><clipPath id="clip-path-2"><ellipse class="cls-1" cx="89.14" cy="104.53" rx="0.46" ry="0.51"/></clipPath><clipPath id="clip-path-3"><ellipse class="cls-1" cx="90.77" cy="104.53" rx="0.46" ry="0.51"/></clipPath><clipPath id="clip-path-4"><rect class="cls-2" x="65.85" y="37.55" width="47.68" height="47.87"/></clipPath><clipPath id="clip-path-5"><path class="cls-3" d="M80.34,81.68A7.19,7.19,0,1,1,87,74.51,6.92,6.92,0,0,1,80.34,81.68Zm0-10.33A3.22,3.22,0,1,0,83,74.51,2.94,2.94,0,0,0,80.34,71.35Z"/></clipPath><clipPath id="clip-path-6"><path class="cls-3" d="M96.88,81.68a7.19,7.19,0,1,1,6.64-7.17A6.92,6.92,0,0,1,96.88,81.68Zm0-10.33a3.22,3.22,0,1,0,2.64,3.16A2.94,2.94,0,0,0,96.88,71.35Z"/></clipPath><clipPath id="clip-path-7"><path class="cls-2" d="M71.77,65.47v38.29a23.33,23.33,0,0,0,3.31,6.41c2.16,2.76,7.84,9.85,14.41,10.35,0,0,9.06-1.18,16.39-14.1v-41l-3.42-7.11s-5.84-3.16-6.22-3.26-9.07,1.39-9.63,1.19-9.28,1.87-9.28,1.87l-4,3.36Z"/></clipPath><clipPath id="clip-path-8"><ellipse class="cls-4" cx="80.34" cy="74.51" rx="4.64" ry="5.16"/></clipPath><clipPath id="clip-path-9"><ellipse class="cls-4" cx="96.88" cy="74.51" rx="4.64" ry="5.16"/></clipPath></defs><title>brand-develop</title><g id="Layer_2" data-name="Layer 2"><g id="Layer_1-2" data-name="Layer 1"><ellipse class="cls-1" cx="89.17" cy="104.53" rx="0.45" ry="0.5"/><path class="cls-1" d="M88.29,103.64v3.78a2.51,2.51,0,0,0,.34.63c.21.27.77,1,1.42,1a2.49,2.49,0,0,0,1.61-1.39v-4l-.33-.7-.61-.32s-.89.14-.95.12-.91.18-.91.18l-.4.33Z"/><path class="cls-1" d="M88.29,103.64v3.78a2.3,2.3,0,0,0,.33.63c.21.27.77,1,1.42,1a2.49,2.49,0,0,0,1.62-1.39v-4l-.34-.7-.61-.32s-.89.14-1,.12-.92.18-.92.18l-.39.33Z"/><g class="cls-5"><path class="cls-1" d="M88.47,103.2l3,5.45-.44.74s-1.35.2-1.4.18l-.71-.35a5,5,0,0,1-.48-.46c0-.08-.5-3.51-.5-3.51s.22-1,.2-1S88.47,103.2,88.47,103.2Z"/></g><path class="cls-1" d="M88.3,103.95s-.56-1.11.43-1.54c0,0,.14-.42.89-.56.45-.09.62,0,1-.25a1.07,1.07,0,0,1-.3.54A2.09,2.09,0,0,1,91,102a1.11,1.11,0,0,0-.1.33s.44,0,.54-.25a.78.78,0,0,1,0,.64s.44.33.21,1.28a1.06,1.06,0,0,0-1.65-.78.29.29,0,0,0,0-.2,1.35,1.35,0,0,1-.82.1C88.6,103,88.29,103.44,88.3,103.95Z"/><path class="cls-1" d="M89.29,107.9a.36.36,0,0,1-.07-.29,2.27,2.27,0,0,0,.07-.29s.08,0,.06.12.58-.1.84-.12a3.13,3.13,0,0,1,.53,0s.09-.06.08-.12.17.11,0,.42l-.06-.15-1.33.17a.12.12,0,0,0-.1.12A.34.34,0,0,1,89.29,107.9Z"/><path class="cls-1" d="M89.72,107.82l.06-.06s.47-.08.58,0a1.86,1.86,0,0,1-.57.08Z"/><ellipse class="cls-1" cx="90.77" cy="104.53" rx="0.46" ry="0.51"/><ellipse class="cls-1" cx="89.14" cy="104.53" rx="0.46" ry="0.51"/><ellipse class="cls-1" cx="89.14" cy="104.53" rx="0.46" ry="0.51"/><g class="cls-6"><path class="cls-1" d="M88.68,104.48s0,.11.12,0a.66.66,0,0,1,.35-.15.47.47,0,0,1,.33.16c.07.07.12,0,.11,0l.07-.09s0-.2-.05-.2L89.5,104l-.07-.1-.16-.09-.39.05-.15.11-.1.2Z"/></g><circle class="cls-1" cx="89.18" cy="104.71" r="0.2"/><circle class="cls-1" cx="89.24" cy="104.68" r="0.08"/><circle class="cls-1" cx="89.16" cy="104.52" r="0.74"/><circle class="cls-1" cx="90.75" cy="104.52" r="0.74"/><ellipse class="cls-1" cx="90.77" cy="104.53" rx="0.46" ry="0.51"/><g class="cls-7"><path class="cls-1" d="M90.32,104.48s0,.11.12,0a.66.66,0,0,1,.35-.15.47.47,0,0,1,.33.16c.07.07.12,0,.11,0l.07-.09s0-.2-.05-.2l-.11-.15-.07-.1-.16-.09-.39.05-.15.11-.1.2Z"/></g><circle class="cls-1" cx="90.77" cy="104.71" r="0.19"/><circle class="cls-1" cx="90.84" cy="104.68" r="0.08"/><path class="cls-3" d="M117.3,88.45H61.18a7,7,0,0,0-6.32,7l4.45,21.69a7,7,0,0,0,7,6.71h45.86a7,7,0,0,0,7-6.71l4.4-21.17.05-.52A7,7,0,0,0,117.3,88.45Zm-1,28.2,0,.26a4.14,4.14,0,0,1-4.11,4H66.31a4.14,4.14,0,0,1-4.11-4L57.75,95.29a4.12,4.12,0,0,1,4.11-4h54.76a4.12,4.12,0,0,1,4.11,4Z"/><path class="cls-3" d="M53.93,79.32a4.83,4.83,0,1,1,4.83-4.83A4.84,4.84,0,0,1,53.93,79.32Zm0-8.16a3.33,3.33,0,1,0,3.33,3.33A3.33,3.33,0,0,0,53.93,71.15Z"/><path class="cls-3" d="M45.93,71.15c-7.2,0-12.83-3.29-12.83-7.49s5.64-7.49,12.83-7.49,12.83,3.29,12.83,7.49S53.12,71.15,45.93,71.15Zm0-13.49c-6.14,0-11.33,2.74-11.33,6s5.19,6,11.33,6,11.33-2.74,11.33-6S52.07,57.67,45.93,57.67Z"/><path class="cls-3" d="M33.85,55.28c-18.66,0-33.85-9-33.85-20s15.18-20,33.85-20,33.85,9,33.85,20S52.51,55.28,33.85,55.28Zm0-38.44C16,16.84,1.5,25.13,1.5,35.31S16,53.78,33.85,53.78,66.2,45.5,66.2,35.31,51.68,16.84,33.85,16.84Z"/><path class="cls-3" d="M121.36,68.92a4.84,4.84,0,0,1-4.54-3.16h0a4.83,4.83,0,1,1,4.54,3.16Zm-3.13-3.68a3.33,3.33,0,1,0,2-4.28,3.33,3.33,0,0,0-2,4.28Z"/><path class="cls-3" d="M128,57.73a9.91,9.91,0,0,1-2.74-.37,6.38,6.38,0,0,1-4.45-3.82h0a6.38,6.38,0,0,1,.91-5.8,11.2,11.2,0,0,1,5.49-4.18c4.89-1.8,10-.26,11.34,3.43s-1.51,8.17-6.4,10A12.07,12.07,0,0,1,128,57.73Zm3.38-13.43a10.58,10.58,0,0,0-3.65.67,9.68,9.68,0,0,0-4.76,3.6,4.92,4.92,0,0,0-.75,4.45h0a4.92,4.92,0,0,0,3.46,2.9,9.67,9.67,0,0,0,6-.36c4.12-1.52,6.59-5.13,5.51-8C136.43,45.47,134.14,44.3,131.42,44.3Z"/><path class="cls-3" d="M127.17,40.11a46.17,46.17,0,0,1-20.23-4.27c-6.73-3.33-10.63-8.14-11-13.54h0c-.36-5.4,2.87-10.68,9.1-14.88s14.4-6.7,23.35-7.3c18.62-1.24,34.37,6.69,35.1,17.68.36,5.4-2.87,10.68-9.1,14.88S140,39.38,131,40Q129.09,40.11,127.17,40.11Zm5.1-38.61q-1.86,0-3.77.13c-8.69.58-16.72,3.08-22.61,7s-8.76,8.69-8.44,13.53h0c.32,4.84,3.93,9.21,10.16,12.29s14.66,4.56,23.34,4,16.72-3.08,22.61-7,8.76-8.69,8.44-13.53C161.37,8.47,148.36,1.5,132.26,1.5Z"/><text class="cls-8" transform="translate(17.35 40.09)">UI/UX</text><text class="cls-8" transform="translate(110.01 22.09)">&lt;css/&gt;</text><g class="cls-9"><path class="cls-3" d="M80.7,81.62a7.13,7.13,0,1,1,6.59-7.11A6.87,6.87,0,0,1,80.7,81.62Zm0-10.21a3.16,3.16,0,1,0,2.59,3.11A2.89,2.89,0,0,0,80.7,71.41Z"/><path class="cls-3" d="M89.6,122.53l-.21,0c-6.76-.52-12.25-6.59-15.78-11.12a27.39,27.39,0,0,1-3.73-7l-.11-.32v-39l2.07-4.77,4.79-4,.45-.11c7.6-1.81,9.33-2,10-1.91s3.6-.45,5.31-.7c3.76-.56,4-.57,4.5-.44.27.07.61.16,6.61,3.44l.58.32,3.77,8.1v41.92l-.26.46c-7.73,13.64-17.4,15-17.81,15.1ZM73.77,103.4a23.1,23.1,0,0,0,3,5.54c1.75,2.23,7,9,12.7,9.57,1.23-.25,8.27-2.08,14.41-12.62v-40L101,59.8c-2-1.1-4.15-2.24-5-2.67-.65.08-1.95.27-3,.43-4.51.67-5.76.82-6.43.72-1,.1-4.78.93-8.12,1.71l-3.33,2.75-1.36,3.13ZM86.69,58.28Z"/><path class="cls-3" d="M89.54,122.53l-.21,0c-7.6-.58-13.8-8.51-15.84-11.12a25.27,25.27,0,0,1-3.64-7l-.09-.29v-39l1.94-4.76,4.69-4,.47-.11c7.61-1.81,9.34-2,10-1.91s3.61-.45,5.33-.7c3.77-.56,4-.58,4.51-.44.26.07.61.16,6.66,3.43l.57.31,3.9,8.1v41.94l-.26.46c-7.73,13.64-17.46,15-17.87,15.1ZM73.77,103.43a21,21,0,0,0,2.88,5.51c4.65,5.95,8.94,9.17,12.76,9.57,1.24-.25,8.32-2.08,14.47-12.62v-40l-2.94-6.11c-2.06-1.11-4.21-2.25-5.07-2.68-.65.08-2,.27-3,.43-4.52.67-5.78.82-6.44.72-1,.1-4.78.92-8.12,1.71L75,62.73l-1.28,3.13ZM86.5,58.28Z"/><path class="cls-3" d="M105,78.51,103.36,69s-1-5.49-4.81-7.41c-2.32-1.18-5.37-.85-9.06,1l-6.85,3.38,2.91-4.24a21,21,0,0,1-5.3,0A5.13,5.13,0,0,0,76,62.81a7.59,7.59,0,0,0-2.13,5.77l.17,8.79-4-7.85C70,69.27,67,63.22,69,57.69a11,11,0,0,1,5.76-6.16c.88-1.62,3.45-4.87,10.14-6.18A24.85,24.85,0,0,1,89,44.93c2-.08,3-.11,4.95-1.71l4.24-3.54-1,5.44a11.52,11.52,0,0,1-.44,1.58,15.16,15.16,0,0,1,2.47-.29l3.2-.09-1.25,2.77a1.47,1.47,0,0,0,.72-.64l1.75-4.25,1.92,4.17a9.74,9.74,0,0,1,0,6.94c1.46,1.89,3.59,6.17,1.73,13.8ZM90.76,48.83c-.55.06-1.1.08-1.65.1a20.82,20.82,0,0,0-3.47.34c-6.21,1.21-7.47,4.3-7.52,4.43l-.28.86-.81.31A7.27,7.27,0,0,0,72.74,59a7.6,7.6,0,0,0-.41,1.86,9.37,9.37,0,0,1,1-1.06,9.06,9.06,0,0,1,7.41-2.18h.11Zm4.75,8A10.57,10.57,0,0,1,100.39,58a11,11,0,0,1,3.32,2.64A6.27,6.27,0,0,0,102,57.27l-1.23-1,.67-1.45A7.29,7.29,0,0,0,102,53a12.32,12.32,0,0,1-3.76.72l-1.82,0L96.25,52a4,4,0,0,1,.05-1.08A22.66,22.66,0,0,0,93,52.08L81.08,57.7c4.47.48,6.69-.75,6.71-.76l2.28-1.29.56,2.08A15.29,15.29,0,0,1,95.52,56.85Z"/><path class="cls-3" d="M82.28,112.41l-1.95-2.49c-.19-.24-1.83-2.43-1-4.76a20.84,20.84,0,0,0,.65-2.61l.34-1.93,1.94.3a2.8,2.8,0,0,1,1.85,1.19l.13.2c.75-.15,1.69-.38,2.42-.55a35.63,35.63,0,0,1,4.25-.86,31.85,31.85,0,0,1,4.32-.09l0-.29,1.34-.71a2.16,2.16,0,0,1,2.52.56c.85.91,1.83,3.32.05,6.52L97,110.61l-1.58-4c-4.11.51-9.44,1.17-11.23,1.41a5.6,5.6,0,0,1-.49,1.58Zm17-10.95v0Z"/><path class="cls-3" d="M87,110.43H86.4L83,108.14l3-2.7.56-.1c2.67-.48,6.17-.71,7.71.87l2.17,2.23-2.93,1A20.85,20.85,0,0,1,87,110.43Z"/><path class="cls-3" d="M96.88,81.66a7.17,7.17,0,1,1,6.62-7.15A6.91,6.91,0,0,1,96.88,81.66Zm0-10.3a3.2,3.2,0,1,0,2.62,3.15A2.92,2.92,0,0,0,96.88,71.37Z"/><path class="cls-3" d="M80.34,81.66A7.17,7.17,0,1,1,87,74.51,6.91,6.91,0,0,1,80.34,81.66Zm0-10.3A3.2,3.2,0,1,0,83,74.51,2.92,2.92,0,0,0,80.34,71.37Z"/><path class="cls-3" d="M80.34,81.68A7.19,7.19,0,1,1,87,74.51,6.92,6.92,0,0,1,80.34,81.68Zm0-10.33A3.22,3.22,0,1,0,83,74.51,2.94,2.94,0,0,0,80.34,71.35Z"/><g class="cls-10"><path class="cls-3" d="M84.37,76.7a2.74,2.74,0,0,1-2-.9,2.8,2.8,0,0,0-2.07-1A6.53,6.53,0,0,0,78.15,76a2.71,2.71,0,0,1-2.73.54,2.74,2.74,0,0,1-1.66-2.1v0l-.55-3.32,1.47-3L77,66.29l5.21-.68,2.59,1.58.25.41s.27.44.43.68a12.15,12.15,0,0,1,.79,1l.29.39c.47.43.61,1,1.08,3.05l.22.94-1,1.25a2.69,2.69,0,0,1-1.3,1.49A2.53,2.53,0,0,1,84.37,76.7Zm-7-5v0a6.16,6.16,0,0,1,3.32-.89,7.69,7.69,0,0,1,2,.45l-.17-.22a5.24,5.24,0,0,1-.7-.95l-.57-.35-2.73.36-.69.54Z"/></g><path class="cls-3" d="M80.73,80.31a4,4,0,1,1,4-4A4,4,0,0,1,80.73,80.31Zm0-4h0Z"/><path class="cls-3" d="M81.42,78.86A2.84,2.84,0,1,1,84.26,76,2.85,2.85,0,0,1,81.42,78.86Zm0-4A1.16,1.16,0,1,0,82.58,76,1.16,1.16,0,0,0,81.42,74.86Z"/><path class="cls-3" d="M80.53,83.87a9.5,9.5,0,1,1,9.5-9.5A9.51,9.51,0,0,1,80.53,83.87Zm0-15a5.5,5.5,0,1,0,5.5,5.5A5.51,5.51,0,0,0,80.53,68.87Z"/><path class="cls-3" d="M96.72,83.87a9.5,9.5,0,1,1,9.5-9.5A9.51,9.51,0,0,1,96.72,83.87Zm0-15a5.5,5.5,0,1,0,5.5,5.5A5.51,5.51,0,0,0,96.72,68.87Z"/><path class="cls-3" d="M96.88,81.68a7.19,7.19,0,1,1,6.64-7.17A6.92,6.92,0,0,1,96.88,81.68Zm0-10.33a3.22,3.22,0,1,0,2.64,3.16A2.94,2.94,0,0,0,96.88,71.35Z"/><g class="cls-11"><path class="cls-3" d="M100.91,76.7a2.74,2.74,0,0,1-2-.9,2.8,2.8,0,0,0-2.07-1A6.54,6.54,0,0,0,94.7,76,2.72,2.72,0,0,1,92,76.5a2.75,2.75,0,0,1-1.66-2.1v0l-.55-3.32,1.47-3,2.27-1.78,5.21-.68,2.59,1.58.25.41s.27.44.43.68a12.15,12.15,0,0,1,.79,1l.29.39c.47.43.61,1,1.08,3.05l.22.94-1,1.25a2.7,2.7,0,0,1-1.31,1.49A2.53,2.53,0,0,1,100.91,76.7Zm-7-5v.05a6.13,6.13,0,0,1,3.32-.89,7.69,7.69,0,0,1,2,.45l-.17-.22a5.24,5.24,0,0,1-.7-.95l-.57-.35-2.73.36-.69.54Z"/></g><path class="cls-3" d="M96.91,80.28a4,4,0,1,1,4-4A4,4,0,0,1,96.91,80.28Zm0-4a0,0,0,0,0,0,0l2,0Z"/><path class="cls-3" d="M97.59,78.85A2.83,2.83,0,1,1,100.42,76,2.83,2.83,0,0,1,97.59,78.85Zm0-4A1.17,1.17,0,1,0,98.76,76,1.17,1.17,0,0,0,97.59,74.85Z"/><ellipse class="cls-3" cx="80.7" cy="74.51" rx="4.59" ry="5.11"/><path class="cls-12" d="M71.77,65.47v38.29a25.49,25.49,0,0,0,3.42,6.41c2.16,2.76,7.79,9.85,14.36,10.35,0,0,9-1.18,16.33-14.1v-41l-3.31-7.11s-5.79-3.16-6.16-3.26-9,1.39-9.61,1.19-9.26,1.87-9.26,1.87l-4.06,3.36Z"/><g class="cls-13"><path class="cls-14" d="M73.56,61l30.23,55.26-4.51,7.5s-13.71,2.07-14.18,1.87-6.95-3.36-7.23-3.55A50.27,50.27,0,0,1,73,117.47c-.47-.79-5.07-35.61-5.07-35.61S70.17,72.08,70,71.59,73.56,61,73.56,61Z"/></g><path class="cls-1" d="M71.89,68.63S66.21,57.38,76.25,53c0,0,1.39-4.24,9-5.72,4.56-.89,6.28.49,9.93-2.56a10.85,10.85,0,0,1-3,5.52,21.2,21.2,0,0,1,7.09-1.87,11.29,11.29,0,0,0-1,3.36s4.46-.1,5.47-2.57a7.93,7.93,0,0,1-.51,6.51s4.46,3.36,2.13,12.93c0,0-2.53-14.9-16.72-7.89a3,3,0,0,0,.2-2.07s-2.74,1.68-8.31,1S71.79,63.49,71.89,68.63Z"/><path class="cls-1" d="M81.91,108.69a3.61,3.61,0,0,1-.72-2.89,23.06,23.06,0,0,0,.72-2.89s.86.13.59,1.25,5.86-1,8.55-1.25a31.74,31.74,0,0,1,5.39,0s.92-.66.86-1.18,1.72,1.12,0,4.21l-.6-1.51S83.82,106,83.23,106.12a1.22,1.22,0,0,0-1,1.25A3.4,3.4,0,0,1,81.91,108.69Z"/><path class="cls-1" d="M86.21,107.9l.66-.59s4.8-.86,5.92.3a18.82,18.82,0,0,1-5.79.82Z"/><ellipse class="cls-3" cx="96.88" cy="74.51" rx="4.62" ry="5.15"/><ellipse class="cls-3" cx="80.34" cy="74.51" rx="4.62" ry="5.15"/><ellipse class="cls-4" cx="80.34" cy="74.51" rx="4.64" ry="5.16"/><g class="cls-15"><path class="cls-16" d="M75.73,74.05s.2,1.11,1.18.33,2.66-1.66,3.55-1.57a4.78,4.78,0,0,1,3.36,1.58c.69.71,1.18-.06,1.13-.35l.69-.86s-.47-2-.54-2.07S84,69.66,84,69.64a9.93,9.93,0,0,1-.67-1l-1.58-1-4,.52-1.48,1.16-1,2Z"/></g><circle class="cls-16" cx="80.73" cy="76.32" r="1.99"/><circle class="cls-3" cx="81.42" cy="76.02" r="0.84"/><path class="cls-17" d="M80.53,83.68a9.31,9.31,0,1,1,9.31-9.31A9.32,9.32,0,0,1,80.53,83.68Zm0-15a5.69,5.69,0,1,0,5.69,5.69A5.7,5.7,0,0,0,80.53,68.68Z"/><path class="cls-17" d="M96.72,83.68A9.31,9.31,0,1,1,106,74.37,9.32,9.32,0,0,1,96.72,83.68Zm0-15a5.69,5.69,0,1,0,5.69,5.69A5.7,5.7,0,0,0,96.72,68.68Z"/><ellipse class="cls-4" cx="96.88" cy="74.51" rx="4.64" ry="5.16"/><g class="cls-18"><path class="cls-16" d="M92.28,74.05s.2,1.11,1.18.33,2.66-1.66,3.55-1.57a4.78,4.78,0,0,1,3.36,1.58c.69.71,1.18-.06,1.13-.35l.69-.86s-.47-2-.54-2.07-1.06-1.46-1.13-1.48a9.93,9.93,0,0,1-.67-1l-1.58-1-4,.52-1.48,1.16-1,2Z"/></g><circle class="cls-16" cx="96.91" cy="76.32" r="1.96"/><circle class="cls-3" cx="97.59" cy="76.02" r="0.83"/></g></g></g></svg>