<svg xmlns="http://www.w3.org/2000/svg" xmlns:xlink="http://www.w3.org/1999/xlink" viewBox="0 0 77.12 96.9"><defs><style>.cls-1{fill:#fff;}.cls-2,.cls-4{fill:none;}.cls-3{fill:#e6e6e6;}.cls-4{stroke:#fff;stroke-miterlimit:10;}.cls-5{clip-path:url(#clip-path);}.cls-6{clip-path:url(#clip-path-2);}.cls-7{fill:#e75339;}.cls-8{clip-path:url(#clip-path-3);}.cls-9{fill:#e04d33;}.cls-10{fill:#c23118;}.cls-11{clip-path:url(#clip-path-4);}.cls-12{fill:#d9482e;}.cls-13{fill:#a62610;}.cls-14{clip-path:url(#clip-path-5);}</style><clipPath id="clip-path"><path class="cls-1" d="M46,47.32c-4.12,0-7.48-3.62-7.48-8.07s3.35-8.07,7.48-8.07,7.48,3.62,7.48,8.07S50.08,47.32,46,47.32Zm0-11.64a3.31,3.31,0,0,0-3,3.56,3.31,3.31,0,0,0,3,3.57,3.31,3.31,0,0,0,3-3.57A3.31,3.31,0,0,0,46,35.69Z"/></clipPath><clipPath id="clip-path-2"><path class="cls-1" d="M64.59,47.32c-4.12,0-7.48-3.62-7.48-8.07s3.35-8.07,7.48-8.07,7.48,3.62,7.48,8.07S68.72,47.32,64.59,47.32Zm0-11.64a3.31,3.31,0,0,0-3,3.56,3.31,3.31,0,0,0,3,3.57,3.31,3.31,0,0,0,3-3.57A3.31,3.31,0,0,0,64.59,35.69Z"/></clipPath><clipPath id="clip-path-3"><path class="cls-2" d="M36.3,29.06V72.2A26.29,26.29,0,0,0,40,79.43c2.43,3.11,8.84,11.1,16.24,11.66,0,0,10.2-1.33,18.46-15.89V29.06l-3.85-8s-6.58-3.56-7-3.67S53.65,19,53,18.73s-10.45,2.11-10.45,2.11l-4.46,3.78Z"/></clipPath><clipPath id="clip-path-4"><ellipse class="cls-3" cx="45.95" cy="39.25" rx="5.23" ry="5.82"/></clipPath><clipPath id="clip-path-5"><ellipse class="cls-3" cx="64.59" cy="39.25" rx="5.23" ry="5.82"/></clipPath></defs><title>brand-SEO</title><g id="Layer_2" data-name="Layer 2"><g id="Layer_1-2" data-name="Layer 1"><path class="cls-4" d="M19.34,27.58,17.85,27a7.46,7.46,0,0,0,0-1.77l1.49-.65a.58.58,0,0,0,.33-.79L18.41,21a.61.61,0,0,0-.36-.34.58.58,0,0,0-.5,0l-1.46.64a8,8,0,0,0-1.22-1.22l.61-1.49a.62.62,0,0,0-.33-.79l-1.68-.65v0l-1.19-.48a.62.62,0,0,0-.79.33l-.61,1.49a7.46,7.46,0,0,0-1.77,0L8.44,17a.58.58,0,0,0-.79-.33L4.89,17.93a.58.58,0,0,0-.33.79l.65,1.49A8.05,8.05,0,0,0,4,21.48l-1.49-.61a.62.62,0,0,0-.79.33L.55,24a.68.68,0,0,0,.33.84l1.49.61a7.46,7.46,0,0,0,0,1.77l-1.49.65a.58.58,0,0,0-.33.79l1.21,2.75a.61.61,0,0,0,.36.34.58.58,0,0,0,.5,0l1.46-.64a8.05,8.05,0,0,0,1.22,1.22l-.61,1.49a.62.62,0,0,0,.33.79l1.68.65v0l1.19.48a.62.62,0,0,0,.79-.33l.61-1.49a7.46,7.46,0,0,0,1.77,0l.65,1.49a.58.58,0,0,0,.79.33l2.75-1.21a.58.58,0,0,0,.33-.79L15,32.2a8,8,0,0,0,1.26-1.26l1.49.61a.62.62,0,0,0,.79-.33l1.12-2.8A.68.68,0,0,0,19.34,27.58Zm-4.9.37a4.5,4.5,0,0,1-6.7,2.18h0a4.54,4.54,0,0,1-.52-.37A4.38,4.38,0,0,1,6.5,29l0,0a4.56,4.56,0,0,1,6-6.71h0a4.55,4.55,0,0,1,.52.37,4.38,4.38,0,0,1,.71.76l0,0A4.59,4.59,0,0,1,14.44,28Z"/><path class="cls-4" d="M30.15,74.61v-.27a12.66,12.66,0,0,1-5.64-24.68,13,13,0,0,1,5.64-.11V40.87a17.73,17.73,0,0,0-2.08-.13l-1-4.4a1.91,1.91,0,0,0-2.1-1.22L17,37.1a1.91,1.91,0,0,0-1.21,2.1l1,4.41a20.54,20.54,0,0,0-4,3L9.1,44.22a1.69,1.69,0,0,0-2.29.55L2.47,51.86A1.69,1.69,0,0,0,3,54.15l3.8,2.37a20.23,20.23,0,0,0-.67,5l-4.41,1a1.74,1.74,0,0,0-1.21,2.1l2,8.06a1.93,1.93,0,0,0,2.1,1.22l4.41-1a20.19,20.19,0,0,0,3,4L9.68,80.63a1.69,1.69,0,0,0,.55,2.28l7.1,4.35a1.69,1.69,0,0,0,2.28-.55L22,82.9a20.65,20.65,0,0,0,5,.68L28,88a1.76,1.76,0,0,0,2.1,1.22l4.29-1.09A23.56,23.56,0,0,1,30.15,74.61Z"/><path class="cls-1" d="M46.36,47.26c-4.09,0-7.42-3.59-7.42-8s3.33-8,7.42-8,7.42,3.59,7.42,8S50.45,47.26,46.36,47.26Zm0-11.51a3.25,3.25,0,0,0-2.91,3.5,3.25,3.25,0,0,0,2.91,3.5,3.25,3.25,0,0,0,2.91-3.5A3.25,3.25,0,0,0,46.36,35.75Z"/><path class="cls-1" d="M56.39,93.35l-.23,0c-7.62-.58-13.8-7.43-17.78-12.52a30.86,30.86,0,0,1-4.21-7.88L34,72.58v-44l2.33-5.37,5.39-4.46.51-.12c8.56-2,10.51-2.27,11.3-2.15.88,0,4.05-.51,6-.79,4.24-.63,4.47-.65,5.07-.49.31.08.69.18,7.45,3.87l.65.36L77,28.56V75.79l-.29.52c-8.71,15.37-19.61,17-20.07,17ZM38.55,71.8A26,26,0,0,0,41.92,78c2,2.52,7.9,10.1,14.31,10.78,1.39-.28,9.32-2.35,16.24-14.22v-45l-3.21-6.88c-2.29-1.24-4.67-2.52-5.63-3-.73.09-2.19.3-3.42.48-5.08.75-6.49.92-7.24.82-1.09.11-5.39,1-9.15,1.93L40.08,26l-1.53,3.52ZM53.11,21Z"/><path class="cls-1" d="M56.33,93.35l-.23,0c-8.57-.65-15.55-9.59-17.84-12.52a28.47,28.47,0,0,1-4.1-7.94l-.1-.33V28.62l2.19-5.37,5.29-4.49.52-.12c8.58-2,10.52-2.27,11.31-2.15.88,0,4.07-.51,6-.79,4.24-.63,4.48-.65,5.08-.49.29.08.68.18,7.5,3.87l.64.35L77,28.55V75.79l-.29.52C68,91.68,57,93.26,56.56,93.33ZM38.55,71.83A23.71,23.71,0,0,0,41.8,78C47,84.74,51.87,88.37,56.18,88.82c1.39-.28,9.37-2.34,16.3-14.22v-45l-3.31-6.88c-2.32-1.25-4.74-2.53-5.71-3-.73.09-2.2.3-3.43.48-5.09.75-6.51.92-7.26.82-1.09.11-5.39,1-9.15,1.93L40,26,38.55,29.5ZM52.89,21Z"/><path class="cls-1" d="M73.72,43.76,71.89,33c0-.06-1.13-6.18-5.42-8.35-2.61-1.32-6-1-10.2,1.1l-7.72,3.81,3.28-4.78a23.61,23.61,0,0,1-6,0,5.78,5.78,0,0,0-4.78,1.33,8.55,8.55,0,0,0-2.4,6.5l.19,9.9-4.46-8.84c-.14-.29-3.52-7.1-1.26-13.34a12.36,12.36,0,0,1,6.49-6.94c1-1.82,3.89-5.49,11.42-7a28,28,0,0,1,4.6-.47C58,5.84,59.09,5.8,61.25,4L66,0,64.91,6.12a13,13,0,0,1-.49,1.78,17.08,17.08,0,0,1,2.78-.33l3.6-.11-1.41,3.12a1.65,1.65,0,0,0,.81-.73l2-4.79,2.16,4.7a11,11,0,0,1,0,7.82c1.65,2.13,4,7,1.95,15.55Zm-16-33.44c-.62.06-1.24.09-1.86.11a23.46,23.46,0,0,0-3.91.39c-7,1.36-8.41,4.84-8.47,5l-.32,1-.91.35a8.19,8.19,0,0,0-4.84,4.71,8.56,8.56,0,0,0-.46,2.09,10.55,10.55,0,0,1,1.13-1.2,10.2,10.2,0,0,1,8.35-2.46h.12Zm5.35,9a11.9,11.9,0,0,1,5.49,1.29,12.44,12.44,0,0,1,3.75,3,7.07,7.07,0,0,0-2-3.79l-1.38-1.14L69.7,17a8.22,8.22,0,0,0,.71-2,13.88,13.88,0,0,1-4.23.81l-2.06,0-.23-2a4.5,4.5,0,0,1,.06-1.22A25.53,25.53,0,0,0,60.23,14L46.79,20.31c5,.54,7.54-.84,7.57-.86L56.92,18l.63,2.34A17.23,17.23,0,0,1,63.06,19.35Z"/><path class="cls-1" d="M48.15,82,46,79.15c-.21-.27-2.06-2.73-1.18-5.36a23.48,23.48,0,0,0,.73-2.94l.38-2.18,2.18.34a3.15,3.15,0,0,1,2.09,1.34l.14.23c.85-.17,1.91-.42,2.72-.62a40.14,40.14,0,0,1,4.79-1,35.88,35.88,0,0,1,4.86-.11l0-.33,1.51-.8a2.44,2.44,0,0,1,2.84.64c1,1,2.06,3.74.06,7.35l-2.32,4.18-1.78-4.53C58.31,76,52.31,76.71,50.3,77a6.31,6.31,0,0,1-.55,1.78ZM67.31,69.62v0Z"/><path class="cls-1" d="M53.46,79.71h-.68l-3.87-2.58,3.37-3,.63-.11c3-.54,7-.8,8.68,1L64,77.48l-3.3,1.18A23.49,23.49,0,0,1,53.46,79.71Z"/><path class="cls-1" d="M64.59,47.31c-4.11,0-7.46-3.61-7.46-8.05s3.35-8.05,7.46-8.05,7.46,3.61,7.46,8.05S68.71,47.31,64.59,47.31Zm0-11.6a3.3,3.3,0,0,0-3,3.55,3.3,3.3,0,0,0,3,3.55,3.3,3.3,0,0,0,3-3.55A3.3,3.3,0,0,0,64.59,35.71Z"/><path class="cls-1" d="M46,47.31c-4.11,0-7.46-3.61-7.46-8.05S41.84,31.2,46,31.2s7.46,3.61,7.46,8.05S50.07,47.31,46,47.31Zm0-11.6a3.3,3.3,0,0,0-3,3.55,3.3,3.3,0,0,0,3,3.55,3.3,3.3,0,0,0,3-3.55A3.3,3.3,0,0,0,46,35.71Z"/><path class="cls-1" d="M46,47.32c-4.12,0-7.48-3.62-7.48-8.07s3.35-8.07,7.48-8.07,7.48,3.62,7.48,8.07S50.08,47.32,46,47.32Zm0-11.64a3.31,3.31,0,0,0-3,3.56,3.31,3.31,0,0,0,3,3.57,3.31,3.31,0,0,0,3-3.57A3.31,3.31,0,0,0,46,35.69Z"/><g class="cls-5"><path class="cls-1" d="M50.5,41.71a3.08,3.08,0,0,1-2.23-1,3.16,3.16,0,0,0-2.33-1.11,7.36,7.36,0,0,0-2.44,1.29,3.06,3.06,0,0,1-3.08.61,3.09,3.09,0,0,1-1.87-2.36v0l-.62-3.74L39.58,32l2.56-2L48,29.23,50.93,31l.28.46s.3.5.49.76a13.69,13.69,0,0,1,.89,1.14l.33.44c.53.49.69,1.18,1.21,3.44l.25,1.06-1.13,1.41a3,3,0,0,1-1.47,1.68A2.85,2.85,0,0,1,50.5,41.71ZM42.6,36.05v.06a6.94,6.94,0,0,1,3.74-1,8.66,8.66,0,0,1,2.3.5l-.19-.25a5.91,5.91,0,0,1-.79-1.07L47,33.9l-3.08.4-.78.61Z"/></g><path class="cls-1" d="M46.4,45.79a4.5,4.5,0,1,1,4.5-4.5A4.5,4.5,0,0,1,46.4,45.79Zm0-4.5h0Z"/><path class="cls-1" d="M47.17,44.15a3.2,3.2,0,1,1,3.2-3.2A3.21,3.21,0,0,1,47.17,44.15Zm0-4.51a1.3,1.3,0,1,0,1.3,1.3A1.31,1.31,0,0,0,47.17,39.64Z"/><path class="cls-1" d="M46.17,49.79a10.7,10.7,0,1,1,10.7-10.7A10.72,10.72,0,0,1,46.17,49.79Zm0-16.9a6.2,6.2,0,1,0,6.2,6.2A6.2,6.2,0,0,0,46.17,32.89Z"/><path class="cls-1" d="M64.41,49.79a10.7,10.7,0,1,1,10.7-10.7A10.72,10.72,0,0,1,64.41,49.79Zm0-16.9a6.2,6.2,0,1,0,6.2,6.2A6.2,6.2,0,0,0,64.41,32.89Z"/><path class="cls-1" d="M64.59,47.32c-4.12,0-7.48-3.62-7.48-8.07s3.35-8.07,7.48-8.07,7.48,3.62,7.48,8.07S68.72,47.32,64.59,47.32Zm0-11.64a3.31,3.31,0,0,0-3,3.56,3.31,3.31,0,0,0,3,3.57,3.31,3.31,0,0,0,3-3.57A3.31,3.31,0,0,0,64.59,35.69Z"/><g class="cls-6"><path class="cls-1" d="M69.14,41.71a3.08,3.08,0,0,1-2.23-1,3.16,3.16,0,0,0-2.33-1.11,7.37,7.37,0,0,0-2.44,1.29,3.06,3.06,0,0,1-3.08.61,3.09,3.09,0,0,1-1.87-2.36v0l-.62-3.74L58.22,32l2.56-2,5.87-.77L69.57,31l.28.46s.3.5.49.76a13.69,13.69,0,0,1,.89,1.14l.33.44c.53.49.69,1.18,1.21,3.44L73,38.32l-1.13,1.41a3,3,0,0,1-1.47,1.68A2.85,2.85,0,0,1,69.14,41.71Zm-7.89-5.66v.06a6.91,6.91,0,0,1,3.74-1,8.66,8.66,0,0,1,2.3.5l-.19-.25a5.91,5.91,0,0,1-.79-1.07l-.64-.39-3.08.4-.78.61Z"/></g><path class="cls-1" d="M64.63,45.75a4.46,4.46,0,1,1,4.46-4.46A4.46,4.46,0,0,1,64.63,45.75Zm0-4.46a0,0,0,0,0,0,0l2.2,0Z"/><path class="cls-1" d="M65.39,44.14A3.19,3.19,0,1,1,68.58,41,3.19,3.19,0,0,1,65.39,44.14Zm0-4.51A1.32,1.32,0,1,0,66.71,41,1.32,1.32,0,0,0,65.39,39.63Z"/><ellipse class="cls-1" cx="46.36" cy="39.25" rx="5.17" ry="5.75"/><path class="cls-7" d="M36.3,29.06V72.2a28.71,28.71,0,0,0,3.85,7.23c2.43,3.11,8.77,11.1,16.18,11.66,0,0,10.14-1.33,18.4-15.89V29.06l-3.73-8s-6.52-3.56-6.94-3.67S53.87,19,53.24,18.73,42.8,20.83,42.8,20.83l-4.57,3.78Z"/><g class="cls-8"><path class="cls-9" d="M38.31,24.06,72.37,86.32l-5.08,8.45s-15.44,2.33-16,2.11-7.83-3.78-8.14-4a56.63,56.63,0,0,1-5.5-5.23C37.15,86.76,32,47.54,32,47.54s2.54-11,2.33-11.58S38.31,24.06,38.31,24.06Z"/></g><path class="cls-10" d="M36.43,32.62S30,19.94,41.34,15.05c0,0,1.56-4.77,10.16-6.45,5.14-1,7.08.56,11.19-2.88a12.22,12.22,0,0,1-3.43,6.22,23.88,23.88,0,0,1,8-2.11S66,12.61,66.12,13.61c0,0,5-.11,6.17-2.89a8.94,8.94,0,0,1-.57,7.34s5,3.78,2.4,14.56c0,0-2.85-16.79-18.84-8.89a3.35,3.35,0,0,0,.23-2.33s-3.08,1.89-9.36,1.11S36.32,26.84,36.43,32.62Z"/><path class="cls-10" d="M47.73,77.76s-1.33-1.7-.82-3.26a26,26,0,0,0,.82-3.26s1,.15.67,1.41S55,71.53,58,71.23a35.77,35.77,0,0,1,6.08,0s1-.74,1-1.33,1.93,1.26,0,4.74l-.67-1.7s-14.53,1.78-15.19,1.93a1.37,1.37,0,0,0-1.11,1.41A3.83,3.83,0,0,1,47.73,77.76Z"/><path class="cls-10" d="M52.57,76.87l.74-.67s5.41-1,6.67.33a21.21,21.21,0,0,1-6.52.93Z"/><ellipse class="cls-1" cx="64.59" cy="39.25" rx="5.21" ry="5.8"/><ellipse class="cls-1" cx="45.95" cy="39.25" rx="5.21" ry="5.8"/><ellipse class="cls-3" cx="45.95" cy="39.25" rx="5.23" ry="5.82"/><g class="cls-11"><path class="cls-12" d="M40.76,38.73S41,40,42.1,39.11s3-1.88,4-1.76a5.39,5.39,0,0,1,3.78,1.79c.78.8,1.33-.06,1.28-.4l.78-1s-.53-2.28-.61-2.33-1.2-1.64-1.28-1.67a11.19,11.19,0,0,1-.75-1.11l-1.78-1.08L43,32.15l-1.67,1.31L40.26,35.7Z"/></g><circle class="cls-12" cx="46.4" cy="41.29" r="2.24"/><circle class="cls-1" cx="47.17" cy="40.95" r="0.95"/><path class="cls-13" d="M46.17,49.58A10.49,10.49,0,1,1,56.66,39.09,10.5,10.5,0,0,1,46.17,49.58Zm0-16.9a6.41,6.41,0,1,0,6.41,6.41A6.42,6.42,0,0,0,46.17,32.68Z"/><path class="cls-13" d="M64.41,49.58A10.49,10.49,0,1,1,74.9,39.09,10.5,10.5,0,0,1,64.41,49.58Zm0-16.9a6.41,6.41,0,1,0,6.41,6.41A6.42,6.42,0,0,0,64.41,32.68Z"/><ellipse class="cls-3" cx="64.59" cy="39.25" rx="5.23" ry="5.82"/><g class="cls-14"><path class="cls-12" d="M59.4,38.73s.22,1.25,1.33.37,3-1.88,4-1.76a5.39,5.39,0,0,1,3.78,1.79c.78.8,1.33-.06,1.28-.4l.78-1S70,35.48,70,35.43s-1.2-1.64-1.28-1.67a11.19,11.19,0,0,1-.75-1.11l-1.78-1.08-4.48.58L60,33.45,58.9,35.7Z"/></g><circle class="cls-12" cx="64.63" cy="41.29" r="2.21"/><circle class="cls-1" cx="65.39" cy="40.95" r="0.93"/></g></g></svg>