<svg xmlns="http://www.w3.org/2000/svg" xmlns:xlink="http://www.w3.org/1999/xlink" viewBox="0 0 77.01 65.35"><defs><style>.cls-1{fill:#fff;}.cls-2{fill:none;}.cls-3{fill:#e6e6e6;}.cls-4{clip-path:url(#clip-path);}.cls-5{clip-path:url(#clip-path-2);}.cls-6{fill:#e75339;}.cls-7{clip-path:url(#clip-path-3);}.cls-8{fill:#e04d33;}.cls-9{fill:#c23118;}.cls-10{clip-path:url(#clip-path-4);}.cls-11{fill:#d9482e;}.cls-12{fill:#a62610;}.cls-13{clip-path:url(#clip-path-5);}</style><clipPath id="clip-path"><path class="cls-1" d="M9.43,31.92a5.26,5.26,0,0,1-5-5.44,5.26,5.26,0,0,1,5-5.44,5.26,5.26,0,0,1,5,5.44A5.26,5.26,0,0,1,9.43,31.92Zm0-7.85a2.23,2.23,0,0,0-2,2.4,2.23,2.23,0,0,0,2,2.4,2.23,2.23,0,0,0,2-2.4A2.23,2.23,0,0,0,9.43,24.07Z"/></clipPath><clipPath id="clip-path-2"><path class="cls-1" d="M22,31.92a5.26,5.26,0,0,1-5-5.44A5.26,5.26,0,0,1,22,21a5.26,5.26,0,0,1,5,5.44A5.26,5.26,0,0,1,22,31.92Zm0-7.85a2.23,2.23,0,0,0-2,2.4,2.23,2.23,0,0,0,2,2.4,2.23,2.23,0,0,0,2-2.4A2.23,2.23,0,0,0,22,24.07Z"/></clipPath><clipPath id="clip-path-3"><path class="cls-2" d="M2.92,19.6V48.69a17.73,17.73,0,0,0,2.51,4.87c1.64,2.1,6,7.49,11,7.87,0,0,6.88-.89,12.45-10.72V19.6l-2.6-5.4s-4.44-2.4-4.72-2.47-6.89,1.06-7.32.9-7,1.42-7,1.42l-3,2.55Z"/></clipPath><clipPath id="clip-path-4"><ellipse class="cls-3" cx="9.43" cy="26.47" rx="3.52" ry="3.92"/></clipPath><clipPath id="clip-path-5"><ellipse class="cls-3" cx="22.01" cy="26.47" rx="3.52" ry="3.92"/></clipPath></defs><title>brand-leads</title><g id="Layer_2" data-name="Layer 2"><g id="Layer_1-2" data-name="Layer 1"><path class="cls-1" d="M47.47,17V50.34a14.77,14.77,0,1,0,29.54,0V17a14.77,14.77,0,0,0-29.54,0Zm1.89,0a12.88,12.88,0,0,1,25.76,0V50.34a12.88,12.88,0,1,1-25.76,0Z"/><g id="_Group_" data-name="&lt;Group&gt;"><path id="_Path_" data-name="&lt;Path&gt;" class="cls-1" d="M52.46,19.62a3.56,3.56,0,0,1,.39-2.79A2.85,2.85,0,0,1,54,15.77a3.8,3.8,0,0,1,1.53-.35,3.84,3.84,0,0,1,1.53.33,2.79,2.79,0,0,1,1.19,1,3.49,3.49,0,0,1,.39,2.79,5.56,5.56,0,0,0-1.18-2.17,2.93,2.93,0,0,0-3.84,0A5.76,5.76,0,0,0,52.46,19.62Z"/><path id="_Path_2" data-name="&lt;Path&gt;" class="cls-1" d="M63.46,19.62a3.56,3.56,0,0,1,.39-2.79A2.84,2.84,0,0,1,65,15.77a3.8,3.8,0,0,1,1.53-.35,3.84,3.84,0,0,1,1.53.33,2.79,2.79,0,0,1,1.19,1,3.49,3.49,0,0,1,.39,2.79,5.56,5.56,0,0,0-1.18-2.17,2.93,2.93,0,0,0-3.84,0A5.76,5.76,0,0,0,63.46,19.62Z"/></g><polygon class="cls-1" points="64.11 33.73 66.13 30.19 56.7 30.19 58.72 33.73 64.11 33.73"/><polygon class="cls-1" points="58.92 35.2 56.7 49.63 61.42 53.17 65.83 49.63 63.89 35.2 58.92 35.2"/><polygon class="cls-1" points="65.62 37.01 66.72 45.2 67.37 46.39 69.37 46.98 69.96 44.98 65.62 37.01"/><path class="cls-1" d="M9.71,31.87a5.22,5.22,0,0,1-5-5.4,5.22,5.22,0,0,1,5-5.4,5.22,5.22,0,0,1,5,5.4A5.22,5.22,0,0,1,9.71,31.87Zm0-7.76a2.19,2.19,0,0,0-2,2.36,2.19,2.19,0,0,0,2,2.36,2.19,2.19,0,0,0,2-2.36A2.19,2.19,0,0,0,9.71,24.11Z"/><path class="cls-1" d="M16.47,63h-.16c-5.14-.39-9.31-5-12-8.45a20.81,20.81,0,0,1-2.84-5.31l-.08-.24V19.28L3,15.66l3.64-3L7,12.57C12.73,11.2,14,11,14.58,11.12s2.73-.34,4-.53c2.86-.42,3-.44,3.42-.33.21.05.46.12,5,2.61l.44.24,2.87,6.16V51.12l-.2.35C24.29,61.83,16.94,62.9,16.63,62.94Zm-12-14.54a17.55,17.55,0,0,0,2.27,4.21C8,54.33,12,59.44,16.37,59.9c.94-.19,6.28-1.58,11-9.59V19.94L25.16,15.3c-1.54-.84-3.15-1.7-3.8-2-.49.06-1.48.2-2.3.33a26.26,26.26,0,0,1-4.88.55c-.74.08-3.63.7-6.17,1.3L5.47,17.54l-1,2.38Zm9.82-34.28Z"/><path class="cls-1" d="M16.43,63h-.16c-5.78-.44-10.49-6.47-12-8.45a19.2,19.2,0,0,1-2.77-5.35l-.07-.22V19.3l1.48-3.62,3.57-3,.35-.08c5.78-1.38,7.1-1.53,7.63-1.45s2.74-.34,4.05-.53c2.86-.42,3-.44,3.43-.33.19.05.46.12,5.06,2.61l.43.23,3,6.16V51.12l-.2.35C24.29,61.83,16.9,62.9,16.59,62.94Zm-12-14.52a16,16,0,0,0,2.19,4.19c3.53,4.52,6.79,7,9.69,7.27.94-.19,6.32-1.58,11-9.59V19.95L25.09,15.3c-1.56-.84-3.2-1.71-3.85-2-.49.06-1.48.2-2.31.33a26.42,26.42,0,0,1-4.9.55c-.74.08-3.63.7-6.17,1.3L5.41,17.52l-1,2.38Zm9.67-34.3Z"/><path class="cls-1" d="M28.16,29.51l-1.23-7.26s-.76-4.17-3.65-5.63c-1.76-.89-4.08-.64-6.88.74l-5.2,2.57,2.21-3.22a15.92,15.92,0,0,1-4,0,3.9,3.9,0,0,0-3.22.9A5.77,5.77,0,0,0,4.53,22l.13,6.68-3-6c-.1-.19-2.38-4.79-.85-9A8.33,8.33,0,0,1,5.19,9c.67-1.23,2.62-3.7,7.7-4.69A18.88,18.88,0,0,1,16,4a4.91,4.91,0,0,0,3.76-1.3L23,0l-.75,4.13a8.75,8.75,0,0,1-.33,1.2,11.52,11.52,0,0,1,1.87-.22L26.19,5l-.95,2.1a1.12,1.12,0,0,0,.55-.49l1.33-3.23,1.46,3.17a7.4,7.4,0,0,1,0,5.28c1.11,1.44,2.73,4.69,1.31,10.49ZM17.36,7c-.42,0-.83.06-1.25.07a15.82,15.82,0,0,0-2.63.26c-4.72.92-5.67,3.27-5.71,3.37l-.21.65-.62.24a5.52,5.52,0,0,0-3.27,3.18,5.77,5.77,0,0,0-.31,1.41,7.12,7.12,0,0,1,.77-.81,6.88,6.88,0,0,1,5.63-1.66h.08ZM21,13.05a8,8,0,0,1,3.7.87,8.39,8.39,0,0,1,2.53,2,4.77,4.77,0,0,0-1.32-2.56l-.93-.77.51-1.1a5.54,5.54,0,0,0,.48-1.35,9.36,9.36,0,0,1-2.86.55l-1.39,0-.16-1.38a3,3,0,0,1,0-.82,17.22,17.22,0,0,0-2.5.9L10,13.7a9.17,9.17,0,0,0,5.1-.58l1.73-1,.43,1.58A11.62,11.62,0,0,1,21,13.05Z"/><path class="cls-1" d="M10.92,55.27,9.43,53.38a4.2,4.2,0,0,1-.8-3.62,15.84,15.84,0,0,0,.49-2l.26-1.47,1.47.23a2.13,2.13,0,0,1,1.41.9l.09.16c.57-.11,1.29-.29,1.84-.42a27.07,27.07,0,0,1,3.23-.65,24.2,24.2,0,0,1,3.28-.07l0-.22,1-.54a1.65,1.65,0,0,1,1.92.43c.65.69,1.39,2.52,0,5L22.1,53.9l-1.2-3.05c-3.12.38-7.17.89-8.53,1.07a4.26,4.26,0,0,1-.37,1.2ZM23.84,47v0Z"/><path class="cls-1" d="M14.5,53.76H14L11.43,52,13.71,50l.43-.08c2-.36,4.69-.54,5.86.66l1.65,1.7L19.41,53A15.84,15.84,0,0,1,14.5,53.76Z"/><path class="cls-1" d="M22,31.9a5.25,5.25,0,0,1-5-5.43A5.25,5.25,0,0,1,22,21a5.25,5.25,0,0,1,5,5.43A5.25,5.25,0,0,1,22,31.9Zm0-7.82a2.22,2.22,0,0,0-2,2.39,2.22,2.22,0,0,0,2,2.39,2.22,2.22,0,0,0,2-2.39A2.22,2.22,0,0,0,22,24.08Z"/><path class="cls-1" d="M9.43,31.9a5.25,5.25,0,0,1-5-5.43,5.25,5.25,0,0,1,5-5.43,5.25,5.25,0,0,1,5,5.43A5.25,5.25,0,0,1,9.43,31.9Zm0-7.82a2.22,2.22,0,0,0-2,2.39,2.22,2.22,0,0,0,2,2.39,2.22,2.22,0,0,0,2-2.39A2.22,2.22,0,0,0,9.43,24.08Z"/><path class="cls-1" d="M9.43,31.92a5.26,5.26,0,0,1-5-5.44,5.26,5.26,0,0,1,5-5.44,5.26,5.26,0,0,1,5,5.44A5.26,5.26,0,0,1,9.43,31.92Zm0-7.85a2.23,2.23,0,0,0-2,2.4,2.23,2.23,0,0,0,2,2.4,2.23,2.23,0,0,0,2-2.4A2.23,2.23,0,0,0,9.43,24.07Z"/><g class="cls-4"><path class="cls-1" d="M12.5,28.13a2.08,2.08,0,0,1-1.5-.68,2.13,2.13,0,0,0-1.57-.75,5,5,0,0,0-1.65.87A2.06,2.06,0,0,1,5.7,28a2.08,2.08,0,0,1-1.26-1.59v0L4,23.84l1.12-2.27,1.73-1.35,4-.52,2,1.2.19.31s.2.34.33.51a9.23,9.23,0,0,1,.6.77l.22.3c.36.33.47.8.82,2.32l.17.72-.76,1a2,2,0,0,1-1,1.13A1.92,1.92,0,0,1,12.5,28.13ZM7.18,24.31v0a4.68,4.68,0,0,1,2.52-.68,5.84,5.84,0,0,1,1.55.34l-.13-.17a4,4,0,0,1-.54-.72l-.43-.26-2.07.27-.52.41Z"/></g><path class="cls-1" d="M9.73,30.88a3,3,0,1,1,3-3A3,3,0,0,1,9.73,30.88Zm0-3h0Z"/><path class="cls-1" d="M10.26,29.77a2.16,2.16,0,1,1,2.16-2.16A2.16,2.16,0,0,1,10.26,29.77Zm0-3a.88.88,0,1,0,.88.88A.88.88,0,0,0,10.26,26.73Z"/><path class="cls-1" d="M9.58,33.58a7.22,7.22,0,1,1,7.22-7.22A7.23,7.23,0,0,1,9.58,33.58Zm0-11.4a4.18,4.18,0,1,0,4.18,4.18A4.18,4.18,0,0,0,9.58,22.18Z"/><path class="cls-1" d="M21.88,33.58a7.22,7.22,0,1,1,7.22-7.22A7.23,7.23,0,0,1,21.88,33.58Zm0-11.4a4.18,4.18,0,1,0,4.18,4.18A4.18,4.18,0,0,0,21.88,22.18Z"/><path class="cls-1" d="M22,31.92a5.26,5.26,0,0,1-5-5.44A5.26,5.26,0,0,1,22,21a5.26,5.26,0,0,1,5,5.44A5.26,5.26,0,0,1,22,31.92Zm0-7.85a2.23,2.23,0,0,0-2,2.4,2.23,2.23,0,0,0,2,2.4,2.23,2.23,0,0,0,2-2.4A2.23,2.23,0,0,0,22,24.07Z"/><g class="cls-5"><path class="cls-1" d="M25.07,28.13a2.08,2.08,0,0,1-1.5-.68A2.13,2.13,0,0,0,22,26.7a5,5,0,0,0-1.65.87,2.07,2.07,0,0,1-2.07.41A2.09,2.09,0,0,1,17,26.39v0l-.42-2.53,1.12-2.27,1.73-1.35,4-.52,2,1.2.19.31s.2.34.33.51a9.23,9.23,0,0,1,.6.77l.22.3c.36.33.47.8.82,2.32l.17.72-.76,1a2,2,0,0,1-1,1.13A1.92,1.92,0,0,1,25.07,28.13Zm-5.32-3.82v0a4.66,4.66,0,0,1,2.52-.68,5.84,5.84,0,0,1,1.55.34l-.13-.17a4,4,0,0,1-.54-.72l-.43-.26-2.07.27-.52.41Z"/></g><path class="cls-1" d="M22,30.85a3,3,0,1,1,3-3A3,3,0,0,1,22,30.85Zm0-3a0,0,0,0,0,0,0l1.49,0Z"/><path class="cls-1" d="M22.55,29.77a2.15,2.15,0,1,1,2.15-2.15A2.15,2.15,0,0,1,22.55,29.77Zm0-3a.89.89,0,1,0,.89.89A.89.89,0,0,0,22.55,26.73Z"/><ellipse class="cls-1" cx="9.71" cy="26.47" rx="3.48" ry="3.88"/><path class="cls-6" d="M2.92,19.6V48.69a19.37,19.37,0,0,0,2.6,4.87c1.64,2.1,5.92,7.49,10.91,7.87,0,0,6.84-.89,12.41-10.72V19.6l-2.51-5.4s-4.4-2.4-4.68-2.47-6.87,1.06-7.3.9-7,1.42-7,1.42L4.22,16.6Z"/><g class="cls-7"><path class="cls-8" d="M4.28,16.22l23,42-3.42,5.7s-10.42,1.57-10.77,1.42-5.28-2.55-5.49-2.7a38.2,38.2,0,0,1-3.71-3.52C3.5,58.52,0,32.06,0,32.06s1.71-7.44,1.57-7.81S4.28,16.22,4.28,16.22Z"/></g><path class="cls-9" d="M3,22S-1.3,13.45,6.33,10.15c0,0,1.05-3.22,6.85-4.35,3.47-.67,4.77.37,7.55-1.94a8.24,8.24,0,0,1-2.31,4.19,16.11,16.11,0,0,1,5.39-1.42A8.58,8.58,0,0,0,23,9.18s3.39-.07,4.16-1.95a6,6,0,0,1-.39,4.95S30.2,14.73,28.43,22c0,0-1.93-11.32-12.71-6a2.26,2.26,0,0,0,.15-1.57s-2.08,1.27-6.31.75S2.94,18.1,3,22Z"/><path class="cls-9" d="M10.63,52.44a2.74,2.74,0,0,1-.55-2.2,17.52,17.52,0,0,0,.55-2.2s.65.1.45.95,4.45-.75,6.5-.95a24.12,24.12,0,0,1,4.1,0s.7-.5.65-.9,1.3.85,0,3.2l-.45-1.15s-9.8,1.2-10.25,1.3a.92.92,0,0,0-.75.95A2.59,2.59,0,0,1,10.63,52.44Z"/><path class="cls-9" d="M13.9,51.84l.5-.45s3.65-.65,4.5.22a14.3,14.3,0,0,1-4.4.62Z"/><ellipse class="cls-1" cx="22.01" cy="26.47" rx="3.51" ry="3.91"/><ellipse class="cls-1" cx="9.43" cy="26.47" rx="3.51" ry="3.91"/><ellipse class="cls-3" cx="9.43" cy="26.47" rx="3.52" ry="3.92"/><g class="cls-10"><path class="cls-11" d="M5.93,26.12s.15.84.9.25a5.09,5.09,0,0,1,2.7-1.19,3.63,3.63,0,0,1,2.55,1.2c.52.54.9,0,.86-.27l.52-.66s-.36-1.54-.41-1.57-.81-1.11-.86-1.12a7.55,7.55,0,0,1-.51-.75l-1.2-.73-3,.39-1.12.88L5.6,24.08Z"/></g><circle class="cls-11" cx="9.73" cy="27.85" r="1.51"/><circle class="cls-1" cx="10.26" cy="27.61" r="0.64"/><path class="cls-12" d="M9.58,33.43a7.07,7.07,0,1,1,7.07-7.07A7.08,7.08,0,0,1,9.58,33.43Zm0-11.4a4.32,4.32,0,1,0,4.32,4.32A4.33,4.33,0,0,0,9.58,22Z"/><path class="cls-12" d="M21.88,33.43A7.07,7.07,0,1,1,29,26.36,7.08,7.08,0,0,1,21.88,33.43Zm0-11.4a4.32,4.32,0,1,0,4.32,4.32A4.33,4.33,0,0,0,21.88,22Z"/><ellipse class="cls-3" cx="22.01" cy="26.47" rx="3.52" ry="3.92"/><g class="cls-13"><path class="cls-11" d="M18.51,26.12s.15.84.9.25a5.09,5.09,0,0,1,2.7-1.19,3.63,3.63,0,0,1,2.55,1.2c.52.54.9,0,.86-.27l.52-.66s-.36-1.54-.41-1.57-.81-1.11-.86-1.12a7.55,7.55,0,0,1-.51-.75l-1.2-.73-3,.39-1.12.88-.75,1.52Z"/></g><circle class="cls-11" cx="22.03" cy="27.85" r="1.49"/><circle class="cls-1" cx="22.55" cy="27.62" r="0.63"/></g></g></svg>