<svg xmlns="http://www.w3.org/2000/svg" xmlns:xlink="http://www.w3.org/1999/xlink" viewBox="0 0 131.82 101.57"><defs><style>.cls-1{fill:#fff;}.cls-2{fill:none;}.cls-3{fill:#e6e6e6;}.cls-4{clip-path:url(#clip-path);}.cls-5{clip-path:url(#clip-path-2);}.cls-6{fill:#e75339;}.cls-7{clip-path:url(#clip-path-3);}.cls-8{fill:#e04d33;}.cls-9{fill:#c23118;}.cls-10{clip-path:url(#clip-path-4);}.cls-11{fill:#d9482e;}.cls-12{fill:#a62610;}.cls-13{clip-path:url(#clip-path-5);}</style><clipPath id="clip-path"><path class="cls-1" d="M90.3,66.86A3.85,3.85,0,1,1,93.85,63,3.71,3.71,0,0,1,90.3,66.86Zm0-5.53A1.72,1.72,0,1,0,91.71,63,1.57,1.57,0,0,0,90.3,61.33Z"/></clipPath><clipPath id="clip-path-2"><path class="cls-1" d="M99.16,66.86A3.85,3.85,0,1,1,102.71,63,3.71,3.71,0,0,1,99.16,66.86Zm0-5.53A1.72,1.72,0,1,0,100.57,63,1.57,1.57,0,0,0,99.16,61.33Z"/></clipPath><clipPath id="clip-path-3"><path class="cls-2" d="M85.71,58.18V78.69a12.5,12.5,0,0,0,1.77,3.44c1.16,1.48,4.2,5.28,7.72,5.55,0,0,4.85-.63,8.78-7.55V58.18l-1.83-3.81S99,52.68,98.82,52.63s-4.86.74-5.16.64-5,1-5,1l-2.12,1.8Z"/></clipPath><clipPath id="clip-path-4"><ellipse class="cls-3" cx="90.3" cy="63.02" rx="2.48" ry="2.77"/></clipPath><clipPath id="clip-path-5"><ellipse class="cls-3" cx="99.16" cy="63.02" rx="2.48" ry="2.77"/></clipPath></defs><title>brand-email</title><g id="Layer_2" data-name="Layer 2"><g id="Layer_1-2" data-name="Layer 1"><path class="cls-1" d="M0,25.07l18.69,6.26,8.14,23.44,17.74-14,17.64,7.12L75.18,0Zm3.88,0L67.83,3.75,19.12,30.17Zm16,6.06L69,4.51,32.17,35l-5.07,16.8Zm8.36,20.93,4.78-15.83,10.19,4.06Zm33.11-5.79L33.81,35.2,73.19,2.65Z"/><rect class="cls-1" x="79.35" y="10.61" width="0.5" height="58.24" transform="translate(-8.36 26.39) rotate(-17.9)"/><polygon class="cls-1" points="88.63 72.81 31.35 49.81 31.53 49.35 88.82 72.34 88.63 72.81"/><path class="cls-1" d="M115.46,70.4h0l11.75.55-4.82-15-9.29,7.35-5.31,1.71,2.28,7.07,3.77-1.22L116.49,79l.79-.26-2.62-8.1ZM114,63.73l8-6.36,4.1,12.7-10.4-.49-1.85-5.74Zm-3.35,7.36-1.78-5.51,4.25-1.37,1.78,5.51Z"/><path class="cls-1" d="M127.94,65.38l-.73-.37a2.9,2.9,0,0,0-1.14-3.54l.37-.74a3.69,3.69,0,0,1,1.63,2A3.64,3.64,0,0,1,127.94,65.38Z"/><path class="cls-1" d="M131.16,66.75l-.73-.37a6.13,6.13,0,0,0-2.55-7.91l.38-.73A7,7,0,0,1,131.16,66.75Z"/><path class="cls-1" d="M98.74,101.57s9.73-5.25,16-1.5"/><path class="cls-1" d="M90.49,66.83A3.82,3.82,0,1,1,94,63,3.68,3.68,0,0,1,90.49,66.83Zm0-5.47A1.69,1.69,0,1,0,91.88,63,1.55,1.55,0,0,0,90.49,61.36Z"/><path class="cls-1" d="M95.26,88.74h-.11c-3.62-.28-6.56-3.53-8.45-6a14.67,14.67,0,0,1-2-3.75l-.06-.17V58l1.11-2.55,2.56-2.12.24-.06c4.07-1,5-1.08,5.37-1s1.93-.24,2.85-.38c2-.3,2.13-.31,2.41-.23a27.89,27.89,0,0,1,3.54,1.84l.31.17,2,4.34V80.4l-.14.25c-4.14,7.3-9.32,8.06-9.54,8.09ZM86.78,78.5a12.37,12.37,0,0,0,1.6,3c.93,1.2,3.75,4.8,6.8,5.13.66-.13,4.43-1.12,7.72-6.76V58.42l-1.52-3.27c-1.09-.59-2.22-1.2-2.68-1.43l-1.62.23a18.51,18.51,0,0,1-3.44.39c-.52.05-2.56.5-4.35.92l-1.78,1.47-.73,1.67ZM93.7,54.33Z"/><path class="cls-1" d="M95.23,88.74h-.11c-4.07-.31-7.39-4.56-8.48-6A13.54,13.54,0,0,1,84.69,79l0-.16V58l1-2.55,2.51-2.13.25-.06c4.08-1,5-1.08,5.38-1s1.93-.24,2.86-.38c2-.3,2.13-.31,2.41-.23a29,29,0,0,1,3.57,1.84l.31.17L105,57.93V80.4l-.14.25c-4.14,7.3-9.35,8.06-9.57,8.09ZM86.78,78.51a11.27,11.27,0,0,0,1.54,3c2.49,3.19,4.79,4.91,6.83,5.13.66-.13,4.46-1.11,7.75-6.76V58.42l-1.57-3.27c-1.1-.59-2.25-1.21-2.71-1.44L97,53.95a18.62,18.62,0,0,1-3.45.39c-.52.05-2.56.5-4.35.92l-1.72,1.46-.68,1.68ZM93.6,54.33Z"/><path class="cls-1" d="M103.5,65.16,102.63,60s-.54-2.94-2.58-4c-1.24-.63-2.87-.45-4.85.52l-3.67,1.81,1.56-2.27a11.22,11.22,0,0,1-2.84,0,2.75,2.75,0,0,0-2.27.63,4.07,4.07,0,0,0-1.14,3.09l.09,4.71-2.12-4.2c-.07-.14-1.67-3.38-.6-6.34a5.87,5.87,0,0,1,3.09-3.3c.47-.87,1.85-2.61,5.43-3.31a13.31,13.31,0,0,1,2.19-.22,3.46,3.46,0,0,0,2.65-.92l2.27-1.9-.53,2.91a6.17,6.17,0,0,1-.23.85A8.12,8.12,0,0,1,100.4,48l1.71-.05-.67,1.48a.79.79,0,0,0,.39-.35l.93-2.28,1,2.24a5.22,5.22,0,0,1,0,3.72c.78,1,1.92,3.31.93,7.39ZM95.88,49.27c-.3,0-.59,0-.88.05a11.15,11.15,0,0,0-1.86.18c-3.33.65-4,2.3-4,2.37l-.15.46-.43.17a3.89,3.89,0,0,0-2.3,2.24,4.07,4.07,0,0,0-.22,1,5,5,0,0,1,.54-.57,4.85,4.85,0,0,1,4-1.17h.06Zm2.55,4.3a5.66,5.66,0,0,1,2.61.61,5.91,5.91,0,0,1,1.78,1.41,3.36,3.36,0,0,0-.93-1.8l-.66-.54.36-.78a3.91,3.91,0,0,0,.34-1,6.6,6.6,0,0,1-2,.39l-1,0-.11-1a2.14,2.14,0,0,1,0-.58,12.14,12.14,0,0,0-1.76.63L90.7,54a6.46,6.46,0,0,0,3.6-.41l1.22-.69.3,1.11A8.19,8.19,0,0,1,98.43,53.56Z"/><path class="cls-1" d="M91.34,83.32,90.3,82a3,3,0,0,1-.56-2.55,11.16,11.16,0,0,0,.35-1.4l.18-1,1,.16a1.5,1.5,0,0,1,1,.64l.07.11c.4-.08.91-.2,1.3-.29a19.08,19.08,0,0,1,2.28-.46,17.06,17.06,0,0,1,2.31-.05l0-.16.72-.38a1.16,1.16,0,0,1,1.35.3,3,3,0,0,1,0,3.49l-1.1,2-.85-2.15c-2.2.27-5.05.63-6,.76a3,3,0,0,1-.26.85Zm9.11-5.86h0Z"/><path class="cls-1" d="M93.87,82.26h-.32L91.71,81l1.6-1.45.3-.05c1.43-.25,3.31-.38,4.13.47l1.16,1.2-1.57.56A11.17,11.17,0,0,1,93.87,82.26Z"/><path class="cls-1" d="M99.16,66.85A3.84,3.84,0,1,1,102.71,63,3.7,3.7,0,0,1,99.16,66.85Zm0-5.51a1.71,1.71,0,1,0,1.4,1.69A1.57,1.57,0,0,0,99.16,61.34Z"/><path class="cls-1" d="M90.3,66.85A3.84,3.84,0,1,1,93.85,63,3.7,3.7,0,0,1,90.3,66.85Zm0-5.51A1.71,1.71,0,1,0,91.7,63,1.57,1.57,0,0,0,90.3,61.34Z"/><path class="cls-1" d="M90.3,66.86A3.85,3.85,0,1,1,93.85,63,3.71,3.71,0,0,1,90.3,66.86Zm0-5.53A1.72,1.72,0,1,0,91.71,63,1.57,1.57,0,0,0,90.3,61.33Z"/><g class="cls-4"><path class="cls-1" d="M92.46,64.19a1.47,1.47,0,0,1-1.06-.48,1.5,1.5,0,0,0-1.11-.53,3.5,3.5,0,0,0-1.16.61,1.45,1.45,0,0,1-1.46.29A1.47,1.47,0,0,1,86.78,63h0l-.29-1.78.79-1.6,1.22-1,2.79-.36,1.39.85.14.22s.14.24.23.36a6.51,6.51,0,0,1,.42.54l.15.21c.25.23.33.56.58,1.64l.12.51-.54.67a1.44,1.44,0,0,1-.7.8A1.35,1.35,0,0,1,92.46,64.19ZM88.71,61.5v0a3.3,3.3,0,0,1,1.78-.48,4.12,4.12,0,0,1,1.09.24l-.09-.12a2.81,2.81,0,0,1-.38-.51l-.3-.19-1.46.19L89,61Z"/></g><path class="cls-1" d="M90.51,66.13A2.14,2.14,0,1,1,92.65,64,2.14,2.14,0,0,1,90.51,66.13Zm0-2.14h0Z"/><path class="cls-1" d="M90.88,65.35a1.52,1.52,0,1,1,1.52-1.52A1.52,1.52,0,0,1,90.88,65.35Zm0-2.14a.62.62,0,1,0,.62.62A.62.62,0,0,0,90.88,63.21Z"/><path class="cls-1" d="M90.4,68a5.09,5.09,0,1,1,5.09-5.09A5.09,5.09,0,0,1,90.4,68Zm0-8a2.95,2.95,0,1,0,2.95,2.95A2.95,2.95,0,0,0,90.4,60Z"/><path class="cls-1" d="M99.07,68a5.09,5.09,0,1,1,5.09-5.09A5.09,5.09,0,0,1,99.07,68Zm0-8A2.95,2.95,0,1,0,102,62.94,2.95,2.95,0,0,0,99.07,60Z"/><path class="cls-1" d="M99.16,66.86A3.85,3.85,0,1,1,102.71,63,3.71,3.71,0,0,1,99.16,66.86Zm0-5.53A1.72,1.72,0,1,0,100.57,63,1.57,1.57,0,0,0,99.16,61.33Z"/><g class="cls-5"><path class="cls-1" d="M101.32,64.19a1.47,1.47,0,0,1-1.06-.48,1.5,1.5,0,0,0-1.11-.53A3.5,3.5,0,0,0,98,63.8a1.46,1.46,0,0,1-1.46.29A1.47,1.47,0,0,1,95.64,63h0l-.29-1.78.79-1.6,1.22-1,2.79-.36,1.39.85.14.22s.14.24.23.36a6.51,6.51,0,0,1,.42.54l.15.21c.25.23.33.56.58,1.64l.12.51-.54.67a1.44,1.44,0,0,1-.7.8A1.36,1.36,0,0,1,101.32,64.19ZM97.57,61.5v0a3.28,3.28,0,0,1,1.78-.48,4.12,4.12,0,0,1,1.09.24l-.09-.12a2.81,2.81,0,0,1-.38-.51l-.3-.19-1.46.19-.37.29Z"/></g><path class="cls-1" d="M99.18,66.11A2.12,2.12,0,1,1,101.3,64,2.12,2.12,0,0,1,99.18,66.11Zm0-2.12a0,0,0,0,0,0,0l1,0Z"/><path class="cls-1" d="M99.54,65.35a1.51,1.51,0,1,1,1.51-1.51A1.52,1.52,0,0,1,99.54,65.35Zm0-2.14a.63.63,0,1,0,.63.63A.63.63,0,0,0,99.54,63.2Z"/><ellipse class="cls-1" cx="90.49" cy="63.02" rx="2.46" ry="2.74"/><path class="cls-6" d="M85.71,58.18V78.69a13.65,13.65,0,0,0,1.83,3.44c1.16,1.48,4.17,5.28,7.69,5.55,0,0,4.82-.63,8.75-7.55V58.18l-1.77-3.81s-3.1-1.69-3.3-1.74-4.84.74-5.14.64-5,1-5,1l-2.17,1.8Z"/><g class="cls-7"><path class="cls-8" d="M86.67,55.8l16.19,29.6-2.41,4s-7.34,1.11-7.59,1-3.72-1.8-3.87-1.9A26.92,26.92,0,0,1,86.36,86C86.11,85.61,83.65,67,83.65,67s1.21-5.24,1.11-5.51S86.67,55.8,86.67,55.8Z"/></g><path class="cls-9" d="M85.77,59.87s-3-6,2.33-8.35c0,0,.74-2.27,4.83-3.07,2.44-.48,3.37.26,5.32-1.37a5.81,5.81,0,0,1-1.63,3,11.35,11.35,0,0,1,3.8-1,6,6,0,0,0-.54,1.8s2.39-.05,2.93-1.37a4.25,4.25,0,0,1-.27,3.49s2.39,1.8,1.14,6.92c0,0-1.36-8-9-4.23a1.59,1.59,0,0,0,.11-1.11,7.3,7.3,0,0,1-4.45.53C87.4,54.69,85.72,57.12,85.77,59.87Z"/><path class="cls-9" d="M91.14,81.33a1.93,1.93,0,0,1-.39-1.55,12.35,12.35,0,0,0,.39-1.55s.46.07.32.67,3.14-.53,4.58-.67a17,17,0,0,1,2.89,0s.49-.35.46-.63.92.6,0,2.26L99.07,79s-6.91.85-7.22.92a.65.65,0,0,0-.53.67A1.82,1.82,0,0,1,91.14,81.33Z"/><path class="cls-9" d="M93.45,80.91l.35-.32s2.57-.46,3.17.16a10.08,10.08,0,0,1-3.1.44Z"/><ellipse class="cls-1" cx="99.16" cy="63.02" rx="2.48" ry="2.76"/><ellipse class="cls-1" cx="90.3" cy="63.02" rx="2.48" ry="2.76"/><ellipse class="cls-3" cx="90.3" cy="63.02" rx="2.48" ry="2.77"/><g class="cls-10"><path class="cls-11" d="M87.83,62.78s.11.59.63.18a3.59,3.59,0,0,1,1.9-.84,2.56,2.56,0,0,1,1.8.85c.37.38.63,0,.61-.19l.37-.46s-.25-1.08-.29-1.11-.57-.78-.61-.79a5.32,5.32,0,0,1-.36-.53L91,59.37l-2.13.28-.79.62-.53,1.07Z"/></g><circle class="cls-11" cx="90.51" cy="63.99" r="1.07"/><circle class="cls-1" cx="90.88" cy="63.83" r="0.45"/><path class="cls-12" d="M90.4,67.93a5,5,0,1,1,5-5A5,5,0,0,1,90.4,67.93Zm0-8a3,3,0,1,0,3,3A3.05,3.05,0,0,0,90.4,59.9Z"/><path class="cls-12" d="M99.07,67.93a5,5,0,1,1,5-5A5,5,0,0,1,99.07,67.93Zm0-8a3,3,0,1,0,3,3A3.05,3.05,0,0,0,99.07,59.9Z"/><ellipse class="cls-3" cx="99.16" cy="63.02" rx="2.48" ry="2.77"/><g class="cls-13"><path class="cls-11" d="M96.69,62.78s.11.59.63.18a3.59,3.59,0,0,1,1.9-.84A2.56,2.56,0,0,1,101,63c.37.38.63,0,.61-.19l.37-.46s-.25-1.08-.29-1.11-.57-.78-.61-.79a5.32,5.32,0,0,1-.36-.53l-.85-.52-2.13.28-.79.62-.53,1.07Z"/></g><circle class="cls-11" cx="99.18" cy="63.99" r="1.05"/><circle class="cls-1" cx="99.54" cy="63.83" r="0.44"/></g></g></svg>